<svg width="50" height="50" viewBox="0 0 50 50" fill="none" xmlns="http://www.w3.org/2000/svg">
<path d="M0 25C0 11.1929 11.1929 0 25 0C38.8071 0 50 11.1929 50 25C50 38.8071 38.8071 50 25 50C11.1929 50 0 38.8071 0 25Z" fill="#006E53"/>
<path fill-rule="evenodd" clip-rule="evenodd" d="M18.0686 40.7688C18.5816 40.7688 18.9566 40.8775 19.1934 41.0948C19.4302 41.3121 19.5487 41.6501 19.549 42.1088V44.5672H18.7794V42.2128C18.7794 41.6944 18.4887 41.4352 17.9074 41.4352C17.6563 41.4331 17.4097 41.5025 17.1966 41.6352C17.2335 41.7903 17.2508 41.9494 17.2482 42.1088V44.5672H16.4786V42.2128C16.4786 41.6944 16.1879 41.4352 15.6066 41.4352C15.3413 41.4354 15.0782 41.4831 14.8298 41.576V44.5672H14.0606V41.154C14.3152 41.0274 14.5848 40.9333 14.863 40.874C15.1597 40.8048 15.4631 40.7689 15.7678 40.7668C16.2478 40.7668 16.6044 40.8601 16.8378 41.0468C17.2221 40.8632 17.6427 40.7682 18.0686 40.7688ZM22.1858 44.68C21.5991 44.68 21.1582 44.5121 20.863 44.1764C20.5678 43.8407 20.42 43.352 20.4198 42.7104C20.4198 41.412 21.0064 40.7629 22.1798 40.7632C22.771 40.7632 23.2155 40.9297 23.5134 41.2628C23.8112 41.5959 23.9603 42.0784 23.9606 42.7104C23.9606 43.3419 23.8067 43.828 23.499 44.1688C23.1912 44.5096 22.7535 44.68 22.1858 44.68ZM22.1782 44.0208C22.8526 44.0208 23.1896 43.584 23.1894 42.7104C23.1894 42.276 23.1094 41.9515 22.9494 41.7368C22.7894 41.5221 22.5328 41.4147 22.1798 41.4144C21.8232 41.4144 21.568 41.5243 21.4142 41.744C21.2603 41.9637 21.1834 42.2859 21.1834 42.7104C21.1834 43.1347 21.2627 43.4592 21.4214 43.684C21.58 43.9088 21.8323 44.0205 22.1782 44.0192V44.0208ZM26.5298 40.7704C27.077 40.7704 27.4922 40.9357 27.7754 41.2664C28.0586 41.5971 28.2006 42.0655 28.2014 42.6716C28.2014 43.4023 28.0316 43.9193 27.6922 44.2228C27.3527 44.5263 26.9212 44.6787 26.3978 44.68C25.3474 44.68 24.8222 44.3987 24.8222 43.836V39.362H25.5846V41C25.7379 40.9267 25.8989 40.8708 26.0646 40.8332C26.2167 40.7942 26.3728 40.7725 26.5298 40.7688V40.7704ZM26.339 44.006C26.739 44.006 27.019 43.89 27.179 43.658C27.339 43.426 27.419 43.1076 27.419 42.7028C27.419 42.2884 27.3347 41.9725 27.1662 41.7552C26.9976 41.5379 26.7474 41.4293 26.4154 41.4296C26.2707 41.4306 26.1267 41.4491 25.9866 41.4848C25.8463 41.5187 25.7116 41.5726 25.5866 41.6448V43.6448C25.5852 43.8848 25.836 44.0047 26.339 44.0044V44.006ZM29.071 39.556H29.8918V40.2596H29.071V39.556ZM29.093 40.874H29.8626L29.8698 44.5688H29.093V40.874ZM30.953 44.5688V39.4436H31.7154V44.5672L30.953 44.5688ZM34.2934 40.76C34.8651 40.76 35.284 40.9467 35.5502 41.32C35.8163 41.6933 35.947 42.2153 35.9422 42.886H33.3614C33.3862 43.2513 33.4928 43.5291 33.6814 43.7192C33.8699 43.9093 34.1374 44.0043 34.4838 44.004C34.8988 44.0044 35.3071 43.9 35.671 43.7004V44.426C35.2899 44.5953 34.8534 44.68 34.3614 44.68C33.8094 44.68 33.3758 44.5109 33.0606 44.1728C32.7454 43.8347 32.5879 43.3547 32.5882 42.7328C32.5882 42.096 32.7371 41.6087 33.035 41.2708C33.3328 40.9329 33.7523 40.7627 34.2934 40.76ZM34.2714 41.4C34.0124 41.4 33.8098 41.4692 33.6634 41.6076C33.517 41.746 33.4216 41.9804 33.3774 42.3108H35.1582C35.1238 41.9948 35.0358 41.7641 34.8942 41.6188C34.7526 41.4735 34.545 41.4005 34.2714 41.4ZM26.9214 10.9384C26.0726 10.7285 25.4192 10.6235 24.9614 10.6232C21.5458 10.6232 18.7766 13.3832 18.7766 16.7868C18.7766 20.1904 21.547 22.9508 24.9614 22.9508C28.3758 22.9508 31.1466 20.1908 31.1466 16.7868C31.1468 16.2895 31.0869 15.7941 30.9682 15.3112L35.8854 13.9868C36.2837 15.5011 36.359 17.0822 36.1065 18.6275C35.8539 20.1728 35.2791 21.6477 34.4194 22.9564L26.277 38.052H18.7338L24.0938 28.172C24.123 28.1176 24.037 27.9976 23.965 27.9912C18.2374 27.4712 13.751 22.6712 13.751 16.8276C13.751 10.636 18.787 5.61719 24.9998 5.61719C26.1371 5.61594 27.268 5.78681 28.3542 6.12399L26.9214 10.9384Z" fill="#D6E806"/>
<path d="M24.9232 20.177C26.7954 20.177 28.3132 18.6592 28.3132 16.787C28.3132 14.9147 26.7954 13.397 24.9232 13.397C23.051 13.397 21.5332 14.9147 21.5332 16.787C21.5332 18.6592 23.051 20.177 24.9232 20.177Z" fill="white"/>
<path d="M30.7791 14.4757C30.1918 13.0056 29.0599 11.8187 27.6191 11.1625L30.7791 14.4757ZM32.9367 13.5509C32.1073 11.5119 30.5389 9.86103 28.5451 8.92814L32.9367 13.5509ZM35.0171 12.8577C33.9606 10.1697 31.883 8.00907 29.2383 6.84814L35.0171 12.8577Z" fill="white"/>
<path d="M30.7791 14.4757C30.1918 13.0056 29.0599 11.8187 27.6191 11.1625M32.9367 13.5509C32.1073 11.5119 30.5389 9.86103 28.5451 8.92814M35.0171 12.8577C33.9606 10.1697 31.883 8.00907 29.2383 6.84814" stroke="white" stroke-width="0.761425" stroke-linecap="round"/>
</svg>
