<svg width="50" height="50" viewBox="0 0 50 50" fill="none" xmlns="http://www.w3.org/2000/svg">
<path d="M0 25C0 11.1929 11.1929 0 25 0C38.8071 0 50 11.1929 50 25C50 38.8071 38.8071 50 25 50C11.1929 50 0 38.8071 0 25Z" fill="#F8FAFC"/>
<g clip-path="url(#clip0_24584_155465)">
<path d="M23.4129 14.0322L34.953 25.4704L25.0148 35.3757L15.047 25.4704L19.8529 20.5472H17.8653L13 25.4704L25.0148 37.4098L37 25.4704L23.4722 11.998L23.4129 14.0322Z" fill="#F57E20"/>
<path d="M23.4718 20.5762L21.3952 20.5468L16.5596 25.4699L25.0145 33.8422L33.4397 25.4699L23.4718 15.5352L23.4421 17.4808L31.4817 25.4699L25.0145 31.926L18.5769 25.4699L23.4718 20.5762Z" fill="#F57E20"/>
<path d="M24.9861 22.5808L27.9231 25.4699L24.9861 28.3589L22.0492 25.4699L24.9861 22.5808ZM29.9107 25.4699L24.9861 20.5762L20.0615 25.4699L24.9861 30.3635L29.9107 25.4699Z" fill="#F57E20"/>
</g>
<defs>
<clipPath id="clip0_24584_155465">
<rect width="24" height="25.4118" fill="white" transform="translate(13 12)"/>
</clipPath>
</defs>
</svg>
