<svg width="52" height="55" viewBox="0 0 52 55" fill="none" xmlns="http://www.w3.org/2000/svg">
<circle cx="26" cy="28.2505" r="25.5" fill="#CFD8E3" stroke="#F9FAFB"/>
<mask id="mask0" mask-type="alpha" maskUnits="userSpaceOnUse" x="0" y="0" width="52" height="53">
<circle cx="26" cy="26.9502" r="25.5" fill="#C4C4C4" stroke="#F9FAFB"/>
</mask>
<g mask="url(#mask0)">
<path d="M41.6963 50.209C39.767 52.0974 37.474 52.9858 34.883 53.3997C32.5872 53.7665 30.0926 53.7571 27.4253 53.747C26.9831 53.7453 26.5361 53.7436 26.0845 53.7436C25.7136 53.7436 25.3457 53.7445 24.9809 53.7454C22.1911 53.7523 19.5856 53.7586 17.199 53.3575C14.5842 52.9179 12.2734 51.9939 10.3369 50.0627V47.4591C10.3369 44.1584 13.0099 41.4805 16.3088 41.4805H35.7244C39.0233 41.4805 41.6963 44.1584 41.6963 47.4591V50.209Z" fill="#E2E8F0" stroke="#F9FAFB"/>
<path d="M16.9766 26.9139C16.9766 21.7631 21.0359 17.6123 26.0168 17.6123C30.998 17.6123 35.0603 21.7633 35.0603 26.9139C35.0603 32.0678 30.9979 36.2187 26.0168 36.2187C21.036 36.2187 16.9766 32.068 16.9766 26.9139Z" fill="#E2E8F0" stroke="#F9FAFB"/>
</g>
</svg>
