<svg width="50" height="50" viewBox="0 0 50 50" fill="none" xmlns="http://www.w3.org/2000/svg">
<rect width="50" height="50" rx="25" fill="#F1F5F9"/>
<rect x="18" y="14" width="14" height="21" rx="2" fill="#94A3B8"/>
<rect x="22" y="16" width="6" height="1" rx="0.5" fill="#EBF5FF"/>
<path d="M41 32.5C45.6944 32.5 49.5 36.3056 49.5 41C49.5 45.6944 45.6944 49.5 41 49.5C36.3056 49.5 32.5 45.6944 32.5 41C32.5 36.3056 36.3056 32.5 41 32.5Z" fill="#ED1C24"/>
<path d="M41 32.5C45.6944 32.5 49.5 36.3056 49.5 41C49.5 45.6944 45.6944 49.5 41 49.5C36.3056 49.5 32.5 45.6944 32.5 41C32.5 36.3056 36.3056 32.5 41 32.5Z" stroke="#EBF5FF"/>
<path d="M45.0746 46.5899C44.9651 46.5899 44.8766 46.4963 44.8766 46.3818V44.0391L44.3472 44.121V46.3643C44.3472 46.6907 44.6003 46.9547 44.9122 46.9547H45.2066V46.5899H45.0746Z" fill="white"/>
<path d="M38.9434 46.9554H39.4728V44.7266L38.9434 44.8078V46.9554Z" fill="white"/>
<path d="M39.8101 45.1167V46.9553H40.3402V45.4974L40.3373 45.3255C40.3373 45.0536 40.948 45.1058 40.948 45.1058L41.1388 44.6887C40.2931 44.4487 39.8101 45.1174 39.8101 45.1174V45.1167Z" fill="white"/>
<path d="M41.8366 46.3818V45.0907H42.155V44.6853H41.8366V44.0391L41.3071 44.121V46.3643C41.3071 46.6907 41.5603 46.9547 41.8721 46.9547H42.1666V46.5899H42.0346C41.9251 46.5899 41.8366 46.4963 41.8366 46.3818Z" fill="white"/>
<path d="M39.2092 43.8438C39.0279 43.8438 38.8813 43.9903 38.8813 44.1716C38.8813 44.3529 39.0279 44.4994 39.2092 44.4994C39.3905 44.4994 39.537 44.3529 39.537 44.1716C39.537 43.9903 39.3905 43.8438 39.2092 43.8438Z" fill="white"/>
<path d="M43.1687 46.5417C42.8169 46.4068 42.843 45.8817 42.843 45.8817H44.1152C44.1152 45.2224 43.9563 44.6523 43.3159 44.6523C42.6755 44.6523 42.2954 45.1223 42.2954 45.7816C42.2954 46.4409 42.7016 46.9544 43.342 46.9544C43.5966 46.9544 43.9447 46.8703 44.1355 46.7274L43.9541 46.4119C43.9541 46.4119 43.5197 46.6766 43.1679 46.5425L43.1687 46.5417ZM43.2426 45.0563C43.5465 45.0563 43.6075 45.4857 43.6075 45.4857H42.8778C42.8778 45.4857 42.9387 45.0563 43.2426 45.0563Z" fill="white"/>
<path d="M37.8961 44.6687C37.8961 44.6687 37.672 44.6716 37.4464 44.7151C37.2346 44.7557 37.0221 44.9015 37.0221 44.9015L37.1904 45.2475C37.1904 45.2475 37.4072 45.0437 37.7459 45.0437C38.1978 45.0437 38.134 45.4963 38.134 45.4963C37.2542 45.3157 36.8219 45.7675 36.8342 46.2331C36.84 46.4449 36.8683 46.6589 37.1091 46.8177C37.8794 47.3276 38.6264 46.5864 38.6264 46.5864V45.357C38.6264 44.9885 38.2993 44.668 37.8953 44.668L37.8961 44.6687ZM38.1224 46.5117C38.1224 46.5117 37.7749 46.6741 37.5523 46.5407C37.3296 46.4072 37.3557 46.0431 37.5653 45.93C37.7749 45.8168 38.1224 45.8865 38.1224 45.8865V46.5117Z" fill="white"/>
<path d="M38.4275 36.8631C36.0311 39.0339 36.8949 39.7563 37.4686 40.0348C38.0416 40.3133 38.8061 39.9311 39.7613 39.184C40.7165 38.437 42.9279 36.9958 43.4494 37.7131C43.9701 38.4312 43.9817 39.8556 41.7471 41.7312C39.5125 43.6068 39.049 42.5102 40.1522 41.65C41.2554 40.7898 41.0523 40.2719 40.5315 40.1965C39.9847 40.1175 39.5125 40.2487 39.0266 41.1408C39.0266 41.1408 38.2824 42.5784 39.2347 42.9468C39.8984 43.2036 41.8574 42.413 43.2963 40.9639C44.3567 39.8962 45.132 38.6197 44.8071 36.9167C44.3814 34.685 40.8245 34.6908 38.4282 36.8623L38.4275 36.8631Z" fill="white"/>
</svg>
