<svg width="50" height="50" viewBox="0 0 50 50" fill="none" xmlns="http://www.w3.org/2000/svg">
<path d="M0 25C0 11.1929 11.1929 0 25 0C38.8071 0 50 11.1929 50 25C50 38.8071 38.8071 50 25 50C11.1929 50 0 38.8071 0 25Z" fill="#ED1C24"/>
<path d="M35.7649 39.9802C35.4607 39.9802 35.2149 39.7203 35.2149 39.402V32.8945L33.7441 33.1222V39.3536C33.7441 40.2603 34.4473 40.9936 35.3136 40.9936H36.1316V39.9802H35.7649Z" fill="white"/>
<path d="M18.7324 40.9958H20.2032V34.8047L18.7324 35.0303V40.9958Z" fill="white"/>
<path d="M21.1416 35.8879V40.9951H22.6143V36.9456L22.6063 36.4681C22.6063 35.7126 24.3027 35.8576 24.3027 35.8576L24.8325 34.6992C22.4834 34.0323 21.1416 35.8899 21.1416 35.8899V35.8879Z" fill="white"/>
<path d="M26.7676 39.402V35.8158H27.6521V34.6896H26.7676V32.8945L25.2969 33.1222V39.3536C25.2969 40.2603 26 40.9936 26.8663 40.9936H27.6843V39.9802H27.3176C27.0134 39.9802 26.7676 39.7203 26.7676 39.402Z" fill="white"/>
<path d="M19.4692 32.3555C18.9656 32.3555 18.5586 32.7624 18.5586 33.2661C18.5586 33.7698 18.9656 34.1768 19.4692 34.1768C19.9729 34.1768 20.3799 33.7698 20.3799 33.2661C20.3799 32.7624 19.9729 32.3555 19.4692 32.3555Z" fill="white"/>
<path d="M30.4677 39.8498C29.4906 39.4751 29.5631 38.0165 29.5631 38.0165H33.0969C33.0969 36.1851 32.6556 34.6016 30.8767 34.6016C29.0977 34.6016 28.042 35.9071 28.042 37.7384C28.042 39.5698 29.1702 40.9962 30.9492 40.9962C31.6564 40.9962 32.6234 40.7625 33.1533 40.3656L32.6496 39.4892C32.6496 39.4892 31.4428 40.2246 30.4657 39.8519L30.4677 39.8498ZM30.6732 35.7237C31.5173 35.7237 31.6866 36.9164 31.6866 36.9164H29.6598C29.6598 36.9164 29.829 35.7237 30.6732 35.7237Z" fill="white"/>
<path d="M15.8233 34.6426C15.8233 34.6426 15.2007 34.6507 14.5742 34.7716C13.9859 34.8844 13.3956 35.2894 13.3956 35.2894L13.863 36.2504C13.863 36.2504 14.4654 35.6842 15.4062 35.6842C16.6614 35.6842 16.4841 36.9414 16.4841 36.9414C14.0403 36.4397 12.8395 37.6949 12.8738 38.9883C12.8899 39.5766 12.9685 40.171 13.6373 40.6122C15.7769 42.0285 17.8521 39.9695 17.8521 39.9695V36.5546C17.8521 35.5311 16.9434 34.6406 15.8213 34.6406L15.8233 34.6426ZM16.4519 39.762C16.4519 39.762 15.4868 40.2133 14.8683 39.8426C14.2498 39.4719 14.3223 38.4605 14.9046 38.1462C15.4868 37.8319 16.4519 38.0253 16.4519 38.0253V39.762Z" fill="white"/>
<path d="M17.2994 12.9606C10.6428 18.9906 13.0423 20.9972 14.6359 21.7708C16.2276 22.5445 18.351 21.4827 21.0044 19.4076C23.6578 17.3325 29.8006 13.3293 31.2491 15.3218C32.6957 17.3163 32.7279 21.2732 26.5206 26.4832C20.3134 31.6932 19.026 28.647 22.0903 26.2576C25.1547 23.8681 24.5906 22.4296 23.144 22.2201C21.6249 22.0005 20.3134 22.3652 18.9635 24.8433C18.9635 24.8433 16.8964 28.8364 19.5417 29.8598C21.3852 30.573 26.8269 28.377 30.824 24.3517C33.7695 21.386 35.9232 17.8402 35.0206 13.1097C33.838 6.91044 23.9579 6.92656 17.3014 12.9586L17.2994 12.9606Z" fill="white"/>
</svg>
