<svg width="78" height="29" viewBox="0 0 78 29" fill="none" xmlns="http://www.w3.org/2000/svg">
<path d="M8.01746 0.874023H70.5009C71.6706 0.874023 72.5293 0.874419 73.2108 0.920898C73.8042 0.961387 74.2427 1.03625 74.6151 1.16699L74.7714 1.22656C75.8337 1.6667 76.6916 2.48521 77.1815 3.51953L77.2743 3.72949C77.4426 4.13575 77.5337 4.6118 77.58 5.29004C77.6264 5.97158 77.6268 6.83022 77.6268 8V21C77.6268 22.1698 77.6264 23.0284 77.58 23.71C77.5395 24.3034 77.4646 24.7418 77.3339 25.1143L77.2743 25.2705C76.8341 26.3329 76.0157 27.1907 74.9813 27.6807L74.7714 27.7734C74.3651 27.9417 73.8891 28.0328 73.2108 28.0791C72.5293 28.1256 71.6706 28.126 70.5009 28.126H8.01746C6.84768 28.126 5.98904 28.1256 5.3075 28.0791C4.71406 28.0386 4.27563 27.9638 3.9032 27.833L3.74695 27.7734C2.68459 27.3333 1.82672 26.5148 1.33679 25.4805L1.24402 25.2705C1.07574 24.8643 0.98463 24.3882 0.938354 23.71C0.891873 23.0284 0.891479 22.1698 0.891479 21V8C0.891479 6.83023 0.891873 5.97158 0.938354 5.29004C0.978845 4.6966 1.0537 4.25817 1.18445 3.88574L1.24402 3.72949C1.68416 2.66714 2.50266 1.80927 3.53699 1.31934L3.74695 1.22656C4.1532 1.05829 4.62926 0.967174 5.3075 0.920898C5.98904 0.874417 6.84768 0.874023 8.01746 0.874023Z" fill="#0C0D10"/>
<path d="M8.01746 0.874023H70.5009C71.6706 0.874023 72.5293 0.874419 73.2108 0.920898C73.8042 0.961387 74.2427 1.03625 74.6151 1.16699L74.7714 1.22656C75.8337 1.6667 76.6916 2.48521 77.1815 3.51953L77.2743 3.72949C77.4426 4.13575 77.5337 4.6118 77.58 5.29004C77.6264 5.97158 77.6268 6.83022 77.6268 8V21C77.6268 22.1698 77.6264 23.0284 77.58 23.71C77.5395 24.3034 77.4646 24.7418 77.3339 25.1143L77.2743 25.2705C76.8341 26.3329 76.0157 27.1907 74.9813 27.6807L74.7714 27.7734C74.3651 27.9417 73.8891 28.0328 73.2108 28.0791C72.5293 28.1256 71.6706 28.126 70.5009 28.126H8.01746C6.84768 28.126 5.98904 28.1256 5.3075 28.0791C4.71406 28.0386 4.27563 27.9638 3.9032 27.833L3.74695 27.7734C2.68459 27.3333 1.82672 26.5148 1.33679 25.4805L1.24402 25.2705C1.07574 24.8643 0.98463 24.3882 0.938354 23.71C0.891873 23.0284 0.891479 22.1698 0.891479 21V8C0.891479 6.83023 0.891873 5.97158 0.938354 5.29004C0.978845 4.6966 1.0537 4.25817 1.18445 3.88574L1.24402 3.72949C1.68416 2.66714 2.50266 1.80927 3.53699 1.31934L3.74695 1.22656C4.1532 1.05829 4.62926 0.967174 5.3075 0.920898C5.98904 0.874417 6.84768 0.874023 8.01746 0.874023Z" stroke="#A6A6A6" stroke-width="0.748071"/>
<path d="M49.8505 14.1949V15.5317H49.0692V16.4084H49.8505V19.3872C49.8505 20.4043 50.2796 20.8112 51.359 20.8112C51.5487 20.8112 51.7294 20.787 51.8875 20.7579V19.8909C51.752 19.9055 51.6662 19.9151 51.5171 19.9151C51.0339 19.9151 50.8216 19.673 50.8216 19.1208V16.4084H51.8875V15.5317H50.8216V14.1949H49.8505Z" fill="white"/>
<path d="M54.6373 20.8839C56.0736 20.8839 56.9543 19.8522 56.9543 18.1424C56.9543 16.4423 56.069 15.4058 54.6373 15.4058C53.2011 15.4058 52.3158 16.4423 52.3158 18.1424C52.3158 19.8522 53.1965 20.8839 54.6373 20.8839ZM54.6373 19.9587C53.7927 19.9587 53.3185 19.2952 53.3185 18.1424C53.3185 16.9993 53.7927 16.3309 54.6373 16.3309C55.4774 16.3309 55.9561 16.9993 55.9561 18.1424C55.9561 19.2903 55.4774 19.9587 54.6373 19.9587Z" fill="white"/>
<path d="M57.7078 20.7821H58.6789V17.6677C58.6789 16.9267 59.1983 16.4278 59.9345 16.4278C60.1061 16.4278 60.3951 16.4617 60.4764 16.4908V15.4639C60.3726 15.4349 60.1874 15.4203 60.0429 15.4203C59.4015 15.4203 58.855 15.7981 58.715 16.3164H58.6427V15.5075H57.7078V20.7821Z" fill="white"/>
<path d="M62.8875 16.2922C63.6057 16.2922 64.0754 16.8298 64.098 17.658H61.6139C61.6681 16.8346 62.1694 16.2922 62.8875 16.2922ZM64.0934 19.3581C63.9128 19.7698 63.5108 19.9975 62.9237 19.9975C62.1468 19.9975 61.6455 19.4114 61.6139 18.4863V18.4282H65.0871V18.0649C65.0871 16.4084 64.2606 15.4058 62.8921 15.4058C61.5055 15.4058 60.6248 16.4762 60.6248 18.1618C60.6248 19.8473 61.4874 20.8839 62.8966 20.8839C64.0212 20.8839 64.8071 20.3026 65.0284 19.3581H64.0934Z" fill="white"/>
<path d="M43.4825 18.8343C43.5574 20.1295 44.5639 20.9578 46.0619 20.9578C47.6629 20.9578 48.6647 20.0894 48.6647 18.7038C48.6647 17.6144 48.0935 17.012 46.7079 16.6656L45.9636 16.4698C45.0835 16.2489 44.7277 15.9527 44.7277 15.4356C44.7277 14.783 45.2801 14.3563 46.1087 14.3563C46.8951 14.3563 47.4382 14.773 47.5365 15.4406H48.557C48.4961 14.2207 47.4943 13.3623 46.1227 13.3623C44.6482 13.3623 43.6651 14.2207 43.6651 15.5109C43.6651 16.5752 44.2222 17.2078 45.444 17.514L46.3147 17.7399C47.2088 17.9658 47.602 18.2971 47.602 18.8494C47.602 19.4919 46.9841 19.9588 46.1415 19.9588C45.238 19.9588 44.6107 19.5221 44.5218 18.8343H43.4825Z" fill="white"/>
<path d="M33.4234 15.4203C32.755 15.4203 32.1769 15.7787 31.8788 16.3794H31.8065V15.5075H30.8716V22.5355H31.8427V19.983H31.9194C32.1769 20.54 32.7324 20.8693 33.4325 20.8693C34.6745 20.8693 35.4649 19.8183 35.4649 18.1424C35.4649 16.4665 34.6745 15.4203 33.4234 15.4203ZM33.1479 19.9345C32.335 19.9345 31.8246 19.2467 31.8246 18.1472C31.8246 17.0429 32.335 16.3551 33.1524 16.3551C33.9745 16.3551 34.4668 17.0284 34.4668 18.1424C34.4668 19.2613 33.9745 19.9345 33.1479 19.9345Z" fill="white"/>
<path d="M38.8628 15.4203C38.1943 15.4203 37.6162 15.7787 37.3181 16.3794H37.2459V15.5075H36.3109V22.5355H37.282V19.983H37.3588C37.6162 20.54 38.1717 20.8693 38.8718 20.8693C40.1138 20.8693 40.9042 19.8183 40.9042 18.1424C40.9042 16.4665 40.1138 15.4203 38.8628 15.4203ZM38.5873 19.9345C37.7743 19.9345 37.2639 19.2467 37.2639 18.1472C37.2639 17.0429 37.7743 16.3551 38.5918 16.3551C39.4138 16.3551 39.9061 17.0284 39.9061 18.1424C39.9061 19.2613 39.4138 19.9345 38.5873 19.9345Z" fill="white"/>
<path d="M29.1294 20.7821H30.2435L27.8046 13.538H26.6764L24.2375 20.7821H25.3142L25.9368 18.8594H28.5115L29.1294 20.7821ZM27.1867 14.8533H27.2662L28.2446 17.9156H26.2036L27.1867 14.8533Z" fill="white"/>
<path d="M24.3883 5.70649V9.90318H25.8091C26.9818 9.90318 27.6608 9.13248 27.6608 7.79175C27.6608 6.47138 26.9763 5.70649 25.8091 5.70649H24.3883ZM24.9991 6.29979H25.7409C26.5563 6.29979 27.039 6.85236 27.039 7.80047C27.039 8.76312 26.5645 9.30989 25.7409 9.30989H24.9991V6.29979Z" fill="white"/>
<path d="M29.7405 9.96426C30.6077 9.96426 31.1395 9.34479 31.1395 8.31815C31.1395 7.29734 30.605 6.67496 29.7405 6.67496C28.8733 6.67496 28.3388 7.29734 28.3388 8.31815C28.3388 9.34479 28.8706 9.96426 29.7405 9.96426ZM29.7405 9.40877C29.2305 9.40877 28.9442 9.01033 28.9442 8.31815C28.9442 7.63179 29.2305 7.23044 29.7405 7.23044C30.2478 7.23044 30.5368 7.63179 30.5368 8.31815C30.5368 9.00742 30.2478 9.40877 29.7405 9.40877Z" fill="white"/>
<path d="M35.6682 6.73603H35.0819L34.5528 9.15284H34.5064L33.8956 6.73603H33.3338L32.7229 9.15284H32.6793L32.1475 6.73603H31.553L32.3711 9.90318H32.9738L33.5847 7.57072H33.631L34.2446 9.90318H34.8528L35.6682 6.73603Z" fill="white"/>
<path d="M36.3434 9.90318H36.9298V8.05059C36.9298 7.55618 37.2052 7.24789 37.6388 7.24789C38.0724 7.24789 38.2797 7.50092 38.2797 8.00987V9.90318H38.866V7.85282C38.866 7.09957 38.5006 6.67496 37.8379 6.67496C37.3906 6.67496 37.0961 6.88726 36.9516 7.23917H36.9079V6.73603H36.3434V9.90318Z" fill="white"/>
<path d="M39.7894 9.90318H40.3758V5.5H39.7894V9.90318Z" fill="white"/>
<path d="M42.5809 9.96426C43.4481 9.96426 43.9799 9.34479 43.9799 8.31815C43.9799 7.29734 43.4454 6.67496 42.5809 6.67496C41.7137 6.67496 41.1792 7.29734 41.1792 8.31815C41.1792 9.34479 41.711 9.96426 42.5809 9.96426ZM42.5809 9.40877C42.0709 9.40877 41.7846 9.01033 41.7846 8.31815C41.7846 7.63179 42.0709 7.23044 42.5809 7.23044C43.0882 7.23044 43.3772 7.63179 43.3772 8.31815C43.3772 9.00742 43.0882 9.40877 42.5809 9.40877Z" fill="white"/>
<path d="M45.7269 9.42913C45.4079 9.42913 45.176 9.26335 45.176 8.97834C45.176 8.69914 45.3615 8.55082 45.7706 8.52173L46.496 8.47229V8.73695C46.496 9.12957 46.1687 9.42913 45.7269 9.42913ZM45.5769 9.95553C45.9669 9.95553 46.2914 9.77522 46.4687 9.45821H46.5151V9.90318H47.0796V7.7394C47.0796 7.07049 46.6596 6.67496 45.9151 6.67496C45.2415 6.67496 44.7615 7.02395 44.7015 7.56781H45.2688C45.3342 7.34387 45.5606 7.2159 45.8878 7.2159C46.2887 7.2159 46.496 7.40494 46.496 7.7394V8.01278L45.6915 8.06222C44.9851 8.10875 44.587 8.43739 44.587 9.00742C44.587 9.58618 45.0042 9.95553 45.5769 9.95553Z" fill="white"/>
<path d="M49.0693 9.95553C49.4784 9.95553 49.8247 9.74904 50.002 9.40295H50.0483V9.90318H50.6101V5.5H50.0238V7.23917H49.9802C49.8192 6.89017 49.4756 6.68368 49.0693 6.68368C48.3193 6.68368 47.8366 7.31769 47.8366 8.31815C47.8366 9.32152 48.3139 9.95553 49.0693 9.95553ZM49.2356 7.24499C49.7265 7.24499 50.0347 7.66087 50.0347 8.32106C50.0347 8.98416 49.7293 9.39423 49.2356 9.39423C48.7393 9.39423 48.4421 8.98997 48.4421 8.31815C48.4421 7.65215 48.742 7.24499 49.2356 7.24499Z" fill="white"/>
<path d="M54.4123 9.96426C55.2795 9.96426 55.8113 9.34479 55.8113 8.31815C55.8113 7.29734 55.2768 6.67496 54.4123 6.67496C53.545 6.67496 53.0105 7.29734 53.0105 8.31815C53.0105 9.34479 53.5423 9.96426 54.4123 9.96426ZM54.4123 9.40877C53.9023 9.40877 53.616 9.01033 53.616 8.31815C53.616 7.63179 53.9023 7.23044 54.4123 7.23044C54.9195 7.23044 55.2086 7.63179 55.2086 8.31815C55.2086 9.00742 54.9195 9.40877 54.4123 9.40877Z" fill="white"/>
<path d="M56.5874 9.90318H57.1738V8.05059C57.1738 7.55618 57.4492 7.24789 57.8828 7.24789C58.3164 7.24789 58.5237 7.50092 58.5237 8.00987V9.90318H59.11V7.85282C59.11 7.09957 58.7446 6.67496 58.0819 6.67496C57.6346 6.67496 57.3401 6.88726 57.1956 7.23917H57.1519V6.73603H56.5874V9.90318Z" fill="white"/>
<path d="M61.8104 5.94788V6.75057H61.3386V7.27698H61.8104V9.06559C61.8104 9.67633 62.0695 9.92063 62.7213 9.92063C62.8358 9.92063 62.9449 9.90609 63.0404 9.88864V9.36805C62.9585 9.37678 62.9067 9.38259 62.8167 9.38259C62.5249 9.38259 62.3967 9.23718 62.3967 8.90563V7.27698H63.0404V6.75057H62.3967V5.94788H61.8104Z" fill="white"/>
<path d="M63.8274 9.90318H64.4137V8.0535C64.4137 7.57363 64.681 7.2508 65.161 7.2508C65.5755 7.2508 65.7964 7.50673 65.7964 8.01278V9.90318H66.3827V7.85864C66.3827 7.10539 65.9927 6.67787 65.36 6.67787C64.9128 6.67787 64.5992 6.89017 64.4546 7.24499H64.4083V5.5H63.8274V9.90318Z" fill="white"/>
<path d="M68.4979 7.20718C68.9315 7.20718 69.2151 7.53 69.2287 8.02732H67.7288C67.7615 7.53291 68.0643 7.20718 68.4979 7.20718ZM69.226 9.04814C69.1169 9.29535 68.8742 9.43204 68.5197 9.43204C68.0506 9.43204 67.7479 9.08013 67.7288 8.52464V8.48974H69.826V8.27162C69.826 7.27698 69.3269 6.67496 68.5006 6.67496C67.6634 6.67496 67.1316 7.31769 67.1316 8.32979C67.1316 9.34188 67.6525 9.96426 68.5033 9.96426C69.1824 9.96426 69.6569 9.61526 69.7905 9.04814H69.226Z" fill="white"/>
<path d="M17.2404 13.8296C17.2547 12.6516 17.8478 11.5371 18.7889 10.9201C18.1952 10.0159 17.2009 9.44265 16.1664 9.40814C15.063 9.28462 13.9933 10.1123 13.431 10.1123C12.8579 10.1123 11.9922 9.4204 11.06 9.44085C9.84486 9.48272 8.71208 10.2195 8.12091 11.3524C6.85012 13.6987 7.79802 17.147 9.01532 19.0436C9.62437 19.9724 10.3362 21.0098 11.2675 20.973C12.1789 20.9327 12.5193 20.3532 13.6195 20.3532C14.7094 20.3532 15.0288 20.973 15.979 20.9496C16.957 20.9327 17.5732 20.0167 18.1609 19.0792C18.5985 18.4175 18.9352 17.6861 19.1586 16.9122C18.0093 16.3938 17.2418 15.1604 17.2404 13.8296Z" fill="white"/>
<path d="M15.4455 8.16083C15.9787 7.47817 16.2415 6.60073 16.1778 5.71484C15.3632 5.80609 14.6107 6.22132 14.0702 6.87779C13.5417 7.51919 13.2667 8.38119 13.3187 9.23322C14.1337 9.24217 14.9348 8.8382 15.4455 8.16083Z" fill="white"/>
</svg>
