<svg width="24" height="24" viewBox="0 0 24 24" fill="none" xmlns="http://www.w3.org/2000/svg">
<g id="Group">
<path id="Path" d="M2.99609 7.99826H21.0036" stroke="#64748B" stroke-width="1.5" stroke-linecap="round" stroke-linejoin="round"/>
<path id="Path_2" d="M10.8654 5.4913L10.8604 5.4963L10.8654 5.5013L10.8704 5.4963L10.8654 5.4913" stroke="#64748B" stroke-width="1.5" stroke-linecap="round" stroke-linejoin="round"/>
<path id="Path_3" d="M8.32443 5.4913L8.31942 5.4963L8.32443 5.5013L8.32943 5.4963L8.32443 5.4913" stroke="#64748B" stroke-width="1.5" stroke-linecap="round" stroke-linejoin="round"/>
<path id="Path_4" d="M5.7756 5.48739L5.7706 5.4924L5.7756 5.4974L5.7806 5.4924L5.7756 5.48739" stroke="#64748B" stroke-width="1.5" stroke-linecap="round" stroke-linejoin="round"/>
<path id="Path_5" d="M9.99901 21.0036H4.99693C4.46623 21.0036 3.95722 20.793 3.58196 20.4177C3.2067 20.0425 2.99609 19.5335 2.99609 19.0028V4.99693C2.99609 4.46623 3.2067 3.95722 3.58196 3.58196C3.95722 3.2067 4.46623 2.99609 4.99693 2.99609H19.0028C19.5335 2.99609 20.0425 3.2067 20.4177 3.58196C20.793 3.95722 21.0036 4.46623 21.0036 4.99693V9.99901" stroke="#64748B" stroke-width="1.5" stroke-linecap="round" stroke-linejoin="round"/>
<path id="Path_6" d="M16.7194 17.0065L15.2188 15.5059" stroke="#64748B" stroke-width="1.5" stroke-linecap="round" stroke-linejoin="round"/>
<path id="Path_7" d="M16.9977 13.5006V12C19.3657 11.9979 21.4106 13.6565 21.8974 15.9739C22.3841 18.2913 21.1793 20.6324 19.0106 21.5832C16.8419 22.534 14.3037 21.8339 12.9291 19.9058C11.5545 17.9776 11.7203 15.3498 13.3262 13.6097" stroke="#64748B" stroke-width="1.5" stroke-linecap="round" stroke-linejoin="round"/>
</g>
</svg>
