<svg width="237" height="128" viewBox="0 0 237 128" fill="none" xmlns="http://www.w3.org/2000/svg">
<path d="M118.153 3.86318C118.153 3.86318 147.446 26.0922 191.98 -15.4726C231.53 -52.3853 263.823 5.85493 264.049 33.7455C264.342 69.8754 224.499 98.7837 243.835 122.514C263.17 146.244 205.489 185.431 174.402 151.517C135.731 109.33 125.254 143.607 103.212 143.607C87.3916 143.607 54.9112 104.298 76.8448 75.0535C95.3016 50.445 85.2357 42.2771 80.3604 33.7455C73.3293 21.441 90.0283 -11.957 118.153 3.86318Z" fill="#F9FAFB"/>
<path d="M183.643 17.759C185.663 18.704 187.236 20.3978 188.029 22.482C188.029 22.482 187.678 17.1641 190.14 15.0483C190.14 15.0483 187.91 16.8124 187.44 19.3989C186.372 18.4752 185.047 17.9026 183.643 17.759Z" fill="#263238"/>
<path d="M172.691 4.42822C172.691 4.42822 176.778 7.60448 177.896 10.5324C177.896 10.5324 178.521 7.39238 181.48 6.45089C180.78 6.44053 180.087 6.60092 179.463 6.91818C178.838 7.23544 178.3 7.70003 177.896 8.2718C176.618 6.46569 174.793 5.11819 172.691 4.42822Z" fill="#263238"/>
<path d="M168.325 18.2458C168.325 18.2458 171.672 17.7285 173.276 19.7666C173.276 19.7666 172.283 16.7249 173.276 14.666C173.276 14.666 171.951 15.5144 172.412 18.5717C172.412 18.5717 171.139 17.2577 168.325 18.2458Z" fill="#263238"/>
<path d="M122.601 107.723H22.7148C21.9322 107.722 21.1823 107.41 20.6294 106.857C20.0766 106.303 19.7661 105.552 19.7661 104.77V-35.6424C19.7729 -36.4204 20.0864 -37.1643 20.6385 -37.7125C21.1906 -38.2607 21.9367 -38.569 22.7148 -38.5703H122.601C123.385 -38.5703 124.136 -38.2591 124.69 -37.7052C125.244 -37.1512 125.555 -36.3999 125.555 -35.6165V104.77C125.555 105.553 125.244 106.304 124.69 106.858C124.136 107.412 123.385 107.723 122.601 107.723ZM22.7148 -38.4669C21.9665 -38.4655 21.2495 -38.1673 20.7209 -37.6378C20.1923 -37.1082 19.8954 -36.3906 19.8954 -35.6424V104.77C19.8954 105.518 20.1923 106.236 20.7209 106.765C21.2495 107.295 21.9665 107.593 22.7148 107.594H122.601C123.349 107.591 124.066 107.293 124.595 106.764C125.124 106.235 125.423 105.518 125.426 104.77V-35.6424C125.423 -36.3906 125.124 -37.1075 124.595 -37.6366C124.066 -38.1657 123.349 -38.4641 122.601 -38.4669H22.7148Z" fill="#EBEBEB"/>
<path d="M234.499 107.723H134.608C133.825 107.721 133.075 107.409 132.522 106.855C131.969 106.302 131.657 105.552 131.654 104.77V-35.6424C131.662 -36.4209 131.977 -37.1648 132.53 -37.7128C133.082 -38.2609 133.829 -38.569 134.608 -38.5703H234.499C235.276 -38.5676 236.021 -38.2588 236.572 -37.7107C237.123 -37.1626 237.436 -36.4195 237.443 -35.6424V104.77C237.443 105.157 237.368 105.54 237.22 105.898C237.073 106.256 236.856 106.582 236.583 106.856C236.309 107.13 235.985 107.348 235.627 107.497C235.27 107.646 234.886 107.723 234.499 107.723ZM134.608 -38.4669C133.859 -38.4641 133.143 -38.1657 132.613 -37.6366C132.084 -37.1075 131.786 -36.3906 131.783 -35.6424V104.77C131.786 105.518 132.084 106.235 132.613 106.764C133.143 107.293 133.859 107.591 134.608 107.594H234.499C235.247 107.591 235.964 107.293 236.493 106.764C237.022 106.235 237.321 105.518 237.324 104.77V-35.6424C237.321 -36.3906 237.022 -37.1075 236.493 -37.6366C235.964 -38.1657 235.247 -38.4641 234.499 -38.4669H134.608Z" fill="#EBEBEB"/>
<path d="M35.3833 46.6348H76.7677C76.7677 46.6348 74.2588 42.6878 69.9548 44.6587C69.9548 44.6587 69.1478 40.5203 66.3699 40.4479C65.6096 40.3941 64.85 40.5607 64.182 40.9277C63.5141 41.2947 62.9661 41.8465 62.6039 42.5171C62.6039 42.5171 59.3811 37.4941 54.4512 38.5701C53.0862 38.8391 51.8382 39.5249 50.8793 40.5329C49.9203 41.541 49.2977 42.8216 49.0971 44.1983C49.0971 44.1983 41.7462 40.4479 35.3833 46.6348Z" fill="#FAFAFA"/>
<path d="M192.722 18.7521H234.132C234.132 18.7521 231.623 14.8102 227.32 16.7811C227.32 16.7811 226.518 12.6427 223.735 12.5703C222.975 12.5149 222.215 12.6809 221.548 13.0481C220.88 13.4153 220.334 13.9681 219.974 14.6395C219.974 14.6395 216.746 9.62164 211.816 10.6976C210.444 10.9628 209.189 11.6488 208.224 12.6602C207.26 13.6717 206.635 14.9583 206.436 16.3414C206.436 16.3414 199.085 12.5703 192.722 18.7521Z" fill="#FAFAFA"/>
<path d="M31.4263 18.7521H72.8365C72.8365 18.7521 70.3535 14.8102 66.0236 16.7811C66.0236 16.7811 65.2166 12.6427 62.4387 12.5703C61.6789 12.5149 60.9194 12.6809 60.2519 13.0481C59.5845 13.4153 59.0378 13.9681 58.6779 14.6395C58.6779 14.6395 55.4499 9.62164 50.52 10.6976C49.148 10.9628 47.8927 11.6488 46.9286 12.6602C45.9644 13.6717 45.3393 14.9583 45.14 16.3414C45.14 16.3414 37.7891 12.5703 31.4263 18.7521Z" fill="#FAFAFA"/>
<path d="M105.675 31.3022H61.7661V116.994H105.675V31.3022Z" fill="#E6E6E6"/>
<path d="M97.6929 31.3022H61.7661V116.994H97.6929V31.3022Z" fill="#F0F0F0"/>
<path d="M106.192 31.3022H60.8188V32.699H106.192V31.3022Z" fill="#E0E0E0"/>
<path d="M106.192 28.5039H60.8188V29.9006H106.192V28.5039Z" fill="#E0E0E0"/>
<path d="M105.24 29.8999H61.7661V31.2966H105.24V29.8999Z" fill="#F0F0F0"/>
<path d="M71.9205 36.3457H65.1748V43.0914H71.9205V36.3457Z" fill="#E6E6E6"/>
<path d="M71.9208 36.3457H65.77V43.0914H71.9208V36.3457Z" fill="#F5F5F5"/>
<path d="M82.1426 36.3457H75.397V43.0914H82.1426V36.3457Z" fill="#E6E6E6"/>
<path d="M82.1429 36.3457H75.9922V43.0914H82.1429V36.3457Z" fill="#F5F5F5"/>
<path d="M92.3594 36.3457H85.6138V43.0914H92.3594V36.3457Z" fill="#E6E6E6"/>
<path d="M92.3597 36.3457H86.209V43.0914H92.3597V36.3457Z" fill="#F5F5F5"/>
<path d="M71.9205 46.2827H65.1748V53.0284H71.9205V46.2827Z" fill="#E6E6E6"/>
<path d="M71.9208 46.2827H65.77V53.0284H71.9208V46.2827Z" fill="#F5F5F5"/>
<path d="M82.1426 46.2827H75.397V53.0284H82.1426V46.2827Z" fill="#E6E6E6"/>
<path d="M82.1429 46.2827H75.9922V53.0284H82.1429V46.2827Z" fill="#F5F5F5"/>
<path d="M92.3594 46.2827H85.6138V53.0284H92.3594V46.2827Z" fill="#E6E6E6"/>
<path d="M92.3597 46.2827H86.209V53.0284H92.3597V46.2827Z" fill="#F5F5F5"/>
<path d="M71.9205 64.4771H65.1748V71.2227H71.9205V64.4771Z" fill="#E6E6E6"/>
<path d="M71.9208 64.4771H65.77V71.2227H71.9208V64.4771Z" fill="#F5F5F5"/>
<path d="M82.1426 64.4771H75.397V71.2227H82.1426V64.4771Z" fill="#E6E6E6"/>
<path d="M82.1429 64.4771H75.9922V71.2227H82.1429V64.4771Z" fill="#F5F5F5"/>
<path d="M92.3594 64.4771H85.6138V71.2227H92.3594V64.4771Z" fill="#E6E6E6"/>
<path d="M92.3597 64.4771H86.209V71.2227H92.3597V64.4771Z" fill="#F5F5F5"/>
<path d="M71.9205 74.4146H65.1748V81.1602H71.9205V74.4146Z" fill="#E6E6E6"/>
<path d="M71.9208 74.4146H65.77V81.1602H71.9208V74.4146Z" fill="#F5F5F5"/>
<path d="M82.1426 74.4146H75.397V81.1602H82.1426V74.4146Z" fill="#E6E6E6"/>
<path d="M82.1429 74.4146H75.9922V81.1602H82.1429V74.4146Z" fill="#F5F5F5"/>
<path d="M92.3594 74.4146H85.6138V81.1602H92.3594V74.4146Z" fill="#E6E6E6"/>
<path d="M92.3597 74.4146H86.209V81.1602H92.3597V74.4146Z" fill="#F5F5F5"/>
<path d="M71.9205 94.6357H65.1748V101.381H71.9205V94.6357Z" fill="#E6E6E6"/>
<path d="M71.9208 94.6357H65.77V101.381H71.9208V94.6357Z" fill="#F5F5F5"/>
<path d="M82.1426 94.6357H75.397V101.381H82.1426V94.6357Z" fill="#E6E6E6"/>
<path d="M82.1429 94.6357H75.9922V101.381H82.1429V94.6357Z" fill="#F5F5F5"/>
<path d="M92.3594 94.6357H85.6138V101.381H92.3594V94.6357Z" fill="#E6E6E6"/>
<path d="M92.3597 94.6357H86.209V101.381H92.3597V94.6357Z" fill="#F5F5F5"/>
<path d="M71.9205 104.574H65.1748V111.319H71.9205V104.574Z" fill="#E6E6E6"/>
<path d="M71.9208 104.574H65.77V111.319H71.9208V104.574Z" fill="#F5F5F5"/>
<path d="M82.1426 104.574H75.397V111.319H82.1426V104.574Z" fill="#E6E6E6"/>
<path d="M82.1429 104.574H75.9922V111.319H82.1429V104.574Z" fill="#F5F5F5"/>
<path d="M92.3594 104.574H85.6138V111.319H92.3594V104.574Z" fill="#E6E6E6"/>
<path d="M92.3597 104.574H86.209V111.319H92.3597V104.574Z" fill="#F5F5F5"/>
<path d="M105.675 57.772H61.7661V58.3979H105.675V57.772Z" fill="#E0E0E0"/>
<path d="M105.675 88.8784H61.7661V89.5044H105.675V88.8784Z" fill="#E0E0E0"/>
<path d="M54.3529 56.9609H23.9819V130.863H54.3529V56.9609Z" fill="#E0E0E0"/>
<path d="M45.7036 56.9609H23.9819V130.863H45.7036V56.9609Z" fill="#F0F0F0"/>
<path d="M34.3028 63.0337H26.2173V66.96H34.3028V63.0337Z" fill="#E6E6E6"/>
<path d="M34.3019 63.0337H26.7544V66.96H34.3019V63.0337Z" fill="#F5F5F5"/>
<path d="M43.6558 63.0337H35.5703V66.96H43.6558V63.0337Z" fill="#E6E6E6"/>
<path d="M43.6497 63.0337H36.1074V66.96H43.6497V63.0337Z" fill="#F5F5F5"/>
<path d="M34.3028 70.4204H26.2173V74.3468H34.3028V70.4204Z" fill="#E6E6E6"/>
<path d="M34.3019 70.4204H26.7544V74.3468H34.3019V70.4204Z" fill="#F5F5F5"/>
<path d="M43.6558 70.4204H35.5703V74.3468H43.6558V70.4204Z" fill="#E6E6E6"/>
<path d="M43.6497 70.4204H36.1074V74.3468H43.6497V70.4204Z" fill="#F5F5F5"/>
<path d="M34.3028 79.8613H26.2173V83.7877H34.3028V79.8613Z" fill="#E6E6E6"/>
<path d="M34.3019 79.8613H26.7544V83.7877H34.3019V79.8613Z" fill="#F5F5F5"/>
<path d="M43.6558 79.8613H35.5703V83.7877H43.6558V79.8613Z" fill="#E6E6E6"/>
<path d="M43.6497 79.8613H36.1074V83.7877H43.6497V79.8613Z" fill="#F5F5F5"/>
<path d="M34.3028 85.2827H26.2173V89.2091H34.3028V85.2827Z" fill="#E6E6E6"/>
<path d="M34.3019 85.2827H26.7544V89.2091H34.3019V85.2827Z" fill="#F5F5F5"/>
<path d="M43.6558 85.2827H35.5703V89.2091H43.6558V85.2827Z" fill="#E6E6E6"/>
<path d="M43.6497 85.2827H36.1074V89.2091H43.6497V85.2827Z" fill="#F5F5F5"/>
<path d="M34.3028 94.1953H26.2173V98.1217H34.3028V94.1953Z" fill="#E6E6E6"/>
<path d="M34.3019 94.1953H26.7544V98.1217H34.3019V94.1953Z" fill="#F5F5F5"/>
<path d="M43.6558 94.1953H35.5703V98.1217H43.6558V94.1953Z" fill="#E6E6E6"/>
<path d="M43.6497 94.1953H36.1074V98.1217H43.6497V94.1953Z" fill="#F5F5F5"/>
<path d="M34.3028 99.6177H26.2173V103.544H34.3028V99.6177Z" fill="#E6E6E6"/>
<path d="M34.3019 99.6177H26.7544V103.544H34.3019V99.6177Z" fill="#F5F5F5"/>
<path d="M43.6558 99.6177H35.5703V103.544H43.6558V99.6177Z" fill="#E6E6E6"/>
<path d="M43.6497 99.6177H36.1074V103.544H43.6497V99.6177Z" fill="#F5F5F5"/>
<path d="M34.3028 109.317H26.2173V113.244H34.3028V109.317Z" fill="#E6E6E6"/>
<path d="M34.3019 109.317H26.7544V113.244H34.3019V109.317Z" fill="#F5F5F5"/>
<path d="M43.6558 109.317H35.5703V113.244H43.6558V109.317Z" fill="#E6E6E6"/>
<path d="M43.6497 109.317H36.1074V113.244H43.6497V109.317Z" fill="#F5F5F5"/>
<path d="M34.3028 116.477H26.2173V120.403H34.3028V116.477Z" fill="#E6E6E6"/>
<path d="M34.3019 116.477H26.7544V120.403H34.3019V116.477Z" fill="#F5F5F5"/>
<path d="M43.6558 116.477H35.5703V120.403H43.6558V116.477Z" fill="#E6E6E6"/>
<path d="M43.6497 116.477H36.1074V120.403H43.6497V116.477Z" fill="#F5F5F5"/>
<path opacity="0.05" d="M54.3529 76.7627H23.9819V77.4404H54.3529V76.7627Z" fill="black"/>
<path opacity="0.05" d="M54.3529 91.3608H23.9819V92.0385H54.3529V91.3608Z" fill="black"/>
<path opacity="0.05" d="M54.3529 106.089H23.9819V106.762H54.3529V106.089Z" fill="black"/>
<path d="M54.348 54.772H22.5493V57.1309H54.348V54.772Z" fill="#E0E0E0"/>
<path opacity="0.05" d="M54.3531 54.772H47.085V57.1309H54.3531V54.772Z" fill="black"/>
<path d="M159.485 18.4673H123.822V111.153H159.485V18.4673Z" fill="#E6E6E6"/>
<path d="M146.283 18.4673H110.62V111.153H146.283V18.4673Z" fill="#F0F0F0"/>
<path d="M143.175 24.7583H113.735V29.4813H143.175V24.7583Z" fill="#E6E6E6"/>
<path d="M143.169 24.7583H114.873V29.4813H143.169V24.7583Z" fill="#F5F5F5"/>
<path d="M143.175 32.7095H113.735V37.4325H143.175V32.7095Z" fill="#E6E6E6"/>
<path d="M143.169 32.7095H114.873V37.4325H143.169V32.7095Z" fill="#F5F5F5"/>
<path d="M143.175 40.9653H113.735V45.6883H143.175V40.9653Z" fill="#E6E6E6"/>
<path d="M143.169 40.9653H114.873V45.6883H143.169V40.9653Z" fill="#F5F5F5"/>
<path d="M143.175 49.2266H113.735V53.9496H143.175V49.2266Z" fill="#E6E6E6"/>
<path d="M143.169 49.2266H114.873V53.9496H143.169V49.2266Z" fill="#F5F5F5"/>
<path d="M143.175 57.4829H113.735V62.2059H143.175V57.4829Z" fill="#E6E6E6"/>
<path d="M143.169 57.4829H114.873V62.2059H143.169V57.4829Z" fill="#F5F5F5"/>
<path d="M143.175 65.7446H113.735V70.4676H143.175V65.7446Z" fill="#E6E6E6"/>
<path d="M143.169 65.7446H114.873V70.4676H143.169V65.7446Z" fill="#F5F5F5"/>
<path d="M143.175 74.8433H113.735V79.5663H143.175V74.8433Z" fill="#E6E6E6"/>
<path d="M143.169 74.8433H114.873V79.5663H143.169V74.8433Z" fill="#F5F5F5"/>
<path d="M143.175 83.9487H113.735V88.6717H143.175V83.9487Z" fill="#E6E6E6"/>
<path d="M143.169 83.9487H114.873V88.6717H143.169V83.9487Z" fill="#F5F5F5"/>
<path d="M143.175 93.0532H113.735V97.7762H143.175V93.0532Z" fill="#E6E6E6"/>
<path d="M143.169 93.0532H114.873V97.7762H143.169V93.0532Z" fill="#F5F5F5"/>
<path d="M143.175 102.152H113.735V106.875H143.175V102.152Z" fill="#E6E6E6"/>
<path d="M143.169 102.152H114.873V106.875H143.169V102.152Z" fill="#F5F5F5"/>
<path d="M160.411 17.5371H109.611V19.7977H160.411V17.5371Z" fill="#E0E0E0"/>
<path d="M160.411 13.4551H109.611V15.7157H160.411V13.4551Z" fill="#E0E0E0"/>
<path d="M158.724 15.271H110.62V17.5316H158.724V15.271Z" fill="#F0F0F0"/>
<path d="M159.485 24.7583H149.547V29.4813H159.485V24.7583Z" fill="#E0E0E0"/>
<path d="M159.485 32.5278H149.547V37.2508H159.485V32.5278Z" fill="#E0E0E0"/>
<path d="M159.485 40.3037H149.547V45.0267H159.485V40.3037Z" fill="#E0E0E0"/>
<path d="M159.485 49.2222H149.547V53.9452H159.485V49.2222Z" fill="#E0E0E0"/>
<path d="M159.485 57.4829H149.547V62.2059H159.485V57.4829Z" fill="#E0E0E0"/>
<path d="M159.485 65.7446H149.547V70.4676H159.485V65.7446Z" fill="#E0E0E0"/>
<path d="M159.485 74.8433H149.547V79.5663H159.485V74.8433Z" fill="#E0E0E0"/>
<path d="M159.485 83.9487H149.547V88.6717H159.485V83.9487Z" fill="#E0E0E0"/>
<path d="M159.485 93.0483H149.547V97.7713H159.485V93.0483Z" fill="#E0E0E0"/>
<path d="M159.485 102.152H149.547V106.875H159.485V102.152Z" fill="#E0E0E0"/>
<path d="M240.205 85.0654H210.113V130.831H240.205V85.0654Z" fill="#E6E6E6"/>
<path d="M235.126 85.0654H210.119V130.831H235.126V85.0654Z" fill="#F0F0F0"/>
<path d="M232.705 89.5615H212.37V94.0362H232.705V89.5615Z" fill="#EBEBEB"/>
<path d="M232.705 96.8862H212.37V101.361H232.705V96.8862Z" fill="#EBEBEB"/>
<path d="M232.705 104.207H212.37V108.681H232.705V104.207Z" fill="#EBEBEB"/>
<path d="M232.705 111.526H212.37V116.001H232.705V111.526Z" fill="#EBEBEB"/>
<path d="M232.705 118.846H212.37V123.32H232.705V118.846Z" fill="#EBEBEB"/>
<path d="M232.699 89.5615H213.114V94.0362H232.699V89.5615Z" fill="#F5F5F5"/>
<path d="M232.699 96.8862H213.114V101.361H232.699V96.8862Z" fill="#F5F5F5"/>
<path d="M232.699 104.207H213.114V108.681H232.699V104.207Z" fill="#F5F5F5"/>
<path d="M232.699 111.526H213.114V116.001H232.699V111.526Z" fill="#F5F5F5"/>
<path d="M232.699 118.846H213.114V123.32H232.699V118.846Z" fill="#F5F5F5"/>
<path d="M112.928 46.5371H61.6992V146.511H112.928V46.5371Z" fill="#034EA2"/>
<path opacity="0.4" d="M103.616 46.5371H61.6992V146.511H103.616V46.5371Z" fill="white"/>
<path d="M113.533 46.5371H60.5977V48.1666H113.533V46.5371Z" fill="#034EA2"/>
<path d="M113.533 43.2725H60.5977V44.9071H113.533V43.2725Z" fill="#034EA2"/>
<path d="M112.421 44.9072H61.6992V46.5367H112.421V44.9072Z" fill="#F0F0F0"/>
<path d="M73.5506 52.4243H65.6772V60.2977H73.5506V52.4243Z" fill="#034EA2"/>
<path opacity="0.2" d="M73.5508 52.4243H66.3706V60.2977H73.5508V52.4243Z" fill="white"/>
<path d="M85.4745 52.4243H77.6011V60.2977H85.4745V52.4243Z" fill="#034EA2"/>
<path opacity="0.2" d="M85.4746 52.4243H78.2944V60.2977H85.4746V52.4243Z" fill="white"/>
<path d="M97.3934 52.4243H89.52V60.2977H97.3934V52.4243Z" fill="#034EA2"/>
<path opacity="0.2" d="M97.3936 52.4243H90.2134V60.2977H97.3936V52.4243Z" fill="white"/>
<path d="M73.5506 64.0166H65.6772V71.89H73.5506V64.0166Z" fill="#034EA2"/>
<path opacity="0.2" d="M73.5508 64.0166H66.3706V71.89H73.5508V64.0166Z" fill="white"/>
<path d="M85.4745 64.0166H77.6011V71.89H85.4745V64.0166Z" fill="#034EA2"/>
<path opacity="0.2" d="M85.4746 64.0166H78.2944V71.89H85.4746V64.0166Z" fill="white"/>
<path d="M97.3934 64.0166H89.52V71.89H97.3934V64.0166Z" fill="#034EA2"/>
<path opacity="0.2" d="M97.3936 64.0166H90.2134V71.89H97.3936V64.0166Z" fill="white"/>
<path d="M73.5506 85.2417H65.6772V93.1151H73.5506V85.2417Z" fill="#034EA2"/>
<path opacity="0.2" d="M73.5508 85.2417H66.3706V93.1151H73.5508V85.2417Z" fill="white"/>
<path d="M85.4745 85.2417H77.6011V93.1151H85.4745V85.2417Z" fill="#034EA2"/>
<path opacity="0.2" d="M85.4746 85.2417H78.2944V93.1151H85.4746V85.2417Z" fill="white"/>
<path d="M97.3934 85.2417H89.52V93.1151H97.3934V85.2417Z" fill="#034EA2"/>
<path opacity="0.2" d="M97.3936 85.2417H90.2134V93.1151H97.3936V85.2417Z" fill="white"/>
<path d="M73.5506 96.834H65.6772V104.707H73.5506V96.834Z" fill="#034EA2"/>
<path opacity="0.2" d="M73.5508 96.834H66.3706V104.707H73.5508V96.834Z" fill="white"/>
<path d="M85.4745 96.834H77.6011V104.707H85.4745V96.834Z" fill="#034EA2"/>
<path opacity="0.2" d="M85.4746 96.834H78.2944V104.707H85.4746V96.834Z" fill="white"/>
<path d="M97.3934 96.834H89.52V104.707H97.3934V96.834Z" fill="#034EA2"/>
<path opacity="0.2" d="M97.3936 96.834H90.2134V104.707H97.3936V96.834Z" fill="white"/>
<path d="M73.5506 120.429H65.6772V128.302H73.5506V120.429Z" fill="#034EA2"/>
<path opacity="0.2" d="M73.5508 120.429H66.3706V128.302H73.5508V120.429Z" fill="white"/>
<path d="M85.4745 120.429H77.6011V128.302H85.4745V120.429Z" fill="#034EA2"/>
<path opacity="0.2" d="M85.4746 120.429H78.2944V128.302H85.4746V120.429Z" fill="white"/>
<path d="M97.3934 120.429H89.52V128.302H97.3934V120.429Z" fill="#034EA2"/>
<path opacity="0.2" d="M97.3936 120.429H90.2134V128.302H97.3936V120.429Z" fill="white"/>
<path opacity="0.2" d="M112.928 77.4253H61.6992V78.1547H112.928V77.4253Z" fill="white"/>
<path opacity="0.2" d="M112.928 113.709H61.6992V114.438H112.928V113.709Z" fill="white"/>
<path d="M183.462 60.2974H148.032V146.511H183.462V60.2974Z" fill="#034EA2"/>
<path opacity="0.4" d="M174.983 60.2974H148.032V146.511H174.983V60.2974Z" fill="white"/>
<path d="M160.075 67.3789H150.645V71.9571H160.075V67.3789Z" fill="#034EA2"/>
<path opacity="0.2" d="M160.075 67.3789H151.271V71.9571H160.075V67.3789Z" fill="white"/>
<path d="M170.986 67.3789H161.555V71.9571H170.986V67.3789Z" fill="#034EA2"/>
<path opacity="0.2" d="M170.985 67.3789H162.181V71.9571H170.985V67.3789Z" fill="white"/>
<path d="M160.075 75.998H150.645V80.5762H160.075V75.998Z" fill="#034EA2"/>
<path opacity="0.2" d="M160.075 75.998H151.271V80.5762H160.075V75.998Z" fill="white"/>
<path d="M170.986 75.998H161.555V80.5762H170.986V75.998Z" fill="#034EA2"/>
<path opacity="0.2" d="M170.985 75.998H162.181V80.5762H170.985V75.998Z" fill="white"/>
<path d="M160.075 87.0107H150.645V91.5889H160.075V87.0107Z" fill="#034EA2"/>
<path opacity="0.2" d="M160.075 87.0107H151.271V91.5889H160.075V87.0107Z" fill="white"/>
<path d="M170.986 87.0107H161.555V91.5889H170.986V87.0107Z" fill="#034EA2"/>
<path opacity="0.2" d="M170.985 87.0107H162.181V91.5889H170.985V87.0107Z" fill="white"/>
<path d="M160.075 93.3379H150.645V97.916H160.075V93.3379Z" fill="#034EA2"/>
<path opacity="0.2" d="M160.075 93.3379H151.271V97.916H160.075V93.3379Z" fill="white"/>
<path d="M170.986 93.3379H161.555V97.916H170.986V93.3379Z" fill="#034EA2"/>
<path opacity="0.2" d="M170.985 93.3379H162.181V97.916H170.985V93.3379Z" fill="white"/>
<path d="M160.075 103.735H150.645V108.314H160.075V103.735Z" fill="#034EA2"/>
<path opacity="0.2" d="M160.075 103.735H151.271V108.314H160.075V103.735Z" fill="white"/>
<path d="M170.986 103.735H161.555V108.314H170.986V103.735Z" fill="#034EA2"/>
<path opacity="0.2" d="M170.985 103.735H162.181V108.314H170.985V103.735Z" fill="white"/>
<path d="M160.075 110.062H150.645V114.64H160.075V110.062Z" fill="#034EA2"/>
<path opacity="0.2" d="M160.075 110.062H151.271V114.64H160.075V110.062Z" fill="white"/>
<path d="M170.986 110.062H161.555V114.64H170.986V110.062Z" fill="#034EA2"/>
<path opacity="0.2" d="M170.985 110.062H162.181V114.64H170.985V110.062Z" fill="white"/>
<path d="M160.075 121.375H150.645V125.954H160.075V121.375Z" fill="#034EA2"/>
<path opacity="0.2" d="M160.075 121.375H151.271V125.954H160.075V121.375Z" fill="white"/>
<path d="M170.986 121.375H161.555V125.954H170.986V121.375Z" fill="#034EA2"/>
<path opacity="0.2" d="M170.985 121.375H162.181V125.954H170.985V121.375Z" fill="white"/>
<path d="M183.467 57.7466H146.366V60.4986H183.467V57.7466Z" fill="#034EA2"/>
<path opacity="0.2" d="M183.468 57.7466H174.989V60.4986H183.468V57.7466Z" fill="black"/>
<path d="M148.032 98.3657H144.696V103.585H148.032V98.3657Z" fill="#E0E0E0"/>
<path d="M148.032 106.907H144.696V112.126H148.032V106.907Z" fill="#E0E0E0"/>
<path d="M148.032 115.209H144.696V120.429H148.032V115.209Z" fill="#E0E0E0"/>
<path d="M148.032 123.988H144.696V129.207H148.032V123.988Z" fill="#E0E0E0"/>
<path d="M148.033 93.1206H112.928V146.512H148.033V93.1206Z" fill="#034EA2"/>
<path opacity="0.3" d="M142.104 93.1143H112.928V146.51H142.104V93.1143Z" fill="white"/>
<path d="M139.274 98.3657H115.55V103.585H139.274V98.3657Z" fill="#034EA2"/>
<path d="M139.274 106.907H115.55V112.126H139.274V106.907Z" fill="#034EA2"/>
<path d="M139.274 115.447H115.55V120.667H139.274V115.447Z" fill="#034EA2"/>
<path d="M139.274 123.988H115.55V129.207H139.274V123.988Z" fill="#034EA2"/>
<g opacity="0.1">
<path opacity="0.1" d="M139.275 98.3657H116.426V103.585H139.275V98.3657Z" fill="white"/>
<path opacity="0.1" d="M139.275 106.907H116.425V112.126H139.275V106.907Z" fill="white"/>
<path opacity="0.1" d="M139.275 115.448H116.425V120.668H139.275V115.448Z" fill="white"/>
<path opacity="0.1" d="M139.275 123.989H116.425V129.208H139.275V123.989Z" fill="white"/>
</g>
<path d="M40.6501 109.518H17.0972V146.51H54.6845V109.518V93.1143L40.6501 109.518Z" fill="#034EA2"/>
<path d="M61.6992 93.1143H54.6846V146.51H61.6992V93.1143Z" fill="#034EA2"/>
<path opacity="0.7" d="M61.6992 93.1143H54.6846V146.51H61.6992V93.1143Z" fill="white"/>
<path opacity="0.7" d="M112.927 48.1665H103.61V146.511H112.927V48.1665Z" fill="white"/>
<path opacity="0.6" d="M148.032 93.1143H142.104V146.51H148.032V93.1143Z" fill="white"/>
<path opacity="0.7" d="M183.468 60.4985H174.989V146.511H183.468V60.4985Z" fill="white"/>
<path opacity="0.5" d="M188.429 45.7192H187.095V51.2285H188.429V45.7192Z" fill="white"/>
<path opacity="0.5" d="M188.429 54.9897H187.095V60.499H188.429V54.9897Z" fill="white"/>
<path opacity="0.5" d="M188.429 64.627H187.095V70.1363H188.429V64.627Z" fill="white"/>
<path opacity="0.5" d="M188.429 74.2646H187.095V79.7739H188.429V74.2646Z" fill="white"/>
<path opacity="0.5" d="M188.429 83.8965H187.095V89.4058H188.429V83.8965Z" fill="white"/>
<path opacity="0.5" d="M188.429 93.5342H187.095V99.0435H188.429V93.5342Z" fill="white"/>
<path opacity="0.5" d="M188.429 104.154H187.095V109.664H188.429V104.154Z" fill="white"/>
<path opacity="0.5" d="M188.429 114.774H187.095V120.284H188.429V114.774Z" fill="white"/>
<path opacity="0.5" d="M188.429 125.39H187.095V130.899H188.429V125.39Z" fill="white"/>
<path d="M240.475 38.3789H198.868V146.511H240.475V38.3789Z" fill="#034EA2"/>
<path d="M225.07 38.3789H183.463V146.511H225.07V38.3789Z" fill="#034EA2"/>
<path opacity="0.7" d="M240.475 39.9307H225.075V146.511H240.475V39.9307Z" fill="white"/>
<path d="M240.474 45.7192H228.881V51.2285H240.474V45.7192Z" fill="#034EA2"/>
<path d="M240.474 54.7827H228.881V60.292H240.474V54.7827Z" fill="#034EA2"/>
<path d="M240.474 63.8511H228.881V69.3604H240.474V63.8511Z" fill="#034EA2"/>
<path d="M240.474 74.2593H228.881V79.7686H240.474V74.2593Z" fill="#034EA2"/>
<path d="M240.474 83.8965H228.881V89.4058H240.474V83.8965Z" fill="#034EA2"/>
<path d="M240.474 93.5342H228.881V99.0435H240.474V93.5342Z" fill="#034EA2"/>
<path d="M240.474 104.149H228.881V109.658H240.474V104.149Z" fill="#034EA2"/>
<path d="M240.474 114.77H228.881V120.279H240.474V114.77Z" fill="#034EA2"/>
<path d="M240.474 125.39H228.881V130.899H240.474V125.39Z" fill="#034EA2"/>
<path opacity="0.3" d="M240.474 45.7192H228.881V51.2285H240.474V45.7192Z" fill="white"/>
<path opacity="0.3" d="M240.474 54.7827H228.881V60.292H240.474V54.7827Z" fill="white"/>
<path opacity="0.3" d="M240.474 63.8511H228.881V69.3604H240.474V63.8511Z" fill="white"/>
<path opacity="0.3" d="M240.474 74.2593H228.881V79.7686H240.474V74.2593Z" fill="white"/>
<path opacity="0.3" d="M240.474 83.8965H228.881V89.4058H240.474V83.8965Z" fill="white"/>
<path opacity="0.3" d="M240.474 93.5342H228.881V99.0435H240.474V93.5342Z" fill="white"/>
<path opacity="0.3" d="M240.474 104.149H228.881V109.658H240.474V104.149Z" fill="white"/>
<path opacity="0.3" d="M240.474 114.77H228.881V120.279H240.474V114.77Z" fill="white"/>
<path opacity="0.3" d="M240.474 125.39H228.881V130.899H240.474V125.39Z" fill="white"/>
<path opacity="0.4" d="M225.07 38.3789H183.463V146.511H225.07V38.3789Z" fill="white"/>
<path d="M221.444 45.7192H187.095V51.2285H221.444V45.7192Z" fill="#034EA2"/>
<path opacity="0.2" d="M221.443 45.7192H188.429V51.2285H221.443V45.7192Z" fill="white"/>
<path d="M221.444 54.9897H187.095V60.499H221.444V54.9897Z" fill="#034EA2"/>
<path opacity="0.2" d="M221.443 54.9897H188.429V60.499H221.443V54.9897Z" fill="white"/>
<path d="M221.444 64.627H187.095V70.1363H221.444V64.627Z" fill="#034EA2"/>
<path opacity="0.2" d="M221.443 64.627H188.429V70.1363H221.443V64.627Z" fill="white"/>
<path d="M221.444 74.2646H187.095V79.7739H221.444V74.2646Z" fill="#034EA2"/>
<path opacity="0.2" d="M221.443 74.2646H188.429V79.7739H221.443V74.2646Z" fill="white"/>
<path d="M221.444 83.8965H187.095V89.4058H221.444V83.8965Z" fill="#034EA2"/>
<path opacity="0.2" d="M221.443 83.8965H188.429V89.4058H221.443V83.8965Z" fill="white"/>
<path d="M221.444 93.5342H187.095V99.0435H221.444V93.5342Z" fill="#034EA2"/>
<path opacity="0.2" d="M221.443 93.5342H188.429V99.0435H221.443V93.5342Z" fill="white"/>
<path d="M221.444 104.154H187.095V109.664H221.444V104.154Z" fill="#034EA2"/>
<path opacity="0.2" d="M221.443 104.154H188.429V109.664H221.443V104.154Z" fill="white"/>
<path d="M221.444 114.774H187.095V120.284H221.444V114.774Z" fill="#034EA2"/>
<path opacity="0.2" d="M221.443 114.774H188.429V120.284H221.443V114.774Z" fill="white"/>
<path d="M221.444 125.39H187.095V130.899H221.444V125.39Z" fill="#034EA2"/>
<path opacity="0.2" d="M221.443 125.39H188.429V130.899H221.443V125.39Z" fill="white"/>
<path d="M239.586 35.1665H225.075V37.2875H239.586V35.1665Z" fill="#034EA2"/>
<path d="M239.585 34.6489H183.463V37.2872H239.585V34.6489Z" fill="#F0F0F0"/>
<path d="M241.556 37.2925H182.288V39.9307H241.556V37.2925Z" fill="#034EA2"/>
<path d="M241.556 32.5283H182.288V35.1666H241.556V32.5283Z" fill="#034EA2"/>
<path opacity="0.05" d="M241.556 37.2925H182.288V39.9307H241.556V37.2925Z" fill="black"/>
<path opacity="0.05" d="M241.556 32.5283H182.288V35.1666H241.556V32.5283Z" fill="black"/>
<path opacity="0.2" d="M183.462 83.27H148.032V84.0563H183.462V83.27Z" fill="white"/>
<path opacity="0.2" d="M183.462 100.306H148.032V101.092H183.462V100.306Z" fill="white"/>
<path opacity="0.2" d="M183.462 117.485H148.032V118.271H183.462V117.485Z" fill="white"/>
<path opacity="0.2" d="M113.527 46.5371H103.61V48.1666H113.527V46.5371Z" fill="black"/>
<path opacity="0.2" d="M113.527 43.2725H103.61V44.902H113.527V43.2725Z" fill="black"/>
<path opacity="0.2" d="M241.557 37.2925H225.075V39.9307H241.557V37.2925Z" fill="black"/>
<path opacity="0.2" d="M241.557 32.5283H225.075V35.1666H241.557V32.5283Z" fill="black"/>
<path opacity="0.4" d="M40.6501 109.518H17.0972V146.51H54.6845V109.518V93.1143L40.6501 109.518Z" fill="white"/>
<path d="M26.0979 117.02H20.5059V122.612H26.0979V117.02Z" fill="#034EA2"/>
<path d="M37.4788 117.02H31.8867V122.612H37.4788V117.02Z" fill="#034EA2"/>
<path d="M48.8596 117.02H43.2676V122.612H48.8596V117.02Z" fill="#034EA2"/>
<path d="M26.0979 126.429H20.5059V132.021H26.0979V126.429Z" fill="#034EA2"/>
<path d="M37.4788 126.429H31.8867V132.021H37.4788V126.429Z" fill="#034EA2"/>
<path d="M48.8596 126.429H43.2676V132.021H48.8596V126.429Z" fill="#034EA2"/>
<path opacity="0.2" d="M26.7185 117.02H21.1265V122.612H26.7185V117.02Z" fill="white"/>
<path opacity="0.2" d="M38.095 117.02H32.5029V122.612H38.095V117.02Z" fill="white"/>
<path opacity="0.2" d="M49.4759 117.02H43.8838V122.612H49.4759V117.02Z" fill="white"/>
<path opacity="0.2" d="M26.7185 126.429H21.1265V132.021H26.7185V126.429Z" fill="white"/>
<path opacity="0.2" d="M38.095 126.429H32.5029V132.021H38.095V126.429Z" fill="white"/>
<path opacity="0.2" d="M49.4759 126.429H43.8838V132.021H49.4759V126.429Z" fill="white"/>
<path d="M52.0722 144.613C53.9759 144.546 55.8445 144.082 57.559 143.252C59.2734 142.422 60.796 141.243 62.0295 139.792C63.2629 138.34 64.1802 136.647 64.7228 134.821C65.2654 132.996 65.4213 131.077 65.1807 129.187C64.8393 126.492 63.7116 123.972 62.9149 121.376C61.4095 116.466 60.9285 110.926 57.4729 107.124C56.4064 105.955 55.1077 105.02 53.6599 104.381C52.212 103.742 50.6467 103.412 49.0641 103.412C47.4814 103.412 45.9162 103.742 44.4683 104.381C43.0204 105.02 41.7218 105.955 40.6553 107.124C38.4153 109.581 37.3549 112.902 36.8945 116.197C36.4341 119.493 36.4961 122.829 36.2116 126.124C35.953 128.871 35.4305 131.613 35.5443 134.37C35.6581 137.128 36.4858 139.999 38.5085 141.876C39.5411 142.757 40.6943 143.485 41.933 144.039C43.1256 144.703 44.4186 145.168 45.7611 145.415C46.4338 145.534 47.1247 145.501 47.7828 145.317C48.4409 145.133 49.0493 144.804 49.5633 144.354C50.3825 144.562 51.2278 144.649 52.0722 144.613Z" fill="#034EA2"/>
<path opacity="0.7" d="M52.0722 144.613C53.9759 144.546 55.8445 144.082 57.559 143.252C59.2734 142.422 60.796 141.243 62.0295 139.792C63.2629 138.34 64.1802 136.647 64.7228 134.821C65.2654 132.996 65.4213 131.077 65.1807 129.187C64.8393 126.492 63.7116 123.972 62.9149 121.376C61.4095 116.466 60.9285 110.926 57.4729 107.124C56.4064 105.955 55.1077 105.02 53.6599 104.381C52.212 103.742 50.6467 103.412 49.0641 103.412C47.4814 103.412 45.9162 103.742 44.4683 104.381C43.0204 105.02 41.7218 105.955 40.6553 107.124C38.4153 109.581 37.3549 112.902 36.8945 116.197C36.4341 119.493 36.4961 122.829 36.2116 126.124C35.953 128.871 35.4305 131.613 35.5443 134.37C35.6581 137.128 36.4858 139.999 38.5085 141.876C39.5411 142.757 40.6943 143.485 41.933 144.039C43.1256 144.703 44.4186 145.168 45.7611 145.415C46.4338 145.534 47.1247 145.501 47.7828 145.317C48.4409 145.133 49.0493 144.804 49.5633 144.354C50.3825 144.562 51.2278 144.649 52.0722 144.613Z" fill="white"/>
<path d="M45.7456 154.643V153.955L46.8888 152.987C46.8888 152.987 48.2545 139.02 48.4873 134.975C48.7201 130.93 49.0046 124.556 47.5148 119.932C48.8346 123.085 49.7741 126.385 50.3134 129.761C50.3134 129.761 52.0826 123.398 55.2226 119.347C55.2226 119.347 51.3946 129.124 51.9119 138.218C52.1698 143.387 52.8183 148.528 53.8518 153.598L54.5346 154.053L54.5915 154.627L45.7456 154.643Z" fill="#034EA2"/>
<path d="M49.237 132.203C49.237 132.203 48.2438 127.795 45.5693 125.612C45.5693 125.612 47.8093 128.716 48.5438 133.931C49.2784 139.145 50.0595 135.834 50.0595 135.834L49.237 132.203Z" fill="#034EA2"/>
<path opacity="0.2" d="M47.5929 145.708C47.0756 142.527 46.0824 141.534 46.0824 141.534C46.8181 141.988 47.4128 142.638 47.7998 143.412C48.1102 140.023 48.3999 136.645 48.4982 134.974C48.4982 134.643 48.5344 134.292 48.5499 133.94C47.8153 128.705 45.5806 125.621 45.5806 125.621C47.1325 126.889 48.1205 128.912 48.6844 130.381C48.731 126.935 48.5292 123.045 47.536 119.941C48.8558 123.095 49.7953 126.395 50.3346 129.77C50.3346 129.77 52.1038 123.407 55.2438 119.357C55.2438 119.357 51.4158 129.134 51.9331 138.228C52.191 143.396 52.8395 148.537 53.873 153.608L54.5558 154.063L54.6127 154.637H45.7461V153.949L46.8893 152.982C46.8893 152.982 47.2152 149.614 47.5929 145.708Z" fill="black"/>
<path d="M204.449 146.827C202.3 146.75 200.191 146.226 198.255 145.288C196.32 144.35 194.601 143.02 193.209 141.381C191.816 139.742 190.781 137.831 190.168 135.77C189.555 133.709 189.378 131.542 189.649 129.409C190.037 126.367 191.31 123.522 192.21 120.615C193.912 115.069 194.455 108.815 198.355 104.527C199.558 103.206 201.024 102.15 202.658 101.428C204.292 100.706 206.059 100.333 207.845 100.333C209.632 100.333 211.399 100.706 213.033 101.428C214.667 102.15 216.133 103.206 217.335 104.527C219.865 107.294 221.065 111.05 221.588 114.764C222.11 118.478 222.027 122.25 222.374 125.99C222.664 129.093 223.253 132.197 223.129 135.301C223.005 138.405 222.064 141.654 219.782 143.78C218.609 144.777 217.299 145.601 215.892 146.227C214.545 146.977 213.084 147.501 211.567 147.779C210.808 147.914 210.027 147.876 209.284 147.668C208.54 147.46 207.854 147.088 207.274 146.578C206.349 146.798 205.398 146.882 204.449 146.827Z" fill="#034EA2"/>
<path opacity="0.7" d="M204.449 146.827C202.3 146.75 200.191 146.226 198.255 145.288C196.32 144.35 194.601 143.02 193.209 141.381C191.816 139.742 190.781 137.831 190.168 135.77C189.555 133.709 189.378 131.542 189.649 129.409C190.037 126.367 191.31 123.522 192.21 120.615C193.912 115.069 194.455 108.815 198.355 104.527C199.558 103.206 201.024 102.15 202.658 101.428C204.292 100.706 206.059 100.333 207.845 100.333C209.632 100.333 211.399 100.706 213.033 101.428C214.667 102.15 216.133 103.206 217.335 104.527C219.865 107.294 221.065 111.05 221.588 114.764C222.11 118.478 222.027 122.25 222.374 125.99C222.664 129.093 223.253 132.197 223.129 135.301C223.005 138.405 222.064 141.654 219.782 143.78C218.609 144.777 217.299 145.601 215.892 146.227C214.545 146.977 213.084 147.501 211.567 147.779C210.808 147.914 210.027 147.876 209.284 147.668C208.54 147.46 207.854 147.088 207.274 146.578C206.349 146.798 205.398 146.882 204.449 146.827Z" fill="white"/>
<path d="M211.578 158.146V157.375L210.29 156.278C210.29 156.278 208.738 140.496 208.485 135.948C208.231 131.401 207.905 124.185 209.581 118.965C208.092 122.529 207.034 126.257 206.431 130.072C206.431 130.072 204.434 122.892 200.891 118.313C200.891 118.313 205.21 129.353 204.631 139.621C204.335 145.452 203.602 151.251 202.437 156.972L201.667 157.489L201.599 158.13L211.578 158.146Z" fill="#034EA2"/>
<path d="M207.647 132.819C207.647 132.819 208.765 127.842 211.786 125.375C211.786 125.375 209.256 128.856 208.428 134.769C207.601 140.682 206.711 136.91 206.711 136.91L207.647 132.819Z" fill="#034EA2"/>
<path opacity="0.2" d="M209.509 148.064C210.057 144.474 211.211 143.351 211.211 143.351C210.376 143.861 209.702 144.596 209.266 145.472C208.919 141.649 208.593 137.831 208.485 135.948C208.485 135.571 208.443 135.172 208.423 134.764C209.25 128.856 211.78 125.375 211.78 125.375C210.021 126.808 208.909 129.089 208.283 130.749C208.231 126.859 208.459 122.473 209.581 118.965C208.092 122.529 207.034 126.257 206.431 130.072C206.431 130.072 204.434 122.892 200.891 118.313C200.891 118.313 205.21 129.353 204.631 139.621C204.335 145.452 203.602 151.251 202.437 156.972L201.667 157.489L201.599 158.13H211.578V157.36L210.29 156.263C210.29 156.263 209.928 152.476 209.509 148.064Z" fill="black"/>
</svg>
