<svg width="271" height="208" viewBox="0 0 271 208" fill="none" xmlns="http://www.w3.org/2000/svg">
<g clip-path="url(#clip0_24584_176368)">
<path d="M271 51L201 184.34L151.4 160.86L113.66 143L145.14 124.6L147.76 123.06L271 51Z" fill="#034EA2"/>
<path d="M271 51L89.34 129.66L13 112.34L271 51Z" fill="#034EA2"/>
<path d="M151.4 160.86L113.66 207.66V143L151.4 160.86Z" fill="#01336B"/>
<path d="M271 51L113.66 143V207.66L89.3398 129.66L271 51Z" fill="#023E82"/>
</g>
<path d="M113.671 29.5025L117.001 133.5L226.001 72.5024L224.49 2.92543L113.671 29.5025Z" fill="#EFF6FF"/>
<path d="M232 1L233 41" stroke="#C3DDFD"/>
<path d="M157.07 96L123 113.609" stroke="#A4CAFE"/>
<path d="M6.95987 197.999L242.961 63.5015" stroke="#E2E8F0"/>
<path d="M13.1809 123.834L72.4192 137.47" stroke="#E2E8F0"/>
<defs>
<clipPath id="clip0_24584_176368">
<rect width="258" height="156.66" fill="white" transform="translate(13 51)"/>
</clipPath>
</defs>
</svg>
