<svg width="20" height="20" viewBox="0 0 20 20" fill="none" xmlns="http://www.w3.org/2000/svg">
<path fill-rule="evenodd" clip-rule="evenodd" d="M9.16675 8.33317C8.70651 8.33317 8.33341 8.70627 8.33341 9.1665V16.6665C8.33341 17.1267 8.70651 17.4998 9.16675 17.4998H16.6667C17.127 17.4998 17.5001 17.1267 17.5001 16.6665V9.1665C17.5001 8.70627 17.127 8.33317 16.6667 8.33317H9.16675ZM6.66675 9.1665C6.66675 7.78579 7.78604 6.6665 9.16675 6.6665H16.6667C18.0475 6.6665 19.1667 7.78579 19.1667 9.1665V16.6665C19.1667 18.0472 18.0475 19.1665 16.6667 19.1665H9.16675C7.78604 19.1665 6.66675 18.0472 6.66675 16.6665V9.1665Z" fill="#9FA6B2"/>
<path fill-rule="evenodd" clip-rule="evenodd" d="M3.33325 2.50016C3.11224 2.50016 2.90028 2.58796 2.744 2.74424C2.58772 2.90052 2.49992 3.11248 2.49992 3.3335V10.8335C2.49992 11.0545 2.58772 11.2665 2.744 11.4228C2.90028 11.579 3.11224 11.6668 3.33325 11.6668H4.16659C4.62682 11.6668 4.99992 12.0399 4.99992 12.5002C4.99992 12.9604 4.62682 13.3335 4.16659 13.3335H3.33325C2.67021 13.3335 2.03433 13.0701 1.56548 12.6013C1.09664 12.1324 0.833252 11.4965 0.833252 10.8335V3.3335C0.833252 2.67046 1.09664 2.03457 1.56548 1.56573C2.03433 1.09689 2.67021 0.833496 3.33325 0.833496H10.8333C11.4963 0.833496 12.1322 1.09689 12.601 1.56573C13.0699 2.03457 13.3333 2.67045 13.3333 3.3335V4.16683C13.3333 4.62707 12.9602 5.00016 12.4999 5.00016C12.0397 5.00016 11.6666 4.62707 11.6666 4.16683V3.3335C11.6666 3.11248 11.5788 2.90052 11.4225 2.74424C11.2662 2.58796 11.0543 2.50016 10.8333 2.50016H3.33325Z" fill="#9FA6B2"/>
</svg>
