<svg width="70" height="70" viewBox="0 0 70 70" fill="none" xmlns="http://www.w3.org/2000/svg">
<rect width="70" height="70" rx="10" fill="#F1F5F9"/>
<path d="M34.9993 28.1602C32.1662 28.1602 29.87 29.6904 29.87 31.5797C29.87 33.469 32.1662 34.9993 34.9993 34.9993C37.8324 34.9993 40.1286 36.5295 40.1286 38.4188C40.1286 40.3081 37.8324 41.8383 34.9993 41.8383M34.9993 28.1602V41.8383M34.9993 28.1602C36.8971 28.1602 38.5556 28.8475 39.443 29.87M34.9993 28.1602V26.4504M34.9993 41.8383V43.5481M34.9993 41.8383C33.1014 41.8383 31.4429 41.151 30.5556 40.1286M50.3872 34.9993C50.3872 37.02 49.9892 39.021 49.2159 40.888C48.4425 42.7549 47.3091 44.4513 45.8802 45.8802C44.4513 47.3091 42.7549 48.4425 40.888 49.2159C39.021 49.9892 37.02 50.3872 34.9993 50.3872C32.9785 50.3872 30.9775 49.9892 29.1106 49.2159C27.2436 48.4425 25.5473 47.3091 24.1183 45.8802C22.6894 44.4513 21.556 42.7549 20.7827 40.888C20.0093 39.021 19.6113 37.02 19.6113 34.9993C19.6113 30.9181 21.2326 27.0041 24.1183 24.1183C27.0041 21.2326 30.9181 19.6113 34.9993 19.6113C39.0804 19.6113 42.9944 21.2326 45.8802 24.1183C48.766 27.0041 50.3872 30.9181 50.3872 34.9993Z" stroke="#034EA2" stroke-width="2" stroke-linecap="round" stroke-linejoin="round"/>
</svg>
