<svg width="22" height="22" viewBox="0 0 22 22" fill="none" xmlns="http://www.w3.org/2000/svg">
<path fill-rule="evenodd" clip-rule="evenodd" d="M3.66659 4.58317C3.66658 4.58399 3.66657 4.58795 3.66939 4.59719C3.6725 4.6074 3.68018 4.62758 3.69874 4.65782C3.73765 4.7212 3.81699 4.81649 3.96564 4.93363C4.2683 5.17216 4.76307 5.42706 5.45616 5.65809C6.83277 6.11696 8.79285 6.4165 10.9999 6.4165C13.207 6.4165 15.1671 6.11696 16.5437 5.65809C17.2368 5.42706 17.7315 5.17216 18.0342 4.93363C18.1828 4.81649 18.2622 4.7212 18.3011 4.65782C18.3197 4.62758 18.3273 4.6074 18.3305 4.59719C18.3333 4.58795 18.3333 4.58405 18.3333 4.58323C18.3333 4.58256 18.3333 4.57864 18.3305 4.56915C18.3273 4.55894 18.3197 4.53876 18.3011 4.50852C18.2622 4.44514 18.1828 4.34985 18.0342 4.23271C17.7315 3.99418 17.2368 3.73929 16.5437 3.50825C15.1671 3.04938 13.207 2.74984 10.9999 2.74984C8.79285 2.74984 6.83277 3.04938 5.45616 3.50825C4.76307 3.73929 4.2683 3.99418 3.96564 4.23271C3.81699 4.34985 3.73765 4.44514 3.69874 4.50852C3.68018 4.53876 3.6725 4.55894 3.66939 4.56915C3.66657 4.57839 3.66658 4.58236 3.66659 4.58317ZM4.87641 1.769C6.48571 1.23257 8.65064 0.916504 10.9999 0.916504C13.3492 0.916504 15.5141 1.23257 17.1234 1.769C17.9233 2.03562 18.6367 2.3733 19.169 2.79279C19.6909 3.20413 20.1666 3.80222 20.1666 4.58317C20.1666 5.36412 19.6909 5.96221 19.169 6.37356C18.6367 6.79304 17.9233 7.13072 17.1234 7.39734C15.5141 7.93377 13.3492 8.24984 10.9999 8.24984C8.65064 8.24984 6.48571 7.93377 4.87641 7.39734C4.07655 7.13072 3.36313 6.79304 2.83085 6.37356C2.3089 5.96221 1.83325 5.36412 1.83325 4.58317C1.83325 3.80222 2.3089 3.20413 2.83085 2.79279C3.36313 2.3733 4.07655 2.03562 4.87641 1.769Z" fill="#9EAFC2"/>
<path fill-rule="evenodd" clip-rule="evenodd" d="M2.74992 10.0832C3.25618 10.0832 3.66659 10.4936 3.66659 10.9998C3.66659 11.0016 3.66666 11.0063 3.6697 11.0163C3.67296 11.0271 3.68074 11.0476 3.6992 11.0779C3.73783 11.1413 3.81644 11.2363 3.96376 11.353C4.26387 11.5908 4.75547 11.8453 5.44645 12.076C6.81892 12.5342 8.77862 12.8332 10.9999 12.8332C13.2212 12.8332 15.1809 12.5342 16.5534 12.076C17.2444 11.8453 17.736 11.5908 18.0361 11.353C18.1834 11.2363 18.262 11.1413 18.3006 11.0779C18.3191 11.0476 18.3269 11.0271 18.3301 11.0163C18.3332 11.0063 18.3333 11.0016 18.3333 10.9998C18.3333 10.4936 18.7437 10.0832 19.2499 10.0832C19.7562 10.0832 20.1666 10.4936 20.1666 10.9998C20.1666 11.7784 19.6962 12.3767 19.1747 12.7899C18.6441 13.2104 17.9326 13.5483 17.1339 13.815C15.5273 14.3513 13.362 14.6665 10.9999 14.6665C8.63788 14.6665 6.47259 14.3513 4.86589 13.815C4.06728 13.5483 3.35575 13.2104 2.82514 12.7899C2.30368 12.3767 1.83325 11.7784 1.83325 10.9998C1.83325 10.4936 2.24366 10.0832 2.74992 10.0832Z" fill="#9EAFC2"/>
<path fill-rule="evenodd" clip-rule="evenodd" d="M2.74992 3.6665C3.25618 3.6665 3.66659 4.07691 3.66659 4.58317V17.4165C3.66659 17.4182 3.66666 17.4229 3.6697 17.433C3.67296 17.4438 3.68074 17.4643 3.6992 17.4945C3.73783 17.5579 3.81644 17.653 3.96376 17.7697C4.26387 18.0075 4.75547 18.262 5.44645 18.4926C6.81892 18.9508 8.77862 19.2498 10.9999 19.2498C13.2212 19.2498 15.1809 18.9508 16.5534 18.4926C17.2444 18.262 17.736 18.0075 18.0361 17.7697C18.1834 17.653 18.262 17.5579 18.3006 17.4945C18.3191 17.4643 18.3269 17.4438 18.3301 17.433C18.3332 17.4229 18.3333 17.4182 18.3333 17.4165V4.58323C18.3333 4.07697 18.7437 3.6665 19.2499 3.6665C19.7562 3.6665 20.1666 4.07691 20.1666 4.58317V17.4165C20.1666 18.1951 19.6962 18.7934 19.1747 19.2066C18.6441 19.6271 17.9326 19.965 17.1339 20.2316C15.5273 20.768 13.362 21.0832 10.9999 21.0832C8.63788 21.0832 6.47259 20.768 4.86589 20.2316C4.06728 19.965 3.35575 19.6271 2.82514 19.2066C2.30368 18.7934 1.83325 18.1951 1.83325 17.4165V4.58317C1.83325 4.07691 2.24366 3.6665 2.74992 3.6665Z" fill="#9EAFC2"/>
</svg>
