<svg width="19" height="21" viewBox="0 0 19 21" fill="none" xmlns="http://www.w3.org/2000/svg">
<path fill-rule="evenodd" clip-rule="evenodd" d="M0.75 5.25C0.75 4.76675 1.14175 4.375 1.625 4.375H17.375C17.8582 4.375 18.25 4.76675 18.25 5.25C18.25 5.73325 17.8582 6.125 17.375 6.125H1.625C1.14175 6.125 0.75 5.73325 0.75 5.25Z" fill="#9FA6B2"/>
<path fill-rule="evenodd" clip-rule="evenodd" d="M7.75 2.625C7.51794 2.625 7.29538 2.71719 7.13128 2.88128C6.96719 3.04538 6.875 3.26794 6.875 3.5V4.375H12.125V3.5C12.125 3.26794 12.0328 3.04538 11.8687 2.88128C11.7046 2.71719 11.4821 2.625 11.25 2.625H7.75ZM13.875 4.375V3.5C13.875 2.80381 13.5984 2.13613 13.1062 1.64384C12.6139 1.15156 11.9462 0.875 11.25 0.875H7.75C7.05381 0.875 6.38613 1.15156 5.89385 1.64384C5.40156 2.13613 5.125 2.80381 5.125 3.5V4.375H3.375C2.89175 4.375 2.5 4.76675 2.5 5.25V17.5C2.5 18.1962 2.77656 18.8639 3.26884 19.3562C3.76113 19.8484 4.42881 20.125 5.125 20.125H13.875C14.5712 20.125 15.2389 19.8484 15.7312 19.3562C16.2234 18.8639 16.5 18.1962 16.5 17.5V5.25C16.5 4.76675 16.1082 4.375 15.625 4.375H13.875ZM4.25 6.125V17.5C4.25 17.7321 4.34219 17.9546 4.50628 18.1187C4.67038 18.2828 4.89294 18.375 5.125 18.375H13.875C14.1071 18.375 14.3296 18.2828 14.4937 18.1187C14.6578 17.9546 14.75 17.7321 14.75 17.5V6.125H4.25Z" fill="#9FA6B2"/>
<path fill-rule="evenodd" clip-rule="evenodd" d="M7.75 8.75C8.23325 8.75 8.625 9.14175 8.625 9.625V14.875C8.625 15.3582 8.23325 15.75 7.75 15.75C7.26675 15.75 6.875 15.3582 6.875 14.875V9.625C6.875 9.14175 7.26675 8.75 7.75 8.75Z" fill="#9FA6B2"/>
<path fill-rule="evenodd" clip-rule="evenodd" d="M11.25 8.75C11.7332 8.75 12.125 9.14175 12.125 9.625V14.875C12.125 15.3582 11.7332 15.75 11.25 15.75C10.7668 15.75 10.375 15.3582 10.375 14.875V9.625C10.375 9.14175 10.7668 8.75 11.25 8.75Z" fill="#9FA6B2"/>
</svg>
