<svg width="224" height="210" viewBox="0 0 224 210" fill="none" xmlns="http://www.w3.org/2000/svg">
<g style="mix-blend-mode:multiply">
<circle cx="117.646" cy="69.0284" r="63.0284" fill="#F9FAFB"/>
</g>
<g style="mix-blend-mode:multiply" opacity="0.5">
<circle cx="146.709" cy="116.378" r="59.498" fill="#FAFAFA"/>
</g>
<g style="mix-blend-mode:multiply" opacity="0.8">
<circle cx="80.88" cy="90.418" r="63.0284" fill="#FAFAFA"/>
</g>
<g filter="url(#filter0_d_7031_1592)">
<path opacity="0.22" d="M100.641 56.8271L103.809 67.0872C104.213 68.393 105.119 69.4849 106.328 70.1231C107.537 70.7613 108.95 70.8936 110.256 70.4909L120.512 67.3227L100.641 56.8271Z" fill="#081A46"/>
<path d="M100.64 56.8271L63.9814 68.1536C63.3342 68.3524 62.7326 68.6769 62.211 69.1084C61.6894 69.54 61.258 70.0701 60.9414 70.6685C60.6249 71.267 60.4294 71.9219 60.3662 72.596C60.303 73.27 60.3734 73.9499 60.5732 74.5967L81.5021 142.351C81.7019 142.998 82.0271 143.599 82.4593 144.121C82.8914 144.642 83.422 145.073 84.0207 145.389C84.6195 145.705 85.2746 145.9 85.9488 145.963C86.6229 146.026 87.3028 145.955 87.9496 145.755L134.869 131.26C135.515 131.061 136.116 130.736 136.638 130.304C137.159 129.873 137.59 129.343 137.906 128.744C138.222 128.146 138.417 127.491 138.48 126.817C138.543 126.143 138.472 125.464 138.272 124.817L120.498 67.3227L100.64 56.8271Z" fill="#081A46"/>
<path opacity="0.8" d="M100.64 56.8271L63.9814 68.1536C63.3342 68.3524 62.7326 68.6769 62.211 69.1084C61.6894 69.54 61.258 70.0701 60.9414 70.6685C60.6249 71.267 60.4294 71.9219 60.3662 72.596C60.303 73.27 60.3734 73.9499 60.5732 74.5967L81.5021 142.351C81.7019 142.998 82.0271 143.599 82.4593 144.121C82.8914 144.642 83.422 145.073 84.0207 145.389C84.6195 145.705 85.2746 145.9 85.9488 145.963C86.6229 146.026 87.3028 145.955 87.9496 145.755L134.869 131.26C135.515 131.061 136.116 130.736 136.638 130.304C137.159 129.873 137.59 129.343 137.906 128.744C138.222 128.146 138.417 127.491 138.48 126.817C138.543 126.143 138.472 125.464 138.272 124.817L120.498 67.3227L100.64 56.8271Z" fill="white"/>
<g opacity="0.28">
<path opacity="0.28" d="M120.368 128.301L89.8682 137.721C89.2978 137.896 88.6812 137.838 88.1533 137.56C87.6254 137.282 87.2291 136.806 87.051 136.237C86.8773 135.666 86.9364 135.051 87.2153 134.524C87.4942 133.997 87.9703 133.601 88.5396 133.424L119.04 123.999C119.611 123.824 120.228 123.883 120.756 124.162C121.284 124.441 121.68 124.918 121.857 125.488C122.031 126.058 121.972 126.674 121.693 127.201C121.414 127.728 120.938 128.124 120.368 128.301Z" fill="#081A46"/>
</g>
<g opacity="0.28">
<path opacity="0.28" d="M87.5373 73.0142L71.4074 77.9954C70.837 78.1693 70.221 78.111 69.6934 77.8331C69.1658 77.5551 68.7693 77.0801 68.5902 76.5112C68.4164 75.9403 68.4754 75.3237 68.7542 74.796C69.033 74.2683 69.5091 73.8722 70.0788 73.6941L86.2087 68.7129C86.7791 68.5365 87.3962 68.5937 87.9244 68.872C88.4526 69.1503 88.8488 69.6268 89.0258 70.197C89.1996 70.768 89.1407 71.3845 88.8619 71.9122C88.583 72.4399 88.1069 72.836 87.5373 73.0142Z" fill="#081A46"/>
</g>
<g opacity="0.28">
<path opacity="0.28" d="M100.697 78.2973L74.036 86.5311C73.4668 86.702 72.8531 86.6416 72.3282 86.3629C71.8033 86.0843 71.4094 85.6098 71.2322 85.0425C71.0571 84.4727 71.115 83.8568 71.3932 83.3296C71.6713 82.8024 72.1471 82.4069 72.7163 82.2298L99.3773 73.996C99.9477 73.8208 100.564 73.8786 101.092 74.1567C101.62 74.4348 102.016 74.9106 102.194 75.4801C102.367 76.0523 102.306 76.6693 102.025 77.1969C101.745 77.7245 101.268 78.12 100.697 78.2973Z" fill="#081A46"/>
</g>
<g opacity="0.28">
<path opacity="0.28" d="M115.584 83.048L76.6768 95.0455C76.107 95.2205 75.491 95.1626 74.9638 94.8844C74.4366 94.6063 74.0411 94.1305 73.864 93.5613C73.69 92.9909 73.7484 92.3749 74.0263 91.8473C74.3043 91.3197 74.7793 90.9232 75.3481 90.7441L114.255 78.7467C114.825 78.5728 115.441 78.6313 115.968 78.9093C116.494 79.1873 116.89 79.6623 117.068 80.2308C117.243 80.8012 117.186 81.4178 116.907 81.9457C116.629 82.4736 116.154 82.8699 115.584 83.048Z" fill="#081A46"/>
</g>
<g opacity="0.28">
<path opacity="0.28" d="M118.224 91.5799L95.6063 98.5695C95.0359 98.7431 94.42 98.6841 93.893 98.4052C93.366 98.1263 92.9708 97.6502 92.7936 97.0809C92.6197 96.5111 92.6782 95.8957 92.9562 95.3688C93.2342 94.8419 93.7092 94.4463 94.2777 94.2682L116.895 87.2786C117.466 87.106 118.082 87.1655 118.609 87.4442C119.137 87.7228 119.533 88.1982 119.712 88.7671C119.886 89.3375 119.827 89.9535 119.548 90.4804C119.269 91.0074 118.793 91.4027 118.224 91.5799Z" fill="#081A46"/>
</g>
<g opacity="0.28">
<path opacity="0.28" d="M85.229 101.773L79.3147 103.599C78.7443 103.774 78.1278 103.716 77.5999 103.438C77.0719 103.16 76.6756 102.684 76.4975 102.115C76.3225 101.544 76.3809 100.927 76.6599 100.399C76.9389 99.8708 77.4158 99.4749 77.9861 99.2977L83.9004 97.4714C84.4708 97.2975 85.0868 97.3558 85.6144 97.6337C86.142 97.9117 86.5385 98.3868 86.7176 98.9556C86.8902 99.5265 86.8307 100.143 86.552 100.67C86.2733 101.197 85.798 101.594 85.229 101.773Z" fill="#081A46"/>
</g>
<g opacity="0.28">
<path opacity="0.28" d="M120.866 100.115L81.959 112.135C81.3886 112.309 80.7726 112.25 80.2457 111.971C79.7187 111.692 79.3234 111.216 79.1462 110.646C78.9712 110.077 79.0291 109.461 79.3072 108.934C79.5854 108.406 80.0612 108.011 80.6304 107.834L119.538 95.8141C120.107 95.6402 120.723 95.6987 121.25 95.9767C121.777 96.2547 122.172 96.7297 122.35 97.2982C122.526 97.8686 122.468 98.4851 122.19 99.0131C121.912 99.541 121.436 99.9373 120.866 100.115Z" fill="#081A46"/>
</g>
<g opacity="0.28">
<path opacity="0.28" d="M108.491 113.287L84.5986 120.668C84.0288 120.842 83.4134 120.783 82.8865 120.505C82.3596 120.227 81.964 119.752 81.7859 119.184C81.6119 118.613 81.6703 117.997 81.9482 117.47C82.2261 116.942 82.7012 116.545 83.27 116.366L107.163 108.986C107.734 108.812 108.35 108.871 108.878 109.15C109.406 109.429 109.802 109.905 109.98 110.474C110.155 111.045 110.096 111.661 109.817 112.188C109.538 112.716 109.061 113.111 108.491 113.287Z" fill="#081A46"/>
</g>
<g opacity="0.28">
<path opacity="0.28" d="M123.495 108.651L117.118 110.619C116.547 110.793 115.931 110.734 115.403 110.455C114.875 110.176 114.479 109.7 114.301 109.131C114.127 108.56 114.186 107.944 114.465 107.417C114.744 106.89 115.22 106.495 115.79 106.318L122.166 104.349C122.736 104.174 123.352 104.232 123.879 104.51C124.406 104.789 124.802 105.264 124.979 105.833C125.154 106.404 125.096 107.02 124.818 107.548C124.54 108.076 124.064 108.473 123.495 108.651Z" fill="#081A46"/>
</g>
<g opacity="0.28">
<path opacity="0.28" d="M126.135 117.192L87.2365 129.189C86.6655 129.364 86.0484 129.306 85.5204 129.027C84.9924 128.748 84.5964 128.271 84.4193 127.701C84.2444 127.13 84.3029 126.514 84.582 125.987C84.861 125.459 85.3379 125.064 85.9078 124.888L124.811 112.868C125.382 112.696 125.998 112.755 126.525 113.034C127.052 113.313 127.449 113.788 127.628 114.357C127.717 114.641 127.749 114.94 127.722 115.237C127.696 115.533 127.61 115.822 127.472 116.085C127.333 116.349 127.143 116.582 126.914 116.772C126.684 116.962 126.42 117.105 126.135 117.192Z" fill="#081A46"/>
</g>
<path d="M142.815 61.75L104.521 64.1139C103.844 64.1542 103.182 64.3274 102.573 64.6237C101.963 64.9201 101.418 65.3337 100.968 65.8409C100.519 66.3482 100.174 66.9391 99.9532 67.5798C99.7323 68.2206 99.64 68.8986 99.6816 69.575L104.05 140.351C104.09 141.028 104.264 141.69 104.561 142.3C104.858 142.909 105.273 143.454 105.781 143.904C106.289 144.353 106.881 144.697 107.523 144.917C108.164 145.137 108.843 145.228 109.519 145.186L158.531 142.16C159.207 142.119 159.868 141.945 160.477 141.648C161.085 141.352 161.629 140.938 162.077 140.431C162.526 139.923 162.87 139.332 163.089 138.692C163.309 138.052 163.4 137.374 163.357 136.699L159.669 76.6357L142.815 61.75Z" fill="#081A46"/>
<path opacity="0.8" d="M142.815 61.75L104.521 64.1139C103.844 64.1542 103.182 64.3274 102.573 64.6237C101.963 64.9201 101.418 65.3337 100.968 65.8409C100.519 66.3482 100.174 66.9391 99.9532 67.5798C99.7323 68.2206 99.64 68.8986 99.6816 69.575L104.05 140.351C104.09 141.028 104.264 141.69 104.561 142.3C104.858 142.909 105.273 143.454 105.781 143.904C106.289 144.353 106.881 144.697 107.523 144.917C108.164 145.137 108.843 145.228 109.519 145.186L158.531 142.16C159.207 142.119 159.868 141.945 160.477 141.648C161.085 141.352 161.629 140.938 162.077 140.431C162.526 139.923 162.87 139.332 163.089 138.692C163.309 138.052 163.4 137.374 163.357 136.699L159.669 76.6357L142.815 61.75Z" fill="white"/>
<g opacity="0.22">
<path opacity="0.22" d="M145.117 135.855L113.253 137.823C112.657 137.857 112.073 137.654 111.627 137.259C111.18 136.864 110.909 136.308 110.871 135.713C110.837 135.118 111.039 134.533 111.433 134.086C111.828 133.639 112.382 133.366 112.977 133.326L144.841 131.362C145.437 131.327 146.022 131.529 146.469 131.923C146.916 132.318 147.189 132.874 147.228 133.469C147.263 134.065 147.061 134.65 146.665 135.098C146.269 135.545 145.713 135.817 145.117 135.855Z" fill="#081A46"/>
</g>
<g opacity="0.22">
<path opacity="0.22" d="M126.267 74.3929L109.413 75.4238C108.818 75.4579 108.234 75.2558 107.787 74.8614C107.34 74.467 107.067 73.9122 107.027 73.3176C106.993 72.7219 107.196 72.1368 107.591 71.6899C107.986 71.2429 108.542 70.9703 109.138 70.9314L125.992 69.8917C126.587 69.8564 127.171 70.0582 127.618 70.4529C128.064 70.8477 128.336 71.4032 128.374 71.9979C128.411 72.5946 128.211 73.182 127.816 73.6311C127.421 74.0801 126.864 74.3541 126.267 74.3929Z" fill="#081A46"/>
</g>
<g opacity="0.22">
<path opacity="0.22" d="M137.808 82.6304L109.96 84.3456C109.365 84.3821 108.779 84.1808 108.332 83.7859C107.884 83.3911 107.612 82.8349 107.574 82.2394C107.539 81.6433 107.741 81.0576 108.137 80.6104C108.532 80.1632 109.089 79.8909 109.685 79.8532L137.528 78.138C138.123 78.1015 138.709 78.3028 139.157 78.6976C139.604 79.0925 139.876 79.6487 139.914 80.2442C139.949 80.8395 139.748 81.4246 139.353 81.8717C138.958 82.3188 138.403 82.5915 137.808 82.6304Z" fill="#081A46"/>
</g>
<g opacity="0.22">
<path opacity="0.22" d="M151.156 90.7583L110.516 93.2645C109.919 93.301 109.332 93.0994 108.883 92.7038C108.434 92.3082 108.16 91.7509 108.121 91.1538C108.086 90.559 108.288 89.9744 108.682 89.528C109.077 89.0816 109.633 88.8098 110.227 88.7721L150.872 86.2615C151.467 86.2274 152.052 86.4303 152.498 86.8257C152.944 87.2212 153.216 87.7771 153.254 88.3722C153.289 88.966 153.089 89.5498 152.696 89.9967C152.303 90.4435 151.75 90.7172 151.156 90.7583Z" fill="#081A46"/>
</g>
<g opacity="0.22">
<path opacity="0.22" d="M151.704 99.6704L128.078 101.128C127.483 101.163 126.898 100.962 126.45 100.567C126.003 100.172 125.731 99.6167 125.692 99.0217C125.655 98.4261 125.856 97.8404 126.251 97.393C126.646 96.9457 127.202 96.6732 127.798 96.6355L151.424 95.1781C152.02 95.1416 152.605 95.3428 153.053 95.7377C153.5 96.1326 153.772 96.6888 153.81 97.2843C153.845 97.8796 153.644 98.4646 153.249 98.9117C152.855 99.3588 152.299 99.6316 151.704 99.6704Z" fill="#081A46"/>
</g>
<g opacity="0.22">
<path opacity="0.22" d="M117.246 101.796L111.065 102.178C110.471 102.213 109.886 102.011 109.44 101.617C108.993 101.222 108.721 100.666 108.684 100.072C108.648 99.4765 108.85 98.8914 109.245 98.4444C109.639 97.9973 110.195 97.7245 110.79 97.6857L116.971 97.3035C117.567 97.2694 118.152 97.4721 118.599 97.8675C119.045 98.2628 119.318 98.8187 119.357 99.4142C119.391 100.009 119.188 100.594 118.793 101.04C118.397 101.486 117.841 101.758 117.246 101.796Z" fill="#081A46"/>
</g>
<g opacity="0.22">
<path opacity="0.22" d="M152.261 108.585L111.616 111.091C111.021 111.127 110.436 110.925 109.989 110.53C109.542 110.136 109.269 109.58 109.23 108.985C109.196 108.389 109.399 107.804 109.794 107.357C110.19 106.91 110.745 106.638 111.341 106.599L151.981 104.093C152.577 104.058 153.163 104.26 153.61 104.655C154.057 105.051 154.33 105.608 154.367 106.203C154.403 106.798 154.201 107.383 153.806 107.829C153.411 108.276 152.856 108.547 152.261 108.585Z" fill="#081A46"/>
</g>
<g opacity="0.22">
<path opacity="0.22" d="M137.122 118.468L112.163 120.01C111.568 120.044 110.983 119.841 110.536 119.446C110.089 119.05 109.816 118.494 109.777 117.899C109.743 117.304 109.946 116.719 110.341 116.273C110.737 115.827 111.293 115.555 111.888 115.517L136.847 113.975C137.442 113.941 138.027 114.144 138.473 114.54C138.919 114.935 139.191 115.491 139.229 116.086C139.265 116.681 139.064 117.266 138.669 117.713C138.274 118.16 137.718 118.431 137.122 118.468Z" fill="#081A46"/>
</g>
<g opacity="0.22">
<path opacity="0.22" d="M152.801 117.502L146.136 117.911C145.541 117.947 144.957 117.745 144.51 117.35C144.064 116.955 143.792 116.4 143.754 115.805C143.718 115.209 143.919 114.624 144.314 114.176C144.709 113.729 145.265 113.457 145.86 113.419L152.526 113.01C153.121 112.974 153.707 113.175 154.154 113.57C154.602 113.965 154.874 114.521 154.912 115.116C154.946 115.712 154.743 116.297 154.348 116.744C153.953 117.191 153.397 117.464 152.801 117.502Z" fill="#081A46"/>
</g>
<g opacity="0.22">
<path opacity="0.22" d="M153.351 126.416L112.71 128.922C112.115 128.958 111.53 128.756 111.083 128.361C110.636 127.967 110.363 127.411 110.324 126.816C110.289 126.221 110.491 125.636 110.885 125.189C111.28 124.742 111.835 124.469 112.43 124.43L153.075 121.924C153.67 121.889 154.255 122.09 154.701 122.485C155.147 122.88 155.419 123.435 155.457 124.03C155.493 124.626 155.292 125.211 154.897 125.659C154.502 126.106 153.946 126.379 153.351 126.416Z" fill="#081A46"/>
</g>
<path opacity="0.22" d="M142.805 61.75L143.467 72.4677C143.508 73.1435 143.682 73.8045 143.979 74.413C144.276 75.0215 144.69 75.5655 145.197 76.014C145.704 76.4626 146.294 76.8068 146.935 77.0271C147.575 77.2473 148.252 77.3393 148.928 77.2978L159.659 76.6357L142.805 61.75Z" fill="#081A46"/>
</g>
<defs>
<filter id="filter0_d_7031_1592" x="0.34375" y="0.827148" width="223.023" height="209.158" filterUnits="userSpaceOnUse" color-interpolation-filters="sRGB">
<feFlood flood-opacity="0" result="BackgroundImageFix"/>
<feColorMatrix in="SourceAlpha" type="matrix" values="0 0 0 0 0 0 0 0 0 0 0 0 0 0 0 0 0 0 127 0" result="hardAlpha"/>
<feOffset dy="4"/>
<feGaussianBlur stdDeviation="30"/>
<feColorMatrix type="matrix" values="0 0 0 0 0.407843 0 0 0 0 0.458824 0 0 0 0 0.509804 0 0 0 0.05 0"/>
<feBlend mode="normal" in2="BackgroundImageFix" result="effect1_dropShadow_7031_1592"/>
<feBlend mode="normal" in="SourceGraphic" in2="effect1_dropShadow_7031_1592" result="shape"/>
</filter>
</defs>
</svg>
