<svg width="30" height="30" viewBox="0 0 30 30" fill="none" xmlns="http://www.w3.org/2000/svg">
<rect width="30" height="30" rx="15" fill="#EBF5FF"/>
<g clip-path="url(#clip0_24584_156649)">
<mask id="mask0_24584_156649" style="mask-type:luminance" maskUnits="userSpaceOnUse" x="4" y="13" width="22" height="4">
<path d="M4 17H26.0001V13H4V17Z" fill="white"/>
</mask>
<g mask="url(#mask0_24584_156649)">
<path d="M25.9386 14.0754H25.4577C25.3729 14.0754 25.2947 14.1535 25.2938 14.1552L23.4666 16.4976C23.4323 16.5412 23.3781 16.5402 23.3456 16.4955L21.6583 14.1555C21.6574 14.1535 21.5947 14.0734 21.4766 14.0734H18.2357C18.179 14.0734 18.1334 14.0287 18.1337 13.9735L18.1359 13.2005C18.1359 13.0895 18.0441 13 17.9316 13H12.9676C12.1988 13.0254 11.87 13.1007 11.5183 13.3018C11.194 13.4879 11.0321 13.724 11.0321 14.0078C11.0321 14.3088 11.283 14.6055 11.7848 14.8982C11.9138 14.9742 12.3783 15.1933 13.1772 15.5548C13.6792 15.7819 13.9499 15.9687 13.9304 16.1532C13.8999 16.45 13.6244 16.5519 12.9676 16.5519H9.96629C9.89363 16.5519 9.83434 16.5396 9.83434 16.484C9.83434 16.4568 9.85094 16.432 9.88227 16.4124L9.88173 16.412C10.5537 16.0166 10.7754 15.4823 10.7754 14.9981C10.7754 14.092 9.99708 13 6.89823 13H4.20395C4.09128 13 4 13.0895 4 13.2005V16.8004C4 16.9104 4.09128 17 4.20428 17H6.89823C7.00108 17 7.10087 16.9988 7.19766 16.9963H13.9362C14.5516 16.9963 15.0324 16.8966 15.3796 16.6982C15.7001 16.5135 15.8604 16.2799 15.8604 15.9944C15.8604 15.6947 15.6096 15.3986 15.1078 15.1061C14.9793 15.0303 14.5151 14.8097 13.7149 14.4466C13.2132 14.2196 12.9624 14.0361 12.9624 13.8959C12.9624 13.5952 13.2873 13.4494 13.9362 13.4494H16.2142C16.2706 13.4494 16.3163 13.4939 16.3166 13.5489L16.3152 16.161C16.3152 16.5439 16.574 16.9963 17.3584 16.9963H23.6197C23.7681 16.9963 23.843 16.9024 23.843 16.9024L25.9884 14.1419C25.9884 14.1419 26.0359 14.0754 25.9386 14.0754ZM6.49355 16.567H5.83027C5.77377 16.567 5.72796 16.5223 5.72796 16.4672V13.5315C5.72796 13.4765 5.77377 13.4316 5.82972 13.4316H6.49355C8.13449 13.4316 9.00489 14.092 9.00489 14.9981C9.00489 15.9081 8.12625 16.567 6.49355 16.567ZM21.524 16.5778H18.6318C18.2293 16.5778 18.1334 16.4654 18.1334 16.161V14.5904C18.1334 14.5377 18.176 14.4953 18.2285 14.4917H19.9079C19.9609 14.4953 20.0248 14.5265 20.0583 14.5661L21.5664 16.5026C21.5961 16.5439 21.5781 16.5778 21.524 16.5778Z" fill="#0095DA"/>
</g>
</g>
<defs>
<clipPath id="clip0_24584_156649">
<rect width="22" height="4" fill="white" transform="translate(4 13)"/>
</clipPath>
</defs>
</svg>
