<svg width="24" height="24" viewBox="0 0 24 24" fill="none" xmlns="http://www.w3.org/2000/svg">
<circle cx="12" cy="12" r="12" fill="#034EA2"/>
<path fill-rule="evenodd" clip-rule="evenodd" d="M8 8.5C7.86739 8.5 7.74021 8.55268 7.64645 8.64645C7.55268 8.74021 7.5 8.86739 7.5 9V16C7.5 16.1326 7.55268 16.2598 7.64645 16.3536C7.74021 16.4473 7.86739 16.5 8 16.5H15C15.1326 16.5 15.2598 16.4473 15.3536 16.3536C15.4473 16.2598 15.5 16.1326 15.5 16V13.33C15.5 13.0539 15.7239 12.83 16 12.83C16.2761 12.83 16.5 13.0539 16.5 13.33V16C16.5 16.3978 16.342 16.7794 16.0607 17.0607C15.7794 17.342 15.3978 17.5 15 17.5H8C7.60217 17.5 7.22064 17.342 6.93934 17.0607C6.65804 16.7794 6.5 16.3978 6.5 16V9C6.5 8.60218 6.65804 8.22064 6.93934 7.93934C7.22064 7.65804 7.60218 7.5 8 7.5H10.67C10.9461 7.5 11.17 7.72386 11.17 8C11.17 8.27614 10.9461 8.5 10.67 8.5H8Z" fill="#F9FAFB"/>
<path fill-rule="evenodd" clip-rule="evenodd" d="M14.6464 6.64645C14.8417 6.45118 15.1583 6.45118 15.3536 6.64645L17.3536 8.64645C17.5488 8.84171 17.5488 9.15829 17.3536 9.35355L12.3536 14.3536C12.2598 14.4473 12.1326 14.5 12 14.5H10C9.72386 14.5 9.5 14.2761 9.5 14V12C9.5 11.8674 9.55268 11.7402 9.64645 11.6464L14.6464 6.64645ZM10.5 12.2071V13.5H11.7929L16.2929 9L15 7.70711L10.5 12.2071Z" fill="#F9FAFB"/>
</svg>
