<svg width="21" height="21" viewBox="0 0 21 21" fill="none" xmlns="http://www.w3.org/2000/svg">
<path fill-rule="evenodd" clip-rule="evenodd" d="M3.5 4.375C3.26794 4.375 3.04538 4.46719 2.88128 4.63128C2.71719 4.79538 2.625 5.01794 2.625 5.25V17.5C2.625 17.7321 2.71719 17.9546 2.88128 18.1187C3.04538 18.2828 3.26794 18.375 3.5 18.375H15.75C15.9821 18.375 16.2046 18.2828 16.3687 18.1187C16.5328 17.9546 16.625 17.7321 16.625 17.5V12.8275C16.625 12.3443 17.0168 11.9525 17.5 11.9525C17.9832 11.9525 18.375 12.3443 18.375 12.8275V17.5C18.375 18.1962 18.0984 18.8639 17.6062 19.3562C17.1139 19.8484 16.4462 20.125 15.75 20.125H3.5C2.80381 20.125 2.13613 19.8484 1.64384 19.3562C1.15156 18.8639 0.875 18.1962 0.875 17.5V5.25C0.875 4.55381 1.15156 3.88613 1.64384 3.39384C2.13613 2.90156 2.80381 2.625 3.5 2.625H8.1725C8.65575 2.625 9.0475 3.01675 9.0475 3.5C9.0475 3.98325 8.65575 4.375 8.1725 4.375H3.5Z" fill="#9FA6B2"/>
<path fill-rule="evenodd" clip-rule="evenodd" d="M15.1313 1.13128C15.473 0.789573 16.027 0.789573 16.3687 1.13128L19.8687 4.63128C20.2104 4.97299 20.2104 5.52701 19.8687 5.86872L11.1187 14.6187C10.9546 14.7828 10.7321 14.875 10.5 14.875H7C6.51675 14.875 6.125 14.4832 6.125 14V10.5C6.125 10.2679 6.21719 10.0454 6.38128 9.88128L15.1313 1.13128ZM7.875 10.8624V13.125H10.1376L18.0126 5.25L15.75 2.98744L7.875 10.8624Z" fill="#9FA6B2"/>
</svg>
