<svg width="121" height="120" viewBox="0 0 121 120" fill="none" xmlns="http://www.w3.org/2000/svg">
<path d="M120.376 112.289C120.379 113.166 120.209 114.035 119.875 114.846C119.542 115.657 119.051 116.394 118.433 117.016C117.814 117.637 117.078 118.13 116.268 118.466C115.459 118.803 114.59 118.976 113.713 118.977L6.85005 119.194C5.97332 119.196 5.10475 119.025 4.29401 118.692C3.48327 118.358 2.74627 117.868 2.12516 117.249C1.50405 116.63 1.01103 115.895 0.674276 115.085C0.337526 114.276 0.163663 113.408 0.162626 112.531L0.0124512 37.3929L59.1631 0.257793C59.4277 0.0908143 59.7339 0.00149652 60.0468 1.86409e-05C60.3597 -0.00145924 60.6668 0.0849668 60.933 0.249439L118.84 36.2905L120.225 37.1505V38.3527L120.376 112.289Z" fill="#034EA2"/>
<path d="M111.656 6.72499H7.94489C7.69757 6.72499 7.49707 6.92549 7.49707 7.17281V118.15C7.49707 118.397 7.69757 118.598 7.94489 118.598H111.656C111.904 118.598 112.104 118.397 112.104 118.15V7.17281C112.104 6.92549 111.904 6.72499 111.656 6.72499Z" fill="#C3DDFD"/>
<path d="M113.606 118.87L60.5645 78.4284C60.5218 78.3959 60.4874 78.3536 60.4642 78.3052C60.441 78.2567 60.4296 78.2035 60.431 78.1498C60.4324 78.0961 60.4465 78.0435 60.4722 77.9963C60.4979 77.9491 60.5344 77.9087 60.5787 77.8784L119.691 37.4766C119.742 37.4418 119.801 37.4215 119.863 37.418C119.924 37.4145 119.986 37.4278 120.04 37.4566C120.095 37.4853 120.141 37.5284 120.173 37.5812C120.205 37.634 120.221 37.6945 120.222 37.7561L120.371 112.253C120.374 114.003 119.691 115.684 118.467 116.936C117.244 118.187 115.578 118.908 113.829 118.944C113.748 118.945 113.67 118.919 113.606 118.87Z" fill="#A4CAFE"/>
<path d="M6.93926 119.083L59.8186 78.4302C59.8612 78.3974 59.8954 78.355 59.9184 78.3065C59.9414 78.2579 59.9526 78.2046 59.951 78.1509C59.9494 78.0972 59.9351 78.0447 59.9092 77.9976C59.8833 77.9505 59.8466 77.9102 59.8022 77.8801L0.529772 37.7147C0.478694 37.6801 0.419156 37.6601 0.357557 37.6568C0.295959 37.6535 0.234632 37.6671 0.180159 37.696C0.125687 37.725 0.0801295 37.7682 0.0483883 37.8211C0.0166471 37.874 -8.28243e-05 37.9345 3.08316e-07 37.9962L0.149273 112.493C0.152786 114.243 0.842876 115.922 2.07113 117.168C3.29938 118.414 4.96768 119.129 6.71728 119.158C6.79752 119.159 6.8757 119.132 6.93926 119.083Z" fill="#A4CAFE"/>
<path d="M113.704 118.945L6.84133 119.159C5.2247 119.158 3.66313 118.571 2.44495 117.509C1.22676 116.446 0.434204 114.978 0.213606 113.377C0.177274 113.104 0.208856 112.826 0.305562 112.568C0.402268 112.31 0.561108 112.08 0.768004 111.898L59.0516 60.3338C59.356 60.0645 59.7482 59.9154 60.1547 59.9146C60.5611 59.9138 60.9539 60.0613 61.2594 60.3294L119.748 111.66C119.956 111.841 120.116 112.071 120.213 112.328C120.311 112.586 120.344 112.863 120.308 113.137C120.094 114.739 119.308 116.21 118.094 117.277C116.88 118.345 115.321 118.937 113.704 118.945Z" fill="#3766CE"/>
<path d="M34.0435 34.2758C36.1184 34.2758 37.8004 32.0332 37.8004 29.2667C37.8004 26.5002 36.1184 24.2575 34.0435 24.2575C31.9686 24.2575 30.2866 26.5002 30.2866 29.2667C30.2866 32.0332 31.9686 34.2758 34.0435 34.2758Z" fill="white"/>
<path d="M86.6409 34.2758C88.7158 34.2758 90.3978 32.0332 90.3978 29.2667C90.3978 26.5002 88.7158 24.2575 86.6409 24.2575C84.5661 24.2575 82.884 26.5002 82.884 29.2667C82.884 32.0332 84.5661 34.2758 86.6409 34.2758Z" fill="white"/>
<path d="M74.5359 50.885C74.4092 50.8851 74.2845 50.853 74.1736 50.7916C74.0627 50.7302 73.9693 50.6415 73.9021 50.534C73.8629 50.4718 69.777 44.1601 60.2805 43.3689C56.3279 43.0398 52.5768 44.1404 49.1359 46.6414C47.6012 47.7434 46.2381 49.0663 45.0906 50.5673C44.9765 50.728 44.8034 50.837 44.6091 50.8705C44.4149 50.9041 44.2153 50.8594 44.0539 50.7463C43.8924 50.6331 43.7823 50.4607 43.7476 50.2667C43.7128 50.0727 43.7562 49.8728 43.8682 49.7107C43.9308 49.6211 45.4323 47.4986 48.2137 45.4661C51.9111 42.7642 56.1269 41.5253 60.4043 41.881C70.6774 42.7371 74.9895 49.4575 75.1674 49.743C75.238 49.856 75.2771 49.9857 75.2807 50.1189C75.2842 50.252 75.2521 50.3837 75.1876 50.5002C75.1231 50.6168 75.0286 50.7139 74.9138 50.7816C74.7991 50.8493 74.6684 50.885 74.5352 50.8851L74.5359 50.885Z" fill="white"/>
</svg>
