<svg width="183" height="266" viewBox="0 0 183 266" fill="none" xmlns="http://www.w3.org/2000/svg">
<path d="M-7.25961e-06 174.5C-6.20914e-06 162.484 2.36671 150.586 6.96502 139.484C11.5633 128.383 18.3032 118.296 26.7997 109.8C35.2963 101.303 45.3832 94.5633 56.4845 89.965C67.5858 85.3667 79.4841 83 91.5 83C103.516 83 115.414 85.3667 126.516 89.965C137.617 94.5633 147.704 101.303 156.2 109.8C164.697 118.296 171.437 128.383 176.035 139.484C180.633 150.586 183 162.484 183 174.5L91.5 174.5L-7.25961e-06 174.5Z" fill="#F9FAFB"/>
<circle cx="91.5827" cy="64.5827" r="64.5827" fill="white"/>
<path fill-rule="evenodd" clip-rule="evenodd" d="M67.75 100.125H59.8333C57.6483 100.125 55.875 98.3513 55.875 96.1663V72.4163C55.875 70.2313 57.6483 68.458 59.8333 68.458H67.75C69.935 68.458 71.7083 70.2313 71.7083 72.4163V96.1663C71.7083 98.3513 69.935 100.125 67.75 100.125Z" stroke="#034EA2" stroke-opacity="0.7" stroke-width="1.06" stroke-linecap="round" stroke-linejoin="round"/>
<path d="M95.459 84.292H104.694C106.408 84.292 108.074 83.7378 109.444 82.7086L119.007 75.5361C121.394 73.747 124.735 73.9845 126.845 76.0943V76.0943C129.188 78.4376 129.188 82.2336 126.845 84.573L118.639 92.7786C116.43 94.9874 113.612 96.4955 110.548 97.1091L98.9502 99.4286C96.6504 99.8878 94.2794 99.8324 92.0034 99.2624L81.5138 96.642C80.259 96.3253 78.9725 96.167 77.6782 96.167H71.709" stroke="#034EA2" stroke-opacity="0.7" stroke-width="1.06" stroke-linecap="round" stroke-linejoin="round"/>
<path d="M95.459 84.2913H101.337C104.65 84.2913 107.334 81.6076 107.334 78.2945V77.0951C107.334 74.344 105.462 71.9453 102.794 71.2803L93.7213 69.0122C92.2448 68.644 90.7327 68.458 89.2127 68.458V68.458C85.5434 68.458 81.9532 69.5426 78.9013 71.5811L71.709 76.3747" stroke="#034EA2" stroke-opacity="0.7" stroke-width="1.06" stroke-linecap="round" stroke-linejoin="round"/>
<path d="M111.96 37.4065C116.347 41.7936 116.347 48.9064 111.96 53.2934C107.573 57.6805 100.461 57.6805 96.0735 53.2934C91.6864 48.9064 91.6864 41.7936 96.0735 37.4065C100.461 33.0194 107.573 33.0194 111.96 37.4065" stroke="#034EA2" stroke-opacity="0.7" stroke-width="1.06" stroke-linecap="round" stroke-linejoin="round"/>
<path d="M101.914 34.318C101.546 32.0816 100.525 29.9322 98.7992 28.2064C94.4133 23.8205 87.3002 23.8205 82.9144 28.2064C78.5285 32.5922 78.5285 39.7053 82.9144 44.0912C85.6456 46.8224 89.4298 47.8476 92.9567 47.1787" stroke="#034EA2" stroke-opacity="0.7" stroke-width="1.06" stroke-linecap="round" stroke-linejoin="round"/>
</svg>
