<svg width="143" height="31" viewBox="0 0 143 31" fill="none" xmlns="http://www.w3.org/2000/svg">
<g clip-path="url(#clip0_13867_34727)">
<path d="M24.7124 30.7518H16.0938V21.9903C16.0938 16.2077 20.8428 11.4766 26.6473 11.4766H35.266V20.238C35.266 26.0206 30.5169 30.7518 24.7124 30.7518Z" fill="#6E94E8"/>
<path d="M21.8106 24.7949H7.91513C3.51784 24.7949 0 21.2903 0 16.9096V7.8853C0 3.50458 3.51784 0 7.91513 0H21.8985C26.2958 0 29.8137 3.50458 29.8137 7.8853V16.9972C29.7257 21.2903 26.2079 24.7949 21.8106 24.7949Z" fill="#fff"/>
<path d="M22.6905 19.802C23.6134 19.802 24.3615 19.0567 24.3615 18.1373C24.3615 17.218 23.6134 16.4727 22.6905 16.4727C21.7676 16.4727 21.0195 17.218 21.0195 18.1373C21.0195 19.0567 21.7676 19.802 22.6905 19.802Z" fill="white"/>
<path d="M42.8258 16.4708C42.1222 16.208 41.5066 15.7699 41.0668 15.1566C40.6271 14.5433 40.3633 13.8424 40.3633 13.0539H43.6173C43.7052 13.4919 43.7932 13.8424 44.145 14.1052C44.4088 14.3681 44.7606 14.4557 45.2003 14.4557C45.64 14.4557 45.9918 14.3681 46.2557 14.1052C46.5195 13.93 46.6074 13.5796 46.6074 13.2291C46.6074 12.8786 46.5195 12.7034 46.2557 12.4406C46.0798 12.2653 45.8159 12.0901 45.4641 11.9149C45.2003 11.8273 44.7606 11.652 44.145 11.4768C43.3534 11.214 42.6499 10.9511 42.1222 10.6883C41.5945 10.4254 41.1548 10.075 40.803 9.54929C40.6271 9.19883 40.4512 8.58553 40.4512 7.797C40.4512 6.65801 40.891 5.69425 41.7704 5.08095C42.6499 4.46765 43.7052 4.11719 45.1124 4.11719C46.5195 4.11719 47.6628 4.46765 48.4543 5.08095C49.2458 5.69425 49.7735 6.65801 49.8614 7.88461H46.5195C46.5195 7.44654 46.3436 7.1837 46.0798 6.92085C45.8159 6.65801 45.4641 6.57039 45.0244 6.57039C44.6726 6.57039 44.3208 6.65801 44.145 6.83324C43.8811 7.00847 43.7932 7.27131 43.7932 7.70938C43.7932 8.14745 43.9691 8.4103 44.4088 8.67314C44.7606 8.93598 45.3762 9.11121 46.1677 9.37406C46.9592 9.6369 47.6628 9.89974 48.1905 10.1626C48.7181 10.4254 49.1579 10.7759 49.5097 11.214C49.8614 11.652 50.0373 12.2653 50.0373 13.0539C50.0373 13.7548 49.8614 14.4557 49.5097 14.9814C49.1579 15.5947 48.6302 16.0328 47.9266 16.3832C47.2231 16.7337 46.4315 16.9089 45.4641 16.9089C44.4088 16.9089 43.6173 16.7337 42.8258 16.4708Z" fill="#fff"/>
<path d="M51.7986 9.02184C52.1504 8.23331 52.6781 7.62001 53.3817 7.26955C54.0852 6.83148 54.7888 6.65625 55.6682 6.65625C56.3718 6.65625 56.9874 6.83148 57.5151 7.09432C58.0428 7.35717 58.4825 7.79524 58.7464 8.23331V6.74386H61.8245V16.7319H58.7464V15.3301C58.4825 15.7682 58.0428 16.2062 57.5151 16.4691C56.9874 16.7319 56.3718 16.9071 55.6682 16.9071C54.8767 16.9071 54.0852 16.7319 53.4696 16.2938C52.854 15.8558 52.2384 15.2425 51.8866 14.4539C51.5348 13.6654 51.271 12.7893 51.271 11.7379C51.183 10.7741 51.4468 9.81037 51.7986 9.02184ZM58.1307 9.9856C57.691 9.54753 57.1633 9.28469 56.5477 9.28469C55.9321 9.28469 55.4044 9.45991 54.9647 9.89799C54.525 10.3361 54.3491 10.9494 54.3491 11.7379C54.3491 12.5264 54.525 13.1397 54.9647 13.5778C55.4044 14.0159 55.9321 14.2787 56.5477 14.2787C57.1633 14.2787 57.691 14.0159 58.1307 13.5778C58.5705 13.1397 58.7464 12.5264 58.7464 11.7379C58.7464 11.037 58.4825 10.4237 58.1307 9.9856Z" fill="#fff"/>
<path d="M69.033 9.28593H67.362V16.7332H64.2839V9.28593H63.1406V6.74511H64.2839V6.48227C64.2839 5.25566 64.6357 4.2919 65.3393 3.6786C66.0428 3.0653 67.0982 2.71484 68.4174 2.71484C68.6812 2.71484 68.7692 2.71484 68.9451 2.71484V5.34328C68.3294 5.34328 67.9776 5.43089 67.7138 5.60612C67.45 5.78135 67.362 6.13181 67.362 6.6575V6.74511H69.033V9.28593Z" fill="#fff"/>
<path d="M79.848 12.5286H72.9003C72.9883 13.142 73.1642 13.58 73.5159 13.9305C73.8677 14.2809 74.3074 14.4562 74.8351 14.4562C75.6266 14.4562 76.1543 14.1057 76.4182 13.4924H79.6721C79.4963 14.1057 79.2324 14.719 78.7927 15.2447C78.353 15.7704 77.8253 16.2085 77.1217 16.4713C76.5061 16.7341 75.7146 16.9094 74.9231 16.9094C73.9557 16.9094 73.0762 16.7341 72.2847 16.2961C71.4932 15.858 70.8776 15.2447 70.5258 14.5438C70.174 13.8429 69.9102 12.8791 69.9102 11.8277C69.9102 10.7764 70.086 9.90021 70.5258 9.11168C70.9655 8.32315 71.5811 7.70985 72.2847 7.35939C73.0762 6.92132 73.9557 6.74609 74.9231 6.74609C75.8905 6.74609 76.7699 6.92132 77.4735 7.35939C78.265 7.79747 78.7927 8.32315 79.2324 9.11168C79.6721 9.90021 79.848 10.7764 79.848 11.7401C79.936 11.9153 79.936 12.1782 79.848 12.5286ZM76.7699 10.7764C76.7699 10.2507 76.594 9.8126 76.2423 9.54976C75.8905 9.1993 75.4507 9.11168 74.9231 9.11168C74.3954 9.11168 73.9557 9.28691 73.6039 9.54976C73.2521 9.8126 72.9883 10.2507 72.9883 10.864H76.7699V10.7764Z" fill="#fff"/>
<path d="M96.2959 4.20312V16.732H93.2178V11.5627H88.4687V16.732H85.3906V4.20312H88.4687V9.10954H93.2178V4.20312H96.2959Z" fill="#fff"/>
<path d="M98.495 9.02184C98.8468 8.23331 99.3744 7.62001 100.078 7.26955C100.782 6.83148 101.485 6.65625 102.365 6.65625C103.068 6.65625 103.684 6.83148 104.211 7.09432C104.739 7.35717 105.179 7.79524 105.443 8.23331V6.74386H108.521V16.7319H105.443V15.3301C105.179 15.7682 104.739 16.2062 104.211 16.4691C103.684 16.7319 103.068 16.9071 102.365 16.9071C101.573 16.9071 100.782 16.7319 100.166 16.2938C99.4624 15.8558 98.9347 15.2425 98.5829 14.4539C98.2311 13.6654 97.9673 12.7893 97.9673 11.7379C97.8794 10.7741 98.0552 9.81037 98.495 9.02184ZM104.739 9.9856C104.299 9.54753 103.772 9.28469 103.156 9.28469C102.54 9.28469 102.013 9.45991 101.573 9.89799C101.133 10.3361 100.957 10.9494 100.957 11.7379C100.957 12.5264 101.133 13.1397 101.573 13.5778C102.013 14.0159 102.54 14.2787 103.156 14.2787C103.772 14.2787 104.299 14.0159 104.739 13.5778C105.179 13.1397 105.355 12.5264 105.355 11.7379C105.355 11.037 105.179 10.4237 104.739 9.9856Z" fill="#fff"/>
<path d="M115.205 13.9288L117.403 6.83203H120.657L117.139 16.8201H113.358L109.84 6.83203H113.094L115.205 13.9288Z" fill="#fff"/>
<path d="M131.301 12.5286H124.353C124.441 13.142 124.617 13.58 124.969 13.9305C125.321 14.2809 125.761 14.4562 126.288 14.4562C127.08 14.4562 127.607 14.1057 127.871 13.4924H131.125C130.949 14.1057 130.686 14.719 130.246 15.2447C129.806 15.7704 129.278 16.2085 128.575 16.4713C127.959 16.7341 127.168 16.9094 126.376 16.9094C125.409 16.9094 124.529 16.7341 123.738 16.2961C122.946 15.858 122.331 15.2447 121.979 14.5438C121.539 13.7553 121.363 12.8791 121.363 11.8277C121.363 10.7764 121.539 9.90021 121.979 9.11168C122.419 8.32315 123.034 7.70985 123.738 7.35939C124.529 6.92132 125.409 6.74609 126.376 6.74609C127.344 6.74609 128.223 6.92132 128.927 7.35939C129.718 7.79747 130.246 8.32315 130.686 9.11168C131.125 9.90021 131.301 10.7764 131.301 11.7401C131.389 11.9153 131.389 12.1782 131.301 12.5286ZM128.223 10.7764C128.223 10.2507 128.047 9.8126 127.695 9.54976C127.344 9.1993 126.904 9.11168 126.376 9.11168C125.849 9.11168 125.409 9.28691 125.057 9.54976C124.705 9.8126 124.441 10.2507 124.441 10.864H128.223V10.7764Z" fill="#fff"/>
<path d="M141.939 7.79524C142.643 8.58377 142.995 9.63514 142.995 10.9494V16.8195H139.916V11.3874C139.916 10.6865 139.741 10.1608 139.389 9.81037C139.037 9.45991 138.597 9.28469 137.982 9.28469C137.366 9.28469 136.926 9.45991 136.575 9.81037C136.223 10.1608 136.047 10.6865 136.047 11.3874V16.8195H132.969V6.74386H136.047V8.05808C136.399 7.62001 136.75 7.26955 137.278 7.00671C137.806 6.74386 138.421 6.65625 139.037 6.65625C140.268 6.65625 141.236 7.09432 141.939 7.79524Z" fill="#fff"/>
<path opacity="0.61" d="M129.105 21.3789V29.6147H127.786V24.0073L125.235 29.6147H124.268L121.718 24.0073V29.6147H120.398V21.3789H121.894L124.796 27.8624L127.698 21.3789H129.105Z" fill="#6E94E8"/>
<path opacity="0.61" d="M135.7 21.3789V22.5179H132.182V24.9711H134.909V26.1101H132.182V29.7023H130.863V21.4665H135.7V21.3789Z" fill="#6E94E8"/>
<path opacity="0.61" d="M142.472 26.1101C142.824 26.4605 142.912 26.8986 142.912 27.4243C142.912 27.8624 142.824 28.2128 142.56 28.5633C142.384 28.9138 142.033 29.1766 141.593 29.3518C141.153 29.5271 140.713 29.6147 140.186 29.6147H136.844V21.3789H140.01C140.537 21.3789 141.065 21.4665 141.417 21.6418C141.857 21.817 142.121 22.0798 142.296 22.4303C142.472 22.7807 142.648 23.1312 142.648 23.4817C142.648 23.9197 142.56 24.3578 142.296 24.7083C142.033 25.0587 141.681 25.2339 141.241 25.4092C141.857 25.4968 142.208 25.672 142.472 26.1101ZM138.339 24.8835H140.01C140.45 24.8835 140.801 24.7959 141.065 24.6206C141.329 24.4454 141.417 24.095 141.417 23.7445C141.417 23.394 141.329 23.0436 141.065 22.8684C140.801 22.6931 140.45 22.5179 140.01 22.5179H138.339V24.8835ZM141.241 28.2128C141.505 27.95 141.593 27.6871 141.593 27.2491C141.593 26.811 141.417 26.5482 141.153 26.2853C140.889 26.0225 140.537 25.9349 140.01 25.9349H138.251V28.4757H140.098C140.625 28.4757 140.977 28.3881 141.241 28.2128Z" fill="#6E94E8"/>
<path d="M118.375 29.4381H40.8949C40.631 29.4381 40.3672 29.1752 40.3672 28.9124C40.3672 28.6496 40.631 28.3867 40.8949 28.3867H118.375C118.639 28.3867 118.903 28.6496 118.903 28.9124C118.903 29.1752 118.639 29.4381 118.375 29.4381Z" fill="#6E94E8"/>
</g>
<defs>
<clipPath id="clip0_13867_34727">
<rect width="143" height="30.7527" fill="white"/>
</clipPath>
</defs>
</svg>
