<svg width="424" height="282" viewBox="0 0 424 282" fill="none" xmlns="http://www.w3.org/2000/svg">
<g filter="url(#filter0_g_25091_205127)">
<rect x="403" y="261" width="382" height="240" rx="13.2515" transform="rotate(-180 403 261)" fill="white" fill-opacity="0.7"/>
</g>
<path d="M212.5 121V139" stroke="#F8FAFC" stroke-width="1.5" stroke-linecap="round" stroke-linejoin="round"/>
<path d="M214.668 122.422L212.5 124.591L210.332 122.422" stroke="#F8FAFC" stroke-width="1.5" stroke-linecap="round" stroke-linejoin="round"/>
<path d="M220.5 125.379L204.5 134.619" stroke="#F8FAFC" stroke-width="1.5" stroke-linecap="round" stroke-linejoin="round"/>
<path d="M220.147 128.087L217.186 127.294L217.979 124.332" stroke="#F8FAFC" stroke-width="1.5" stroke-linecap="round" stroke-linejoin="round"/>
<path d="M204.853 131.91L207.814 132.703L207.021 135.665" stroke="#F8FAFC" stroke-width="1.5" stroke-linecap="round" stroke-linejoin="round"/>
<path d="M204.5 125.379L220.5 134.619" stroke="#F8FAFC" stroke-width="1.5" stroke-linecap="round" stroke-linejoin="round"/>
<path d="M204.853 128.087L207.814 127.294L207.021 124.332" stroke="#F8FAFC" stroke-width="1.5" stroke-linecap="round" stroke-linejoin="round"/>
<path d="M220.147 131.91L217.186 132.703L217.979 135.665" stroke="#F8FAFC" stroke-width="1.5" stroke-linecap="round" stroke-linejoin="round"/>
<path d="M210.332 137.579L212.5 135.41L214.668 137.579" stroke="#F8FAFC" stroke-width="1.5" stroke-linecap="round" stroke-linejoin="round"/>
<path d="M171.105 151.195V152.297H168.82V159H167.66V152.297H165.387V151.195H171.105ZM176.203 155.449C176.203 154.383 175.629 153.926 174.738 153.926C173.895 153.926 173.25 154.523 173.25 155.367V159H172.078V150.598H173.25V153.914C173.684 153.234 174.434 152.848 175.148 152.848C176.438 152.848 177.363 153.68 177.363 155.203V159H176.203V155.449ZM178.5 151.055H179.836V152.203H178.5V151.055ZM178.582 153H179.754V159H178.582V153ZM183.867 156.539L182.848 156.41C181.559 156.27 180.902 155.73 180.902 154.688C180.902 153.562 181.84 152.859 183.352 152.859C184.816 152.859 185.766 153.598 185.895 154.805H184.746C184.629 154.102 184.195 153.773 183.352 153.773C182.578 153.773 182.074 154.113 182.074 154.617C182.074 155.121 182.402 155.32 183.047 155.402L184.113 155.52C185.438 155.672 186.047 156.258 186.047 157.371C186.047 158.426 185.074 159.117 183.621 159.117C182.004 159.117 180.984 158.367 180.844 157.195H182.051C182.168 157.898 182.684 158.227 183.621 158.227C184.395 158.227 184.91 157.898 184.91 157.406C184.91 156.914 184.57 156.621 183.867 156.539ZM189.41 155.977C189.41 154.09 190.57 152.848 192.293 152.848C193.852 152.848 194.988 153.797 195.094 155.285H193.898C193.863 154.395 193.242 153.879 192.293 153.879C191.215 153.879 190.605 154.641 190.605 155.977C190.605 157.324 191.227 158.098 192.293 158.098C193.23 158.098 193.852 157.629 193.898 156.797H195.094C194.953 158.25 193.852 159.129 192.293 159.129C190.57 159.129 189.41 157.875 189.41 155.977ZM201.27 155.062V159H200.098V157.992C199.676 158.695 198.938 159.129 198.059 159.129C196.898 159.129 196.066 158.379 196.066 157.312C196.066 156.293 196.699 155.684 197.836 155.613L199.453 155.496C199.922 155.461 200.098 155.309 200.098 154.945V154.922C200.098 154.277 199.512 153.773 198.762 153.773C197.883 153.773 197.402 154.148 197.32 154.898H196.113C196.195 153.656 197.227 152.859 198.75 152.859C200.227 152.859 201.27 153.785 201.27 155.062ZM197.25 157.266C197.25 157.816 197.719 158.18 198.445 158.18C199.395 158.18 200.098 157.465 200.098 156.516V156.316L198.246 156.434C197.59 156.48 197.25 156.762 197.25 157.266ZM202.5 153H203.672V153.926C204.059 153.258 204.703 152.883 205.312 152.883H205.629V154.09H205.324C204.398 154.09 203.672 154.676 203.672 155.52V159H202.5V153ZM212.074 150.598V159H210.914V157.91C210.492 158.684 209.789 159.129 208.91 159.129C207.363 159.129 206.332 157.875 206.332 155.977C206.332 154.09 207.363 152.848 208.91 152.848C209.789 152.848 210.492 153.293 210.914 154.055V150.598H212.074ZM207.527 155.977C207.527 157.324 208.148 158.098 209.215 158.098C210.293 158.098 210.914 157.324 210.914 155.977C210.914 154.652 210.293 153.879 209.215 153.879C208.148 153.879 207.527 154.652 207.527 155.977ZM215.602 151.055H216.938V152.203H215.602V151.055ZM215.684 153H216.855V159H215.684V153ZM220.969 156.539L219.949 156.41C218.66 156.27 218.004 155.73 218.004 154.688C218.004 153.562 218.941 152.859 220.453 152.859C221.918 152.859 222.867 153.598 222.996 154.805H221.848C221.73 154.102 221.297 153.773 220.453 153.773C219.68 153.773 219.176 154.113 219.176 154.617C219.176 155.121 219.504 155.32 220.148 155.402L221.215 155.52C222.539 155.672 223.148 156.258 223.148 157.371C223.148 158.426 222.176 159.117 220.723 159.117C219.105 159.117 218.086 158.367 217.945 157.195H219.152C219.27 157.898 219.785 158.227 220.723 158.227C221.496 158.227 222.012 157.898 222.012 157.406C222.012 156.914 221.672 156.621 220.969 156.539ZM226.395 153.973V153H227.32V152.25C227.32 151.09 228.117 150.598 229.078 150.598H229.664V151.57H229.207C228.773 151.57 228.48 151.734 228.48 152.332V153H229.664V153.973H228.48V159H227.32V153.973H226.395ZM230.637 153H231.809V153.926C232.195 153.258 232.84 152.883 233.449 152.883H233.766V154.09H233.461C232.535 154.09 231.809 154.676 231.809 155.52V159H230.637V153ZM234.445 155.977C234.445 154.09 235.605 152.848 237.34 152.848C239.074 152.848 240.223 154.09 240.223 155.977C240.223 157.875 239.074 159.129 237.34 159.129C235.605 159.129 234.445 157.875 234.445 155.977ZM239.027 155.977C239.027 154.652 238.406 153.879 237.34 153.879C236.262 153.879 235.641 154.652 235.641 155.977C235.641 157.324 236.262 158.098 237.34 158.098C238.406 158.098 239.027 157.324 239.027 155.977ZM241.242 153H245.965V154.137L242.566 158.062H245.965V159H241.242V157.863L244.629 153.938H241.242V153ZM246.832 155.977C246.832 154.066 247.945 152.883 249.691 152.883C251.379 152.883 252.586 154.148 252.586 155.918V156.281H248.039C248.121 157.488 248.719 158.121 249.773 158.121C250.629 158.121 251.156 157.711 251.285 157.055H252.516C252.27 158.391 251.332 159.094 249.762 159.094C247.969 159.094 246.832 157.898 246.832 155.977ZM249.703 153.797C248.754 153.797 248.191 154.336 248.051 155.426H251.344C251.262 154.43 250.617 153.797 249.703 153.797ZM257.824 155.449C257.824 154.383 257.25 153.926 256.359 153.926C255.504 153.926 254.859 154.523 254.859 155.367V159H253.699V153H254.859V153.914C255.305 153.234 256.055 152.848 256.758 152.848C258.047 152.848 258.984 153.68 258.984 155.203V159H257.824V155.449Z" fill="white"/>
<defs>
<filter id="filter0_g_25091_205127" x="0.299999" y="0.299999" width="423.4" height="281.4" filterUnits="userSpaceOnUse" color-interpolation-filters="sRGB">
<feFlood flood-opacity="0" result="BackgroundImageFix"/>
<feBlend mode="normal" in="SourceGraphic" in2="BackgroundImageFix" result="shape"/>
<feTurbulence type="fractalNoise" baseFrequency="0.16949152946472168 0.16949152946472168" numOctaves="3" seed="5822" />
<feDisplacementMap in="shape" scale="41.400001525878906" xChannelSelector="R" yChannelSelector="G" result="displacedImage" width="100%" height="100%" />
<feMerge result="effect1_texture_25091_205127">
<feMergeNode in="displacedImage"/>
</feMerge>
</filter>
</defs>
</svg>
