<svg width="80" height="88" viewBox="0 0 80 88" fill="none" xmlns="http://www.w3.org/2000/svg">
<path d="M39.9972 87.5183L79.1683 64.8766V37.0424L79.9971 36.5664V25.0156L39.9972 48.1119V87.5183Z" fill="#A4CAFE"/>
<g opacity="0.45">
<path d="M39.9943 87.5144L79.1654 64.8727V37.0385L79.9943 36.5625V25.0117L39.9943 48.108V87.5144Z" fill="white"/>
</g>
<path opacity="0.15" d="M39.9972 59.6657L54.9971 51.008L79.1683 37.0508V38.7139L39.9972 61.3235V59.6657Z" fill="#034EA2"/>
<path d="M40 87.5183L1.04278 65.0424V37.1654L0 36.5664V25.0156L40 48.1119V87.5183Z" fill="#A4CAFE"/>
<path opacity="0.3" d="M40 87.5183L1.04278 65.0424V37.1654L0 36.5664V25.0156L40 48.1119V87.5183Z" fill="white"/>
<path opacity="0.1" d="M1.0282 37.1641L39.9908 59.656V61.3138L1.0282 38.8432V37.1641Z" fill="#034EA2"/>
<path d="M0 25.0128L40 1.92188L80 25.0128L40 48.109L0 25.0128Z" fill="#A4CAFE"/>
<g opacity="0.6">
<path d="M0 25.0167L40 1.92578L80 25.0167L40 48.1129L0 25.0167Z" fill="white"/>
</g>
<path d="M23.7567 78.1409V38.7291L17.2594 34.9805V74.3922L23.7567 78.1409Z" fill="#EBEBEB"/>
<path d="M23.7567 78.1409V38.7291L17.2594 34.9805V74.3922L23.7567 78.1409Z" fill="#A4CAFE"/>
<path opacity="0.4" d="M23.7567 78.1409V38.7291L17.2594 34.9805V74.3922L23.7567 78.1409Z" fill="#034EA2"/>
<path d="M56.244 78.1409V38.7291L62.7414 34.9805V74.3922L56.244 78.1409Z" fill="#A4CAFE"/>
<path opacity="0.15" d="M56.244 78.1409V38.7291L62.7414 34.9805V74.3922L56.244 78.1409Z" fill="#034EA2"/>
<path d="M17.2594 34.983L57.2594 11.8867L63.7567 15.6407L23.7567 38.7316L17.2594 34.983Z" fill="#A4CAFE"/>
<path opacity="0.25" d="M39.462 29.6628L32.9647 25.9088L39.462 22.1602L45.9593 25.9088L39.462 29.6628Z" fill="#034EA2"/>
<path d="M56.2469 38.7316L16.2469 15.6407L22.7442 11.8867L62.7442 34.983L56.2469 38.7316Z" fill="#A4CAFE"/>
<path d="M38.4353 28.5752L47.6331 43.7089V70.0778L53.323 62.0351V40.4468L39.7668 25.7891L38.4353 28.5752Z" fill="#A4CAFE"/>
<path d="M40.0167 26.9868L66.5141 27.805L71.0862 21.6445L39.9579 24.4467L40.0167 26.9868Z" fill="#A4CAFE"/>
<path d="M14.3083 15.0414C14.3083 15.0414 15.9125 21.4585 23.3617 23.9345C30.8109 26.4104 39.4419 26.9986 39.4419 26.9986L22.5168 6.80078L14.3083 15.0414Z" fill="#A4CAFE"/>
<path opacity="0.4" d="M14.3083 15.0414C14.3083 15.0414 15.9125 21.4585 23.3617 23.9345C30.8109 26.4104 39.4419 26.9986 39.4419 26.9986L22.5168 6.80078L14.3083 15.0414Z" fill="#034EA2"/>
<path d="M39.4419 26.9986C39.4419 26.9986 39.6238 20.6724 36.3564 15.8917C33.089 11.1109 22.5168 6.80078 22.5168 6.80078C19.4356 9.18094 16.6764 11.951 14.3083 15.0414C14.3083 15.0414 28.3617 14.9291 38.0195 26.7794L39.4419 26.9986Z" fill="#A4CAFE"/>
<path opacity="0.1" d="M39.4419 26.9986C39.4419 26.9986 39.6238 20.6724 36.3564 15.8917C33.089 11.1109 22.5168 6.80078 22.5168 6.80078C19.4356 9.18094 16.6764 11.951 14.3083 15.0414C14.3083 15.0414 28.3617 14.9291 38.0195 26.7794L39.4419 26.9986Z" fill="white"/>
<path opacity="0.3" d="M23.1381 16.6673C25.7602 17.5194 28.2648 18.6979 30.5926 20.1753L35.7424 15.0898C34.0258 13.0844 31.1862 11.2128 28.5712 9.74219L23.1381 16.6673Z" fill="white"/>
<path d="M39.4468 26.9977C37.8808 29.8487 35.4452 32.1251 32.4949 33.495C27.4147 35.9602 18.912 35.8319 18.912 35.8319L18.0992 25.1367C19.0755 26.6193 20.4055 27.8355 21.9692 28.6757C23.533 29.5159 25.2812 29.9537 27.0564 29.9496C30.8739 29.9762 34.5707 28.6134 37.4575 26.1153L39.4468 26.9977Z" fill="#A4CAFE"/>
<path opacity="0.4" d="M39.4468 26.9977C37.8808 29.8487 35.4452 32.1251 32.4949 33.495C27.4147 35.9602 18.912 35.8319 18.912 35.8319L18.0992 25.1367C19.0755 26.6193 20.4055 27.8355 21.9692 28.6757C23.533 29.5159 25.2812 29.9537 27.0564 29.9496C30.8739 29.9762 34.5707 28.6134 37.4575 26.1153L39.4468 26.9977Z" fill="#034EA2"/>
<path d="M39.4521 26.9945C34.1313 21.572 29.1526 21.048 24.6125 22.1068C19.5858 23.2833 18.0992 25.1175 18.0992 25.1175L18.912 35.8127C18.912 35.8127 21.5858 30.5827 28.8478 28.2298C36.1099 25.8768 39.4521 26.9945 39.4521 26.9945Z" fill="#A4CAFE"/>
<path opacity="0.1" d="M39.4521 26.9945C34.1313 21.572 29.1526 21.048 24.6125 22.1068C19.5858 23.2833 18.0992 25.1175 18.0992 25.1175L18.912 35.8127C18.912 35.8127 21.5858 30.5827 28.8478 28.2298C36.1099 25.8768 39.4521 26.9945 39.4521 26.9945Z" fill="white"/>
<path opacity="0.3" d="M20.5872 23.4623C21.8225 25.2377 23.7958 28.1414 25.0311 29.9757C26.2358 29.2623 27.5142 28.6814 28.8439 28.243C30.1036 27.8367 31.3856 27.5028 32.6835 27.243L28.0632 21.6602C26.899 21.6833 25.7408 21.8321 24.6086 22.104C23.2244 22.4151 21.8766 22.8704 20.5872 23.4623Z" fill="white"/>
<path d="M39.1533 25.8021C39.1533 25.8021 46.6399 24.7326 51.8111 19.1818C56.9822 13.631 58.1052 5.88235 58.1052 5.88235L48.6827 0C49.4658 2.4037 49.7207 4.94814 49.43 7.45941C49.1392 9.97068 48.3098 12.3896 46.9982 14.5508C43.6453 20.2727 38.9768 21.4438 38.9768 21.4438L39.1533 25.8021Z" fill="#A4CAFE"/>
<path opacity="0.4" d="M39.1533 25.8021C39.1533 25.8021 46.6399 24.7326 51.8111 19.1818C56.9822 13.631 58.1052 5.88235 58.1052 5.88235L48.6827 0C49.4658 2.4037 49.7207 4.94814 49.43 7.45941C49.1392 9.97068 48.3098 12.3896 46.9982 14.5508C43.6453 20.2727 38.9768 21.4438 38.9768 21.4438L39.1533 25.8021Z" fill="#034EA2"/>
<path d="M39.1569 25.8021L40.5366 25.5187C41.3263 20.1066 43.9279 15.1223 47.9163 11.3797C54.7826 5.09091 58.1088 5.88235 58.1088 5.88235C55.3494 3.1123 52.0874 1.40107 48.6863 0C48.6863 0 42.8467 3.41177 40.2639 8.24064C37.1676 14.0214 38.1836 22.5882 39.1569 25.8021Z" fill="#A4CAFE"/>
<path opacity="0.1" d="M39.1569 25.8021L40.5366 25.5187C41.3263 20.1066 43.9279 15.1223 47.9163 11.3797C54.7826 5.09091 58.1088 5.88235 58.1088 5.88235C55.3494 3.1123 52.0874 1.40107 48.6863 0C48.6863 0 42.8467 3.41177 40.2639 8.24064C37.1676 14.0214 38.1836 22.5882 39.1569 25.8021Z" fill="white"/>
<g opacity="0.3">
<path d="M53.0597 7.4907L45.1078 2.59766C44.7281 2.91316 44.3484 3.24471 43.9581 3.60835L51.7228 8.34097C52.1934 8.02546 52.6426 7.72599 53.0597 7.4907Z" fill="white"/>
<path d="M50.5314 9.17618L42.8415 4.71094C42.1079 5.48521 41.444 6.32268 40.8576 7.21361L40.8041 7.28848C40.6062 7.59329 40.4191 7.9088 40.2693 8.22431C40.1731 8.41148 40.1089 8.62538 40.018 8.81789L46.4351 12.866C46.8897 12.3633 47.3763 11.866 47.9057 11.3794C48.8522 10.5131 49.7185 9.7965 50.5314 9.17618Z" fill="white"/>
</g>
<path d="M39.3917 26.99C39.3917 26.99 41.8088 29.4017 47.4826 30.6317C53.1564 31.8616 60.2473 30.7868 63.2045 27.3108L62.2633 17.375C62.2633 17.375 57.7286 23.8991 50.8783 25.2039C45.6591 26.1932 39.3222 24.3162 39.3222 24.3162L39.3917 26.99Z" fill="#A4CAFE"/>
<path opacity="0.4" d="M39.3917 26.99C39.3917 26.99 41.8088 29.4017 47.4826 30.6317C53.1564 31.8616 60.2473 30.7868 63.2045 27.3108L62.2633 17.375C62.2633 17.375 57.7286 23.8991 50.8783 25.2039C45.6591 26.1932 39.3222 24.3162 39.3222 24.3162L39.3917 26.99Z" fill="#034EA2"/>
<path d="M38.9847 24.7025C38.9847 24.7025 44.2628 18.8202 50.1184 17.7506C58.0488 16.2907 62.2788 17.3656 62.2788 17.3656C63.7975 20.9111 64.0649 24.2159 63.22 27.3014C63.22 27.3014 59.6638 23.7079 51.589 23.6651C45.2039 23.633 39.4071 26.9806 39.4071 26.9806L38.9847 24.7025Z" fill="#A4CAFE"/>
<path opacity="0.1" d="M38.9847 24.7025C38.9847 24.7025 44.2628 18.8202 50.1184 17.7506C58.0488 16.2907 62.2788 17.3656 62.2788 17.3656C63.7975 20.9111 64.0649 24.2159 63.22 27.3014C63.22 27.3014 59.6638 23.7079 51.589 23.6651C45.2039 23.633 39.4071 26.9806 39.4071 26.9806L38.9847 24.7025Z" fill="white"/>
<path opacity="0.3" d="M61.4917 26.089C59.7327 25.1109 57.822 24.4349 55.8393 24.089L54.588 17.1372C56.5615 16.9489 58.5478 16.9346 60.5238 17.0944C61.4353 19.9997 61.7642 23.0563 61.4917 26.089Z" fill="white"/>
<path opacity="0.15" d="M53.316 40.4492L47.6261 43.7113V70.0802L53.316 62.0375V40.4492Z" fill="#034EA2"/>
</svg>
