<svg width="50" height="50" viewBox="0 0 50 50" fill="none" xmlns="http://www.w3.org/2000/svg">
<path d="M0 25C0 11.1929 11.1929 0 25 0C38.8071 0 50 11.1929 50 25C50 38.8071 38.8071 50 25 50C11.1929 50 0 38.8071 0 25Z" fill="#15803D"/>
<path d="M25.0999 40.7096C33.976 40.7096 41.1715 33.5141 41.1715 24.638C41.1715 15.7619 33.976 8.56641 25.0999 8.56641C16.2238 8.56641 9.02832 15.7619 9.02832 24.638C9.02832 33.5141 16.2238 40.7096 25.0999 40.7096Z" fill="#50B651"/>
<path opacity="0.663" fill-rule="evenodd" clip-rule="evenodd" d="M41.1219 24.5917C41.1219 33.4957 33.9039 40.7137 25.0019 40.7137C16.0999 40.7137 8.87988 33.4957 8.87988 24.5917C8.87988 20.6529 8.99028 20.0673 10.5407 17.8249C10.5407 17.8249 10.4607 20.3577 12.3179 21.8649C13.4727 22.8013 14.6779 22.1253 16.8839 21.1093C19.2703 20.0093 21.2103 19.2997 22.7239 19.4869C25.0039 19.7693 32.0315 23.9897 35.6991 23.1493C38.6291 22.4793 38.3199 15.5713 38.3199 15.5713C41.5199 18.6961 41.1219 20.8081 41.1219 24.5917Z" fill="url(#paint0_linear_18693_19291)"/>
<path opacity="0.586" fill-rule="evenodd" clip-rule="evenodd" d="M31.9219 36.4362C37.7525 30.9516 38.7217 24.6684 34.8295 17.5865C34.8492 17.6009 35.09 16.77 35.5519 15.0938C37.6233 17.6023 38.7248 20.6985 38.8563 24.3826C38.8552 29.1543 36.5437 33.1722 31.9219 36.4362Z" fill="url(#paint1_linear_18693_19291)"/>
<path opacity="0.744" fill-rule="evenodd" clip-rule="evenodd" d="M29.1575 15.1253C26.3431 13.5677 23.1143 10.4345 23.5435 9.77654C23.9727 9.11854 29.5435 9.23174 32.3583 10.7893C35.1731 12.3469 37.5687 17.0193 37.1399 17.6773C36.7111 18.3353 31.9719 16.6829 29.1575 15.1253Z" fill="url(#paint2_radial_18693_19291)"/>
<path fill-rule="evenodd" clip-rule="evenodd" d="M31.6075 28.597C29.2727 28.597 27.3799 26.6502 27.3799 24.249C27.3799 21.8478 29.2727 19.9014 31.6075 19.9014C33.9423 19.9014 35.8355 21.8478 35.8355 24.249C35.8355 26.6502 33.9427 28.597 31.6075 28.597ZM31.6375 27.2178C33.0947 27.2178 34.2775 25.8886 34.2775 24.249C34.2775 22.6094 33.0947 21.2814 31.6375 21.2814C30.1803 21.2814 28.9975 22.6106 28.9975 24.2498C28.9975 25.889 30.1803 27.2178 31.6375 27.2178Z" fill="white"/>
<path fill-rule="evenodd" clip-rule="evenodd" d="M22.8848 16.4009H25.9312V28.5489H24.2588V17.7333H22.8848V16.4009Z" fill="white"/>
<path fill-rule="evenodd" clip-rule="evenodd" d="M20.6139 20.0244H22.1951V30.1692C22.1951 31.0936 21.2227 32.0564 20.2751 32.4708C19.8271 32.6666 19.0004 32.7828 17.7951 32.8196V31.8104C18.974 31.679 19.7697 31.4167 20.1823 31.0236C20.4203 30.6928 20.5691 30.3063 20.6143 29.9012V26.9208C20.1916 27.8176 19.6593 28.4122 19.0175 28.7044C18.3503 29.0644 16.9923 29.0052 16.4379 28.7044C15.8835 28.4036 15.0703 27.6116 14.6975 26.432C14.5943 26.1064 14.3375 25.2204 14.3643 24.2816C14.3883 23.3876 14.6843 22.4416 14.9303 22.0528C15.3527 21.3888 16.0187 20.5572 17.0275 20.2096C17.5203 20.0398 18.4336 19.9787 19.7675 20.0264V21.03C18.7763 20.9631 18.1579 20.9966 17.9123 21.1304C17.5439 21.3304 16.7123 21.5772 16.4379 23.3896C16.1635 25.202 16.4459 26.6852 17.3159 27.1496C17.6139 27.3096 18.1411 27.4988 18.6283 27.332C19.5643 27.012 20.4451 25.8708 20.5123 25.0976C20.58 24.3131 20.6139 22.622 20.6139 20.0244Z" fill="white"/>
<path fill-rule="evenodd" clip-rule="evenodd" d="M40.6183 27.8199C39.1251 35.0099 32.7539 40.4123 25.1215 40.4123C16.3803 40.4123 9.29395 33.3259 9.29395 24.5847C9.29395 19.1543 12.0287 14.3627 16.1959 11.5127C12.8099 14.3207 10.6539 18.5627 10.6539 23.3063C10.6539 31.7675 17.5131 38.6263 25.9739 38.6263C32.8643 38.6263 38.6915 34.0779 40.6183 27.8199Z" fill="url(#paint3_radial_18693_19291)"/>
<path fill-rule="evenodd" clip-rule="evenodd" d="M25.1214 5.84082C14.7694 5.84082 6.37695 14.2328 6.37695 24.5848C6.37695 34.9368 14.7694 43.3292 25.1214 43.3292C35.4733 43.3292 43.8657 34.9368 43.8657 24.5848C43.8657 14.2328 35.4733 5.84082 25.1214 5.84082ZM25.1214 40.4128C16.3802 40.4128 9.29375 33.3264 9.29375 24.5852C9.29375 19.1548 12.0286 14.3632 16.1958 11.5132C18.8239 9.71325 21.9359 8.75232 25.1214 8.75722C33.8625 8.75722 40.9489 15.8432 40.9489 24.5848C40.9495 25.6717 40.8387 26.7558 40.6181 27.82C39.1249 35.01 32.7537 40.4124 25.1214 40.4124V40.4128Z" fill="white"/>
<defs>
<linearGradient id="paint0_linear_18693_19291" x1="24.3791" y1="17.7729" x2="26.4455" y2="36.4341" gradientUnits="userSpaceOnUse">
<stop stop-color="#123214"/>
<stop offset="0.46" stop-color="#3E7C37"/>
<stop offset="0.91" stop-color="#5FBB46"/>
</linearGradient>
<linearGradient id="paint1_linear_18693_19291" x1="36.3189" y1="16.5623" x2="36.3189" y2="31.6524" gradientUnits="userSpaceOnUse">
<stop stop-color="white" stop-opacity="0"/>
<stop offset="0.64" stop-color="white" stop-opacity="0.43"/>
<stop offset="1" stop-color="white" stop-opacity="0.42"/>
</linearGradient>
<radialGradient id="paint2_radial_18693_19291" cx="0" cy="0" r="1" gradientUnits="userSpaceOnUse" gradientTransform="translate(30.6842 13.8327) rotate(26.7606) scale(7.94173 3.30759)">
<stop offset="0.13" stop-color="white"/>
<stop offset="0.29" stop-color="white" stop-opacity="0.69"/>
<stop offset="0.45" stop-color="white" stop-opacity="0.4"/>
<stop offset="0.59" stop-color="white" stop-opacity="0.18"/>
<stop offset="0.69" stop-color="white" stop-opacity="0.05"/>
<stop offset="0.74" stop-color="white" stop-opacity="0"/>
</radialGradient>
<radialGradient id="paint3_radial_18693_19291" cx="0" cy="0" r="1" gradientUnits="userSpaceOnUse" gradientTransform="translate(27.8356 20.938) rotate(39.84) scale(17.7972 19.3989)">
<stop offset="0.86" stop-opacity="0"/>
<stop offset="0.98" stop-opacity="0.47"/>
<stop offset="1"/>
</radialGradient>
</defs>
</svg>
