<svg width="62" height="62" viewBox="0 0 62 62" fill="none" xmlns="http://www.w3.org/2000/svg">
<rect width="62" height="62" rx="10" fill="#F1F5F9"/>
<path fill-rule="evenodd" clip-rule="evenodd" d="M30.88 19.7202C24.7165 19.7202 19.72 24.7167 19.72 30.8802C19.72 37.0437 24.7165 42.0402 30.88 42.0402C37.0435 42.0402 42.04 37.0437 42.04 30.8802C42.04 24.7167 37.0435 19.7202 30.88 19.7202ZM17.24 30.8802C17.24 23.3471 23.3468 17.2402 30.88 17.2402C38.4132 17.2402 44.52 23.3471 44.52 30.8802C44.52 38.4134 38.4132 44.5202 30.88 44.5202C23.3468 44.5202 17.24 38.4134 17.24 30.8802Z" fill="#034EA2"/>
<path fill-rule="evenodd" clip-rule="evenodd" d="M30.88 29.6402C31.5648 29.6402 32.12 30.1954 32.12 30.8802V35.8402C32.12 36.5251 31.5648 37.0802 30.88 37.0802C30.1952 37.0802 29.64 36.5251 29.64 35.8402V30.8802C29.64 30.1954 30.1952 29.6402 30.88 29.6402Z" fill="#034EA2"/>
<path d="M32.12 25.9202C32.12 26.6051 31.5648 27.1602 30.88 27.1602C30.1952 27.1602 29.64 26.6051 29.64 25.9202C29.64 25.2354 30.1952 24.6802 30.88 24.6802C31.5648 24.6802 32.12 25.2354 32.12 25.9202Z" fill="#034EA2"/>
</svg>
