<svg width="26" height="26" viewBox="0 0 26 26" fill="none" xmlns="http://www.w3.org/2000/svg">
<path d="M11.8155 0.490634C12.5739 0.176486 13.4261 0.176486 14.1845 0.490634L21.0079 3.31698C21.7663 3.63112 22.3689 4.23369 22.683 4.99211L25.5094 11.8155C25.8235 12.5739 25.8235 13.4261 25.5094 14.1845L22.683 21.0079C22.3689 21.7663 21.7663 22.3689 21.0079 22.683L14.1845 25.5094C13.4261 25.8235 12.5739 25.8235 11.8155 25.5094L4.99211 22.683C4.23369 22.3689 3.63112 21.7663 3.31698 21.0079L0.490634 14.1845C0.176486 13.4261 0.176486 12.5739 0.490634 11.8155L3.31698 4.99211C3.63112 4.23369 4.23369 3.63112 4.99211 3.31698L11.8155 0.490634Z" fill="#F59E0B"/>
<mask id="mask0_23948_3754" style="mask-type:alpha" maskUnits="userSpaceOnUse" x="0" y="0" width="26" height="26">
<path d="M11.8155 0.490634C12.5739 0.176486 13.4261 0.176486 14.1845 0.490634L21.0079 3.31698C21.7663 3.63112 22.3689 4.23369 22.683 4.99211L25.5094 11.8155C25.8235 12.5739 25.8235 13.4261 25.5094 14.1845L22.683 21.0079C22.3689 21.7663 21.7663 22.3689 21.0079 22.683L14.1845 25.5094C13.4261 25.8235 12.5739 25.8235 11.8155 25.5094L4.99211 22.683C4.23369 22.3689 3.63112 21.7663 3.31698 21.0079L0.490634 14.1845C0.176486 13.4261 0.176486 12.5739 0.490634 11.8155L3.31698 4.99211C3.63112 4.23369 4.23369 3.63112 4.99211 3.31698L11.8155 0.490634Z" fill="#2563EB"/>
</mask>
<g mask="url(#mask0_23948_3754)">
<circle cx="13.6201" cy="16.715" r="11.7619" fill="#FCD34D" fill-opacity="0.3"/>
<path d="M28.1095 4.61848C29.1776 4.90468 30.0119 5.739 30.2982 6.80714L33.1102 17.3018C33.3964 18.37 33.091 19.5097 32.3091 20.2916L24.6264 27.9743C23.8445 28.7562 22.7048 29.0616 21.6367 28.7754L11.142 25.9633C10.0738 25.6771 9.23952 24.8428 8.95331 23.7747L6.14126 13.28C5.85506 12.2118 6.16044 11.0721 6.94237 10.2902L14.625 2.60754C15.407 1.8256 16.5467 1.52022 17.6148 1.80643L28.1095 4.61848Z" fill="#92400E" fill-opacity="0.3"/>
</g>
<path d="M16.1962 15.2281V17.2323H10.1836V15.2281H12.16V11.679C12.0765 11.7904 11.9466 11.9064 11.7703 12.027C11.594 12.1383 11.3945 12.245 11.1718 12.3471C10.9584 12.4399 10.7357 12.5188 10.5037 12.5837C10.2811 12.6394 10.0816 12.6672 9.90527 12.6672V10.6074C10.0537 10.6074 10.2439 10.5563 10.4759 10.4543C10.7172 10.3522 10.9538 10.2316 11.1857 10.0924C11.4177 9.94394 11.6265 9.79548 11.812 9.64702C11.9976 9.49856 12.1136 9.37794 12.16 9.28516H14.4286V15.2281H16.1962Z" fill="white"/>
</svg>
