<svg width="20" height="20" viewBox="0 0 20 20" fill="none" xmlns="http://www.w3.org/2000/svg">
<path fill-rule="evenodd" clip-rule="evenodd" d="M10.496 2.13217C10.3449 2.04588 10.174 2.00049 10 2.00049C9.82603 2.00049 9.65506 2.04588 9.504 2.13217L2.504 6.13217C2.31267 6.24162 2.16287 6.41122 2.07788 6.61461C1.99289 6.81799 1.97749 7.04375 2.03405 7.2568C2.09062 7.46984 2.216 7.65822 2.39068 7.79266C2.56537 7.92709 2.77957 8.00004 3 8.00017V15.0002C2.73478 15.0002 2.48043 15.1055 2.29289 15.2931C2.10536 15.4806 2 15.7349 2 16.0002C2 16.2654 2.10536 16.5197 2.29289 16.7073C2.48043 16.8948 2.73478 17.0002 3 17.0002H17C17.2652 17.0002 17.5196 16.8948 17.7071 16.7073C17.8946 16.5197 18 16.2654 18 16.0002C18 15.7349 17.8946 15.4806 17.7071 15.2931C17.5196 15.1055 17.2652 15.0002 17 15.0002V8.00017C17.2204 8.00004 17.4346 7.92709 17.6093 7.79266C17.784 7.65822 17.9094 7.46984 17.9659 7.2568C18.0225 7.04375 18.0071 6.81799 17.9221 6.61461C17.8371 6.41122 17.6873 6.24162 17.496 6.13217L10.496 2.13217ZM6 9.00017C5.73478 9.00017 5.48043 9.10552 5.29289 9.29306C5.10536 9.4806 5 9.73495 5 10.0002V13.0002C5 13.2654 5.10536 13.5197 5.29289 13.7073C5.48043 13.8948 5.73478 14.0002 6 14.0002C6.26522 14.0002 6.51957 13.8948 6.70711 13.7073C6.89464 13.5197 7 13.2654 7 13.0002V10.0002C7 9.73495 6.89464 9.4806 6.70711 9.29306C6.51957 9.10552 6.26522 9.00017 6 9.00017ZM9 10.0002C9 9.73495 9.10536 9.4806 9.29289 9.29306C9.48043 9.10552 9.73478 9.00017 10 9.00017C10.2652 9.00017 10.5196 9.10552 10.7071 9.29306C10.8946 9.4806 11 9.73495 11 10.0002V13.0002C11 13.2654 10.8946 13.5197 10.7071 13.7073C10.5196 13.8948 10.2652 14.0002 10 14.0002C9.73478 14.0002 9.48043 13.8948 9.29289 13.7073C9.10536 13.5197 9 13.2654 9 13.0002V10.0002ZM14 9.00017C13.7348 9.00017 13.4804 9.10552 13.2929 9.29306C13.1054 9.4806 13 9.73495 13 10.0002V13.0002C13 13.2654 13.1054 13.5197 13.2929 13.7073C13.4804 13.8948 13.7348 14.0002 14 14.0002C14.2652 14.0002 14.5196 13.8948 14.7071 13.7073C14.8946 13.5197 15 13.2654 15 13.0002V10.0002C15 9.73495 14.8946 9.4806 14.7071 9.29306C14.5196 9.10552 14.2652 9.00017 14 9.00017Z" fill="#6B7280"/>
</svg>
