<svg width="157" height="33" viewBox="0 0 157 33" fill="none" xmlns="http://www.w3.org/2000/svg">
<path d="M23.9459 26.6068H8.69004C3.86224 26.6068 0 22.8462 0 18.1453V8.46154C0 3.76068 3.86224 0 8.69004 0H24.0424C28.8702 0 32.7325 3.76068 32.7325 8.46154V18.2393C32.6359 22.8462 28.7737 26.6068 23.9459 26.6068Z" fill="white"/>
<path opacity="0.61" d="M27.1324 33.0002H17.6699V23.5985C17.6699 17.3933 22.8839 12.3164 29.2566 12.3164H38.7191V21.7181C38.7191 27.9232 33.5051 33.0002 27.1324 33.0002Z" fill="#F9FAFB"/>
<path d="M24.9112 21.2479C25.9244 21.2479 26.7458 20.4482 26.7458 19.4616C26.7458 18.4751 25.9244 17.6753 24.9112 17.6753C23.898 17.6753 23.0767 18.4751 23.0767 19.4616C23.0767 20.4482 23.898 21.2479 24.9112 21.2479Z" fill="#034EA2"/>
<path d="M47.0229 17.6754C46.2505 17.3933 45.5746 16.9232 45.0918 16.2651C44.609 15.607 44.3193 14.8548 44.3193 14.0087H47.8919C47.9885 14.4788 48.085 14.8548 48.4712 15.1369C48.7609 15.4189 49.1471 15.513 49.6299 15.513C50.1127 15.513 50.4989 15.4189 50.7886 15.1369C51.0783 14.9489 51.1748 14.5728 51.1748 14.1967C51.1748 13.8207 51.0783 13.6326 50.7886 13.3506C50.5955 13.1625 50.3058 12.9745 49.9196 12.7865C49.6299 12.6924 49.1471 12.5044 48.4712 12.3164C47.6022 12.0343 46.8298 11.7523 46.2505 11.4702C45.6711 11.1882 45.1883 10.8121 44.8021 10.248C44.609 9.87194 44.4159 9.21382 44.4159 8.36766C44.4159 7.14544 44.8987 6.11125 45.8642 5.45313C46.8298 4.79501 47.9885 4.41895 49.5334 4.41895C51.0783 4.41895 52.3335 4.79501 53.2025 5.45313C54.0715 6.11125 54.6508 7.14544 54.7474 8.46168H51.0783C51.0783 7.99159 50.8851 7.70954 50.5955 7.42749C50.3058 7.14544 49.9196 7.05142 49.4368 7.05142C49.0506 7.05142 48.6644 7.14544 48.4712 7.33347C48.1816 7.52151 48.085 7.80356 48.085 8.27365C48.085 8.74373 48.2781 9.02578 48.7609 9.30783C49.1471 9.58988 49.823 9.77792 50.692 10.06C51.561 10.342 52.3335 10.6241 52.9128 10.9061C53.4922 11.1882 53.9749 11.5642 54.3612 12.0343C54.7474 12.5044 54.9405 13.1625 54.9405 14.0087C54.9405 14.7608 54.7474 15.513 54.3612 16.0771C53.9749 16.7352 53.3956 17.2053 52.6232 17.5813C51.8507 17.9574 50.9817 18.1454 49.9196 18.1454C48.7609 18.1454 47.8919 17.9574 47.0229 17.6754Z" fill="white"/>
<path d="M56.8715 9.68397C57.2577 8.83782 57.837 8.1797 58.6095 7.80363C59.3819 7.33354 60.1544 7.14551 61.12 7.14551C61.8924 7.14551 62.5683 7.33354 63.1476 7.61559C63.727 7.89764 64.2098 8.36773 64.4994 8.83781V7.23952H67.8789V17.9575H64.4994V16.4532C64.2098 16.9233 63.727 17.3934 63.1476 17.6754C62.5683 17.9575 61.8924 18.1455 61.12 18.1455C60.2509 18.1455 59.3819 17.9575 58.7061 17.4874C58.0302 17.0173 57.3543 16.3592 56.968 15.513C56.5818 14.6669 56.2922 13.7267 56.2922 12.5985C56.1956 11.5643 56.4853 10.5301 56.8715 9.68397ZM63.8235 10.7182C63.3407 10.2481 62.7614 9.96602 62.0855 9.96602C61.4096 9.96602 60.8303 10.1541 60.3475 10.6241C59.8647 11.0942 59.6716 11.7523 59.6716 12.5985C59.6716 13.4447 59.8647 14.1028 60.3475 14.5729C60.8303 15.0429 61.4096 15.325 62.0855 15.325C62.7614 15.325 63.3407 15.0429 63.8235 14.5729C64.3063 14.1028 64.4994 13.4447 64.4994 12.5985C64.4994 11.8464 64.2097 11.1882 63.8235 10.7182Z" fill="white"/>
<path d="M75.7964 9.96583H73.9618V17.9573H70.5824V9.96583H69.3271V7.23934H70.5824V6.95729C70.5824 5.64105 70.9686 4.60686 71.741 3.94874C72.5135 3.29062 73.6722 2.91455 75.1205 2.91455C75.4102 2.91455 75.5067 2.91455 75.6998 2.91455V5.73506C75.0239 5.73506 74.6377 5.82908 74.3481 6.01711C74.0584 6.20515 73.9618 6.58122 73.9618 7.14532V7.23934H75.7964V9.96583Z" fill="white"/>
<path d="M87.673 13.4444H80.0451C80.1417 14.1025 80.3348 14.5726 80.721 14.9487C81.1072 15.3247 81.59 15.5128 82.1693 15.5128C83.0383 15.5128 83.6177 15.1367 83.9074 14.4786H87.4799C87.2868 15.1367 86.9971 15.7948 86.5144 16.3589C86.0316 16.923 85.4522 17.3931 84.6798 17.6752C84.0039 17.9572 83.1349 18.1452 82.2659 18.1452C81.2038 18.1452 80.2382 17.9572 79.3692 17.4871C78.5002 17.017 77.8243 16.3589 77.4381 15.6068C77.0519 14.8546 76.7622 13.8205 76.7622 12.6922C76.7622 11.564 76.9553 10.6239 77.4381 9.77772C77.9209 8.93156 78.5968 8.27345 79.3692 7.89738C80.2382 7.42729 81.2038 7.23926 82.2659 7.23926C83.328 7.23926 84.2936 7.42729 85.066 7.89738C85.935 8.36746 86.5144 8.93156 86.9971 9.77772C87.4799 10.6239 87.673 11.564 87.673 12.5982C87.7696 12.7863 87.7696 13.0683 87.673 13.4444ZM84.2936 11.564C84.2936 10.9999 84.1005 10.5299 83.7142 10.2478C83.328 9.87174 82.8452 9.77772 82.2659 9.77772C81.6866 9.77772 81.2038 9.96575 80.8176 10.2478C80.4313 10.5299 80.1417 10.9999 80.1417 11.6581H84.2936V11.564Z" fill="white"/>
<path d="M105.729 4.5127V17.9571H102.349V12.4101H97.1353V17.9571H93.7559V4.5127H97.1353V9.77765H102.349V4.5127H105.729Z" fill="white"/>
<path d="M108.143 9.68397C108.529 8.83782 109.109 8.1797 109.881 7.80363C110.653 7.33354 111.426 7.14551 112.391 7.14551C113.164 7.14551 113.84 7.33354 114.419 7.61559C114.999 7.89764 115.481 8.36773 115.771 8.83781V7.23952H119.15V17.9575H115.771V16.4532C115.481 16.9233 114.999 17.3934 114.419 17.6754C113.84 17.9575 113.164 18.1455 112.391 18.1455C111.522 18.1455 110.653 17.9575 109.978 17.4874C109.205 17.0173 108.626 16.3592 108.24 15.513C107.853 14.6669 107.564 13.7267 107.564 12.5985C107.467 11.5643 107.66 10.5301 108.143 9.68397ZM114.999 10.7182C114.516 10.2481 113.936 9.96602 113.26 9.96602C112.585 9.96602 112.005 10.1541 111.522 10.6241C111.04 11.0942 110.847 11.7523 110.847 12.5985C110.847 13.4447 111.04 14.1028 111.522 14.5729C112.005 15.0429 112.585 15.325 113.26 15.325C113.936 15.325 114.516 15.0429 114.999 14.5729C115.481 14.1028 115.674 13.4447 115.674 12.5985C115.674 11.8464 115.481 11.1882 114.999 10.7182Z" fill="white"/>
<path d="M126.489 14.9489L128.902 7.3335H132.475L128.613 18.0514H124.461L120.599 7.3335H124.171L126.489 14.9489Z" fill="white"/>
<path d="M144.158 13.4444H136.53C136.627 14.1025 136.82 14.5726 137.206 14.9487C137.593 15.3247 138.075 15.5128 138.655 15.5128C139.524 15.5128 140.103 15.1367 140.393 14.4786H143.965C143.772 15.1367 143.482 15.7948 143 16.3589C142.517 16.923 141.938 17.3931 141.165 17.6752C140.489 17.9572 139.62 18.1452 138.751 18.1452C137.689 18.1452 136.724 17.9572 135.855 17.4871C134.986 17.017 134.31 16.3589 133.923 15.6068C133.441 14.7606 133.248 13.8205 133.248 12.6922C133.248 11.564 133.441 10.6239 133.923 9.77772C134.406 8.93156 135.082 8.27345 135.855 7.89738C136.724 7.42729 137.689 7.23926 138.751 7.23926C139.813 7.23926 140.779 7.42729 141.551 7.89738C142.42 8.36746 143 8.93156 143.482 9.77772C143.965 10.6239 144.158 11.564 144.158 12.5982C144.255 12.7863 144.255 13.0683 144.158 13.4444ZM140.779 11.564C140.779 10.9999 140.586 10.5299 140.2 10.2478C139.813 9.87174 139.331 9.77772 138.751 9.77772C138.172 9.77772 137.689 9.96575 137.303 10.2478C136.917 10.5299 136.627 10.9999 136.627 11.6581H140.779V11.564Z" fill="white"/>
<path d="M155.841 8.36773C156.614 9.21388 157 10.3421 157 11.7523V18.0515H153.621V12.2224C153.621 11.4703 153.427 10.9062 153.041 10.5301C152.655 10.1541 152.172 9.96602 151.496 9.96602C150.82 9.96602 150.338 10.1541 149.951 10.5301C149.565 10.9062 149.372 11.4703 149.372 12.2224V18.0515H145.993V7.23952H149.372V8.64978C149.758 8.1797 150.145 7.80363 150.724 7.52158C151.303 7.23953 151.979 7.14551 152.655 7.14551C154.007 7.14551 155.069 7.61559 155.841 8.36773Z" fill="white"/>
<g opacity="0.61">
<path opacity="0.61" d="M141.744 22.9399V31.7775H140.296V25.7605L137.496 31.7775H136.434L133.633 25.7605V31.7775H132.185V22.9399H133.827L137.013 29.8972L140.199 22.9399H141.744Z" fill="#F9FAFB"/>
<path opacity="0.61" d="M148.986 22.9399V24.1622H145.124V26.7946H148.117V28.0169H145.124V31.8716H143.675V23.034H148.986V22.9399Z" fill="#F9FAFB"/>
<path opacity="0.61" d="M156.421 28.0169C156.807 28.3929 156.904 28.863 156.904 29.4271C156.904 29.8972 156.807 30.2733 156.517 30.6493C156.324 31.0254 155.938 31.3075 155.455 31.4955C154.972 31.6835 154.49 31.7775 153.91 31.7775H150.241V22.9399H153.717C154.297 22.9399 154.876 23.034 155.262 23.222C155.745 23.41 156.035 23.6921 156.228 24.0681C156.421 24.4442 156.614 24.8203 156.614 25.1963C156.614 25.6664 156.517 26.1365 156.228 26.5126C155.938 26.8887 155.552 27.0767 155.069 27.2647C155.745 27.3587 156.131 27.5468 156.421 28.0169ZM151.883 26.7006H153.717C154.2 26.7006 154.586 26.6066 154.876 26.4186C155.166 26.2305 155.262 25.8545 155.262 25.4784C155.262 25.1023 155.166 24.7263 154.876 24.5382C154.586 24.3502 154.2 24.1622 153.717 24.1622H151.883V26.7006ZM155.069 30.2733C155.359 29.9912 155.455 29.7092 155.455 29.2391C155.455 28.769 155.262 28.4869 154.972 28.2049C154.683 27.9228 154.297 27.8288 153.717 27.8288H151.786V30.5553H153.814C154.393 30.5553 154.779 30.4613 155.069 30.2733Z" fill="#F9FAFB"/>
</g>
<path opacity="0.61" d="M129.964 31.5896H44.8987C44.609 31.5896 44.3193 31.3076 44.3193 31.0255C44.3193 30.7435 44.609 30.4614 44.8987 30.4614H129.964C130.254 30.4614 130.544 30.7435 130.544 31.0255C130.544 31.3076 130.254 31.5896 129.964 31.5896Z" fill="#F9FAFB"/>
</svg>
