<svg width="50" height="50" viewBox="0 0 50 50" fill="none" xmlns="http://www.w3.org/2000/svg">
<path d="M0 25C0 11.1929 11.1929 0 25 0C38.8071 0 50 11.1929 50 25C50 38.8071 38.8071 50 25 50C11.1929 50 0 38.8071 0 25Z" fill="#FFC403"/>
<path d="M25.001 16.4688C15.3361 16.4688 7.50098 20.2884 7.50098 25C7.50098 29.7116 15.3361 33.5312 25.001 33.5312C34.6659 33.5312 42.501 29.7116 42.501 25C42.501 20.2884 34.6659 16.4688 25.001 16.4688ZM25.001 32.1844C16.0989 32.1844 8.88238 28.9678 8.88238 25C8.88238 21.0322 16.0989 17.8156 25.001 17.8156C33.903 17.8156 41.1196 21.0322 41.1196 25C41.1196 28.9678 33.903 32.1844 25.001 32.1844ZM22.7941 23.5033V22.1562H27.731V23.5033H25.9536V27.8438H24.5717V23.5033H22.7941ZM33.6903 22.1562V27.8438H32.3089L29.8034 24.458V27.8438H28.422V22.1562H29.8034L32.3089 25.542V22.1562H33.6903ZM16.2707 27.8438V22.1562H17.6521L19.1869 24.458L20.7217 22.1562H22.1025V27.8438H20.7217V24.6268L19.6739 26.197H18.6999L17.6521 24.6268V27.8438H16.2707Z" fill="black"/>
</svg>
