<svg width="28" height="28" viewBox="0 0 28 28" fill="none" xmlns="http://www.w3.org/2000/svg">
<path fill-rule="evenodd" clip-rule="evenodd" d="M13.9998 3.49984C12.1433 3.49984 10.3628 4.23734 9.05009 5.55009C7.73734 6.86284 6.99984 8.64332 6.99984 10.4998V16.3332C6.99984 17.1594 6.78071 17.9631 6.37464 18.6665H21.625C21.219 17.9631 20.9998 17.1594 20.9998 16.3332V10.4998C20.9998 8.64332 20.2623 6.86284 18.9496 5.55009C17.6368 4.23734 15.8564 3.49984 13.9998 3.49984ZM25.6665 18.6665C25.0477 18.6665 24.4542 18.4207 24.0166 17.9831C23.579 17.5455 23.3332 16.952 23.3332 16.3332V10.4998C23.3332 8.02448 22.3498 5.65051 20.5995 3.90017C18.8492 2.14983 16.4752 1.1665 13.9998 1.1665C11.5245 1.1665 9.15051 2.14983 7.40017 3.90017C5.64983 5.65051 4.6665 8.02448 4.6665 10.4998V16.3332C4.6665 16.952 4.42067 17.5455 3.98309 17.9831C3.5455 18.4207 2.95201 18.6665 2.33317 18.6665C1.68884 18.6665 1.1665 19.1888 1.1665 19.8332C1.1665 20.4775 1.68884 20.9998 2.33317 20.9998H25.6665V18.6665ZM11.3961 23.4907C11.9535 23.1674 12.6674 23.3571 12.9907 23.9144C13.0932 24.0912 13.2404 24.238 13.4175 24.34C13.5946 24.442 13.7954 24.4957 13.9998 24.4957C14.2042 24.4957 14.405 24.442 14.5821 24.34C14.7592 24.238 14.9064 24.0912 15.009 23.9144C15.3323 23.3571 16.0462 23.1674 16.6036 23.4907C17.1609 23.814 17.3506 24.5279 17.0273 25.0852C16.7197 25.6156 16.2781 26.0559 15.7467 26.3619C15.2154 26.668 14.613 26.829 13.9998 26.829C13.3867 26.829 12.7843 26.668 12.2529 26.3619C11.7216 26.0559 11.28 25.6156 10.9723 25.0852C10.649 24.5279 10.8388 23.814 11.3961 23.4907Z" fill="#97A6BA"/>
</svg>
