<svg width="36" height="37" viewBox="0 0 36 37" fill="none" xmlns="http://www.w3.org/2000/svg">
<rect y="0.519531" width="36" height="36" rx="18" fill="#EBF5FF"/>
<path d="M9 14.4946C9 12.9378 10.1592 11.6246 11.704 11.4315L22.3959 10.095C24.8406 9.78945 27 11.6957 27 14.1595C27 16.5222 25.0065 18.3949 22.6484 18.2476L11.8943 17.5754C10.2674 17.4737 9 16.1246 9 14.4946Z" fill="#034EA2"/>
<path d="M27 23.4946C27 21.9378 25.8408 20.6246 24.296 20.4315L13.6041 19.095C11.1594 18.7895 9 20.6957 9 23.1595C9 25.5222 10.9935 27.3949 13.3516 27.2476L24.1057 26.5754C25.7326 26.4737 27 25.1246 27 23.4946Z" fill="#034EA2"/>
</svg>
