<svg width="50" height="50" viewBox="0 0 50 50" fill="none" xmlns="http://www.w3.org/2000/svg">
<rect width="50" height="50" rx="10" fill="#F1F5F9"/>
<path fill-rule="evenodd" clip-rule="evenodd" d="M24.2929 32.7071C24.6834 33.0976 25.3166 33.0976 25.7071 32.7071L32.7071 25.7071C33.0976 25.3166 33.0976 24.6834 32.7071 24.2929C32.3166 23.9024 31.6834 23.9024 31.2929 24.2929L26 29.5858L26 18C26 17.4477 25.5523 17 25 17C24.4477 17 24 17.4477 24 18L24 29.5858L18.7071 24.2929C18.3166 23.9024 17.6834 23.9024 17.2929 24.2929C16.9024 24.6834 16.9024 25.3166 17.2929 25.7071L24.2929 32.7071Z" fill="#034EA2"/>
</svg>
