<svg width="538" height="188" viewBox="0 0 538 188" fill="none" xmlns="http://www.w3.org/2000/svg" xmlns:xlink="http://www.w3.org/1999/xlink">
<rect width="538" height="188" fill="url(#pattern0_25889_240605)" fill-opacity="0.6"/>
<rect width="538" height="188" fill="url(#paint0_linear_25889_240605)"/>
<defs>
<linearGradient id="paint0_linear_25889_240605" x1="269.745" y1="188" x2="269.446" y2="-0.000711266" gradientUnits="userSpaceOnUse">
<stop offset="0.425481" stop-color="white"/>
<stop offset="1" stop-color="white" stop-opacity="0"/>
</linearGradient>
<pattern id="pattern0_25889_240605" patternUnits="userSpaceOnUse" viewBox="71237 -62836 107.786 51.9877" width="30.05197021597823%" height="41.479561176705872%" x="232.255" patternContentUnits="objectBoundingBox">
<g id="pattern0_25889_240605_inner">
<path d="M71271.8 -62869.9C71272 -62869.1 71271.6 -62868.8 71270.9 -62869C71270.2 -62869.3 71269.1 -62869.1 71268.4 -62868.7C71267.8 -62868.2 71267.3 -62868.5 71267.3 -62869.2C71267.4 -62870 71266.9 -62871 71266.3 -62871.4C71265.6 -62871.9 71265.7 -62872.4 71266.5 -62872.7C71267.2 -62872.9 71268 -62873.7 71268.2 -62874.4C71268.5 -62875.1 71269 -62875.2 71269.4 -62874.6C71269.9 -62873.9 71270.9 -62873.4 71271.6 -62873.4C71272.4 -62873.4 71272.6 -62872.9 71272.2 -62872.3C71271.7 -62871.7 71271.5 -62870.6 71271.8 -62869.9L71271.8 -62869.9Z" fill="#EBF5FF"/>
<path d="M71253.9 -62865.3C71254.2 -62864.6 71253.8 -62864.2 71253 -62864.4C71252.3 -62864.7 71251.2 -62864.5 71250.6 -62864.1C71250 -62863.6 71249.5 -62863.9 71249.5 -62864.7C71249.5 -62865.4 71249 -62866.4 71248.4 -62866.9C71247.8 -62867.3 71247.9 -62867.9 71248.6 -62868.1C71249.4 -62868.3 71250.1 -62869.1 71250.4 -62869.8C71250.6 -62870.5 71251.2 -62870.6 71251.6 -62870C71252 -62869.4 71253 -62868.8 71253.8 -62868.8C71254.6 -62868.8 71254.8 -62868.3 71254.3 -62867.7C71253.9 -62867.1 71253.7 -62866 71253.9 -62865.3L71253.9 -62865.3Z" fill="#EBF5FF"/>
<path d="M71266.8 -62854.6C71267.1 -62853.8 71266.6 -62853.4 71265.9 -62853.7L71264.8 -62854.1C71264 -62854.3 71262.9 -62854.2 71262.3 -62853.7L71261.3 -62853C71260.7 -62852.5 71260.2 -62852.8 71260.2 -62853.6L71260.2 -62854.8C71260.3 -62855.6 71259.8 -62856.6 71259.1 -62857L71258.2 -62857.7C71257.5 -62858.2 71257.6 -62858.8 71258.4 -62859L71259.5 -62859.3C71260.3 -62859.5 71261.1 -62860.3 71261.3 -62861.1L71261.7 -62862.2C71261.9 -62863 71262.5 -62863 71262.9 -62862.4L71263.6 -62861.4C71264.1 -62860.8 71265.1 -62860.2 71265.8 -62860.2H71267C71267.8 -62860.2 71268.1 -62859.7 71267.6 -62859.1L71266.9 -62858.2C71266.4 -62857.5 71266.2 -62856.4 71266.4 -62855.7L71266.8 -62854.5L71266.8 -62854.6Z" fill="#EBF5FF"/>
<path d="M71246.1 -62851.2C71246.3 -62850.4 71245.9 -62850 71245.2 -62850.3L71244 -62850.7C71243.3 -62850.9 71242.2 -62850.8 71241.6 -62850.3L71240.6 -62849.6C71240 -62849.2 71239.5 -62849.4 71239.5 -62850.2L71239.5 -62851.4C71239.5 -62852.2 71239 -62853.2 71238.4 -62853.7L71237.4 -62854.4C71236.8 -62854.8 71236.9 -62855.4 71237.6 -62855.6L71238.8 -62855.9C71239.5 -62856.2 71240.3 -62857 71240.6 -62857.7L71240.9 -62858.8C71241.2 -62859.6 71241.7 -62859.7 71242.2 -62859L71242.9 -62858C71243.3 -62857.4 71244.3 -62856.9 71245.1 -62856.9H71246.3C71247.1 -62856.9 71247.3 -62856.4 71246.9 -62855.7L71246.1 -62854.8C71245.7 -62854.2 71245.5 -62853 71245.7 -62852.3L71246.1 -62851.2L71246.1 -62851.2Z" fill="#EBF5FF"/>
<path d="M71260.7 -62879.7C71261 -62879 71260.6 -62878.6 71259.8 -62878.8L71258.7 -62879.2C71258 -62879.5 71256.9 -62879.3 71256.2 -62878.9L71255.3 -62878.2C71254.6 -62877.7 71254.1 -62878 71254.2 -62878.8L71254.2 -62879.9C71254.2 -62880.7 71253.7 -62881.7 71253.1 -62882.2L71252.1 -62882.9C71251.5 -62883.4 71251.6 -62883.9 71252.3 -62884.1L71253.5 -62884.5C71254.2 -62884.7 71255 -62885.5 71255.3 -62886.3L71255.6 -62887.4C71255.9 -62888.1 71256.4 -62888.2 71256.9 -62887.6L71257.5 -62886.6C71258 -62885.9 71259 -62885.4 71259.8 -62885.4H71261C71261.8 -62885.4 71262 -62884.9 71261.5 -62884.3L71260.8 -62883.3C71260.3 -62882.7 71260.1 -62881.6 71260.4 -62880.8L71260.8 -62879.7L71260.7 -62879.7Z" fill="#A4CAFE"/>
<path d="M71284.6 -62851.5C71284.8 -62850.8 71284.4 -62850.4 71283.7 -62850.6L71281.3 -62851.5C71280.6 -62851.7 71279.4 -62851.6 71278.8 -62851.1L71276.8 -62849.6C71276.2 -62849.2 71275.7 -62849.4 71275.7 -62850.2L71275.7 -62852.7C71275.8 -62853.5 71275.2 -62854.5 71274.6 -62855L71272.6 -62856.5C71271.9 -62856.9 71272 -62857.5 71272.8 -62857.7L71275.2 -62858.4C71276 -62858.6 71276.8 -62859.4 71277 -62860.2L71277.8 -62862.6C71278 -62863.3 71278.6 -62863.4 71279 -62862.7L71280.5 -62860.7C71280.9 -62860 71281.9 -62859.5 71282.7 -62859.5H71285.2C71286 -62859.5 71286.2 -62859 71285.8 -62858.4L71284.2 -62856.4C71283.8 -62855.8 71283.6 -62854.6 71283.8 -62853.9L71284.6 -62851.5L71284.6 -62851.5Z" fill="#C3DDFD"/>
<path d="M71270 -62837.9C71269.2 -62837.7 71268.9 -62838.2 71269.2 -62838.9L71269.8 -62839.9C71270.2 -62840.6 71270.2 -62841.8 71269.8 -62842.5L71269.3 -62843.5C71269 -62844.2 71269.3 -62844.7 71270.1 -62844.5L71271.2 -62844.3C71272 -62844.2 71273.1 -62844.5 71273.7 -62845L71274.5 -62845.9C71275.1 -62846.4 71275.6 -62846.2 71275.7 -62845.5L71275.8 -62844.3C71275.9 -62843.5 71276.6 -62842.6 71277.3 -62842.2L71278.4 -62841.7C71279 -62841.3 71279 -62840.8 71278.3 -62840.4L71277.2 -62839.9C71276.5 -62839.6 71275.9 -62838.7 71275.7 -62837.9L71275.5 -62836.7C71275.4 -62835.9 71274.9 -62835.8 71274.3 -62836.4L71273.5 -62837.2C71273 -62837.8 71271.9 -62838.2 71271.1 -62838L71270 -62837.9L71270 -62837.9Z" fill="#EBF5FF"/>
</g>
<use xlink:href="#pattern0_25889_240605_inner" transform="translate(0 51.9877)"/>
<use xlink:href="#pattern0_25889_240605_inner" transform="translate(53.8932 25.9939)"/>
<use xlink:href="#pattern0_25889_240605_inner" transform="translate(53.8932 77.9816)"/>
</pattern></defs>
</svg>
