<svg width="50" height="50" viewBox="0 0 50 50" fill="none" xmlns="http://www.w3.org/2000/svg">
<rect width="50" height="50" rx="25" fill="#EBF5FF"/>
<path d="M30.5759 36.1093H23.7871V29.3826C23.7871 24.943 27.5278 21.3105 32.0999 21.3105H38.8886V28.0372C38.8886 32.4768 35.1479 36.1093 30.5759 36.1093Z" fill="#6E94E8"/>
<path d="M28.291 31.5365H17.3459C13.8822 31.5365 11.1113 28.8458 11.1113 25.4825V18.554C11.1113 15.1907 13.8822 12.5 17.3459 12.5H28.3603C31.8239 12.5 34.5948 15.1907 34.5948 18.554V25.5498C34.5256 28.8458 31.7547 31.5365 28.291 31.5365Z" fill="#034EA2"/>
<path d="M28.9851 27.7026C29.712 27.7026 30.3013 27.1304 30.3013 26.4246C30.3013 25.7187 29.712 25.1465 28.9851 25.1465C28.2582 25.1465 27.6689 25.7187 27.6689 26.4246C27.6689 27.1304 28.2582 27.7026 28.9851 27.7026Z" fill="white"/>
</svg>
