<svg width="20" height="18" viewBox="0 0 20 18" fill="none" xmlns="http://www.w3.org/2000/svg">
<path d="M12.369 13.7435H4.48876C1.995 13.7435 0 11.801 0 9.37279V4.37073C0 1.94255 1.995 0 4.48876 0H12.4189C14.9127 0 16.9077 1.94255 16.9077 4.37073V9.42135C16.8578 11.801 14.8628 13.7435 12.369 13.7435Z" fill="#034EA2"/>
<path opacity="0.61" d="M14.0152 17.0458H9.12744V12.1895C9.12744 8.98425 11.8207 6.36182 15.1125 6.36182H20.0002V11.2182C20.0002 14.4234 17.307 17.0458 14.0152 17.0458Z" fill="#034EA2" fill-opacity="0.71"/>
<path d="M12.868 10.9753C13.3914 10.9753 13.8157 10.5622 13.8157 10.0526C13.8157 9.54299 13.3914 9.12988 12.868 9.12988C12.3447 9.12988 11.9204 9.54299 11.9204 10.0526C11.9204 10.5622 12.3447 10.9753 12.868 10.9753Z" fill="white"/>
</svg>
