<svg width="1005" height="80" viewBox="0 0 1005 80" fill="none" xmlns="http://www.w3.org/2000/svg">
<rect width="1005" height="80" rx="10" fill="#FFFBEB"/>
<rect x="15" y="15" width="50" height="50" rx="10" fill="#FEF3C7"/>
<path d="M40 41.1199V37.3799" stroke="#F59E0B" stroke-width="1.5" stroke-linecap="round" stroke-linejoin="round"/>
<path d="M39.999 44.125C39.861 44.125 39.749 44.237 39.75 44.375C39.75 44.513 39.862 44.625 40 44.625C40.138 44.625 40.25 44.513 40.25 44.375C40.25 44.237 40.138 44.125 39.999 44.125" stroke="#F59E0B" stroke-width="1.5" stroke-linecap="round" stroke-linejoin="round"/>
<path fill-rule="evenodd" clip-rule="evenodd" d="M42.029 32.1392L49.688 45.5432C50.578 47.1012 49.453 49.0402 47.659 49.0402H32.341C30.546 49.0402 29.421 47.1012 30.312 45.5432L37.971 32.1392C38.868 30.5682 41.132 30.5682 42.029 32.1392Z" stroke="#F59E0B" stroke-width="1.5" stroke-linecap="round" stroke-linejoin="round"/>
<path d="M83.312 23.088H84.838L89.108 33H87.092L86.168 30.732H81.87L80.974 33H79L83.312 23.088ZM85.552 29.22L84.026 25.188L82.472 29.22H85.552ZM90.0835 22.416H91.7635V33H90.0835V22.416ZM95.0362 30.228C95.0922 30.732 95.2882 31.124 95.6242 31.404C95.9602 31.684 96.3662 31.824 96.8422 31.824C97.2622 31.824 97.6122 31.74 97.8922 31.572C98.1816 31.3947 98.4336 31.1753 98.6482 30.914L99.8522 31.824C99.4602 32.3093 99.0216 32.6547 98.5362 32.86C98.0509 33.0653 97.5422 33.168 97.0102 33.168C96.5062 33.168 96.0302 33.084 95.5822 32.916C95.1342 32.748 94.7469 32.51 94.4202 32.202C94.0936 31.894 93.8322 31.5253 93.6362 31.096C93.4496 30.6573 93.3562 30.172 93.3562 29.64C93.3562 29.108 93.4496 28.6273 93.6362 28.198C93.8322 27.7593 94.0936 27.386 94.4202 27.078C94.7469 26.77 95.1342 26.532 95.5822 26.364C96.0302 26.196 96.5062 26.112 97.0102 26.112C97.4769 26.112 97.9016 26.196 98.2842 26.364C98.6762 26.5227 99.0076 26.756 99.2782 27.064C99.5582 27.372 99.7729 27.7547 99.9222 28.212C100.081 28.66 100.16 29.178 100.16 29.766V30.228H95.0362ZM98.4802 28.968C98.4709 28.4733 98.3169 28.086 98.0182 27.806C97.7196 27.5167 97.3042 27.372 96.7722 27.372C96.2682 27.372 95.8669 27.5167 95.5682 27.806C95.2789 28.0953 95.1016 28.4827 95.0362 28.968H98.4802ZM101.731 26.28H103.411V27.344H103.439C103.626 26.952 103.892 26.6487 104.237 26.434C104.583 26.2193 104.979 26.112 105.427 26.112C105.53 26.112 105.628 26.1213 105.721 26.14C105.824 26.1587 105.927 26.182 106.029 26.21V27.834C105.889 27.7967 105.749 27.7687 105.609 27.75C105.479 27.722 105.348 27.708 105.217 27.708C104.825 27.708 104.508 27.7827 104.265 27.932C104.032 28.072 103.85 28.2353 103.719 28.422C103.598 28.6087 103.514 28.7953 103.467 28.982C103.43 29.1687 103.411 29.3087 103.411 29.402V33H101.731V26.28ZM106.389 27.708V26.28H107.775V24.334H109.455V26.28H111.303V27.708H109.455V30.648C109.455 30.984 109.515 31.25 109.637 31.446C109.767 31.642 110.019 31.74 110.393 31.74C110.542 31.74 110.705 31.726 110.883 31.698C111.06 31.6607 111.2 31.6047 111.303 31.53V32.944C111.125 33.028 110.906 33.084 110.645 33.112C110.393 33.1493 110.169 33.168 109.973 33.168C109.525 33.168 109.156 33.1167 108.867 33.014C108.587 32.9207 108.363 32.776 108.195 32.58C108.036 32.3747 107.924 32.1227 107.859 31.824C107.803 31.5253 107.775 31.18 107.775 30.788V27.708H106.389ZM114.588 29.892H112.908V23.088H114.588V29.892ZM112.628 32.02C112.628 31.7213 112.735 31.4647 112.95 31.25C113.174 31.0353 113.44 30.928 113.748 30.928C114.046 30.928 114.308 31.0307 114.532 31.236C114.756 31.4413 114.868 31.6933 114.868 31.992C114.868 32.2907 114.756 32.5473 114.532 32.762C114.317 32.9767 114.056 33.084 113.748 33.084C113.598 33.084 113.454 33.056 113.314 33C113.183 32.944 113.066 32.8693 112.964 32.776C112.861 32.6827 112.777 32.5707 112.712 32.44C112.656 32.3093 112.628 32.1693 112.628 32.02ZM118.73 29.892H117.05V23.088H118.73V29.892ZM116.77 32.02C116.77 31.7213 116.878 31.4647 117.092 31.25C117.316 31.0353 117.582 30.928 117.89 30.928C118.189 30.928 118.45 31.0307 118.674 31.236C118.898 31.4413 119.01 31.6933 119.01 31.992C119.01 32.2907 118.898 32.5473 118.674 32.762C118.46 32.9767 118.198 33.084 117.89 33.084C117.741 33.084 117.596 33.056 117.456 33C117.326 32.944 117.209 32.8693 117.106 32.776C117.004 32.6827 116.92 32.5707 116.854 32.44C116.798 32.3093 116.77 32.1693 116.77 32.02ZM122.873 29.892H121.193V23.088H122.873V29.892ZM120.913 32.02C120.913 31.7213 121.02 31.4647 121.235 31.25C121.459 31.0353 121.725 30.928 122.033 30.928C122.332 30.928 122.593 31.0307 122.817 31.236C123.041 31.4413 123.153 31.6933 123.153 31.992C123.153 32.2907 123.041 32.5473 122.817 32.762C122.602 32.9767 122.341 33.084 122.033 33.084C121.884 33.084 121.739 33.056 121.599 33C121.468 32.944 121.352 32.8693 121.249 32.776C121.146 32.6827 121.062 32.5707 120.997 32.44C120.941 32.3093 120.913 32.1693 120.913 32.02Z" fill="#252F3F"/>
<path d="M80.232 48.088H81.408V52.372H81.576L86.084 48.088H87.778L82.878 52.61L88.016 58H86.294L81.576 52.96H81.408V58H80.232V48.088ZM89.1524 51.448H90.2444V58H89.1524V51.448ZM88.9004 48.886C88.9004 48.6713 88.975 48.4847 89.1244 48.326C89.283 48.1673 89.4744 48.088 89.6984 48.088C89.9224 48.088 90.109 48.1673 90.2584 48.326C90.417 48.4847 90.4964 48.6713 90.4964 48.886C90.4964 49.1193 90.4217 49.3107 90.2724 49.46C90.123 49.6093 89.9317 49.684 89.6984 49.684C89.465 49.684 89.2737 49.6093 89.1244 49.46C88.975 49.3107 88.9004 49.1193 88.9004 48.886ZM92.6176 53.002C92.6176 52.7033 92.6083 52.4233 92.5896 52.162C92.571 51.9007 92.5616 51.6627 92.5616 51.448H93.5976C93.5976 51.6253 93.6023 51.8027 93.6116 51.98C93.621 52.1573 93.6256 52.3393 93.6256 52.526H93.6536C93.7283 52.3673 93.831 52.2133 93.9616 52.064C94.1016 51.9147 94.265 51.784 94.4516 51.672C94.6383 51.5507 94.8483 51.4573 95.0816 51.392C95.315 51.3173 95.567 51.28 95.8376 51.28C96.267 51.28 96.6356 51.3453 96.9436 51.476C97.261 51.6067 97.5223 51.7887 97.7276 52.022C97.933 52.2553 98.0823 52.54 98.1756 52.876C98.2783 53.2027 98.3296 53.562 98.3296 53.954V58H97.2376V54.066C97.2376 53.5153 97.1163 53.0813 96.8736 52.764C96.631 52.4467 96.253 52.288 95.7396 52.288C95.385 52.288 95.077 52.3487 94.8156 52.47C94.5636 52.5913 94.3536 52.764 94.1856 52.988C94.027 53.212 93.9056 53.478 93.8216 53.786C93.747 54.094 93.7096 54.4347 93.7096 54.808V58H92.6176V53.002ZM106.043 56.838H106.015C105.81 57.2113 105.483 57.5287 105.035 57.79C104.596 58.042 104.083 58.168 103.495 58.168C103.038 58.168 102.608 58.084 102.207 57.916C101.806 57.7387 101.456 57.496 101.157 57.188C100.868 56.88 100.639 56.516 100.471 56.096C100.303 55.676 100.219 55.2187 100.219 54.724C100.219 54.2293 100.303 53.772 100.471 53.352C100.639 52.932 100.872 52.568 101.171 52.26C101.47 51.952 101.829 51.714 102.249 51.546C102.678 51.3687 103.15 51.28 103.663 51.28C104.139 51.28 104.573 51.378 104.965 51.574C105.366 51.77 105.716 52.0453 106.015 52.4H106.043V47.416H107.135V58H106.043V56.838ZM106.043 54.724C106.043 54.3787 105.987 54.0613 105.875 53.772C105.772 53.4733 105.618 53.2167 105.413 53.002C105.208 52.778 104.96 52.6053 104.671 52.484C104.391 52.3533 104.074 52.288 103.719 52.288C103.364 52.288 103.042 52.3533 102.753 52.484C102.473 52.6053 102.23 52.778 102.025 53.002C101.82 53.2167 101.661 53.4733 101.549 53.772C101.446 54.0613 101.395 54.3787 101.395 54.724C101.395 55.0693 101.446 55.3913 101.549 55.69C101.661 55.9793 101.82 56.236 102.025 56.46C102.23 56.6747 102.473 56.8473 102.753 56.978C103.042 57.0993 103.364 57.16 103.719 57.16C104.074 57.16 104.391 57.0993 104.671 56.978C104.96 56.8473 105.208 56.6747 105.413 56.46C105.618 56.236 105.772 55.9793 105.875 55.69C105.987 55.3913 106.043 55.0693 106.043 54.724ZM109.467 47.416H110.559V58H109.467V47.416ZM115.34 59.498C115.228 59.778 115.112 60.03 114.99 60.254C114.878 60.4873 114.738 60.6833 114.57 60.842C114.412 61.01 114.216 61.136 113.982 61.22C113.758 61.3133 113.483 61.36 113.156 61.36C112.998 61.36 112.83 61.3507 112.652 61.332C112.484 61.3133 112.326 61.2667 112.176 61.192L112.316 60.24C112.428 60.2867 112.545 60.3147 112.666 60.324C112.788 60.3427 112.928 60.352 113.086 60.352C113.441 60.352 113.702 60.254 113.87 60.058C114.038 59.862 114.183 59.6007 114.304 59.274L114.752 58.042L112.036 51.448H113.31L115.34 56.586H115.368L117.314 51.448H118.504L115.34 59.498ZM123.983 53.002C123.983 52.7033 123.974 52.4233 123.955 52.162C123.936 51.9007 123.927 51.6627 123.927 51.448H124.963C124.963 51.6253 124.968 51.8027 124.977 51.98C124.986 52.1573 124.991 52.3393 124.991 52.526H125.019C125.094 52.3673 125.196 52.2133 125.327 52.064C125.467 51.9147 125.63 51.784 125.817 51.672C126.004 51.5507 126.214 51.4573 126.447 51.392C126.68 51.3173 126.932 51.28 127.203 51.28C127.632 51.28 128.001 51.3453 128.309 51.476C128.626 51.6067 128.888 51.7887 129.093 52.022C129.298 52.2553 129.448 52.54 129.541 52.876C129.644 53.2027 129.695 53.562 129.695 53.954V58H128.603V54.066C128.603 53.5153 128.482 53.0813 128.239 52.764C127.996 52.4467 127.618 52.288 127.105 52.288C126.75 52.288 126.442 52.3487 126.181 52.47C125.929 52.5913 125.719 52.764 125.551 52.988C125.392 53.212 125.271 53.478 125.187 53.786C125.112 54.094 125.075 54.4347 125.075 54.808V58H123.983V53.002ZM131.584 54.724C131.584 54.2107 131.673 53.744 131.85 53.324C132.028 52.904 132.27 52.5447 132.578 52.246C132.886 51.938 133.255 51.7 133.684 51.532C134.114 51.364 134.58 51.28 135.084 51.28C135.588 51.28 136.055 51.364 136.484 51.532C136.914 51.7 137.282 51.938 137.59 52.246C137.898 52.5447 138.141 52.904 138.318 53.324C138.496 53.744 138.584 54.2107 138.584 54.724C138.584 55.2373 138.496 55.704 138.318 56.124C138.141 56.544 137.898 56.908 137.59 57.216C137.282 57.5147 136.914 57.748 136.484 57.916C136.055 58.084 135.588 58.168 135.084 58.168C134.58 58.168 134.114 58.084 133.684 57.916C133.255 57.748 132.886 57.5147 132.578 57.216C132.27 56.908 132.028 56.544 131.85 56.124C131.673 55.704 131.584 55.2373 131.584 54.724ZM132.76 54.724C132.76 55.0693 132.812 55.3913 132.914 55.69C133.026 55.9793 133.185 56.236 133.39 56.46C133.596 56.6747 133.838 56.8473 134.118 56.978C134.408 57.0993 134.73 57.16 135.084 57.16C135.439 57.16 135.756 57.0993 136.036 56.978C136.326 56.8473 136.573 56.6747 136.778 56.46C136.984 56.236 137.138 55.9793 137.24 55.69C137.352 55.3913 137.408 55.0693 137.408 54.724C137.408 54.3787 137.352 54.0613 137.24 53.772C137.138 53.4733 136.984 53.2167 136.778 53.002C136.573 52.778 136.326 52.6053 136.036 52.484C135.756 52.3533 135.439 52.288 135.084 52.288C134.73 52.288 134.408 52.3533 134.118 52.484C133.838 52.6053 133.596 52.778 133.39 53.002C133.185 53.2167 133.026 53.4733 132.914 53.772C132.812 54.0613 132.76 54.3787 132.76 54.724ZM144.059 52.372H142.127V55.648C142.127 55.8627 142.131 56.0633 142.141 56.25C142.15 56.4273 142.187 56.586 142.253 56.726C142.318 56.8567 142.416 56.964 142.547 57.048C142.677 57.1227 142.864 57.16 143.107 57.16C143.265 57.16 143.429 57.1413 143.597 57.104C143.765 57.0667 143.923 57.0107 144.073 56.936L144.115 57.93C143.928 58.014 143.718 58.0747 143.485 58.112C143.261 58.1493 143.046 58.168 142.841 58.168C142.449 58.168 142.136 58.1167 141.903 58.014C141.669 57.9113 141.487 57.7667 141.357 57.58C141.226 57.3933 141.137 57.1647 141.091 56.894C141.053 56.614 141.035 56.306 141.035 55.97V52.372H139.607V51.448H141.035V49.586H142.127V51.448H144.059V52.372ZM151.449 56.81C151.057 57.314 150.627 57.6687 150.161 57.874C149.694 58.07 149.153 58.168 148.537 58.168C148.023 58.168 147.561 58.0793 147.151 57.902C146.74 57.7153 146.39 57.468 146.101 57.16C145.821 56.852 145.601 56.488 145.443 56.068C145.293 55.648 145.219 55.2 145.219 54.724C145.219 54.22 145.303 53.758 145.471 53.338C145.639 52.9087 145.872 52.5447 146.171 52.246C146.469 51.938 146.824 51.7 147.235 51.532C147.645 51.364 148.093 51.28 148.579 51.28C149.036 51.28 149.456 51.3593 149.839 51.518C150.221 51.6673 150.548 51.8913 150.819 52.19C151.099 52.4793 151.313 52.8387 151.463 53.268C151.612 53.688 151.687 54.1687 151.687 54.71V55.06H146.395C146.413 55.34 146.479 55.6107 146.591 55.872C146.712 56.124 146.866 56.348 147.053 56.544C147.239 56.7307 147.459 56.88 147.711 56.992C147.963 57.104 148.238 57.16 148.537 57.16C149.013 57.16 149.414 57.076 149.741 56.908C150.067 56.74 150.361 56.4927 150.623 56.166L151.449 56.81ZM150.511 54.136C150.492 53.576 150.31 53.128 149.965 52.792C149.619 52.456 149.143 52.288 148.537 52.288C147.93 52.288 147.44 52.456 147.067 52.792C146.693 53.128 146.469 53.576 146.395 54.136H150.511ZM161.256 52.372H159.324V55.648C159.324 55.8627 159.329 56.0633 159.338 56.25C159.348 56.4273 159.385 56.586 159.45 56.726C159.516 56.8567 159.614 56.964 159.744 57.048C159.875 57.1227 160.062 57.16 160.304 57.16C160.463 57.16 160.626 57.1413 160.794 57.104C160.962 57.0667 161.121 57.0107 161.27 56.936L161.312 57.93C161.126 58.014 160.916 58.0747 160.682 58.112C160.458 58.1493 160.244 58.168 160.038 58.168C159.646 58.168 159.334 58.1167 159.1 58.014C158.867 57.9113 158.685 57.7667 158.554 57.58C158.424 57.3933 158.335 57.1647 158.288 56.894C158.251 56.614 158.232 56.306 158.232 55.97V52.372H156.804V51.448H158.232V49.586H159.324V51.448H161.256V52.372ZM162.808 47.416H163.9V52.358H163.928C164.003 52.2273 164.105 52.1013 164.236 51.98C164.367 51.8493 164.521 51.7327 164.698 51.63C164.885 51.5273 165.09 51.4433 165.314 51.378C165.538 51.3127 165.776 51.28 166.028 51.28C166.457 51.28 166.826 51.3453 167.134 51.476C167.451 51.6067 167.713 51.7887 167.918 52.022C168.123 52.2553 168.273 52.54 168.366 52.876C168.469 53.2027 168.52 53.562 168.52 53.954V58H167.428V54.066C167.428 53.5153 167.307 53.0813 167.064 52.764C166.821 52.4467 166.443 52.288 165.93 52.288C165.575 52.288 165.267 52.3487 165.006 52.47C164.754 52.5913 164.544 52.764 164.376 52.988C164.217 53.212 164.096 53.478 164.012 53.786C163.937 54.094 163.9 54.4347 163.9 54.808V58H162.808V47.416ZM170.703 52.288C171.039 51.9427 171.436 51.6907 171.893 51.532C172.36 51.364 172.831 51.28 173.307 51.28C174.278 51.28 174.978 51.5087 175.407 51.966C175.837 52.4233 176.051 53.1187 176.051 54.052V56.866C176.051 57.0527 176.061 57.2487 176.079 57.454C176.098 57.65 176.121 57.832 176.149 58H175.099C175.062 57.8507 175.039 57.6873 175.029 57.51C175.029 57.3233 175.029 57.16 175.029 57.02H175.001C174.787 57.356 174.497 57.6313 174.133 57.846C173.779 58.0607 173.349 58.168 172.845 58.168C172.509 58.168 172.192 58.126 171.893 58.042C171.604 57.958 171.347 57.8367 171.123 57.678C170.909 57.51 170.736 57.3047 170.605 57.062C170.475 56.8193 170.409 56.5393 170.409 56.222C170.409 55.6807 170.549 55.256 170.829 54.948C171.109 54.64 171.455 54.4113 171.865 54.262C172.285 54.1127 172.733 54.0193 173.209 53.982C173.695 53.9447 174.138 53.926 174.539 53.926H174.959V53.73C174.959 53.254 174.815 52.8947 174.525 52.652C174.245 52.4093 173.849 52.288 173.335 52.288C172.981 52.288 172.631 52.3487 172.285 52.47C171.949 52.582 171.651 52.7593 171.389 53.002L170.703 52.288ZM173.867 54.85C173.167 54.85 172.612 54.948 172.201 55.144C171.791 55.34 171.585 55.662 171.585 56.11C171.585 56.5207 171.721 56.8147 171.991 56.992C172.271 57.16 172.617 57.244 173.027 57.244C173.345 57.244 173.62 57.1927 173.853 57.09C174.096 56.978 174.297 56.8333 174.455 56.656C174.614 56.4787 174.735 56.2733 174.819 56.04C174.903 55.7973 174.95 55.5407 174.959 55.27V54.85H173.867ZM181.831 52.372H179.899V55.648C179.899 55.8627 179.904 56.0633 179.913 56.25C179.922 56.4273 179.96 56.586 180.025 56.726C180.09 56.8567 180.188 56.964 180.319 57.048C180.45 57.1227 180.636 57.16 180.879 57.16C181.038 57.16 181.201 57.1413 181.369 57.104C181.537 57.0667 181.696 57.0107 181.845 56.936L181.887 57.93C181.7 58.014 181.49 58.0747 181.257 58.112C181.033 58.1493 180.818 58.168 180.613 58.168C180.221 58.168 179.908 58.1167 179.675 58.014C179.442 57.9113 179.26 57.7667 179.129 57.58C178.998 57.3933 178.91 57.1647 178.863 56.894C178.826 56.614 178.807 56.306 178.807 55.97V52.372H177.379V51.448H178.807V49.586H179.899V51.448H181.831V52.372ZM189.873 59.498C189.761 59.778 189.645 60.03 189.523 60.254C189.411 60.4873 189.271 60.6833 189.103 60.842C188.945 61.01 188.749 61.136 188.515 61.22C188.291 61.3133 188.016 61.36 187.689 61.36C187.531 61.36 187.363 61.3507 187.185 61.332C187.017 61.3133 186.859 61.2667 186.709 61.192L186.849 60.24C186.961 60.2867 187.078 60.3147 187.199 60.324C187.321 60.3427 187.461 60.352 187.619 60.352C187.974 60.352 188.235 60.254 188.403 60.058C188.571 59.862 188.716 59.6007 188.837 59.274L189.285 58.042L186.569 51.448H187.843L189.873 56.586H189.901L191.847 51.448H193.037L189.873 59.498ZM194.041 54.724C194.041 54.2107 194.13 53.744 194.307 53.324C194.485 52.904 194.727 52.5447 195.035 52.246C195.343 51.938 195.712 51.7 196.141 51.532C196.571 51.364 197.037 51.28 197.541 51.28C198.045 51.28 198.512 51.364 198.941 51.532C199.371 51.7 199.739 51.938 200.047 52.246C200.355 52.5447 200.598 52.904 200.775 53.324C200.953 53.744 201.041 54.2107 201.041 54.724C201.041 55.2373 200.953 55.704 200.775 56.124C200.598 56.544 200.355 56.908 200.047 57.216C199.739 57.5147 199.371 57.748 198.941 57.916C198.512 58.084 198.045 58.168 197.541 58.168C197.037 58.168 196.571 58.084 196.141 57.916C195.712 57.748 195.343 57.5147 195.035 57.216C194.727 56.908 194.485 56.544 194.307 56.124C194.13 55.704 194.041 55.2373 194.041 54.724ZM195.217 54.724C195.217 55.0693 195.269 55.3913 195.371 55.69C195.483 55.9793 195.642 56.236 195.847 56.46C196.053 56.6747 196.295 56.8473 196.575 56.978C196.865 57.0993 197.187 57.16 197.541 57.16C197.896 57.16 198.213 57.0993 198.493 56.978C198.783 56.8473 199.03 56.6747 199.235 56.46C199.441 56.236 199.595 55.9793 199.697 55.69C199.809 55.3913 199.865 55.0693 199.865 54.724C199.865 54.3787 199.809 54.0613 199.697 53.772C199.595 53.4733 199.441 53.2167 199.235 53.002C199.03 52.778 198.783 52.6053 198.493 52.484C198.213 52.3533 197.896 52.288 197.541 52.288C197.187 52.288 196.865 52.3533 196.575 52.484C196.295 52.6053 196.053 52.778 195.847 53.002C195.642 53.2167 195.483 53.4733 195.371 53.772C195.269 54.0613 195.217 54.3787 195.217 54.724ZM208.644 56.446C208.644 56.7447 208.653 57.0247 208.672 57.286C208.69 57.5473 208.7 57.7853 208.7 58H207.664C207.664 57.8227 207.659 57.6453 207.65 57.468C207.64 57.2907 207.636 57.1087 207.636 56.922H207.608C207.533 57.0807 207.426 57.2347 207.286 57.384C207.155 57.5333 206.996 57.6687 206.81 57.79C206.623 57.902 206.413 57.9907 206.18 58.056C205.946 58.1307 205.694 58.168 205.424 58.168C204.994 58.168 204.621 58.1027 204.304 57.972C203.996 57.8413 203.739 57.6593 203.534 57.426C203.328 57.1927 203.174 56.9127 203.072 56.586C202.978 56.25 202.932 55.886 202.932 55.494V51.448H204.024V55.382C204.024 55.9327 204.145 56.3667 204.388 56.684C204.63 57.0013 205.008 57.16 205.522 57.16C205.876 57.16 206.18 57.0993 206.432 56.978C206.693 56.8567 206.903 56.684 207.062 56.46C207.23 56.236 207.351 55.97 207.426 55.662C207.51 55.354 207.552 55.0133 207.552 54.64V51.448H208.644V56.446ZM210.911 53.002C210.911 52.7033 210.902 52.4233 210.883 52.162C210.864 51.9007 210.855 51.6627 210.855 51.448H211.891C211.891 51.6253 211.896 51.8027 211.905 51.98C211.914 52.1573 211.919 52.3393 211.919 52.526H211.947C212.022 52.3673 212.124 52.2133 212.255 52.064C212.395 51.9147 212.558 51.784 212.745 51.672C212.932 51.5507 213.142 51.4573 213.375 51.392C213.608 51.3173 213.86 51.28 214.131 51.28C214.206 51.28 214.28 51.2847 214.355 51.294C214.43 51.3033 214.504 51.322 214.579 51.35L214.509 52.456C214.322 52.4 214.126 52.372 213.921 52.372C213.249 52.372 212.759 52.5913 212.451 53.03C212.152 53.4593 212.003 54.052 212.003 54.808V58H210.911V53.002ZM220.045 52.288C220.381 51.9427 220.778 51.6907 221.235 51.532C221.702 51.364 222.173 51.28 222.649 51.28C223.62 51.28 224.32 51.5087 224.749 51.966C225.179 52.4233 225.393 53.1187 225.393 54.052V56.866C225.393 57.0527 225.403 57.2487 225.421 57.454C225.44 57.65 225.463 57.832 225.491 58H224.441C224.404 57.8507 224.381 57.6873 224.371 57.51C224.371 57.3233 224.371 57.16 224.371 57.02H224.343C224.129 57.356 223.839 57.6313 223.475 57.846C223.121 58.0607 222.691 58.168 222.187 58.168C221.851 58.168 221.534 58.126 221.235 58.042C220.946 57.958 220.689 57.8367 220.465 57.678C220.251 57.51 220.078 57.3047 219.947 57.062C219.817 56.8193 219.751 56.5393 219.751 56.222C219.751 55.6807 219.891 55.256 220.171 54.948C220.451 54.64 220.797 54.4113 221.207 54.262C221.627 54.1127 222.075 54.0193 222.551 53.982C223.037 53.9447 223.48 53.926 223.881 53.926H224.301V53.73C224.301 53.254 224.157 52.8947 223.867 52.652C223.587 52.4093 223.191 52.288 222.677 52.288C222.323 52.288 221.973 52.3487 221.627 52.47C221.291 52.582 220.993 52.7593 220.731 53.002L220.045 52.288ZM223.209 54.85C222.509 54.85 221.954 54.948 221.543 55.144C221.133 55.34 220.927 55.662 220.927 56.11C220.927 56.5207 221.063 56.8147 221.333 56.992C221.613 57.16 221.959 57.244 222.369 57.244C222.687 57.244 222.962 57.1927 223.195 57.09C223.438 56.978 223.639 56.8333 223.797 56.656C223.956 56.4787 224.077 56.2733 224.161 56.04C224.245 55.7973 224.292 55.5407 224.301 55.27V54.85H223.209ZM232.251 53.086C232.018 52.806 231.766 52.6053 231.495 52.484C231.224 52.3533 230.926 52.288 230.599 52.288C230.235 52.288 229.913 52.3533 229.633 52.484C229.353 52.6053 229.12 52.778 228.933 53.002C228.756 53.226 228.62 53.4873 228.527 53.786C228.434 54.0753 228.387 54.388 228.387 54.724C228.387 55.06 228.438 55.3773 228.541 55.676C228.653 55.9653 228.802 56.222 228.989 56.446C229.185 56.67 229.418 56.8473 229.689 56.978C229.96 57.0993 230.263 57.16 230.599 57.16C231.318 57.16 231.873 56.8893 232.265 56.348L233.077 57.118C232.76 57.482 232.386 57.748 231.957 57.916C231.528 58.084 231.075 58.168 230.599 58.168C230.095 58.168 229.633 58.084 229.213 57.916C228.793 57.748 228.434 57.51 228.135 57.202C227.846 56.894 227.617 56.53 227.449 56.11C227.29 55.69 227.211 55.228 227.211 54.724C227.211 54.2293 227.29 53.772 227.449 53.352C227.617 52.932 227.85 52.568 228.149 52.26C228.448 51.952 228.802 51.714 229.213 51.546C229.633 51.3687 230.095 51.28 230.599 51.28C231.084 51.28 231.542 51.364 231.971 51.532C232.41 51.7 232.792 51.9613 233.119 52.316L232.251 53.086ZM239.205 53.086C238.972 52.806 238.72 52.6053 238.449 52.484C238.178 52.3533 237.88 52.288 237.553 52.288C237.189 52.288 236.867 52.3533 236.587 52.484C236.307 52.6053 236.074 52.778 235.887 53.002C235.71 53.226 235.574 53.4873 235.481 53.786C235.388 54.0753 235.341 54.388 235.341 54.724C235.341 55.06 235.392 55.3773 235.495 55.676C235.607 55.9653 235.756 56.222 235.943 56.446C236.139 56.67 236.372 56.8473 236.643 56.978C236.914 57.0993 237.217 57.16 237.553 57.16C238.272 57.16 238.827 56.8893 239.219 56.348L240.031 57.118C239.714 57.482 239.34 57.748 238.911 57.916C238.482 58.084 238.029 58.168 237.553 58.168C237.049 58.168 236.587 58.084 236.167 57.916C235.747 57.748 235.388 57.51 235.089 57.202C234.8 56.894 234.571 56.53 234.403 56.11C234.244 55.69 234.165 55.228 234.165 54.724C234.165 54.2293 234.244 53.772 234.403 53.352C234.571 52.932 234.804 52.568 235.103 52.26C235.402 51.952 235.756 51.714 236.167 51.546C236.587 51.3687 237.049 51.28 237.553 51.28C238.038 51.28 238.496 51.364 238.925 51.532C239.364 51.7 239.746 51.9613 240.073 52.316L239.205 53.086ZM241.119 54.724C241.119 54.2107 241.208 53.744 241.385 53.324C241.562 52.904 241.805 52.5447 242.113 52.246C242.421 51.938 242.79 51.7 243.219 51.532C243.648 51.364 244.115 51.28 244.619 51.28C245.123 51.28 245.59 51.364 246.019 51.532C246.448 51.7 246.817 51.938 247.125 52.246C247.433 52.5447 247.676 52.904 247.853 53.324C248.03 53.744 248.119 54.2107 248.119 54.724C248.119 55.2373 248.03 55.704 247.853 56.124C247.676 56.544 247.433 56.908 247.125 57.216C246.817 57.5147 246.448 57.748 246.019 57.916C245.59 58.084 245.123 58.168 244.619 58.168C244.115 58.168 243.648 58.084 243.219 57.916C242.79 57.748 242.421 57.5147 242.113 57.216C241.805 56.908 241.562 56.544 241.385 56.124C241.208 55.704 241.119 55.2373 241.119 54.724ZM242.295 54.724C242.295 55.0693 242.346 55.3913 242.449 55.69C242.561 55.9793 242.72 56.236 242.925 56.46C243.13 56.6747 243.373 56.8473 243.653 56.978C243.942 57.0993 244.264 57.16 244.619 57.16C244.974 57.16 245.291 57.0993 245.571 56.978C245.86 56.8473 246.108 56.6747 246.313 56.46C246.518 56.236 246.672 55.9793 246.775 55.69C246.887 55.3913 246.943 55.0693 246.943 54.724C246.943 54.3787 246.887 54.0613 246.775 53.772C246.672 53.4733 246.518 53.2167 246.313 53.002C246.108 52.778 245.86 52.6053 245.571 52.484C245.291 52.3533 244.974 52.288 244.619 52.288C244.264 52.288 243.942 52.3533 243.653 52.484C243.373 52.6053 243.13 52.778 242.925 53.002C242.72 53.2167 242.561 53.4733 242.449 53.772C242.346 54.0613 242.295 54.3787 242.295 54.724ZM255.721 56.446C255.721 56.7447 255.731 57.0247 255.749 57.286C255.768 57.5473 255.777 57.7853 255.777 58H254.741C254.741 57.8227 254.737 57.6453 254.727 57.468C254.718 57.2907 254.713 57.1087 254.713 56.922H254.685C254.611 57.0807 254.503 57.2347 254.363 57.384C254.233 57.5333 254.074 57.6687 253.887 57.79C253.701 57.902 253.491 57.9907 253.257 58.056C253.024 58.1307 252.772 58.168 252.501 58.168C252.072 58.168 251.699 58.1027 251.381 57.972C251.073 57.8413 250.817 57.6593 250.611 57.426C250.406 57.1927 250.252 56.9127 250.149 56.586C250.056 56.25 250.009 55.886 250.009 55.494V51.448H251.101V55.382C251.101 55.9327 251.223 56.3667 251.465 56.684C251.708 57.0013 252.086 57.16 252.599 57.16C252.954 57.16 253.257 57.0993 253.509 56.978C253.771 56.8567 253.981 56.684 254.139 56.46C254.307 56.236 254.429 55.97 254.503 55.662C254.587 55.354 254.629 55.0133 254.629 54.64V51.448H255.721V56.446ZM257.989 53.002C257.989 52.7033 257.979 52.4233 257.961 52.162C257.942 51.9007 257.933 51.6627 257.933 51.448H258.969C258.969 51.6253 258.973 51.8027 258.983 51.98C258.992 52.1573 258.997 52.3393 258.997 52.526H259.025C259.099 52.3673 259.202 52.2133 259.333 52.064C259.473 51.9147 259.636 51.784 259.823 51.672C260.009 51.5507 260.219 51.4573 260.453 51.392C260.686 51.3173 260.938 51.28 261.209 51.28C261.638 51.28 262.007 51.3453 262.315 51.476C262.632 51.6067 262.893 51.7887 263.099 52.022C263.304 52.2553 263.453 52.54 263.547 52.876C263.649 53.2027 263.701 53.562 263.701 53.954V58H262.609V54.066C262.609 53.5153 262.487 53.0813 262.245 52.764C262.002 52.4467 261.624 52.288 261.111 52.288C260.756 52.288 260.448 52.3487 260.187 52.47C259.935 52.5913 259.725 52.764 259.557 52.988C259.398 53.212 259.277 53.478 259.193 53.786C259.118 54.094 259.081 54.4347 259.081 54.808V58H257.989V53.002ZM269.552 52.372H267.62V55.648C267.62 55.8627 267.625 56.0633 267.634 56.25C267.643 56.4273 267.681 56.586 267.746 56.726C267.811 56.8567 267.909 56.964 268.04 57.048C268.171 57.1227 268.357 57.16 268.6 57.16C268.759 57.16 268.922 57.1413 269.09 57.104C269.258 57.0667 269.417 57.0107 269.566 56.936L269.608 57.93C269.421 58.014 269.211 58.0747 268.978 58.112C268.754 58.1493 268.539 58.168 268.334 58.168C267.942 58.168 267.629 58.1167 267.396 58.014C267.163 57.9113 266.981 57.7667 266.85 57.58C266.719 57.3933 266.631 57.1647 266.584 56.894C266.547 56.614 266.528 56.306 266.528 55.97V52.372H265.1V51.448H266.528V49.586H267.62V51.448H269.552V52.372ZM282.214 58H281.136L279.274 52.96H279.246L277.594 58H276.474L274.346 51.448H275.55L277.048 56.488H277.076L278.77 51.448H279.918L281.64 56.488H281.668L283.152 51.448H284.328L282.214 58ZM285.861 51.448H286.953V58H285.861V51.448ZM285.609 48.886C285.609 48.6713 285.684 48.4847 285.833 48.326C285.992 48.1673 286.183 48.088 286.407 48.088C286.631 48.088 286.818 48.1673 286.967 48.326C287.126 48.4847 287.205 48.6713 287.205 48.886C287.205 49.1193 287.131 49.3107 286.981 49.46C286.832 49.6093 286.641 49.684 286.407 49.684C286.174 49.684 285.983 49.6093 285.833 49.46C285.684 49.3107 285.609 49.1193 285.609 48.886ZM289.425 47.416H290.517V58H289.425V47.416ZM293.002 47.416H294.094V58H293.002V47.416ZM300.507 47.416H301.599V52.4H301.627C301.926 52.0453 302.271 51.77 302.663 51.574C303.065 51.378 303.503 51.28 303.979 51.28C304.493 51.28 304.959 51.3687 305.379 51.546C305.809 51.714 306.173 51.952 306.471 52.26C306.77 52.568 307.003 52.932 307.171 53.352C307.339 53.772 307.423 54.2293 307.423 54.724C307.423 55.2187 307.339 55.676 307.171 56.096C307.003 56.516 306.77 56.88 306.471 57.188C306.182 57.496 305.837 57.7387 305.435 57.916C305.034 58.084 304.605 58.168 304.147 58.168C303.559 58.168 303.041 58.042 302.593 57.79C302.155 57.5287 301.833 57.2113 301.627 56.838H301.599V58H300.507V47.416ZM301.599 54.724C301.599 55.0693 301.651 55.3913 301.753 55.69C301.865 55.9793 302.024 56.236 302.229 56.46C302.435 56.6747 302.677 56.8473 302.957 56.978C303.247 57.0993 303.569 57.16 303.923 57.16C304.278 57.16 304.595 57.0993 304.875 56.978C305.165 56.8473 305.412 56.6747 305.617 56.46C305.823 56.236 305.977 55.9793 306.079 55.69C306.191 55.3913 306.247 55.0693 306.247 54.724C306.247 54.3787 306.191 54.0613 306.079 53.772C305.977 53.4733 305.823 53.2167 305.617 53.002C305.412 52.778 305.165 52.6053 304.875 52.484C304.595 52.3533 304.278 52.288 303.923 52.288C303.569 52.288 303.247 52.3533 302.957 52.484C302.677 52.6053 302.435 52.778 302.229 53.002C302.024 53.2167 301.865 53.4733 301.753 53.772C301.651 54.0613 301.599 54.3787 301.599 54.724ZM315.174 56.81C314.782 57.314 314.353 57.6687 313.886 57.874C313.419 58.07 312.878 58.168 312.262 58.168C311.749 58.168 311.287 58.0793 310.876 57.902C310.465 57.7153 310.115 57.468 309.826 57.16C309.546 56.852 309.327 56.488 309.168 56.068C309.019 55.648 308.944 55.2 308.944 54.724C308.944 54.22 309.028 53.758 309.196 53.338C309.364 52.9087 309.597 52.5447 309.896 52.246C310.195 51.938 310.549 51.7 310.96 51.532C311.371 51.364 311.819 51.28 312.304 51.28C312.761 51.28 313.181 51.3593 313.564 51.518C313.947 51.6673 314.273 51.8913 314.544 52.19C314.824 52.4793 315.039 52.8387 315.188 53.268C315.337 53.688 315.412 54.1687 315.412 54.71V55.06H310.12C310.139 55.34 310.204 55.6107 310.316 55.872C310.437 56.124 310.591 56.348 310.778 56.544C310.965 56.7307 311.184 56.88 311.436 56.992C311.688 57.104 311.963 57.16 312.262 57.16C312.738 57.16 313.139 57.076 313.466 56.908C313.793 56.74 314.087 56.4927 314.348 56.166L315.174 56.81ZM314.236 54.136C314.217 53.576 314.035 53.128 313.69 52.792C313.345 52.456 312.869 52.288 312.262 52.288C311.655 52.288 311.165 52.456 310.792 52.792C310.419 53.128 310.195 53.576 310.12 54.136H314.236ZM326.844 56.838H326.816C326.61 57.2113 326.284 57.5287 325.836 57.79C325.397 58.042 324.884 58.168 324.296 58.168C323.838 58.168 323.409 58.084 323.008 57.916C322.606 57.7387 322.256 57.496 321.958 57.188C321.668 56.88 321.44 56.516 321.272 56.096C321.104 55.676 321.02 55.2187 321.02 54.724C321.02 54.2293 321.104 53.772 321.272 53.352C321.44 52.932 321.673 52.568 321.972 52.26C322.27 51.952 322.63 51.714 323.05 51.546C323.479 51.3687 323.95 51.28 324.464 51.28C324.94 51.28 325.374 51.378 325.766 51.574C326.167 51.77 326.517 52.0453 326.816 52.4H326.844V47.416H327.936V58H326.844V56.838ZM326.844 54.724C326.844 54.3787 326.788 54.0613 326.676 53.772C326.573 53.4733 326.419 53.2167 326.214 53.002C326.008 52.778 325.761 52.6053 325.472 52.484C325.192 52.3533 324.874 52.288 324.52 52.288C324.165 52.288 323.843 52.3533 323.554 52.484C323.274 52.6053 323.031 52.778 322.826 53.002C322.62 53.2167 322.462 53.4733 322.35 53.772C322.247 54.0613 322.196 54.3787 322.196 54.724C322.196 55.0693 322.247 55.3913 322.35 55.69C322.462 55.9793 322.62 56.236 322.826 56.46C323.031 56.6747 323.274 56.8473 323.554 56.978C323.843 57.0993 324.165 57.16 324.52 57.16C324.874 57.16 325.192 57.0993 325.472 56.978C325.761 56.8473 326.008 56.6747 326.214 56.46C326.419 56.236 326.573 55.9793 326.676 55.69C326.788 55.3913 326.844 55.0693 326.844 54.724ZM336.008 56.81C335.616 57.314 335.187 57.6687 334.72 57.874C334.254 58.07 333.712 58.168 333.096 58.168C332.583 58.168 332.121 58.0793 331.71 57.902C331.3 57.7153 330.95 57.468 330.66 57.16C330.38 56.852 330.161 56.488 330.002 56.068C329.853 55.648 329.778 55.2 329.778 54.724C329.778 54.22 329.862 53.758 330.03 53.338C330.198 52.9087 330.432 52.5447 330.73 52.246C331.029 51.938 331.384 51.7 331.794 51.532C332.205 51.364 332.653 51.28 333.138 51.28C333.596 51.28 334.016 51.3593 334.398 51.518C334.781 51.6673 335.108 51.8913 335.378 52.19C335.658 52.4793 335.873 52.8387 336.022 53.268C336.172 53.688 336.246 54.1687 336.246 54.71V55.06H330.954C330.973 55.34 331.038 55.6107 331.15 55.872C331.272 56.124 331.426 56.348 331.612 56.544C331.799 56.7307 332.018 56.88 332.27 56.992C332.522 57.104 332.798 57.16 333.096 57.16C333.572 57.16 333.974 57.076 334.3 56.908C334.627 56.74 334.921 56.4927 335.182 56.166L336.008 56.81ZM335.07 54.136C335.052 53.576 334.87 53.128 334.524 52.792C334.179 52.456 333.703 52.288 333.096 52.288C332.49 52.288 332 52.456 331.626 52.792C331.253 53.128 331.029 53.576 330.954 54.136H335.07ZM338.08 47.416H339.172V52.4H339.2C339.498 52.0453 339.844 51.77 340.236 51.574C340.637 51.378 341.076 51.28 341.552 51.28C342.065 51.28 342.532 51.3687 342.952 51.546C343.381 51.714 343.745 51.952 344.044 52.26C344.342 52.568 344.576 52.932 344.744 53.352C344.912 53.772 344.996 54.2293 344.996 54.724C344.996 55.2187 344.912 55.676 344.744 56.096C344.576 56.516 344.342 56.88 344.044 57.188C343.754 57.496 343.409 57.7387 343.008 57.916C342.606 58.084 342.177 58.168 341.72 58.168C341.132 58.168 340.614 58.042 340.166 57.79C339.727 57.5287 339.405 57.2113 339.2 56.838H339.172V58H338.08V47.416ZM339.172 54.724C339.172 55.0693 339.223 55.3913 339.326 55.69C339.438 55.9793 339.596 56.236 339.802 56.46C340.007 56.6747 340.25 56.8473 340.53 56.978C340.819 57.0993 341.141 57.16 341.496 57.16C341.85 57.16 342.168 57.0993 342.448 56.978C342.737 56.8473 342.984 56.6747 343.19 56.46C343.395 56.236 343.549 55.9793 343.652 55.69C343.764 55.3913 343.82 55.0693 343.82 54.724C343.82 54.3787 343.764 54.0613 343.652 53.772C343.549 53.4733 343.395 53.2167 343.19 53.002C342.984 52.778 342.737 52.6053 342.448 52.484C342.168 52.3533 341.85 52.288 341.496 52.288C341.141 52.288 340.819 52.3533 340.53 52.484C340.25 52.6053 340.007 52.778 339.802 53.002C339.596 53.2167 339.438 53.4733 339.326 53.772C339.223 54.0613 339.172 54.3787 339.172 54.724ZM346.992 51.448H348.084V58H346.992V51.448ZM346.74 48.886C346.74 48.6713 346.815 48.4847 346.964 48.326C347.123 48.1673 347.314 48.088 347.538 48.088C347.762 48.088 347.949 48.1673 348.098 48.326C348.257 48.4847 348.336 48.6713 348.336 48.886C348.336 49.1193 348.262 49.3107 348.112 49.46C347.963 49.6093 347.772 49.684 347.538 49.684C347.305 49.684 347.114 49.6093 346.964 49.46C346.815 49.3107 346.74 49.1193 346.74 48.886ZM354.041 52.372H352.109V55.648C352.109 55.8627 352.114 56.0633 352.123 56.25C352.133 56.4273 352.17 56.586 352.235 56.726C352.301 56.8567 352.399 56.964 352.529 57.048C352.66 57.1227 352.847 57.16 353.089 57.16C353.248 57.16 353.411 57.1413 353.579 57.104C353.747 57.0667 353.906 57.0107 354.055 56.936L354.097 57.93C353.911 58.014 353.701 58.0747 353.467 58.112C353.243 58.1493 353.029 58.168 352.823 58.168C352.431 58.168 352.119 58.1167 351.885 58.014C351.652 57.9113 351.47 57.7667 351.339 57.58C351.209 57.3933 351.12 57.1647 351.073 56.894C351.036 56.614 351.017 56.306 351.017 55.97V52.372H349.589V51.448H351.017V49.586H352.109V51.448H354.041V52.372ZM361.431 56.81C361.039 57.314 360.61 57.6687 360.143 57.874C359.677 58.07 359.135 58.168 358.519 58.168C358.006 58.168 357.544 58.0793 357.133 57.902C356.723 57.7153 356.373 57.468 356.083 57.16C355.803 56.852 355.584 56.488 355.425 56.068C355.276 55.648 355.201 55.2 355.201 54.724C355.201 54.22 355.285 53.758 355.453 53.338C355.621 52.9087 355.855 52.5447 356.153 52.246C356.452 51.938 356.807 51.7 357.217 51.532C357.628 51.364 358.076 51.28 358.561 51.28C359.019 51.28 359.439 51.3593 359.821 51.518C360.204 51.6673 360.531 51.8913 360.801 52.19C361.081 52.4793 361.296 52.8387 361.445 53.268C361.595 53.688 361.669 54.1687 361.669 54.71V55.06H356.377C356.396 55.34 356.461 55.6107 356.573 55.872C356.695 56.124 356.849 56.348 357.035 56.544C357.222 56.7307 357.441 56.88 357.693 56.992C357.945 57.104 358.221 57.16 358.519 57.16C358.995 57.16 359.397 57.076 359.723 56.908C360.05 56.74 360.344 56.4927 360.605 56.166L361.431 56.81ZM360.493 54.136C360.475 53.576 360.293 53.128 359.947 52.792C359.602 52.456 359.126 52.288 358.519 52.288C357.913 52.288 357.423 52.456 357.049 52.792C356.676 53.128 356.452 53.576 356.377 54.136H360.493ZM369.005 56.838H368.977C368.771 57.2113 368.445 57.5287 367.997 57.79C367.558 58.042 367.045 58.168 366.457 58.168C365.999 58.168 365.57 58.084 365.169 57.916C364.767 57.7387 364.417 57.496 364.119 57.188C363.829 56.88 363.601 56.516 363.433 56.096C363.265 55.676 363.181 55.2187 363.181 54.724C363.181 54.2293 363.265 53.772 363.433 53.352C363.601 52.932 363.834 52.568 364.133 52.26C364.431 51.952 364.791 51.714 365.211 51.546C365.64 51.3687 366.111 51.28 366.625 51.28C367.101 51.28 367.535 51.378 367.927 51.574C368.328 51.77 368.678 52.0453 368.977 52.4H369.005V47.416H370.097V58H369.005V56.838ZM369.005 54.724C369.005 54.3787 368.949 54.0613 368.837 53.772C368.734 53.4733 368.58 53.2167 368.375 53.002C368.169 52.778 367.922 52.6053 367.633 52.484C367.353 52.3533 367.035 52.288 366.681 52.288C366.326 52.288 366.004 52.3533 365.715 52.484C365.435 52.6053 365.192 52.778 364.987 53.002C364.781 53.2167 364.623 53.4733 364.511 53.772C364.408 54.0613 364.357 54.3787 364.357 54.724C364.357 55.0693 364.408 55.3913 364.511 55.69C364.623 55.9793 364.781 56.236 364.987 56.46C365.192 56.6747 365.435 56.8473 365.715 56.978C366.004 57.0993 366.326 57.16 366.681 57.16C367.035 57.16 367.353 57.0993 367.633 56.978C367.922 56.8473 368.169 56.6747 368.375 56.46C368.58 56.236 368.734 55.9793 368.837 55.69C368.949 55.3913 369.005 55.0693 369.005 54.724ZM379.998 52.372H378.066V55.648C378.066 55.8627 378.07 56.0633 378.08 56.25C378.089 56.4273 378.126 56.586 378.192 56.726C378.257 56.8567 378.355 56.964 378.486 57.048C378.616 57.1227 378.803 57.16 379.046 57.16C379.204 57.16 379.368 57.1413 379.536 57.104C379.704 57.0667 379.862 57.0107 380.012 56.936L380.054 57.93C379.867 58.014 379.657 58.0747 379.424 58.112C379.2 58.1493 378.985 58.168 378.78 58.168C378.388 58.168 378.075 58.1167 377.842 58.014C377.608 57.9113 377.426 57.7667 377.296 57.58C377.165 57.3933 377.076 57.1647 377.03 56.894C376.992 56.614 376.974 56.306 376.974 55.97V52.372H375.546V51.448H376.974V49.586H378.066V51.448H379.998V52.372ZM381.549 47.416H382.641V52.358H382.669C382.744 52.2273 382.847 52.1013 382.977 51.98C383.108 51.8493 383.262 51.7327 383.439 51.63C383.626 51.5273 383.831 51.4433 384.055 51.378C384.279 51.3127 384.517 51.28 384.769 51.28C385.199 51.28 385.567 51.3453 385.875 51.476C386.193 51.6067 386.454 51.7887 386.659 52.022C386.865 52.2553 387.014 52.54 387.107 52.876C387.21 53.2027 387.261 53.562 387.261 53.954V58H386.169V54.066C386.169 53.5153 386.048 53.0813 385.805 52.764C385.563 52.4467 385.185 52.288 384.671 52.288C384.317 52.288 384.009 52.3487 383.747 52.47C383.495 52.5913 383.285 52.764 383.117 52.988C382.959 53.212 382.837 53.478 382.753 53.786C382.679 54.094 382.641 54.4347 382.641 54.808V58H381.549V47.416ZM395.381 56.81C394.989 57.314 394.559 57.6687 394.093 57.874C393.626 58.07 393.085 58.168 392.469 58.168C391.955 58.168 391.493 58.0793 391.083 57.902C390.672 57.7153 390.322 57.468 390.033 57.16C389.753 56.852 389.533 56.488 389.375 56.068C389.225 55.648 389.151 55.2 389.151 54.724C389.151 54.22 389.235 53.758 389.403 53.338C389.571 52.9087 389.804 52.5447 390.103 52.246C390.401 51.938 390.756 51.7 391.167 51.532C391.577 51.364 392.025 51.28 392.511 51.28C392.968 51.28 393.388 51.3593 393.771 51.518C394.153 51.6673 394.48 51.8913 394.751 52.19C395.031 52.4793 395.245 52.8387 395.395 53.268C395.544 53.688 395.619 54.1687 395.619 54.71V55.06H390.327C390.345 55.34 390.411 55.6107 390.523 55.872C390.644 56.124 390.798 56.348 390.985 56.544C391.171 56.7307 391.391 56.88 391.643 56.992C391.895 57.104 392.17 57.16 392.469 57.16C392.945 57.16 393.346 57.076 393.673 56.908C393.999 56.74 394.293 56.4927 394.555 56.166L395.381 56.81ZM394.443 54.136C394.424 53.576 394.242 53.128 393.897 52.792C393.551 52.456 393.075 52.288 392.469 52.288C391.862 52.288 391.372 52.456 390.999 52.792C390.625 53.128 390.401 53.576 390.327 54.136H394.443ZM401.744 56.278C401.959 56.5487 402.192 56.7633 402.444 56.922C402.706 57.0807 403.032 57.16 403.424 57.16C403.592 57.16 403.76 57.1413 403.928 57.104C404.106 57.0667 404.264 57.006 404.404 56.922C404.544 56.838 404.656 56.7353 404.74 56.614C404.824 56.4833 404.866 56.3293 404.866 56.152C404.866 55.9747 404.824 55.83 404.74 55.718C404.666 55.606 404.563 55.5127 404.432 55.438C404.302 55.354 404.152 55.2887 403.984 55.242C403.816 55.1953 403.644 55.1533 403.466 55.116C403.158 55.0507 402.864 54.976 402.584 54.892C402.304 54.808 402.057 54.7007 401.842 54.57C401.637 54.43 401.469 54.2527 401.338 54.038C401.217 53.8233 401.156 53.548 401.156 53.212C401.156 52.8947 401.226 52.6147 401.366 52.372C401.506 52.1293 401.693 51.9287 401.926 51.77C402.16 51.6113 402.421 51.49 402.71 51.406C403 51.322 403.298 51.28 403.606 51.28C404.073 51.28 404.502 51.3733 404.894 51.56C405.296 51.7467 405.608 52.05 405.832 52.47L404.922 53.072C404.782 52.8387 404.596 52.652 404.362 52.512C404.138 52.3627 403.863 52.288 403.536 52.288C403.387 52.288 403.233 52.3067 403.074 52.344C402.925 52.3813 402.79 52.4373 402.668 52.512C402.547 52.5867 402.444 52.6847 402.36 52.806C402.286 52.918 402.248 53.0487 402.248 53.198C402.248 53.338 402.29 53.4593 402.374 53.562C402.468 53.6553 402.589 53.7393 402.738 53.814C402.897 53.8887 403.074 53.954 403.27 54.01C403.476 54.066 403.686 54.1127 403.9 54.15C404.19 54.206 404.465 54.2807 404.726 54.374C404.988 54.458 405.216 54.5747 405.412 54.724C405.608 54.8733 405.762 55.06 405.874 55.284C405.986 55.508 406.042 55.7833 406.042 56.11C406.042 56.4833 405.968 56.8007 405.818 57.062C405.669 57.3233 405.468 57.538 405.216 57.706C404.974 57.8647 404.694 57.9813 404.376 58.056C404.068 58.1307 403.751 58.168 403.424 58.168C402.864 58.168 402.379 58.084 401.968 57.916C401.567 57.7387 401.203 57.4167 400.876 56.95L401.744 56.278ZM413.477 56.446C413.477 56.7447 413.487 57.0247 413.505 57.286C413.524 57.5473 413.533 57.7853 413.533 58H412.497C412.497 57.8227 412.493 57.6453 412.483 57.468C412.474 57.2907 412.469 57.1087 412.469 56.922H412.441C412.367 57.0807 412.259 57.2347 412.119 57.384C411.989 57.5333 411.83 57.6687 411.643 57.79C411.457 57.902 411.247 57.9907 411.013 58.056C410.78 58.1307 410.528 58.168 410.257 58.168C409.828 58.168 409.455 58.1027 409.137 57.972C408.829 57.8413 408.573 57.6593 408.367 57.426C408.162 57.1927 408.008 56.9127 407.905 56.586C407.812 56.25 407.765 55.886 407.765 55.494V51.448H408.857V55.382C408.857 55.9327 408.979 56.3667 409.221 56.684C409.464 57.0013 409.842 57.16 410.355 57.16C410.71 57.16 411.013 57.0993 411.265 56.978C411.527 56.8567 411.737 56.684 411.895 56.46C412.063 56.236 412.185 55.97 412.259 55.662C412.343 55.354 412.385 55.0133 412.385 54.64V51.448H413.477V56.446ZM415.745 53.002C415.745 52.7033 415.735 52.4233 415.717 52.162C415.698 51.9007 415.689 51.6627 415.689 51.448H416.725C416.725 51.6253 416.729 51.8027 416.739 51.98C416.748 52.1573 416.753 52.3393 416.753 52.526H416.781C416.855 52.3673 416.958 52.2133 417.089 52.064C417.229 51.9147 417.392 51.784 417.579 51.672C417.765 51.5507 417.975 51.4573 418.209 51.392C418.442 51.3173 418.694 51.28 418.965 51.28C419.319 51.28 419.613 51.3267 419.847 51.42C420.089 51.504 420.29 51.6113 420.449 51.742C420.607 51.8633 420.729 51.9987 420.813 52.148C420.906 52.288 420.981 52.414 421.037 52.526C421.279 52.134 421.559 51.8307 421.877 51.616C422.194 51.392 422.605 51.28 423.109 51.28C423.575 51.28 423.967 51.3453 424.285 51.476C424.602 51.5973 424.859 51.7793 425.055 52.022C425.251 52.2553 425.391 52.5447 425.475 52.89C425.559 53.226 425.601 53.604 425.601 54.024V58H424.509V54.08C424.509 53.856 424.485 53.6367 424.439 53.422C424.392 53.2073 424.308 53.016 424.187 52.848C424.065 52.68 423.902 52.5447 423.697 52.442C423.491 52.3393 423.23 52.288 422.913 52.288C422.679 52.288 422.46 52.3347 422.255 52.428C422.049 52.5213 421.867 52.652 421.709 52.82C421.559 52.988 421.438 53.1933 421.345 53.436C421.261 53.6693 421.219 53.9307 421.219 54.22V58H420.127V54.29C420.127 53.562 420.029 53.0487 419.833 52.75C419.637 52.442 419.315 52.288 418.867 52.288C418.512 52.288 418.204 52.3487 417.943 52.47C417.691 52.5913 417.481 52.764 417.313 52.988C417.154 53.212 417.033 53.478 416.949 53.786C416.874 54.094 416.837 54.4347 416.837 54.808V58H415.745V53.002ZM431.585 54.724C431.585 54.2107 431.674 53.744 431.851 53.324C432.028 52.904 432.271 52.5447 432.579 52.246C432.887 51.938 433.256 51.7 433.685 51.532C434.114 51.364 434.581 51.28 435.085 51.28C435.589 51.28 436.056 51.364 436.485 51.532C436.914 51.7 437.283 51.938 437.591 52.246C437.899 52.5447 438.142 52.904 438.319 53.324C438.496 53.744 438.585 54.2107 438.585 54.724C438.585 55.2373 438.496 55.704 438.319 56.124C438.142 56.544 437.899 56.908 437.591 57.216C437.283 57.5147 436.914 57.748 436.485 57.916C436.056 58.084 435.589 58.168 435.085 58.168C434.581 58.168 434.114 58.084 433.685 57.916C433.256 57.748 432.887 57.5147 432.579 57.216C432.271 56.908 432.028 56.544 431.851 56.124C431.674 55.704 431.585 55.2373 431.585 54.724ZM432.761 54.724C432.761 55.0693 432.812 55.3913 432.915 55.69C433.027 55.9793 433.186 56.236 433.391 56.46C433.596 56.6747 433.839 56.8473 434.119 56.978C434.408 57.0993 434.73 57.16 435.085 57.16C435.44 57.16 435.757 57.0993 436.037 56.978C436.326 56.8473 436.574 56.6747 436.779 56.46C436.984 56.236 437.138 55.9793 437.241 55.69C437.353 55.3913 437.409 55.0693 437.409 54.724C437.409 54.3787 437.353 54.0613 437.241 53.772C437.138 53.4733 436.984 53.2167 436.779 53.002C436.574 52.778 436.326 52.6053 436.037 52.484C435.757 52.3533 435.44 52.288 435.085 52.288C434.73 52.288 434.408 52.3533 434.119 52.484C433.839 52.6053 433.596 52.778 433.391 53.002C433.186 53.2167 433.027 53.4733 432.915 53.772C432.812 54.0613 432.761 54.3787 432.761 54.724ZM441.035 52.372H439.607V51.448H441.035V49.978C441.035 49.5767 441.073 49.2127 441.147 48.886C441.222 48.55 441.348 48.2607 441.525 48.018C441.712 47.7753 441.955 47.5887 442.253 47.458C442.552 47.318 442.921 47.248 443.359 47.248C443.499 47.248 443.649 47.262 443.807 47.29C443.966 47.318 444.097 47.36 444.199 47.416L444.045 48.396C443.784 48.3027 443.537 48.256 443.303 48.256C443.023 48.256 442.804 48.3073 442.645 48.41C442.487 48.5033 442.365 48.6387 442.281 48.816C442.207 48.984 442.16 49.1893 442.141 49.432C442.132 49.6747 442.127 49.936 442.127 50.216V51.448H443.723V52.372H442.127V58H441.035V52.372ZM504.891 52.372H503.463V51.448H504.891V49.978C504.891 49.5767 504.929 49.2127 505.003 48.886C505.078 48.55 505.204 48.2607 505.381 48.018C505.568 47.7753 505.811 47.5887 506.109 47.458C506.408 47.318 506.777 47.248 507.215 47.248C507.355 47.248 507.505 47.262 507.663 47.29C507.822 47.318 507.953 47.36 508.055 47.416L507.901 48.396C507.64 48.3027 507.393 48.256 507.159 48.256C506.879 48.256 506.66 48.3073 506.501 48.41C506.343 48.5033 506.221 48.6387 506.137 48.816C506.063 48.984 506.016 49.1893 505.997 49.432C505.988 49.6747 505.983 49.936 505.983 50.216V51.448H507.579V52.372H505.983V58H504.891V52.372ZM508.569 54.724C508.569 54.2107 508.658 53.744 508.835 53.324C509.013 52.904 509.255 52.5447 509.563 52.246C509.871 51.938 510.24 51.7 510.669 51.532C511.099 51.364 511.565 51.28 512.069 51.28C512.573 51.28 513.04 51.364 513.469 51.532C513.899 51.7 514.267 51.938 514.575 52.246C514.883 52.5447 515.126 52.904 515.303 53.324C515.481 53.744 515.569 54.2107 515.569 54.724C515.569 55.2373 515.481 55.704 515.303 56.124C515.126 56.544 514.883 56.908 514.575 57.216C514.267 57.5147 513.899 57.748 513.469 57.916C513.04 58.084 512.573 58.168 512.069 58.168C511.565 58.168 511.099 58.084 510.669 57.916C510.24 57.748 509.871 57.5147 509.563 57.216C509.255 56.908 509.013 56.544 508.835 56.124C508.658 55.704 508.569 55.2373 508.569 54.724ZM509.745 54.724C509.745 55.0693 509.797 55.3913 509.899 55.69C510.011 55.9793 510.17 56.236 510.375 56.46C510.581 56.6747 510.823 56.8473 511.103 56.978C511.393 57.0993 511.715 57.16 512.069 57.16C512.424 57.16 512.741 57.0993 513.021 56.978C513.311 56.8473 513.558 56.6747 513.763 56.46C513.969 56.236 514.123 55.9793 514.225 55.69C514.337 55.3913 514.393 55.0693 514.393 54.724C514.393 54.3787 514.337 54.0613 514.225 53.772C514.123 53.4733 513.969 53.2167 513.763 53.002C513.558 52.778 513.311 52.6053 513.021 52.484C512.741 52.3533 512.424 52.288 512.069 52.288C511.715 52.288 511.393 52.3533 511.103 52.484C510.823 52.6053 510.581 52.778 510.375 53.002C510.17 53.2167 510.011 53.4733 509.899 53.772C509.797 54.0613 509.745 54.3787 509.745 54.724ZM517.46 53.002C517.46 52.7033 517.45 52.4233 517.432 52.162C517.413 51.9007 517.404 51.6627 517.404 51.448H518.44C518.44 51.6253 518.444 51.8027 518.454 51.98C518.463 52.1573 518.468 52.3393 518.468 52.526H518.496C518.57 52.3673 518.673 52.2133 518.804 52.064C518.944 51.9147 519.107 51.784 519.294 51.672C519.48 51.5507 519.69 51.4573 519.924 51.392C520.157 51.3173 520.409 51.28 520.68 51.28C520.754 51.28 520.829 51.2847 520.904 51.294C520.978 51.3033 521.053 51.322 521.128 51.35L521.058 52.456C520.871 52.4 520.675 52.372 520.47 52.372C519.798 52.372 519.308 52.5913 519 53.03C518.701 53.4593 518.552 54.052 518.552 54.808V58H517.46V53.002ZM531.34 53.086C531.107 52.806 530.855 52.6053 530.584 52.484C530.314 52.3533 530.015 52.288 529.688 52.288C529.324 52.288 529.002 52.3533 528.722 52.484C528.442 52.6053 528.209 52.778 528.022 53.002C527.845 53.226 527.71 53.4873 527.616 53.786C527.523 54.0753 527.476 54.388 527.476 54.724C527.476 55.06 527.528 55.3773 527.63 55.676C527.742 55.9653 527.892 56.222 528.078 56.446C528.274 56.67 528.508 56.8473 528.778 56.978C529.049 57.0993 529.352 57.16 529.688 57.16C530.407 57.16 530.962 56.8893 531.354 56.348L532.166 57.118C531.849 57.482 531.476 57.748 531.046 57.916C530.617 58.084 530.164 58.168 529.688 58.168C529.184 58.168 528.722 58.084 528.302 57.916C527.882 57.748 527.523 57.51 527.224 57.202C526.935 56.894 526.706 56.53 526.538 56.11C526.38 55.69 526.3 55.228 526.3 54.724C526.3 54.2293 526.38 53.772 526.538 53.352C526.706 52.932 526.94 52.568 527.238 52.26C527.537 51.952 527.892 51.714 528.302 51.546C528.722 51.3687 529.184 51.28 529.688 51.28C530.174 51.28 530.631 51.364 531.06 51.532C531.499 51.7 531.882 51.9613 532.208 52.316L531.34 53.086ZM533.254 54.724C533.254 54.2107 533.343 53.744 533.52 53.324C533.697 52.904 533.94 52.5447 534.248 52.246C534.556 51.938 534.925 51.7 535.354 51.532C535.783 51.364 536.25 51.28 536.754 51.28C537.258 51.28 537.725 51.364 538.154 51.532C538.583 51.7 538.952 51.938 539.26 52.246C539.568 52.5447 539.811 52.904 539.988 53.324C540.165 53.744 540.254 54.2107 540.254 54.724C540.254 55.2373 540.165 55.704 539.988 56.124C539.811 56.544 539.568 56.908 539.26 57.216C538.952 57.5147 538.583 57.748 538.154 57.916C537.725 58.084 537.258 58.168 536.754 58.168C536.25 58.168 535.783 58.084 535.354 57.916C534.925 57.748 534.556 57.5147 534.248 57.216C533.94 56.908 533.697 56.544 533.52 56.124C533.343 55.704 533.254 55.2373 533.254 54.724ZM534.43 54.724C534.43 55.0693 534.481 55.3913 534.584 55.69C534.696 55.9793 534.855 56.236 535.06 56.46C535.265 56.6747 535.508 56.8473 535.788 56.978C536.077 57.0993 536.399 57.16 536.754 57.16C537.109 57.16 537.426 57.0993 537.706 56.978C537.995 56.8473 538.243 56.6747 538.448 56.46C538.653 56.236 538.807 55.9793 538.91 55.69C539.022 55.3913 539.078 55.0693 539.078 54.724C539.078 54.3787 539.022 54.0613 538.91 53.772C538.807 53.4733 538.653 53.2167 538.448 53.002C538.243 52.778 537.995 52.6053 537.706 52.484C537.426 52.3533 537.109 52.288 536.754 52.288C536.399 52.288 536.077 52.3533 535.788 52.484C535.508 52.6053 535.265 52.778 535.06 53.002C534.855 53.2167 534.696 53.4733 534.584 53.772C534.481 54.0613 534.43 54.3787 534.43 54.724ZM542.145 53.002C542.145 52.7033 542.135 52.4233 542.117 52.162C542.098 51.9007 542.089 51.6627 542.089 51.448H543.125C543.125 51.6253 543.129 51.8027 543.139 51.98C543.148 52.1573 543.153 52.3393 543.153 52.526H543.181C543.255 52.3673 543.358 52.2133 543.489 52.064C543.629 51.9147 543.792 51.784 543.979 51.672C544.165 51.5507 544.375 51.4573 544.609 51.392C544.842 51.3173 545.094 51.28 545.365 51.28C545.439 51.28 545.514 51.2847 545.589 51.294C545.663 51.3033 545.738 51.322 545.813 51.35L545.743 52.456C545.556 52.4 545.36 52.372 545.155 52.372C544.483 52.372 543.993 52.5913 543.685 53.03C543.386 53.4593 543.237 54.052 543.237 54.808V58H542.145V53.002ZM547.21 51.448H548.302V52.4H548.33C548.629 52.0453 548.974 51.77 549.366 51.574C549.768 51.378 550.206 51.28 550.682 51.28C551.196 51.28 551.662 51.3687 552.082 51.546C552.512 51.714 552.876 51.952 553.174 52.26C553.473 52.568 553.706 52.932 553.874 53.352C554.042 53.772 554.126 54.2293 554.126 54.724C554.126 55.2187 554.042 55.676 553.874 56.096C553.706 56.516 553.473 56.88 553.174 57.188C552.885 57.496 552.54 57.7387 552.138 57.916C551.737 58.084 551.308 58.168 550.85 58.168C550.262 58.168 549.744 58.042 549.296 57.79C548.858 57.5287 548.536 57.2113 548.33 56.838H548.302V61.192H547.21V51.448ZM548.302 54.724C548.302 55.0693 548.354 55.3913 548.456 55.69C548.568 55.9793 548.727 56.236 548.932 56.46C549.138 56.6747 549.38 56.8473 549.66 56.978C549.95 57.0993 550.272 57.16 550.626 57.16C550.981 57.16 551.298 57.0993 551.578 56.978C551.868 56.8473 552.115 56.6747 552.32 56.46C552.526 56.236 552.68 55.9793 552.782 55.69C552.894 55.3913 552.95 55.0693 552.95 54.724C552.95 54.3787 552.894 54.0613 552.782 53.772C552.68 53.4733 552.526 53.2167 552.32 53.002C552.115 52.778 551.868 52.6053 551.578 52.484C551.298 52.3533 550.981 52.288 550.626 52.288C550.272 52.288 549.95 52.3533 549.66 52.484C549.38 52.6053 549.138 52.778 548.932 53.002C548.727 53.2167 548.568 53.4733 548.456 53.772C548.354 54.0613 548.302 54.3787 548.302 54.724ZM555.647 54.724C555.647 54.2107 555.736 53.744 555.913 53.324C556.09 52.904 556.333 52.5447 556.641 52.246C556.949 51.938 557.318 51.7 557.747 51.532C558.176 51.364 558.643 51.28 559.147 51.28C559.651 51.28 560.118 51.364 560.547 51.532C560.976 51.7 561.345 51.938 561.653 52.246C561.961 52.5447 562.204 52.904 562.381 53.324C562.558 53.744 562.647 54.2107 562.647 54.724C562.647 55.2373 562.558 55.704 562.381 56.124C562.204 56.544 561.961 56.908 561.653 57.216C561.345 57.5147 560.976 57.748 560.547 57.916C560.118 58.084 559.651 58.168 559.147 58.168C558.643 58.168 558.176 58.084 557.747 57.916C557.318 57.748 556.949 57.5147 556.641 57.216C556.333 56.908 556.09 56.544 555.913 56.124C555.736 55.704 555.647 55.2373 555.647 54.724ZM556.823 54.724C556.823 55.0693 556.874 55.3913 556.977 55.69C557.089 55.9793 557.248 56.236 557.453 56.46C557.658 56.6747 557.901 56.8473 558.181 56.978C558.47 57.0993 558.792 57.16 559.147 57.16C559.502 57.16 559.819 57.0993 560.099 56.978C560.388 56.8473 560.636 56.6747 560.841 56.46C561.046 56.236 561.2 55.9793 561.303 55.69C561.415 55.3913 561.471 55.0693 561.471 54.724C561.471 54.3787 561.415 54.0613 561.303 53.772C561.2 53.4733 561.046 53.2167 560.841 53.002C560.636 52.778 560.388 52.6053 560.099 52.484C559.819 52.3533 559.502 52.288 559.147 52.288C558.792 52.288 558.47 52.3533 558.181 52.484C557.901 52.6053 557.658 52.778 557.453 53.002C557.248 53.2167 557.089 53.4733 556.977 53.772C556.874 54.0613 556.823 54.3787 556.823 54.724ZM564.538 53.002C564.538 52.7033 564.528 52.4233 564.51 52.162C564.491 51.9007 564.482 51.6627 564.482 51.448H565.518C565.518 51.6253 565.522 51.8027 565.532 51.98C565.541 52.1573 565.546 52.3393 565.546 52.526H565.574C565.648 52.3673 565.751 52.2133 565.882 52.064C566.022 51.9147 566.185 51.784 566.372 51.672C566.558 51.5507 566.768 51.4573 567.002 51.392C567.235 51.3173 567.487 51.28 567.758 51.28C567.832 51.28 567.907 51.2847 567.982 51.294C568.056 51.3033 568.131 51.322 568.206 51.35L568.136 52.456C567.949 52.4 567.753 52.372 567.548 52.372C566.876 52.372 566.386 52.5913 566.078 53.03C565.779 53.4593 565.63 54.052 565.63 54.808V58H564.538V53.002ZM569.575 52.288C569.911 51.9427 570.308 51.6907 570.765 51.532C571.232 51.364 571.703 51.28 572.179 51.28C573.15 51.28 573.85 51.5087 574.279 51.966C574.709 52.4233 574.923 53.1187 574.923 54.052V56.866C574.923 57.0527 574.933 57.2487 574.951 57.454C574.97 57.65 574.993 57.832 575.021 58H573.971C573.934 57.8507 573.911 57.6873 573.901 57.51C573.901 57.3233 573.901 57.16 573.901 57.02H573.873C573.659 57.356 573.369 57.6313 573.005 57.846C572.651 58.0607 572.221 58.168 571.717 58.168C571.381 58.168 571.064 58.126 570.765 58.042C570.476 57.958 570.219 57.8367 569.995 57.678C569.781 57.51 569.608 57.3047 569.477 57.062C569.347 56.8193 569.281 56.5393 569.281 56.222C569.281 55.6807 569.421 55.256 569.701 54.948C569.981 54.64 570.327 54.4113 570.737 54.262C571.157 54.1127 571.605 54.0193 572.081 53.982C572.567 53.9447 573.01 53.926 573.411 53.926H573.831V53.73C573.831 53.254 573.687 52.8947 573.397 52.652C573.117 52.4093 572.721 52.288 572.207 52.288C571.853 52.288 571.503 52.3487 571.157 52.47C570.821 52.582 570.523 52.7593 570.261 53.002L569.575 52.288ZM572.739 54.85C572.039 54.85 571.484 54.948 571.073 55.144C570.663 55.34 570.457 55.662 570.457 56.11C570.457 56.5207 570.593 56.8147 570.863 56.992C571.143 57.16 571.489 57.244 571.899 57.244C572.217 57.244 572.492 57.1927 572.725 57.09C572.968 56.978 573.169 56.8333 573.327 56.656C573.486 56.4787 573.607 56.2733 573.691 56.04C573.775 55.7973 573.822 55.5407 573.831 55.27V54.85H572.739ZM580.703 52.372H578.771V55.648C578.771 55.8627 578.776 56.0633 578.785 56.25C578.795 56.4273 578.832 56.586 578.897 56.726C578.963 56.8567 579.061 56.964 579.191 57.048C579.322 57.1227 579.509 57.16 579.751 57.16C579.91 57.16 580.073 57.1413 580.241 57.104C580.409 57.0667 580.568 57.0107 580.717 56.936L580.759 57.93C580.573 58.014 580.363 58.0747 580.129 58.112C579.905 58.1493 579.691 58.168 579.485 58.168C579.093 58.168 578.781 58.1167 578.547 58.014C578.314 57.9113 578.132 57.7667 578.001 57.58C577.871 57.3933 577.782 57.1647 577.735 56.894C577.698 56.614 577.679 56.306 577.679 55.97V52.372H576.251V51.448H577.679V49.586H578.771V51.448H580.703V52.372ZM588.093 56.81C587.701 57.314 587.272 57.6687 586.805 57.874C586.338 58.07 585.797 58.168 585.181 58.168C584.668 58.168 584.206 58.0793 583.795 57.902C583.384 57.7153 583.034 57.468 582.745 57.16C582.465 56.852 582.246 56.488 582.087 56.068C581.938 55.648 581.863 55.2 581.863 54.724C581.863 54.22 581.947 53.758 582.115 53.338C582.283 52.9087 582.516 52.5447 582.815 52.246C583.114 51.938 583.468 51.7 583.879 51.532C584.29 51.364 584.738 51.28 585.223 51.28C585.68 51.28 586.1 51.3593 586.483 51.518C586.866 51.6673 587.192 51.8913 587.463 52.19C587.743 52.4793 587.958 52.8387 588.107 53.268C588.256 53.688 588.331 54.1687 588.331 54.71V55.06H583.039C583.058 55.34 583.123 55.6107 583.235 55.872C583.356 56.124 583.51 56.348 583.697 56.544C583.884 56.7307 584.103 56.88 584.355 56.992C584.607 57.104 584.882 57.16 585.181 57.16C585.657 57.16 586.058 57.076 586.385 56.908C586.712 56.74 587.006 56.4927 587.267 56.166L588.093 56.81ZM587.155 54.136C587.136 53.576 586.954 53.128 586.609 52.792C586.264 52.456 585.788 52.288 585.181 52.288C584.574 52.288 584.084 52.456 583.711 52.792C583.338 53.128 583.114 53.576 583.039 54.136H587.155ZM594.457 56.278C594.672 56.5487 594.905 56.7633 595.157 56.922C595.418 57.0807 595.745 57.16 596.137 57.16C596.305 57.16 596.473 57.1413 596.641 57.104C596.818 57.0667 596.977 57.006 597.117 56.922C597.257 56.838 597.369 56.7353 597.453 56.614C597.537 56.4833 597.579 56.3293 597.579 56.152C597.579 55.9747 597.537 55.83 597.453 55.718C597.378 55.606 597.276 55.5127 597.145 55.438C597.014 55.354 596.865 55.2887 596.697 55.242C596.529 55.1953 596.356 55.1533 596.179 55.116C595.871 55.0507 595.577 54.976 595.297 54.892C595.017 54.808 594.77 54.7007 594.555 54.57C594.35 54.43 594.182 54.2527 594.051 54.038C593.93 53.8233 593.869 53.548 593.869 53.212C593.869 52.8947 593.939 52.6147 594.079 52.372C594.219 52.1293 594.406 51.9287 594.639 51.77C594.872 51.6113 595.134 51.49 595.423 51.406C595.712 51.322 596.011 51.28 596.319 51.28C596.786 51.28 597.215 51.3733 597.607 51.56C598.008 51.7467 598.321 52.05 598.545 52.47L597.635 53.072C597.495 52.8387 597.308 52.652 597.075 52.512C596.851 52.3627 596.576 52.288 596.249 52.288C596.1 52.288 595.946 52.3067 595.787 52.344C595.638 52.3813 595.502 52.4373 595.381 52.512C595.26 52.5867 595.157 52.6847 595.073 52.806C594.998 52.918 594.961 53.0487 594.961 53.198C594.961 53.338 595.003 53.4593 595.087 53.562C595.18 53.6553 595.302 53.7393 595.451 53.814C595.61 53.8887 595.787 53.954 595.983 54.01C596.188 54.066 596.398 54.1127 596.613 54.15C596.902 54.206 597.178 54.2807 597.439 54.374C597.7 54.458 597.929 54.5747 598.125 54.724C598.321 54.8733 598.475 55.06 598.587 55.284C598.699 55.508 598.755 55.7833 598.755 56.11C598.755 56.4833 598.68 56.8007 598.531 57.062C598.382 57.3233 598.181 57.538 597.929 57.706C597.686 57.8647 597.406 57.9813 597.089 58.056C596.781 58.1307 596.464 58.168 596.137 58.168C595.577 58.168 595.092 58.084 594.681 57.916C594.28 57.7387 593.916 57.4167 593.589 56.95L594.457 56.278ZM606.33 56.81C605.938 57.314 605.508 57.6687 605.042 57.874C604.575 58.07 604.034 58.168 603.418 58.168C602.904 58.168 602.442 58.0793 602.032 57.902C601.621 57.7153 601.271 57.468 600.982 57.16C600.702 56.852 600.482 56.488 600.324 56.068C600.174 55.648 600.1 55.2 600.1 54.724C600.1 54.22 600.184 53.758 600.352 53.338C600.52 52.9087 600.753 52.5447 601.052 52.246C601.35 51.938 601.705 51.7 602.116 51.532C602.526 51.364 602.974 51.28 603.46 51.28C603.917 51.28 604.337 51.3593 604.72 51.518C605.102 51.6673 605.429 51.8913 605.7 52.19C605.98 52.4793 606.194 52.8387 606.344 53.268C606.493 53.688 606.568 54.1687 606.568 54.71V55.06H601.276C601.294 55.34 601.36 55.6107 601.472 55.872C601.593 56.124 601.747 56.348 601.934 56.544C602.12 56.7307 602.34 56.88 602.592 56.992C602.844 57.104 603.119 57.16 603.418 57.16C603.894 57.16 604.295 57.076 604.622 56.908C604.948 56.74 605.242 56.4927 605.504 56.166L606.33 56.81ZM605.392 54.136C605.373 53.576 605.191 53.128 604.846 52.792C604.5 52.456 604.024 52.288 603.418 52.288C602.811 52.288 602.321 52.456 601.948 52.792C601.574 53.128 601.35 53.576 601.276 54.136H605.392ZM608.373 52.288C608.709 51.9427 609.106 51.6907 609.563 51.532C610.03 51.364 610.501 51.28 610.977 51.28C611.948 51.28 612.648 51.5087 613.077 51.966C613.506 52.4233 613.721 53.1187 613.721 54.052V56.866C613.721 57.0527 613.73 57.2487 613.749 57.454C613.768 57.65 613.791 57.832 613.819 58H612.769C612.732 57.8507 612.708 57.6873 612.699 57.51C612.699 57.3233 612.699 57.16 612.699 57.02H612.671C612.456 57.356 612.167 57.6313 611.803 57.846C611.448 58.0607 611.019 58.168 610.515 58.168C610.179 58.168 609.862 58.126 609.563 58.042C609.274 57.958 609.017 57.8367 608.793 57.678C608.578 57.51 608.406 57.3047 608.275 57.062C608.144 56.8193 608.079 56.5393 608.079 56.222C608.079 55.6807 608.219 55.256 608.499 54.948C608.779 54.64 609.124 54.4113 609.535 54.262C609.955 54.1127 610.403 54.0193 610.879 53.982C611.364 53.9447 611.808 53.926 612.209 53.926H612.629V53.73C612.629 53.254 612.484 52.8947 612.195 52.652C611.915 52.4093 611.518 52.288 611.005 52.288C610.65 52.288 610.3 52.3487 609.955 52.47C609.619 52.582 609.32 52.7593 609.059 53.002L608.373 52.288ZM611.537 54.85C610.837 54.85 610.282 54.948 609.871 55.144C609.46 55.34 609.255 55.662 609.255 56.11C609.255 56.5207 609.39 56.8147 609.661 56.992C609.941 57.16 610.286 57.244 610.697 57.244C611.014 57.244 611.29 57.1927 611.523 57.09C611.766 56.978 611.966 56.8333 612.125 56.656C612.284 56.4787 612.405 56.2733 612.489 56.04C612.573 55.7973 612.62 55.5407 612.629 55.27V54.85H611.537ZM615.917 53.002C615.917 52.7033 615.908 52.4233 615.889 52.162C615.87 51.9007 615.861 51.6627 615.861 51.448H616.897C616.897 51.6253 616.902 51.8027 616.911 51.98C616.92 52.1573 616.925 52.3393 616.925 52.526H616.953C617.028 52.3673 617.13 52.2133 617.261 52.064C617.401 51.9147 617.564 51.784 617.751 51.672C617.938 51.5507 618.148 51.4573 618.381 51.392C618.614 51.3173 618.866 51.28 619.137 51.28C619.212 51.28 619.286 51.2847 619.361 51.294C619.436 51.3033 619.51 51.322 619.585 51.35L619.515 52.456C619.328 52.4 619.132 52.372 618.927 52.372C618.255 52.372 617.765 52.5913 617.457 53.03C617.158 53.4593 617.009 54.052 617.009 54.808V58H615.917V53.002ZM625.455 53.086C625.221 52.806 624.969 52.6053 624.699 52.484C624.428 52.3533 624.129 52.288 623.803 52.288C623.439 52.288 623.117 52.3533 622.837 52.484C622.557 52.6053 622.323 52.778 622.137 53.002C621.959 53.226 621.824 53.4873 621.731 53.786C621.637 54.0753 621.591 54.388 621.591 54.724C621.591 55.06 621.642 55.3773 621.745 55.676C621.857 55.9653 622.006 56.222 622.193 56.446C622.389 56.67 622.622 56.8473 622.893 56.978C623.163 57.0993 623.467 57.16 623.803 57.16C624.521 57.16 625.077 56.8893 625.469 56.348L626.281 57.118C625.963 57.482 625.59 57.748 625.161 57.916C624.731 58.084 624.279 58.168 623.803 58.168C623.299 58.168 622.837 58.084 622.417 57.916C621.997 57.748 621.637 57.51 621.339 57.202C621.049 56.894 620.821 56.53 620.653 56.11C620.494 55.69 620.415 55.228 620.415 54.724C620.415 54.2293 620.494 53.772 620.653 53.352C620.821 52.932 621.054 52.568 621.353 52.26C621.651 51.952 622.006 51.714 622.417 51.546C622.837 51.3687 623.299 51.28 623.803 51.28C624.288 51.28 624.745 51.364 625.175 51.532C625.613 51.7 625.996 51.9613 626.323 52.316L625.455 53.086ZM627.747 47.416H628.839V52.358H628.867C628.941 52.2273 629.044 52.1013 629.175 51.98C629.305 51.8493 629.459 51.7327 629.637 51.63C629.823 51.5273 630.029 51.4433 630.253 51.378C630.477 51.3127 630.715 51.28 630.967 51.28C631.396 51.28 631.765 51.3453 632.073 51.476C632.39 51.6067 632.651 51.7887 632.857 52.022C633.062 52.2553 633.211 52.54 633.305 52.876C633.407 53.2027 633.459 53.562 633.459 53.954V58H632.367V54.066C632.367 53.5153 632.245 53.0813 632.003 52.764C631.76 52.4467 631.382 52.288 630.869 52.288C630.514 52.288 630.206 52.3487 629.945 52.47C629.693 52.5913 629.483 52.764 629.315 52.988C629.156 53.212 629.035 53.478 628.951 53.786C628.876 54.094 628.839 54.4347 628.839 54.808V58H627.747V47.416ZM636.636 56.404C636.869 56.404 637.065 56.488 637.224 56.656C637.392 56.8147 637.476 57.0107 637.476 57.244C637.476 57.4773 637.387 57.678 637.21 57.846C637.042 58.0047 636.85 58.084 636.636 58.084C636.421 58.084 636.225 58.0047 636.048 57.846C635.88 57.678 635.796 57.4773 635.796 57.244C635.796 57.0107 635.875 56.8147 636.034 56.656C636.202 56.488 636.402 56.404 636.636 56.404Z" fill="#4B5563"/>
<path d="M460.033 50.6136V51.75H448.442V50.6136H460.033ZM460.033 53.0682V54.2045H448.442V53.0682H460.033ZM459.027 46.3636V58H457.152L451.663 50.0739H451.572V58H449.459V46.3636H451.351L456.822 54.2955H456.93V46.3636H459.027ZM467.516 46.672L464.796 50.864L464.828 50.896C464.945 50.832 465.1 50.784 465.292 50.752C465.495 50.72 465.692 50.704 465.884 50.704C466.385 50.704 466.844 50.8 467.26 50.992C467.676 51.184 468.033 51.4453 468.332 51.776C468.641 52.1067 468.876 52.4907 469.036 52.928C469.207 53.3653 469.292 53.8293 469.292 54.32C469.292 54.9067 469.191 55.44 468.988 55.92C468.785 56.4 468.503 56.8107 468.14 57.152C467.788 57.4827 467.361 57.7387 466.86 57.92C466.369 58.1013 465.836 58.192 465.26 58.192C464.663 58.192 464.119 58.1067 463.628 57.936C463.137 57.7547 462.711 57.4987 462.348 57.168C461.996 56.8373 461.719 56.432 461.516 55.952C461.324 55.472 461.228 54.9333 461.228 54.336C461.228 53.7387 461.324 53.2 461.516 52.72C461.719 52.2293 461.975 51.7333 462.284 51.232L465.18 46.672H467.516ZM463.244 54.304C463.244 54.592 463.297 54.864 463.404 55.12C463.511 55.3653 463.655 55.584 463.836 55.776C464.028 55.9573 464.247 56.1013 464.492 56.208C464.748 56.3147 465.02 56.368 465.308 56.368C465.596 56.368 465.863 56.3147 466.108 56.208C466.364 56.1013 466.583 55.9573 466.764 55.776C466.956 55.584 467.105 55.3653 467.212 55.12C467.319 54.864 467.372 54.592 467.372 54.304C467.372 54.016 467.319 53.7493 467.212 53.504C467.105 53.248 466.956 53.0293 466.764 52.848C466.583 52.656 466.364 52.5067 466.108 52.4C465.863 52.2933 465.596 52.24 465.308 52.24C465.02 52.24 464.748 52.2933 464.492 52.4C464.247 52.5067 464.028 52.656 463.836 52.848C463.655 53.0293 463.511 53.248 463.404 53.504C463.297 53.7493 463.244 54.016 463.244 54.304ZM470.833 52.336C470.833 51.44 470.902 50.6773 471.041 50.048C471.19 49.408 471.382 48.8747 471.617 48.448C471.851 48.0107 472.113 47.664 472.401 47.408C472.699 47.1413 472.998 46.944 473.297 46.816C473.606 46.6773 473.899 46.5867 474.177 46.544C474.465 46.5013 474.715 46.48 474.929 46.48C475.142 46.48 475.387 46.5013 475.665 46.544C475.953 46.5867 476.246 46.6773 476.545 46.816C476.854 46.944 477.153 47.1413 477.441 47.408C477.739 47.664 478.006 48.0107 478.241 48.448C478.475 48.8747 478.662 49.408 478.801 50.048C478.95 50.6773 479.025 51.44 479.025 52.336C479.025 53.232 478.95 54 478.801 54.64C478.662 55.2693 478.475 55.8027 478.241 56.24C478.006 56.6667 477.739 57.0133 477.441 57.28C477.153 57.536 476.854 57.7333 476.545 57.872C476.246 58 475.953 58.0853 475.665 58.128C475.387 58.1707 475.142 58.192 474.929 58.192C474.715 58.192 474.465 58.1707 474.177 58.128C473.899 58.0853 473.606 58 473.297 57.872C472.998 57.7333 472.699 57.536 472.401 57.28C472.113 57.0133 471.851 56.6667 471.617 56.24C471.382 55.8027 471.19 55.2693 471.041 54.64C470.902 54 470.833 53.232 470.833 52.336ZM472.753 52.336C472.753 52.688 472.774 53.0987 472.817 53.568C472.87 54.0267 472.971 54.464 473.121 54.88C473.27 55.296 473.489 55.648 473.777 55.936C474.065 56.224 474.449 56.368 474.929 56.368C475.409 56.368 475.793 56.224 476.081 55.936C476.369 55.648 476.587 55.296 476.737 54.88C476.886 54.464 476.982 54.0267 477.025 53.568C477.078 53.0987 477.105 52.688 477.105 52.336C477.105 51.984 477.078 51.5787 477.025 51.12C476.982 50.6507 476.886 50.208 476.737 49.792C476.587 49.376 476.369 49.024 476.081 48.736C475.793 48.448 475.409 48.304 474.929 48.304C474.449 48.304 474.065 48.448 473.777 48.736C473.489 49.024 473.27 49.376 473.121 49.792C472.971 50.208 472.87 50.6507 472.817 51.12C472.774 51.5787 472.753 51.984 472.753 52.336ZM480.501 52.336C480.501 51.44 480.571 50.6773 480.709 50.048C480.859 49.408 481.051 48.8747 481.285 48.448C481.52 48.0107 481.781 47.664 482.069 47.408C482.368 47.1413 482.667 46.944 482.965 46.816C483.275 46.6773 483.568 46.5867 483.845 46.544C484.133 46.5013 484.384 46.48 484.597 46.48C484.811 46.48 485.056 46.5013 485.333 46.544C485.621 46.5867 485.915 46.6773 486.213 46.816C486.523 46.944 486.821 47.1413 487.109 47.408C487.408 47.664 487.675 48.0107 487.909 48.448C488.144 48.8747 488.331 49.408 488.469 50.048C488.619 50.6773 488.693 51.44 488.693 52.336C488.693 53.232 488.619 54 488.469 54.64C488.331 55.2693 488.144 55.8027 487.909 56.24C487.675 56.6667 487.408 57.0133 487.109 57.28C486.821 57.536 486.523 57.7333 486.213 57.872C485.915 58 485.621 58.0853 485.333 58.128C485.056 58.1707 484.811 58.192 484.597 58.192C484.384 58.192 484.133 58.1707 483.845 58.128C483.568 58.0853 483.275 58 482.965 57.872C482.667 57.7333 482.368 57.536 482.069 57.28C481.781 57.0133 481.52 56.6667 481.285 56.24C481.051 55.8027 480.859 55.2693 480.709 54.64C480.571 54 480.501 53.232 480.501 52.336ZM482.421 52.336C482.421 52.688 482.443 53.0987 482.485 53.568C482.539 54.0267 482.64 54.464 482.789 54.88C482.939 55.296 483.157 55.648 483.445 55.936C483.733 56.224 484.117 56.368 484.597 56.368C485.077 56.368 485.461 56.224 485.749 55.936C486.037 55.648 486.256 55.296 486.405 54.88C486.555 54.464 486.651 54.0267 486.693 53.568C486.747 53.0987 486.773 52.688 486.773 52.336C486.773 51.984 486.747 51.5787 486.693 51.12C486.651 50.6507 486.555 50.208 486.405 49.792C486.256 49.376 486.037 49.024 485.749 48.736C485.461 48.448 485.077 48.304 484.597 48.304C484.117 48.304 483.733 48.448 483.445 48.736C483.157 49.024 482.939 49.376 482.789 49.792C482.64 50.208 482.539 50.6507 482.485 51.12C482.443 51.5787 482.421 51.984 482.421 52.336ZM490.17 52.336C490.17 51.44 490.239 50.6773 490.378 50.048C490.527 49.408 490.719 48.8747 490.954 48.448C491.189 48.0107 491.45 47.664 491.738 47.408C492.037 47.1413 492.335 46.944 492.634 46.816C492.943 46.6773 493.237 46.5867 493.514 46.544C493.802 46.5013 494.053 46.48 494.266 46.48C494.479 46.48 494.725 46.5013 495.002 46.544C495.29 46.5867 495.583 46.6773 495.882 46.816C496.191 46.944 496.49 47.1413 496.778 47.408C497.077 47.664 497.343 48.0107 497.578 48.448C497.813 48.8747 497.999 49.408 498.138 50.048C498.287 50.6773 498.362 51.44 498.362 52.336C498.362 53.232 498.287 54 498.138 54.64C497.999 55.2693 497.813 55.8027 497.578 56.24C497.343 56.6667 497.077 57.0133 496.778 57.28C496.49 57.536 496.191 57.7333 495.882 57.872C495.583 58 495.29 58.0853 495.002 58.128C494.725 58.1707 494.479 58.192 494.266 58.192C494.053 58.192 493.802 58.1707 493.514 58.128C493.237 58.0853 492.943 58 492.634 57.872C492.335 57.7333 492.037 57.536 491.738 57.28C491.45 57.0133 491.189 56.6667 490.954 56.24C490.719 55.8027 490.527 55.2693 490.378 54.64C490.239 54 490.17 53.232 490.17 52.336ZM492.09 52.336C492.09 52.688 492.111 53.0987 492.154 53.568C492.207 54.0267 492.309 54.464 492.458 54.88C492.607 55.296 492.826 55.648 493.114 55.936C493.402 56.224 493.786 56.368 494.266 56.368C494.746 56.368 495.13 56.224 495.418 55.936C495.706 55.648 495.925 55.296 496.074 54.88C496.223 54.464 496.319 54.0267 496.362 53.568C496.415 53.0987 496.442 52.688 496.442 52.336C496.442 51.984 496.415 51.5787 496.362 51.12C496.319 50.6507 496.223 50.208 496.074 49.792C495.925 49.376 495.706 49.024 495.418 48.736C495.13 48.448 494.746 48.304 494.266 48.304C493.786 48.304 493.402 48.448 493.114 48.736C492.826 49.024 492.607 49.376 492.458 49.792C492.309 50.208 492.207 50.6507 492.154 51.12C492.111 51.5787 492.09 51.984 492.09 52.336Z" fill="#374151"/>
</svg>
