<svg width="337" height="114" viewBox="0 0 337 114" fill="none" xmlns="http://www.w3.org/2000/svg">
<path d="M72.0949 67.5023H73.6875C74.3018 67.5023 74.8327 67.4113 75.2801 67.2293C75.7351 67.0397 76.1105 66.7932 76.4063 66.4898C76.7096 66.1789 76.9333 65.8301 77.0774 65.4433C77.2215 65.049 77.2936 64.6432 77.2936 64.2261C77.2936 63.809 77.2215 63.4071 77.0774 63.0203C76.9333 62.626 76.7096 62.2771 76.4063 61.9738C76.1105 61.6628 75.7351 61.4164 75.2801 61.2344C74.8327 61.0448 74.3018 60.95 73.6875 60.95H72.0949V67.5023ZM71.2759 60.1992H73.9492C74.4497 60.1992 74.9502 60.2826 75.4507 60.4494C75.9588 60.6163 76.4139 60.8703 76.8158 61.2116C77.2253 61.5453 77.5552 61.9662 77.8055 62.4743C78.0557 62.9748 78.1809 63.5588 78.1809 64.2261C78.1809 64.9011 78.0557 65.4888 77.8055 65.9893C77.5552 66.4899 77.2253 66.9107 76.8158 67.252C76.4139 67.5857 75.9588 67.836 75.4507 68.0028C74.9502 68.1696 74.4497 68.2531 73.9492 68.2531H71.2759V60.1992Z" fill="#034EA2"/>
<path d="M83.3932 68.2531C83.3781 68.109 83.3667 67.9687 83.3591 67.8322C83.3591 67.6881 83.3591 67.544 83.3591 67.3999H83.3364C83.2529 67.544 83.1468 67.6767 83.0179 67.798C82.8889 67.9194 82.7448 68.0255 82.5856 68.1166C82.4263 68.2 82.2557 68.2644 82.0737 68.3099C81.8993 68.363 81.7248 68.3896 81.5504 68.3896C80.8679 68.3896 80.3636 68.2113 80.0375 67.8549C79.7114 67.4909 79.5483 66.9752 79.5483 66.3078V62.9293H80.2991V65.8756C80.2991 66.1713 80.3219 66.433 80.3674 66.6605C80.4129 66.888 80.4887 67.0814 80.5949 67.2406C80.7086 67.3923 80.8565 67.5099 81.0385 67.5933C81.2281 67.6691 81.4632 67.707 81.7438 67.707C81.7817 67.707 81.8879 67.6919 82.0623 67.6615C82.2367 67.6312 82.4187 67.5478 82.6083 67.4113C82.8055 67.2748 82.9799 67.07 83.1316 66.797C83.2833 66.524 83.3591 66.1448 83.3591 65.6594V62.9293H84.1099V67.0814C84.1099 67.2255 84.1137 67.4075 84.1213 67.6274C84.1364 67.8473 84.1516 68.0559 84.1668 68.2531H83.3932Z" fill="#034EA2"/>
<path d="M90.7266 65.5912C90.7266 65.2954 90.6773 65.0186 90.5788 64.7608C90.4878 64.5029 90.355 64.2792 90.1806 64.0896C90.0062 63.9 89.7938 63.7521 89.5436 63.646C89.3009 63.5322 89.0241 63.4753 88.7132 63.4753C88.4022 63.4753 88.1179 63.5322 87.86 63.646C87.6022 63.7521 87.3784 63.9 87.1889 64.0896C86.9993 64.2792 86.8514 64.5029 86.7452 64.7608C86.639 65.0186 86.5859 65.2954 86.5859 65.5912C86.5859 65.8869 86.639 66.1637 86.7452 66.4216C86.8514 66.6794 86.9993 66.9032 87.1889 67.0928C87.3784 67.2823 87.6022 67.434 87.86 67.5478C88.1179 67.6539 88.4022 67.707 88.7132 67.707C89.0241 67.707 89.3009 67.6539 89.5436 67.5478C89.7938 67.434 90.0062 67.2823 90.1806 67.0928C90.355 66.9032 90.4878 66.6794 90.5788 66.4216C90.6773 66.1637 90.7266 65.8869 90.7266 65.5912ZM85.8693 62.9293H86.6201V63.8166H86.6428C86.7642 63.6346 86.9083 63.4791 87.0751 63.3502C87.2419 63.2213 87.4164 63.1151 87.5984 63.0317C87.7804 62.9483 87.9662 62.8876 88.1558 62.8497C88.3529 62.8118 88.5387 62.7928 88.7132 62.7928C89.1303 62.7928 89.5095 62.8648 89.8507 63.0089C90.1996 63.1454 90.4991 63.3388 90.7494 63.5891C90.9996 63.8394 91.193 64.1351 91.3295 64.4764C91.4736 64.8176 91.5457 65.1892 91.5457 65.5912C91.5457 65.9931 91.4736 66.3647 91.3295 66.706C91.193 67.0473 90.9996 67.343 90.7494 67.5933C90.4991 67.8435 90.1996 68.0407 89.8507 68.1848C89.5095 68.3213 89.1303 68.3896 88.7132 68.3896C88.5387 68.3896 88.3529 68.3706 88.1558 68.3327C87.9662 68.2948 87.7804 68.2341 87.5984 68.1507C87.4164 68.0673 87.2419 67.9611 87.0751 67.8322C86.9083 67.7032 86.7642 67.5478 86.6428 67.3658H86.6201V71.5292H85.8693V62.9293Z" fill="#034EA2"/>
<path d="M93.7449 68.2531H92.9941V59.6532H93.7449V68.2531Z" fill="#034EA2"/>
<path d="M99.697 65.1817C99.697 64.6736 99.5453 64.264 99.2419 63.9531C98.9386 63.6346 98.5139 63.4753 97.9679 63.4753C97.7252 63.4753 97.4901 63.5246 97.2626 63.6232C97.0351 63.7142 96.8341 63.8394 96.6597 63.9986C96.4928 64.1579 96.3563 64.3399 96.2502 64.5446C96.1516 64.7494 96.1023 64.9617 96.1023 65.1817H99.697ZM96.0795 65.7959C96.1023 66.0614 96.1667 66.3116 96.2729 66.5467C96.3791 66.7818 96.5194 66.9866 96.6938 67.161C96.8682 67.3278 97.0692 67.4606 97.2967 67.5592C97.5242 67.6577 97.7707 67.707 98.0361 67.707C98.4381 67.707 98.7831 67.616 99.0713 67.434C99.3671 67.2444 99.5908 67.0283 99.7425 66.7856L100.323 67.2634C100.004 67.6653 99.6515 67.9535 99.2647 68.1279C98.8855 68.3024 98.476 68.3896 98.0361 68.3896C97.6418 68.3896 97.274 68.3213 96.9327 68.1848C96.599 68.0407 96.3108 67.8435 96.0682 67.5933C95.8255 67.343 95.6321 67.0473 95.488 66.706C95.3515 66.3647 95.2832 65.9931 95.2832 65.5912C95.2832 65.1892 95.3515 64.8176 95.488 64.4764C95.6245 64.1351 95.8141 63.8394 96.0568 63.5891C96.2995 63.3388 96.5838 63.1454 96.9099 63.0089C97.236 62.8648 97.5887 62.7928 97.9679 62.7928C98.3698 62.7928 98.73 62.8648 99.0485 63.0089C99.3671 63.153 99.6325 63.3464 99.8448 63.5891C100.065 63.8242 100.232 64.1048 100.345 64.4309C100.459 64.7494 100.516 65.0907 100.516 65.4547V65.7959H96.0795Z" fill="#034EA2"/>
<path d="M103.254 65.4092L101.32 62.9293H102.344L103.822 64.92L105.233 62.9293H106.166L104.312 65.4092L106.541 68.2531H105.517L103.731 65.9211L102.014 68.2531H101.058L103.254 65.4092Z" fill="#034EA2"/>
<path d="M113.671 68.2531H112.852V61.223L111.407 62.497L110.895 61.8828L112.943 60.1992H113.671V68.2531Z" fill="#034EA2"/>
<path d="M119.195 60.8135C118.756 60.8135 118.407 60.931 118.149 61.1661C117.899 61.4012 117.709 61.6932 117.58 62.042C117.451 62.3909 117.368 62.7625 117.33 63.1568C117.299 63.5512 117.284 63.9076 117.284 64.2261C117.284 64.5446 117.299 64.9011 117.33 65.2954C117.368 65.6898 117.451 66.0614 117.58 66.4102C117.709 66.7591 117.899 67.051 118.149 67.2861C118.407 67.5212 118.756 67.6388 119.195 67.6388C119.635 67.6388 119.98 67.5212 120.231 67.2861C120.488 67.051 120.682 66.7591 120.811 66.4102C120.94 66.0614 121.019 65.6898 121.05 65.2954C121.088 64.9011 121.106 64.5446 121.106 64.2261C121.106 63.9076 121.088 63.5512 121.05 63.1568C121.019 62.7625 120.94 62.3909 120.811 62.042C120.682 61.6932 120.488 61.4012 120.231 61.1661C119.98 60.931 119.635 60.8135 119.195 60.8135ZM119.195 60.0627C119.772 60.0627 120.238 60.1954 120.595 60.4608C120.951 60.7262 121.228 61.0637 121.425 61.4732C121.622 61.8828 121.755 62.334 121.823 62.8269C121.891 63.3123 121.926 63.7787 121.926 64.2261C121.926 64.6736 121.891 65.1437 121.823 65.6367C121.755 66.122 121.622 66.5695 121.425 66.979C121.228 67.3885 120.951 67.726 120.595 67.9914C120.238 68.2568 119.772 68.3896 119.195 68.3896C118.619 68.3896 118.153 68.2568 117.796 67.9914C117.44 67.726 117.163 67.3885 116.966 66.979C116.769 66.5695 116.636 66.122 116.568 65.6367C116.499 65.1437 116.465 64.6736 116.465 64.2261C116.465 63.7787 116.499 63.3123 116.568 62.8269C116.636 62.334 116.769 61.8828 116.966 61.4732C117.163 61.0637 117.44 60.7262 117.796 60.4608C118.153 60.1954 118.619 60.0627 119.195 60.0627Z" fill="#034EA2"/>
<path d="M123.856 69.8456H123.093L123.856 67.1724H124.777L123.856 69.8456Z" fill="#034EA2"/>
<path d="M133.748 66.7515L136.467 60.1992H137.718V68.2531H136.899V61.2912H136.876L133.964 68.2531H133.532L130.62 61.2912H130.597V68.2531H129.778V60.1992H131.029L133.748 66.7515Z" fill="#034EA2"/>
<path d="M142.651 65.6026C142.462 65.6026 142.223 65.6139 141.935 65.6367C141.654 65.6519 141.381 65.6974 141.116 65.7732C140.858 65.8414 140.634 65.9514 140.444 66.1031C140.262 66.2548 140.171 66.4633 140.171 66.7287C140.171 66.9032 140.205 67.0548 140.274 67.1838C140.35 67.3051 140.448 67.4075 140.569 67.4909C140.691 67.5667 140.824 67.6236 140.968 67.6615C141.119 67.6919 141.271 67.707 141.423 67.707C141.696 67.707 141.931 67.6615 142.128 67.5705C142.333 67.4795 142.503 67.3582 142.64 67.2065C142.776 67.0473 142.875 66.8652 142.936 66.6605C143.004 66.4481 143.038 66.2244 143.038 65.9893V65.6026H142.651ZM143.038 64.9883V64.8518C143.038 63.9341 142.583 63.4753 141.673 63.4753C141.051 63.4753 140.509 63.6839 140.046 64.101L139.591 63.5663C140.092 63.0506 140.842 62.7928 141.844 62.7928C142.101 62.7928 142.348 62.8307 142.583 62.9066C142.826 62.9824 143.034 63.0999 143.209 63.2592C143.383 63.4109 143.523 63.6043 143.63 63.8394C143.736 64.0744 143.789 64.355 143.789 64.6811V67.0586C143.789 67.2634 143.796 67.4795 143.812 67.707C143.834 67.927 143.857 68.109 143.88 68.2531H143.152C143.129 68.1241 143.11 67.9838 143.095 67.8322C143.087 67.6805 143.083 67.5326 143.083 67.3885H143.061C142.841 67.7449 142.579 68.0028 142.276 68.1621C141.98 68.3137 141.616 68.3896 141.184 68.3896C140.949 68.3896 140.721 68.3554 140.501 68.2872C140.281 68.2265 140.084 68.1317 139.91 68.0028C139.743 67.8663 139.606 67.7032 139.5 67.5136C139.402 67.3165 139.352 67.089 139.352 66.8311C139.352 66.3988 139.462 66.0614 139.682 65.8187C139.91 65.5684 140.19 65.3826 140.524 65.2613C140.865 65.14 141.225 65.0641 141.605 65.0338C141.991 65.0034 142.344 64.9883 142.663 64.9883H143.038Z" fill="#034EA2"/>
<path d="M150.382 65.5912C150.382 65.2954 150.332 65.0186 150.234 64.7608C150.143 64.5029 150.01 64.2792 149.835 64.0896C149.661 63.9 149.449 63.7521 149.198 63.646C148.956 63.5322 148.679 63.4753 148.368 63.4753C148.057 63.4753 147.773 63.5322 147.515 63.646C147.257 63.7521 147.033 63.9 146.844 64.0896C146.654 64.2792 146.506 64.5029 146.4 64.7608C146.294 65.0186 146.241 65.2954 146.241 65.5912C146.241 65.8869 146.294 66.1637 146.4 66.4216C146.506 66.6794 146.654 66.9032 146.844 67.0928C147.033 67.2823 147.257 67.434 147.515 67.5478C147.773 67.6539 148.057 67.707 148.368 67.707C148.679 67.707 148.956 67.6539 149.198 67.5478C149.449 67.434 149.661 67.2823 149.835 67.0928C150.01 66.9032 150.143 66.6794 150.234 66.4216C150.332 66.1637 150.382 65.8869 150.382 65.5912ZM145.524 59.6532H146.275V63.8166H146.298C146.419 63.6346 146.563 63.4791 146.73 63.3502C146.897 63.2213 147.071 63.1151 147.253 63.0317C147.435 62.9483 147.621 62.8876 147.811 62.8497C148.008 62.8118 148.194 62.7928 148.368 62.7928C148.785 62.7928 149.164 62.8648 149.506 63.0089C149.854 63.1454 150.154 63.3388 150.404 63.5891C150.655 63.8394 150.848 64.1351 150.984 64.4764C151.128 64.8176 151.201 65.1892 151.201 65.5912C151.201 65.9931 151.128 66.3647 150.984 66.706C150.848 67.0473 150.655 67.343 150.404 67.5933C150.154 67.8435 149.854 68.0407 149.506 68.1848C149.164 68.3213 148.785 68.3896 148.368 68.3896C148.194 68.3896 148.008 68.3706 147.811 68.3327C147.621 68.2948 147.435 68.2341 147.253 68.1507C147.071 68.0673 146.897 67.9611 146.73 67.8322C146.563 67.7032 146.419 67.5478 146.298 67.3658H146.275V68.2531H145.524V59.6532Z" fill="#034EA2"/>
<path d="M156.323 68.2531C156.308 68.109 156.297 67.9687 156.289 67.8322C156.289 67.6881 156.289 67.544 156.289 67.3999H156.266C156.183 67.544 156.077 67.6767 155.948 67.798C155.819 67.9194 155.675 68.0255 155.516 68.1166C155.356 68.2 155.186 68.2644 155.004 68.3099C154.829 68.363 154.655 68.3896 154.48 68.3896C153.798 68.3896 153.294 68.2113 152.967 67.8549C152.641 67.4909 152.478 66.9752 152.478 66.3078V62.9293H153.229V65.8756C153.229 66.1713 153.252 66.433 153.297 66.6605C153.343 66.888 153.419 67.0814 153.525 67.2406C153.639 67.3923 153.787 67.5099 153.969 67.5933C154.158 67.6691 154.393 67.707 154.674 67.707C154.712 67.707 154.818 67.6919 154.992 67.6615C155.167 67.6312 155.349 67.5478 155.538 67.4113C155.736 67.2748 155.91 67.07 156.062 66.797C156.213 66.524 156.289 66.1448 156.289 65.6594V62.9293H157.04V67.0814C157.04 67.2255 157.044 67.4075 157.051 67.6274C157.066 67.8473 157.082 68.0559 157.097 68.2531H156.323Z" fill="#034EA2"/>
<path d="M161.62 64.192C161.507 63.9721 161.355 63.7976 161.165 63.6687C160.976 63.5398 160.745 63.4753 160.472 63.4753C160.343 63.4753 160.21 63.4905 160.073 63.5208C159.944 63.5512 159.827 63.6005 159.721 63.6687C159.615 63.7294 159.527 63.809 159.459 63.9076C159.398 64.0062 159.368 64.1275 159.368 64.2716C159.368 64.5219 159.455 64.7039 159.63 64.8176C159.804 64.9314 160.066 65.03 160.415 65.1134L161.177 65.2954C161.548 65.3788 161.856 65.5495 162.098 65.8073C162.348 66.0576 162.474 66.3723 162.474 66.7515C162.474 67.0397 162.413 67.2899 162.292 67.5023C162.178 67.707 162.022 67.8777 161.825 68.0142C161.636 68.1431 161.416 68.2379 161.165 68.2986C160.915 68.3592 160.661 68.3896 160.403 68.3896C159.994 68.3896 159.611 68.3137 159.254 68.1621C158.905 68.0028 158.606 67.7336 158.356 67.3544L159.004 66.9107C159.156 67.1534 159.345 67.3468 159.573 67.4909C159.808 67.635 160.085 67.707 160.403 67.707C160.555 67.707 160.707 67.6919 160.858 67.6615C161.01 67.6236 161.143 67.5705 161.256 67.5023C161.378 67.4264 161.473 67.3316 161.541 67.2179C161.617 67.1041 161.655 66.9714 161.655 66.8197C161.655 66.5543 161.556 66.3647 161.359 66.251C161.162 66.1296 160.923 66.0348 160.642 65.9666L159.914 65.7959C159.823 65.7732 159.698 65.7353 159.539 65.6822C159.387 65.6291 159.235 65.5495 159.084 65.4433C158.94 65.3371 158.814 65.2006 158.708 65.0338C158.602 64.8594 158.549 64.647 158.549 64.3968C158.549 64.1237 158.602 63.8849 158.708 63.6801C158.822 63.4753 158.97 63.3085 159.152 63.1796C159.342 63.0506 159.554 62.9559 159.789 62.8952C160.024 62.8269 160.267 62.7928 160.517 62.7928C160.889 62.7928 161.234 62.8648 161.552 63.0089C161.871 63.153 162.117 63.3995 162.292 63.7483L161.62 64.192Z" fill="#034EA2"/>
<path d="M163.643 59.6532H164.394V63.7825H164.416C164.5 63.6384 164.606 63.5057 164.735 63.3843C164.864 63.263 165.008 63.1606 165.167 63.0772C165.326 62.9862 165.493 62.9179 165.668 62.8724C165.85 62.8193 166.028 62.7928 166.202 62.7928C166.885 62.7928 167.389 62.9748 167.715 63.3388C168.041 63.6953 168.204 64.2072 168.204 64.8745V68.2531H167.454V65.3068C167.454 64.7153 167.351 64.264 167.146 63.9531C166.942 63.6346 166.563 63.4753 166.009 63.4753C165.971 63.4753 165.865 63.4905 165.69 63.5208C165.516 63.5512 165.33 63.6346 165.133 63.7711C164.943 63.9076 164.773 64.1124 164.621 64.3854C164.469 64.6584 164.394 65.0376 164.394 65.5229V68.2531H163.643V59.6532Z" fill="#034EA2"/>
<path d="M171.056 60.8817C171.056 61.041 170.999 61.1737 170.885 61.2799C170.771 61.3784 170.646 61.4277 170.51 61.4277C170.373 61.4277 170.248 61.3784 170.134 61.2799C170.021 61.1737 169.964 61.041 169.964 60.8817C169.964 60.7225 170.021 60.5935 170.134 60.4949C170.248 60.3888 170.373 60.3357 170.51 60.3357C170.646 60.3357 170.771 60.3888 170.885 60.4949C170.999 60.5935 171.056 60.7225 171.056 60.8817ZM170.885 68.2531H170.134V62.9293H170.885V68.2531Z" fill="#034EA2"/>
<path d="M181.892 65.2499C181.892 65.5836 181.85 65.94 181.766 66.3192C181.691 66.6908 181.543 67.0359 181.323 67.3544C181.103 67.6729 180.8 67.9383 180.413 68.1507C180.034 68.3554 179.544 68.4578 178.945 68.4578C178.339 68.4578 177.846 68.3554 177.467 68.1507C177.087 67.9383 176.788 67.6729 176.568 67.3544C176.348 67.0359 176.196 66.6908 176.113 66.3192C176.037 65.94 175.999 65.5836 175.999 65.2499V60.1992H176.818V65.1589C176.818 65.5457 176.856 65.8794 176.932 66.16C177.008 66.433 177.106 66.6643 177.228 66.8539C177.357 67.0435 177.497 67.1951 177.649 67.3089C177.808 67.4151 177.963 67.4985 178.115 67.5592C178.274 67.6198 178.426 67.6615 178.57 67.6843C178.714 67.6994 178.839 67.707 178.945 67.707C179.044 67.707 179.165 67.6994 179.309 67.6843C179.461 67.6615 179.613 67.6198 179.764 67.5592C179.924 67.4985 180.079 67.4151 180.231 67.3089C180.39 67.1951 180.53 67.0435 180.652 66.8539C180.781 66.6643 180.883 66.433 180.959 66.16C181.035 65.8794 181.073 65.5457 181.073 65.1589V60.1992H181.892V65.2499Z" fill="#034EA2"/>
<path d="M184.582 68.2531H183.832V59.6532H184.582V68.2531Z" fill="#034EA2"/>
<path d="M189.147 63.6118H187.611V66.7515C187.611 66.9487 187.63 67.1117 187.668 67.2406C187.706 67.362 187.759 67.4568 187.827 67.525C187.895 67.5933 187.975 67.6426 188.066 67.6729C188.165 67.6957 188.271 67.707 188.385 67.707C188.513 67.707 188.646 67.6881 188.783 67.6502C188.919 67.6122 189.044 67.5629 189.158 67.5023L189.192 68.1962C188.912 68.3251 188.574 68.3896 188.18 68.3896C188.036 68.3896 187.884 68.3706 187.725 68.3327C187.573 68.2948 187.433 68.2227 187.304 68.1166C187.175 68.0104 187.069 67.8663 186.985 67.6843C186.902 67.5023 186.86 67.2634 186.86 66.9676V63.6118H185.734V62.9293H186.86V61.4277H187.611V62.9293H189.147V63.6118Z" fill="#034EA2"/>
<path d="M190.251 64.5901C190.251 64.355 190.243 64.1162 190.228 63.8735C190.22 63.6308 190.213 63.3161 190.205 62.9293H190.944V63.919H190.967C191.02 63.7749 191.096 63.6384 191.195 63.5095C191.293 63.373 191.411 63.2516 191.547 63.1454C191.691 63.0393 191.854 62.9559 192.036 62.8952C192.226 62.8269 192.438 62.7928 192.673 62.7928C192.886 62.7928 193.072 62.8156 193.231 62.8611L193.083 63.6005C192.984 63.5625 192.84 63.5436 192.651 63.5436C192.363 63.5436 192.116 63.6005 191.911 63.7142C191.707 63.8204 191.536 63.9607 191.399 64.1351C191.263 64.302 191.161 64.484 191.092 64.6811C191.032 64.8783 191.001 65.0679 191.001 65.2499V68.2531H190.251V64.5901Z" fill="#034EA2"/>
<path d="M196.974 65.6026C196.784 65.6026 196.545 65.6139 196.257 65.6367C195.977 65.6519 195.704 65.6974 195.438 65.7732C195.18 65.8414 194.957 65.9514 194.767 66.1031C194.585 66.2548 194.494 66.4633 194.494 66.7287C194.494 66.9032 194.528 67.0548 194.596 67.1838C194.672 67.3051 194.771 67.4075 194.892 67.4909C195.013 67.5667 195.146 67.6236 195.29 67.6615C195.442 67.6919 195.594 67.707 195.745 67.707C196.018 67.707 196.253 67.6615 196.451 67.5705C196.655 67.4795 196.826 67.3582 196.962 67.2065C197.099 67.0473 197.198 66.8652 197.258 66.6605C197.326 66.4481 197.361 66.2244 197.361 65.9893V65.6026H196.974ZM197.361 64.9883V64.8518C197.361 63.9341 196.906 63.4753 195.995 63.4753C195.374 63.4753 194.831 63.6839 194.369 64.101L193.914 63.5663C194.414 63.0506 195.165 62.7928 196.166 62.7928C196.424 62.7928 196.67 62.8307 196.906 62.9066C197.148 62.9824 197.357 63.0999 197.531 63.2592C197.706 63.4109 197.846 63.6043 197.952 63.8394C198.058 64.0744 198.111 64.355 198.111 64.6811V67.0586C198.111 67.2634 198.119 67.4795 198.134 67.707C198.157 67.927 198.18 68.109 198.202 68.2531H197.474C197.452 68.1241 197.433 67.9838 197.417 67.8322C197.41 67.6805 197.406 67.5326 197.406 67.3885H197.383C197.163 67.7449 196.902 68.0028 196.598 68.1621C196.303 68.3137 195.939 68.3896 195.506 68.3896C195.271 68.3896 195.044 68.3554 194.824 68.2872C194.604 68.2265 194.407 68.1317 194.232 68.0028C194.065 67.8663 193.929 67.7032 193.823 67.5136C193.724 67.3165 193.675 67.089 193.675 66.8311C193.675 66.3988 193.785 66.0614 194.005 65.8187C194.232 65.5684 194.513 65.3826 194.847 65.2613C195.188 65.14 195.548 65.0641 195.927 65.0338C196.314 65.0034 196.667 64.9883 196.985 64.9883H197.361Z" fill="#034EA2"/>
<path d="M202.383 65.8983H199.46V65.1475H202.383V65.8983Z" fill="#034EA2"/>
<path d="M203.635 64.1124C203.635 63.9152 203.627 63.718 203.612 63.5208C203.605 63.3237 203.593 63.1265 203.578 62.9293H204.386V63.737H204.408C204.59 63.426 204.841 63.1909 205.159 63.0317C205.485 62.8724 205.808 62.7928 206.126 62.7928C206.27 62.7928 206.422 62.808 206.581 62.8383C206.748 62.8686 206.907 62.9255 207.059 63.0089C207.211 63.0848 207.351 63.1947 207.48 63.3388C207.616 63.4829 207.73 63.6687 207.821 63.8962C207.973 63.555 208.212 63.2857 208.538 63.0886C208.871 62.8914 209.216 62.7928 209.573 62.7928C210.255 62.7928 210.76 62.9748 211.086 63.3388C211.412 63.6953 211.575 64.2072 211.575 64.8745V68.2531H210.824V65.1475C210.824 64.6091 210.729 64.1958 210.54 63.9076C210.35 63.6194 209.998 63.4753 209.482 63.4753C209.201 63.4753 208.966 63.5322 208.777 63.646C208.587 63.7521 208.432 63.8962 208.31 64.0782C208.196 64.2602 208.113 64.4688 208.06 64.7039C208.007 64.9314 207.98 65.1703 207.98 65.4205V68.2531H207.23V65.1475C207.23 64.6091 207.135 64.1958 206.945 63.9076C206.756 63.6194 206.403 63.4753 205.887 63.4753C205.842 63.4753 205.736 63.4905 205.569 63.5208C205.409 63.5512 205.243 63.6346 205.068 63.7711C204.894 63.9076 204.735 64.1124 204.59 64.3854C204.454 64.6584 204.386 65.0376 204.386 65.5229V68.2531H203.635V64.1124Z" fill="#034EA2"/>
<path d="M217.883 65.5912C217.883 65.2954 217.834 65.0186 217.736 64.7608C217.645 64.5029 217.512 64.2792 217.337 64.0896C217.163 63.9 216.951 63.7521 216.7 63.646C216.458 63.5322 216.181 63.4753 215.87 63.4753C215.559 63.4753 215.278 63.5322 215.028 63.646C214.786 63.7521 214.577 63.9 214.403 64.0896C214.236 64.2792 214.103 64.5029 214.004 64.7608C213.913 65.0186 213.868 65.2954 213.868 65.5912C213.868 65.8869 213.913 66.1637 214.004 66.4216C214.103 66.6794 214.236 66.9032 214.403 67.0928C214.577 67.2823 214.786 67.434 215.028 67.5478C215.278 67.6539 215.559 67.707 215.87 67.707C216.181 67.707 216.458 67.6539 216.7 67.5478C216.951 67.434 217.163 67.2823 217.337 67.0928C217.512 66.9032 217.645 66.6794 217.736 66.4216C217.834 66.1637 217.883 65.8869 217.883 65.5912ZM218.702 65.5912C218.702 65.9931 218.63 66.3647 218.486 66.706C218.35 67.0473 218.156 67.343 217.906 67.5933C217.656 67.8435 217.356 68.0407 217.008 68.1848C216.666 68.3213 216.287 68.3896 215.87 68.3896C215.46 68.3896 215.081 68.3213 214.732 68.1848C214.391 68.0407 214.095 67.8435 213.845 67.5933C213.595 67.343 213.398 67.0473 213.254 66.706C213.117 66.3647 213.049 65.9931 213.049 65.5912C213.049 65.1892 213.117 64.8176 213.254 64.4764C213.398 64.1351 213.595 63.8394 213.845 63.5891C214.095 63.3388 214.391 63.1454 214.732 63.0089C215.081 62.8648 215.46 62.7928 215.87 62.7928C216.287 62.7928 216.666 62.8648 217.008 63.0089C217.356 63.1454 217.656 63.3388 217.906 63.5891C218.156 63.8394 218.35 64.1351 218.486 64.4764C218.63 64.8176 218.702 65.1892 218.702 65.5912Z" fill="#034EA2"/>
<path d="M220.52 65.5912C220.52 65.8869 220.565 66.1637 220.656 66.4216C220.755 66.6794 220.892 66.9032 221.066 67.0928C221.24 67.2823 221.449 67.434 221.692 67.5478C221.942 67.6539 222.223 67.707 222.533 67.707C222.837 67.707 223.117 67.6539 223.375 67.5478C223.641 67.434 223.868 67.2823 224.058 67.0928C224.247 66.9032 224.395 66.6794 224.501 66.4216C224.608 66.1637 224.661 65.8869 224.661 65.5912C224.661 65.2954 224.608 65.0186 224.501 64.7608C224.395 64.5029 224.247 64.2792 224.058 64.0896C223.868 63.9 223.641 63.7521 223.375 63.646C223.117 63.5322 222.837 63.4753 222.533 63.4753C222.223 63.4753 221.942 63.5322 221.692 63.646C221.449 63.7521 221.24 63.9 221.066 64.0896C220.892 64.2792 220.755 64.5029 220.656 64.7608C220.565 65.0186 220.52 65.2954 220.52 65.5912ZM225.377 68.2531H224.627V67.3658H224.604C224.482 67.5478 224.338 67.7032 224.172 67.8322C224.005 67.9611 223.83 68.0673 223.648 68.1507C223.466 68.2341 223.277 68.2948 223.079 68.3327C222.89 68.3706 222.708 68.3896 222.533 68.3896C222.116 68.3896 221.733 68.3213 221.385 68.1848C221.043 68.0407 220.747 67.8435 220.497 67.5933C220.247 67.343 220.05 67.0473 219.906 66.706C219.769 66.3647 219.701 65.9931 219.701 65.5912C219.701 65.1892 219.769 64.8176 219.906 64.4764C220.05 64.1351 220.247 63.8394 220.497 63.5891C220.747 63.3388 221.043 63.1454 221.385 63.0089C221.733 62.8648 222.116 62.7928 222.533 62.7928C222.708 62.7928 222.89 62.8118 223.079 62.8497C223.277 62.8876 223.466 62.9483 223.648 63.0317C223.83 63.1151 224.005 63.2213 224.172 63.3502C224.338 63.4791 224.482 63.6346 224.604 63.8166H224.627V59.6532H225.377V68.2531Z" fill="#034EA2"/>
<path d="M231.16 65.1817C231.16 64.6736 231.008 64.264 230.705 63.9531C230.401 63.6346 229.977 63.4753 229.431 63.4753C229.188 63.4753 228.953 63.5246 228.725 63.6232C228.498 63.7142 228.297 63.8394 228.123 63.9986C227.956 64.1579 227.819 64.3399 227.713 64.5446C227.614 64.7494 227.565 64.9617 227.565 65.1817H231.16ZM227.542 65.7959C227.565 66.0614 227.63 66.3116 227.736 66.5467C227.842 66.7818 227.982 66.9866 228.157 67.161C228.331 67.3278 228.532 67.4606 228.76 67.5592C228.987 67.6577 229.234 67.707 229.499 67.707C229.901 67.707 230.246 67.616 230.534 67.434C230.83 67.2444 231.054 67.0283 231.205 66.7856L231.785 67.2634C231.467 67.6653 231.114 67.9535 230.728 68.1279C230.348 68.3024 229.939 68.3896 229.499 68.3896C229.105 68.3896 228.737 68.3213 228.396 68.1848C228.062 68.0407 227.774 67.8435 227.531 67.5933C227.288 67.343 227.095 67.0473 226.951 66.706C226.814 66.3647 226.746 65.9931 226.746 65.5912C226.746 65.1892 226.814 64.8176 226.951 64.4764C227.087 64.1351 227.277 63.8394 227.52 63.5891C227.762 63.3388 228.047 63.1454 228.373 63.0089C228.699 62.8648 229.052 62.7928 229.431 62.7928C229.833 62.7928 230.193 62.8648 230.511 63.0089C230.83 63.153 231.095 63.3464 231.308 63.5891C231.528 63.8242 231.694 64.1048 231.808 64.4309C231.922 64.7494 231.979 65.0907 231.979 65.4547V65.7959H227.542Z" fill="#034EA2"/>
<path d="M233.42 64.5901C233.42 64.355 233.412 64.1162 233.397 63.8735C233.389 63.6308 233.382 63.3161 233.374 62.9293H234.114V63.919H234.136C234.189 63.7749 234.265 63.6384 234.364 63.5095C234.462 63.373 234.58 63.2516 234.717 63.1454C234.861 63.0393 235.024 62.9559 235.206 62.8952C235.395 62.8269 235.608 62.7928 235.843 62.7928C236.055 62.7928 236.241 62.8156 236.4 62.8611L236.252 63.6005C236.154 63.5625 236.01 63.5436 235.82 63.5436C235.532 63.5436 235.285 63.6005 235.081 63.7142C234.876 63.8204 234.705 63.9607 234.569 64.1351C234.432 64.302 234.33 64.484 234.262 64.6811C234.201 64.8783 234.171 65.0679 234.171 65.2499V68.2531H233.42V64.5901Z" fill="#034EA2"/>
<path d="M238.034 62.9293C238.049 63.0734 238.057 63.2175 238.057 63.3616C238.064 63.4981 238.068 63.6384 238.068 63.7825H238.091C238.174 63.6384 238.28 63.5057 238.409 63.3843C238.538 63.263 238.682 63.1606 238.841 63.0772C239.001 62.9862 239.168 62.9179 239.342 62.8724C239.524 62.8193 239.702 62.7928 239.877 62.7928C240.559 62.7928 241.063 62.9748 241.39 63.3388C241.716 63.6953 241.879 64.2072 241.879 64.8745V68.2531H241.128V65.3068C241.128 64.7153 241.026 64.264 240.821 63.9531C240.616 63.6346 240.237 63.4753 239.683 63.4753C239.645 63.4753 239.539 63.4905 239.365 63.5208C239.19 63.5512 239.004 63.6346 238.807 63.7711C238.618 63.9076 238.447 64.1124 238.295 64.3854C238.144 64.6584 238.068 65.0376 238.068 65.5229V68.2531H237.317V64.101C237.317 63.9569 237.31 63.7749 237.294 63.555C237.287 63.335 237.275 63.1265 237.26 62.9293H238.034Z" fill="#034EA2"/>
<path d="M253.709 66.979C253.573 67.1838 253.402 67.3771 253.197 67.5592C253 67.7412 252.772 67.9004 252.515 68.0369C252.257 68.1658 251.976 68.2682 251.673 68.3441C251.377 68.4199 251.062 68.4578 250.729 68.4578C250.13 68.4578 249.572 68.3516 249.056 68.1393C248.548 67.927 248.105 67.635 247.726 67.2634C247.354 66.8842 247.062 66.4368 246.85 65.9211C246.637 65.4054 246.531 64.8404 246.531 64.2261C246.531 63.6118 246.637 63.0469 246.85 62.5312C247.062 62.0155 247.354 61.5718 247.726 61.2002C248.105 60.821 248.548 60.5253 249.056 60.3129C249.572 60.1006 250.13 59.9944 250.729 59.9944C251.229 59.9944 251.73 60.093 252.23 60.2902C252.731 60.4874 253.159 60.8135 253.516 61.2685L252.799 61.8031C252.716 61.6742 252.602 61.5453 252.458 61.4164C252.314 61.2874 252.147 61.1737 251.957 61.0751C251.775 60.9765 251.578 60.8969 251.366 60.8362C251.153 60.7755 250.941 60.7452 250.729 60.7452C250.213 60.7452 249.75 60.84 249.341 61.0296C248.931 61.2192 248.582 61.4732 248.294 61.7918C248.014 62.1103 247.798 62.4819 247.646 62.9066C247.494 63.3237 247.418 63.7635 247.418 64.2261C247.418 64.6887 247.494 65.1324 247.646 65.5571C247.798 65.9742 248.014 66.342 248.294 66.6605C248.582 66.979 248.931 67.2331 249.341 67.4226C249.75 67.6122 250.213 67.707 250.729 67.707C250.941 67.707 251.15 67.6881 251.354 67.6502C251.567 67.6122 251.771 67.5478 251.969 67.4568C252.173 67.3658 252.363 67.2444 252.537 67.0928C252.719 66.9335 252.886 66.7363 253.038 66.5012L253.709 66.979Z" fill="#034EA2"/>
<path d="M255.906 60.8817C255.906 61.041 255.849 61.1737 255.735 61.2799C255.621 61.3784 255.496 61.4277 255.36 61.4277C255.223 61.4277 255.098 61.3784 254.984 61.2799C254.871 61.1737 254.814 61.041 254.814 60.8817C254.814 60.7225 254.871 60.5935 254.984 60.4949C255.098 60.3888 255.223 60.3357 255.36 60.3357C255.496 60.3357 255.621 60.3888 255.735 60.4949C255.849 60.5935 255.906 60.7225 255.906 60.8817ZM255.735 68.2531H254.984V62.9293H255.735V68.2531Z" fill="#034EA2"/>
<path d="M260.299 63.6118H258.764V66.7515C258.764 66.9487 258.783 67.1117 258.821 67.2406C258.858 67.362 258.912 67.4568 258.98 67.525C259.048 67.5933 259.128 67.6426 259.219 67.6729C259.317 67.6957 259.423 67.707 259.537 67.707C259.666 67.707 259.799 67.6881 259.935 67.6502C260.072 67.6122 260.197 67.5629 260.311 67.5023L260.345 68.1962C260.064 68.3251 259.727 68.3896 259.332 68.3896C259.188 68.3896 259.037 68.3706 258.877 68.3327C258.726 68.2948 258.585 68.2227 258.456 68.1166C258.328 68.0104 258.221 67.8663 258.138 67.6843C258.055 67.5023 258.013 67.2634 258.013 66.9676V63.6118H256.887V62.9293H258.013V61.4277H258.764V62.9293H260.299V63.6118Z" fill="#034EA2"/>
<path d="M263.303 67.3316L264.93 62.9293H265.84L263.178 69.6409C263.018 70.0504 262.814 70.3765 262.563 70.6192C262.321 70.8618 261.968 70.9832 261.505 70.9832C261.392 70.9832 261.274 70.9794 261.153 70.9718C261.039 70.9642 260.925 70.9415 260.812 70.9036L260.891 70.1755C261.05 70.2589 261.24 70.3007 261.46 70.3007C261.725 70.3007 261.934 70.2172 262.086 70.0504C262.237 69.8835 262.37 69.6485 262.484 69.3451L262.871 68.3213L260.686 62.9293H261.631L263.303 67.3316Z" fill="#034EA2"/>
<path d="M92.7324 79.4011H94.052C94.416 79.4011 94.7231 79.3632 94.9734 79.2873C95.2312 79.2115 95.436 79.1129 95.5877 78.9916C95.7393 78.8626 95.8493 78.7147 95.9176 78.5479C95.9858 78.3735 96.0199 78.1877 96.0199 77.9905C96.0199 77.8009 95.9858 77.6227 95.9176 77.4559C95.8493 77.2814 95.7393 77.1298 95.5877 77.0008C95.436 76.8719 95.2312 76.7733 94.9734 76.7051C94.7231 76.6292 94.416 76.5913 94.052 76.5913H92.7324V79.4011ZM91.9134 75.8405H94.2567C95.0758 75.8405 95.7204 76.0187 96.1906 76.3752C96.6684 76.7316 96.9072 77.2701 96.9072 77.9905C96.9072 78.711 96.6684 79.2532 96.1906 79.6172C95.7204 79.9736 95.0758 80.1519 94.2567 80.1519H92.7324V83.8944H91.9134V75.8405Z" fill="#034EA2"/>
<path d="M99.0938 83.8944H98.343V75.2945H99.0938V83.8944Z" fill="#034EA2"/>
<path d="M103.931 81.2439C103.742 81.2439 103.503 81.2553 103.214 81.278C102.934 81.2932 102.661 81.3387 102.395 81.4145C102.138 81.4828 101.914 81.5928 101.724 81.7444C101.542 81.8961 101.451 82.1047 101.451 82.3701C101.451 82.5445 101.485 82.6962 101.554 82.8251C101.629 82.9464 101.728 83.0488 101.849 83.1322C101.971 83.2081 102.103 83.265 102.248 83.3029C102.399 83.3332 102.551 83.3484 102.703 83.3484C102.976 83.3484 103.211 83.3029 103.408 83.2119C103.613 83.1209 103.783 82.9995 103.92 82.8479C104.056 82.6886 104.155 82.5066 104.215 82.3018C104.284 82.0895 104.318 81.8658 104.318 81.6307V81.2439H103.931ZM104.318 80.6296V80.4931C104.318 79.5755 103.863 79.1167 102.953 79.1167C102.331 79.1167 101.789 79.3252 101.326 79.7423L100.871 79.2077C101.372 78.692 102.122 78.4342 103.123 78.4342C103.381 78.4342 103.628 78.4721 103.863 78.5479C104.106 78.6237 104.314 78.7413 104.488 78.9006C104.663 79.0522 104.803 79.2456 104.909 79.4807C105.016 79.7158 105.069 79.9964 105.069 80.3225V82.7C105.069 82.9047 105.076 83.1209 105.091 83.3484C105.114 83.5683 105.137 83.7503 105.16 83.8944H104.432C104.409 83.7655 104.39 83.6252 104.375 83.4735C104.367 83.3218 104.363 83.174 104.363 83.0299H104.341C104.121 83.3863 103.859 83.6441 103.556 83.8034C103.26 83.9551 102.896 84.0309 102.464 84.0309C102.229 84.0309 102.001 83.9968 101.781 83.9285C101.561 83.8679 101.364 83.7731 101.19 83.6441C101.023 83.5076 100.886 83.3446 100.78 83.155C100.681 82.9578 100.632 82.7303 100.632 82.4725C100.632 82.0402 100.742 81.7027 100.962 81.46C101.19 81.2098 101.47 81.024 101.804 80.9026C102.145 80.7813 102.505 80.7055 102.885 80.6751C103.271 80.6448 103.624 80.6296 103.942 80.6296H104.318Z" fill="#034EA2"/>
<path d="M110.456 79.1167L107.339 83.2119H110.569V83.8944H106.247V83.3484L109.364 79.2532H106.406V78.5707H110.456V79.1167Z" fill="#034EA2"/>
<path d="M114.673 81.2439C114.484 81.2439 114.245 81.2553 113.957 81.278C113.676 81.2932 113.403 81.3387 113.138 81.4145C112.88 81.4828 112.656 81.5928 112.467 81.7444C112.285 81.8961 112.194 82.1047 112.194 82.3701C112.194 82.5445 112.228 82.6962 112.296 82.8251C112.372 82.9464 112.47 83.0488 112.592 83.1322C112.713 83.2081 112.846 83.265 112.99 83.3029C113.142 83.3332 113.293 83.3484 113.445 83.3484C113.718 83.3484 113.953 83.3029 114.15 83.2119C114.355 83.1209 114.526 82.9995 114.662 82.8479C114.799 82.6886 114.897 82.5066 114.958 82.3018C115.026 82.0895 115.06 81.8658 115.06 81.6307V81.2439H114.673ZM115.06 80.6296V80.4931C115.06 79.5755 114.605 79.1167 113.695 79.1167C113.073 79.1167 112.531 79.3252 112.068 79.7423L111.613 79.2077C112.114 78.692 112.865 78.4342 113.866 78.4342C114.124 78.4342 114.37 78.4721 114.605 78.5479C114.848 78.6237 115.056 78.7413 115.231 78.9006C115.405 79.0522 115.546 79.2456 115.652 79.4807C115.758 79.7158 115.811 79.9964 115.811 80.3225V82.7C115.811 82.9047 115.819 83.1209 115.834 83.3484C115.856 83.5683 115.879 83.7503 115.902 83.8944H115.174C115.151 83.7655 115.132 83.6252 115.117 83.4735C115.109 83.3218 115.106 83.174 115.106 83.0299H115.083C114.863 83.3863 114.601 83.6441 114.298 83.8034C114.002 83.9551 113.638 84.0309 113.206 84.0309C112.971 84.0309 112.743 83.9968 112.523 83.9285C112.304 83.8679 112.106 83.7731 111.932 83.6441C111.765 83.5076 111.629 83.3446 111.522 83.155C111.424 82.9578 111.375 82.7303 111.375 82.4725C111.375 82.0402 111.484 81.7027 111.704 81.46C111.932 81.2098 112.213 81.024 112.546 80.9026C112.887 80.7813 113.248 80.7055 113.627 80.6751C114.014 80.6448 114.366 80.6296 114.685 80.6296H115.06Z" fill="#034EA2"/>
<path d="M127.617 82.6203C127.481 82.8251 127.31 83.0185 127.105 83.2005C126.908 83.3825 126.681 83.5418 126.423 83.6783C126.165 83.8072 125.884 83.9096 125.581 83.9854C125.285 84.0612 124.971 84.0992 124.637 84.0992C124.038 84.0992 123.48 83.993 122.965 83.7807C122.457 83.5683 122.013 83.2763 121.634 82.9047C121.262 82.5256 120.97 82.0781 120.758 81.5624C120.546 81.0467 120.439 80.4817 120.439 79.8675C120.439 79.2532 120.546 78.6882 120.758 78.1725C120.97 77.6568 121.262 77.2132 121.634 76.8416C122.013 76.4624 122.457 76.1666 122.965 75.9543C123.48 75.7419 124.038 75.6358 124.637 75.6358C125.137 75.6358 125.638 75.7344 126.139 75.9315C126.639 76.1287 127.068 76.4548 127.424 76.9098L126.707 77.4445C126.624 77.3156 126.51 77.1866 126.366 77.0577C126.222 76.9288 126.055 76.815 125.866 76.7164C125.684 76.6179 125.486 76.5382 125.274 76.4776C125.062 76.4169 124.849 76.3866 124.637 76.3866C124.121 76.3866 123.659 76.4814 123.249 76.6709C122.84 76.8605 122.491 77.1146 122.203 77.4331C121.922 77.7516 121.706 78.1232 121.554 78.5479C121.403 78.965 121.327 79.4049 121.327 79.8675C121.327 80.3301 121.403 80.7737 121.554 81.1984C121.706 81.6155 121.922 81.9833 122.203 82.3018C122.491 82.6203 122.84 82.8744 123.249 83.064C123.659 83.2536 124.121 83.3484 124.637 83.3484C124.849 83.3484 125.058 83.3294 125.263 83.2915C125.475 83.2536 125.68 83.1891 125.877 83.0981C126.082 83.0071 126.271 82.8858 126.446 82.7341C126.628 82.5748 126.795 82.3777 126.946 82.1426L127.617 82.6203Z" fill="#034EA2"/>
<path d="M133.284 81.2325C133.284 80.9368 133.234 80.66 133.136 80.4021C133.045 80.1443 132.912 79.9206 132.737 79.731C132.563 79.5414 132.351 79.3935 132.1 79.2873C131.858 79.1736 131.581 79.1167 131.27 79.1167C130.959 79.1167 130.679 79.1736 130.428 79.2873C130.186 79.3935 129.977 79.5414 129.803 79.731C129.636 79.9206 129.503 80.1443 129.404 80.4021C129.313 80.66 129.268 80.9368 129.268 81.2325C129.268 81.5283 129.313 81.8051 129.404 82.063C129.503 82.3208 129.636 82.5445 129.803 82.7341C129.977 82.9237 130.186 83.0754 130.428 83.1891C130.679 83.2953 130.959 83.3484 131.27 83.3484C131.581 83.3484 131.858 83.2953 132.1 83.1891C132.351 83.0754 132.563 82.9237 132.737 82.7341C132.912 82.5445 133.045 82.3208 133.136 82.063C133.234 81.8051 133.284 81.5283 133.284 81.2325ZM134.103 81.2325C134.103 81.6345 134.031 82.0061 133.886 82.3473C133.75 82.6886 133.557 82.9844 133.306 83.2346C133.056 83.4849 132.756 83.6821 132.408 83.8262C132.066 83.9627 131.687 84.0309 131.27 84.0309C130.861 84.0309 130.481 83.9627 130.132 83.8262C129.791 83.6821 129.495 83.4849 129.245 83.2346C128.995 82.9844 128.798 82.6886 128.654 82.3473C128.517 82.0061 128.449 81.6345 128.449 81.2325C128.449 80.8306 128.517 80.459 128.654 80.1177C128.798 79.7765 128.995 79.4807 129.245 79.2304C129.495 78.9802 129.791 78.7868 130.132 78.6503C130.481 78.5062 130.861 78.4342 131.27 78.4342C131.687 78.4342 132.066 78.5062 132.408 78.6503C132.756 78.7868 133.056 78.9802 133.306 79.2304C133.557 79.4807 133.75 79.7765 133.886 80.1177C134.031 80.459 134.103 80.8306 134.103 81.2325Z" fill="#034EA2"/>
<path d="M135.465 79.7537C135.465 79.5565 135.457 79.3594 135.442 79.1622C135.435 78.965 135.423 78.7678 135.408 78.5707H136.216V79.3783H136.239C136.421 79.0674 136.671 78.8323 136.989 78.673C137.315 78.5138 137.638 78.4342 137.956 78.4342C138.1 78.4342 138.252 78.4493 138.411 78.4797C138.578 78.51 138.737 78.5669 138.889 78.6503C139.041 78.7261 139.181 78.8361 139.31 78.9802C139.446 79.1243 139.56 79.3101 139.651 79.5376C139.803 79.1963 140.042 78.9271 140.368 78.7299C140.702 78.5327 141.047 78.4342 141.403 78.4342C142.086 78.4342 142.59 78.6162 142.916 78.9802C143.242 79.3366 143.405 79.8485 143.405 80.5159V83.8944H142.654V80.7889C142.654 80.2505 142.56 79.8371 142.37 79.549C142.18 79.2608 141.828 79.1167 141.312 79.1167C141.031 79.1167 140.796 79.1736 140.607 79.2873C140.417 79.3935 140.262 79.5376 140.14 79.7196C140.027 79.9016 139.943 80.1101 139.89 80.3452C139.837 80.5728 139.81 80.8116 139.81 81.0619V83.8944H139.06V80.7889C139.06 80.2505 138.965 79.8371 138.775 79.549C138.586 79.2608 138.233 79.1167 137.717 79.1167C137.672 79.1167 137.566 79.1319 137.399 79.1622C137.24 79.1925 137.073 79.2759 136.898 79.4124C136.724 79.549 136.565 79.7537 136.421 80.0267C136.284 80.2997 136.216 80.6789 136.216 81.1643V83.8944H135.465V79.7537Z" fill="#034EA2"/>
<path d="M150.009 81.2325C150.009 80.9368 149.96 80.66 149.861 80.4021C149.77 80.1443 149.638 79.9206 149.463 79.731C149.289 79.5414 149.077 79.3935 148.826 79.2873C148.584 79.1736 148.307 79.1167 147.996 79.1167C147.685 79.1167 147.401 79.1736 147.143 79.2873C146.885 79.3935 146.661 79.5414 146.472 79.731C146.282 79.9206 146.134 80.1443 146.028 80.4021C145.922 80.66 145.869 80.9368 145.869 81.2325C145.869 81.5283 145.922 81.8051 146.028 82.063C146.134 82.3208 146.282 82.5445 146.472 82.7341C146.661 82.9237 146.885 83.0754 147.143 83.1891C147.401 83.2953 147.685 83.3484 147.996 83.3484C148.307 83.3484 148.584 83.2953 148.826 83.1891C149.077 83.0754 149.289 82.9237 149.463 82.7341C149.638 82.5445 149.77 82.3208 149.861 82.063C149.96 81.8051 150.009 81.5283 150.009 81.2325ZM145.152 78.5707H145.903V79.458H145.926C146.047 79.2759 146.191 79.1205 146.358 78.9916C146.525 78.8626 146.699 78.7565 146.881 78.673C147.063 78.5896 147.249 78.5289 147.438 78.491C147.636 78.4531 147.821 78.4342 147.996 78.4342C148.413 78.4342 148.792 78.5062 149.133 78.6503C149.482 78.7868 149.782 78.9802 150.032 79.2304C150.282 79.4807 150.476 79.7765 150.612 80.1177C150.756 80.459 150.828 80.8306 150.828 81.2325C150.828 81.6345 150.756 82.0061 150.612 82.3473C150.476 82.6886 150.282 82.9844 150.032 83.2346C149.782 83.4849 149.482 83.6821 149.133 83.8262C148.792 83.9627 148.413 84.0309 147.996 84.0309C147.821 84.0309 147.636 84.012 147.438 83.974C147.249 83.9361 147.063 83.8755 146.881 83.792C146.699 83.7086 146.525 83.6024 146.358 83.4735C146.191 83.3446 146.047 83.1891 145.926 83.0071H145.903V87.1706H145.152V78.5707Z" fill="#034EA2"/>
<path d="M153.028 83.8944H152.277V75.2945H153.028V83.8944Z" fill="#034EA2"/>
<path d="M158.98 80.823C158.98 80.3149 158.828 79.9054 158.525 79.5945C158.221 79.2759 157.797 79.1167 157.251 79.1167C157.008 79.1167 156.773 79.166 156.545 79.2646C156.318 79.3556 156.117 79.4807 155.942 79.64C155.776 79.7992 155.639 79.9812 155.533 80.186C155.434 80.3907 155.385 80.6031 155.385 80.823H158.98ZM155.362 81.4373C155.385 81.7027 155.449 81.953 155.556 82.1881C155.662 82.4232 155.802 82.6279 155.977 82.8024C156.151 82.9692 156.352 83.1019 156.579 83.2005C156.807 83.2991 157.053 83.3484 157.319 83.3484C157.721 83.3484 158.066 83.2574 158.354 83.0754C158.65 82.8858 158.874 82.6696 159.025 82.427L159.605 82.9047C159.287 83.3067 158.934 83.5948 158.547 83.7693C158.168 83.9437 157.759 84.0309 157.319 84.0309C156.924 84.0309 156.557 83.9627 156.215 83.8262C155.882 83.6821 155.594 83.4849 155.351 83.2346C155.108 82.9844 154.915 82.6886 154.771 82.3473C154.634 82.0061 154.566 81.6345 154.566 81.2325C154.566 80.8306 154.634 80.459 154.771 80.1177C154.907 79.7765 155.097 79.4807 155.34 79.2304C155.582 78.9802 155.867 78.7868 156.193 78.6503C156.519 78.5062 156.871 78.4342 157.251 78.4342C157.653 78.4342 158.013 78.5062 158.331 78.6503C158.65 78.7944 158.915 78.9878 159.128 79.2304C159.347 79.4655 159.514 79.7461 159.628 80.0722C159.742 80.3907 159.799 80.732 159.799 81.096V81.4373H155.362Z" fill="#034EA2"/>
<path d="M162.536 81.0505L160.603 78.5707H161.626L163.105 80.5614L164.516 78.5707H165.449L163.594 81.0505L165.824 83.8944H164.8L163.014 81.5624L161.296 83.8944H160.341L162.536 81.0505Z" fill="#034EA2"/>
<path d="M168.024 83.3484C168.024 83.5076 167.967 83.6517 167.854 83.7807C167.74 83.902 167.592 83.9627 167.41 83.9627C167.228 83.9627 167.08 83.902 166.966 83.7807C166.853 83.6517 166.796 83.5076 166.796 83.3484C166.796 83.1891 166.853 83.0488 166.966 82.9275C167.08 82.7986 167.228 82.7341 167.41 82.7341C167.592 82.7341 167.74 82.7986 167.854 82.9275C167.967 83.0488 168.024 83.1891 168.024 83.3484Z" fill="#034EA2"/>
<path d="M174.311 81.0278H177.803L176.063 76.7961L174.311 81.0278ZM173.116 83.8944H172.161L175.664 75.8405H176.461L179.964 83.8944H179.009L178.122 81.7786H174.004L173.116 83.8944Z" fill="#034EA2"/>
<path d="M185.636 81.2325C185.636 80.9368 185.586 80.66 185.488 80.4021C185.397 80.1443 185.264 79.9206 185.09 79.731C184.915 79.5414 184.703 79.3935 184.453 79.2873C184.21 79.1736 183.933 79.1167 183.622 79.1167C183.311 79.1167 183.027 79.1736 182.769 79.2873C182.511 79.3935 182.287 79.5414 182.098 79.731C181.908 79.9206 181.76 80.1443 181.654 80.4021C181.548 80.66 181.495 80.9368 181.495 81.2325C181.495 81.5283 181.548 81.8051 181.654 82.063C181.76 82.3208 181.908 82.5445 182.098 82.7341C182.287 82.9237 182.511 83.0754 182.769 83.1891C183.027 83.2953 183.311 83.3484 183.622 83.3484C183.933 83.3484 184.21 83.2953 184.453 83.1891C184.703 83.0754 184.915 82.9237 185.09 82.7341C185.264 82.5445 185.397 82.3208 185.488 82.063C185.586 81.8051 185.636 81.5283 185.636 81.2325ZM180.778 75.2945H181.529V79.458H181.552C181.673 79.2759 181.817 79.1205 181.984 78.9916C182.151 78.8626 182.325 78.7565 182.507 78.673C182.689 78.5896 182.875 78.5289 183.065 78.491C183.262 78.4531 183.448 78.4342 183.622 78.4342C184.039 78.4342 184.418 78.5062 184.76 78.6503C185.109 78.7868 185.408 78.9802 185.658 79.2304C185.909 79.4807 186.102 79.7765 186.239 80.1177C186.383 80.459 186.455 80.8306 186.455 81.2325C186.455 81.6345 186.383 82.0061 186.239 82.3473C186.102 82.6886 185.909 82.9844 185.658 83.2346C185.408 83.4849 185.109 83.6821 184.76 83.8262C184.418 83.9627 184.039 84.0309 183.622 84.0309C183.448 84.0309 183.262 84.012 183.065 83.974C182.875 83.9361 182.689 83.8755 182.507 83.792C182.325 83.7086 182.151 83.6024 181.984 83.4735C181.817 83.3446 181.673 83.1891 181.552 83.0071H181.529V83.8944H180.778V75.2945Z" fill="#034EA2"/>
<path d="M191.577 83.8944C191.562 83.7503 191.551 83.61 191.543 83.4735C191.543 83.3294 191.543 83.1853 191.543 83.0412H191.521C191.437 83.1853 191.331 83.318 191.202 83.4394C191.073 83.5607 190.929 83.6669 190.77 83.7579C190.61 83.8413 190.44 83.9058 190.258 83.9513C190.083 84.0044 189.909 84.0309 189.735 84.0309C189.052 84.0309 188.548 83.8527 188.222 83.4963C187.896 83.1322 187.732 82.6166 187.732 81.9492V78.5707H188.483V81.5169C188.483 81.8127 188.506 82.0743 188.552 82.3018C188.597 82.5293 188.673 82.7227 188.779 82.882C188.893 83.0337 189.041 83.1512 189.223 83.2346C189.412 83.3105 189.647 83.3484 189.928 83.3484C189.966 83.3484 190.072 83.3332 190.246 83.3029C190.421 83.2725 190.603 83.1891 190.792 83.0526C190.99 82.9161 191.164 82.7114 191.316 82.4383C191.467 82.1653 191.543 81.7861 191.543 81.3008V78.5707H192.294V82.7227C192.294 82.8668 192.298 83.0488 192.305 83.2688C192.321 83.4887 192.336 83.6972 192.351 83.8944H191.577Z" fill="#034EA2"/>
<path d="M195.145 76.5231C195.145 76.6823 195.089 76.815 194.975 76.9212C194.861 77.0198 194.736 77.0691 194.599 77.0691C194.463 77.0691 194.338 77.0198 194.224 76.9212C194.11 76.815 194.053 76.6823 194.053 76.5231C194.053 76.3638 194.11 76.2349 194.224 76.1363C194.338 76.0301 194.463 75.977 194.599 75.977C194.736 75.977 194.861 76.0301 194.975 76.1363C195.089 76.2349 195.145 76.3638 195.145 76.5231ZM192.984 85.8624L193.018 85.8738C193.079 85.8889 193.147 85.9041 193.223 85.9193C193.291 85.9344 193.356 85.942 193.416 85.942C193.598 85.942 193.743 85.9079 193.849 85.8396C193.962 85.7714 194.046 85.6804 194.099 85.5666C194.152 85.4604 194.186 85.3429 194.201 85.214C194.216 85.085 194.224 84.9561 194.224 84.8272V78.5707H194.975V84.9523C194.975 85.0282 194.971 85.1571 194.963 85.3391C194.956 85.5287 194.907 85.7183 194.816 85.9079C194.732 86.0975 194.584 86.2643 194.372 86.4084C194.167 86.5525 193.868 86.6245 193.473 86.6245C193.261 86.6245 193.064 86.5866 192.882 86.5108L192.984 85.8624Z" fill="#034EA2"/>
<path d="M199.812 81.2439C199.623 81.2439 199.384 81.2553 199.095 81.278C198.815 81.2932 198.542 81.3387 198.276 81.4145C198.019 81.4828 197.795 81.5928 197.605 81.7444C197.423 81.8961 197.332 82.1047 197.332 82.3701C197.332 82.5445 197.366 82.6962 197.435 82.8251C197.51 82.9464 197.609 83.0488 197.73 83.1322C197.852 83.2081 197.984 83.265 198.129 83.3029C198.28 83.3332 198.432 83.3484 198.584 83.3484C198.857 83.3484 199.092 83.3029 199.289 83.2119C199.494 83.1209 199.664 82.9995 199.801 82.8479C199.937 82.6886 200.036 82.5066 200.097 82.3018C200.165 82.0895 200.199 81.8658 200.199 81.6307V81.2439H199.812ZM200.199 80.6296V80.4931C200.199 79.5755 199.744 79.1167 198.834 79.1167C198.212 79.1167 197.67 79.3252 197.207 79.7423L196.752 79.2077C197.253 78.692 198.003 78.4342 199.004 78.4342C199.262 78.4342 199.509 78.4721 199.744 78.5479C199.987 78.6237 200.195 78.7413 200.37 78.9006C200.544 79.0522 200.684 79.2456 200.79 79.4807C200.897 79.7158 200.95 79.9964 200.95 80.3225V82.7C200.95 82.9047 200.957 83.1209 200.972 83.3484C200.995 83.5683 201.018 83.7503 201.041 83.8944H200.313C200.29 83.7655 200.271 83.6252 200.256 83.4735C200.248 83.3218 200.244 83.174 200.244 83.0299H200.222C200.002 83.3863 199.74 83.6441 199.437 83.8034C199.141 83.9551 198.777 84.0309 198.345 84.0309C198.11 84.0309 197.882 83.9968 197.662 83.9285C197.442 83.8679 197.245 83.7731 197.071 83.6441C196.904 83.5076 196.767 83.3446 196.661 83.155C196.563 82.9578 196.513 82.7303 196.513 82.4725C196.513 82.0402 196.623 81.7027 196.843 81.46C197.071 81.2098 197.351 81.024 197.685 80.9026C198.026 80.7813 198.386 80.7055 198.766 80.6751C199.152 80.6448 199.505 80.6296 199.824 80.6296H200.199Z" fill="#034EA2"/>
<path d="M203.368 85.487H202.605L203.368 82.8137H204.289L203.368 85.487Z" fill="#034EA2"/>
<path d="M215.114 82.6659H215.137V75.8405H215.956V83.8944H214.932L210.132 77.0008H210.109V83.8944H209.29V75.8405H210.314L215.114 82.6659Z" fill="#034EA2"/>
<path d="M218.963 76.5231C218.963 76.6823 218.906 76.815 218.792 76.9212C218.679 77.0198 218.553 77.0691 218.417 77.0691C218.28 77.0691 218.155 77.0198 218.042 76.9212C217.928 76.815 217.871 76.6823 217.871 76.5231C217.871 76.3638 217.928 76.2349 218.042 76.1363C218.155 76.0301 218.28 75.977 218.417 75.977C218.553 75.977 218.679 76.0301 218.792 76.1363C218.906 76.2349 218.963 76.3638 218.963 76.5231ZM218.792 83.8944H218.042V78.5707H218.792V83.8944Z" fill="#034EA2"/>
<path d="M221.15 81.1643C221.15 81.4449 221.199 81.7103 221.298 81.9606C221.404 82.2032 221.544 82.4194 221.719 82.609C221.901 82.791 222.109 82.9389 222.344 83.0526C222.587 83.1588 222.849 83.2119 223.129 83.2119C223.402 83.2119 223.66 83.1626 223.903 83.064C224.153 82.9654 224.373 82.8289 224.562 82.6545C224.752 82.4725 224.896 82.2563 224.995 82.0061C225.101 81.7558 225.15 81.4752 225.143 81.1643C225.143 80.8837 225.097 80.622 225.006 80.3794C224.915 80.1291 224.782 79.913 224.608 79.731C224.434 79.5414 224.221 79.3935 223.971 79.2873C223.721 79.1736 223.44 79.1167 223.129 79.1167C222.849 79.1167 222.587 79.1736 222.344 79.2873C222.109 79.3935 221.901 79.5414 221.719 79.731C221.544 79.913 221.404 80.1291 221.298 80.3794C221.199 80.622 221.15 80.8837 221.15 81.1643ZM221.013 84.9637C221.233 85.2595 221.518 85.4946 221.866 85.669C222.223 85.851 222.617 85.942 223.049 85.942C223.429 85.942 223.751 85.8851 224.016 85.7714C224.282 85.6652 224.494 85.5173 224.653 85.3277C224.82 85.1381 224.938 84.9144 225.006 84.6566C225.082 84.4063 225.12 84.1371 225.12 83.8489V82.8934H225.097C224.854 83.2574 224.559 83.5152 224.21 83.6669C223.861 83.8186 223.493 83.8944 223.106 83.8944C222.72 83.8944 222.356 83.8262 222.014 83.6896C221.681 83.5531 221.389 83.3673 221.138 83.1322C220.888 82.8896 220.691 82.6014 220.547 82.2677C220.403 81.934 220.331 81.5738 220.331 81.187C220.331 80.8003 220.399 80.44 220.535 80.1064C220.672 79.7727 220.858 79.4807 221.093 79.2304C221.336 78.9802 221.62 78.7868 221.946 78.6503C222.28 78.5062 222.644 78.4342 223.038 78.4342C223.197 78.4342 223.364 78.4493 223.539 78.4797C223.721 78.51 223.899 78.5631 224.073 78.6389C224.255 78.7148 224.434 78.8209 224.608 78.9574C224.782 79.0863 224.945 79.2532 225.097 79.458H225.12V78.5707H225.871V83.8489C225.871 84.1371 225.833 84.4442 225.757 84.7703C225.689 85.0964 225.548 85.396 225.336 85.669C225.131 85.942 224.843 86.1695 224.471 86.3515C224.1 86.5335 223.614 86.6245 223.015 86.6245C222.484 86.6245 222.011 86.5373 221.593 86.3629C221.176 86.1885 220.797 85.9193 220.456 85.5552L221.013 84.9637Z" fill="#034EA2"/>
<path d="M231.699 80.823C231.699 80.3149 231.547 79.9054 231.244 79.5945C230.94 79.2759 230.516 79.1167 229.97 79.1167C229.727 79.1167 229.492 79.166 229.264 79.2646C229.037 79.3556 228.836 79.4807 228.661 79.64C228.495 79.7992 228.358 79.9812 228.252 80.186C228.153 80.3907 228.104 80.6031 228.104 80.823H231.699ZM228.081 81.4373C228.104 81.7027 228.168 81.953 228.275 82.1881C228.381 82.4232 228.521 82.6279 228.695 82.8024C228.87 82.9692 229.071 83.1019 229.298 83.2005C229.526 83.2991 229.772 83.3484 230.038 83.3484C230.44 83.3484 230.785 83.2574 231.073 83.0754C231.369 82.8858 231.592 82.6696 231.744 82.427L232.324 82.9047C232.006 83.3067 231.653 83.5948 231.266 83.7693C230.887 83.9437 230.478 84.0309 230.038 84.0309C229.643 84.0309 229.276 83.9627 228.934 83.8262C228.601 83.6821 228.312 83.4849 228.07 83.2346C227.827 82.9844 227.634 82.6886 227.49 82.3473C227.353 82.0061 227.285 81.6345 227.285 81.2325C227.285 80.8306 227.353 80.459 227.49 80.1177C227.626 79.7765 227.816 79.4807 228.058 79.2304C228.301 78.9802 228.586 78.7868 228.912 78.6503C229.238 78.5062 229.59 78.4342 229.97 78.4342C230.371 78.4342 230.732 78.5062 231.05 78.6503C231.369 78.7944 231.634 78.9878 231.846 79.2304C232.066 79.4655 232.233 79.7461 232.347 80.0722C232.461 80.3907 232.518 80.732 232.518 81.096V81.4373H228.081Z" fill="#034EA2"/>
<path d="M233.959 80.2315C233.959 79.9964 233.951 79.7575 233.936 79.5148C233.928 79.2722 233.921 78.9574 233.913 78.5707H234.652V79.5603H234.675C234.728 79.4162 234.804 79.2797 234.903 79.1508C235.001 79.0143 235.119 78.893 235.255 78.7868C235.399 78.6806 235.562 78.5972 235.744 78.5365C235.934 78.4683 236.146 78.4342 236.382 78.4342C236.594 78.4342 236.78 78.4569 236.939 78.5024L236.791 79.2418C236.692 79.2039 236.548 79.1849 236.359 79.1849C236.071 79.1849 235.824 79.2418 235.619 79.3556C235.415 79.4617 235.244 79.602 235.107 79.7765C234.971 79.9433 234.869 80.1253 234.8 80.3225C234.74 80.5197 234.709 80.7093 234.709 80.8913V83.8944H233.959V80.2315Z" fill="#034EA2"/>
<path d="M238.748 76.5231C238.748 76.6823 238.691 76.815 238.577 76.9212C238.464 77.0198 238.338 77.0691 238.202 77.0691C238.065 77.0691 237.94 77.0198 237.827 76.9212C237.713 76.815 237.656 76.6823 237.656 76.5231C237.656 76.3638 237.713 76.2349 237.827 76.1363C237.94 76.0301 238.065 75.977 238.202 75.977C238.338 75.977 238.464 76.0301 238.577 76.1363C238.691 76.2349 238.748 76.3638 238.748 76.5231ZM238.577 83.8944H237.827V78.5707H238.577V83.8944Z" fill="#034EA2"/>
<path d="M243.415 81.2439C243.225 81.2439 242.986 81.2553 242.698 81.278C242.417 81.2932 242.144 81.3387 241.879 81.4145C241.621 81.4828 241.397 81.5928 241.208 81.7444C241.026 81.8961 240.935 82.1047 240.935 82.3701C240.935 82.5445 240.969 82.6962 241.037 82.8251C241.113 82.9464 241.212 83.0488 241.333 83.1322C241.454 83.2081 241.587 83.265 241.731 83.3029C241.883 83.3332 242.034 83.3484 242.186 83.3484C242.459 83.3484 242.694 83.3029 242.891 83.2119C243.096 83.1209 243.267 82.9995 243.403 82.8479C243.54 82.6886 243.638 82.5066 243.699 82.3018C243.767 82.0895 243.801 81.8658 243.801 81.6307V81.2439H243.415ZM243.801 80.6296V80.4931C243.801 79.5755 243.346 79.1167 242.436 79.1167C241.814 79.1167 241.272 79.3252 240.81 79.7423L240.355 79.2077C240.855 78.692 241.606 78.4342 242.607 78.4342C242.865 78.4342 243.111 78.4721 243.346 78.5479C243.589 78.6237 243.798 78.7413 243.972 78.9006C244.146 79.0522 244.287 79.2456 244.393 79.4807C244.499 79.7158 244.552 79.9964 244.552 80.3225V82.7C244.552 82.9047 244.56 83.1209 244.575 83.3484C244.598 83.5683 244.62 83.7503 244.643 83.8944H243.915C243.892 83.7655 243.873 83.6252 243.858 83.4735C243.851 83.3218 243.847 83.174 243.847 83.0299H243.824C243.604 83.3863 243.343 83.6441 243.039 83.8034C242.743 83.9551 242.379 84.0309 241.947 84.0309C241.712 84.0309 241.485 83.9968 241.265 83.9285C241.045 83.8679 240.848 83.7731 240.673 83.6441C240.506 83.5076 240.37 83.3446 240.264 83.155C240.165 82.9578 240.116 82.7303 240.116 82.4725C240.116 82.0402 240.226 81.7027 240.446 81.46C240.673 81.2098 240.954 81.024 241.287 80.9026C241.629 80.7813 241.989 80.7055 242.368 80.6751C242.755 80.6448 243.107 80.6296 243.426 80.6296H243.801Z" fill="#034EA2"/>
<path d="M55.0349 37.4368C54.8074 37.1069 54.5003 36.868 54.1135 36.7201C53.7381 36.5608 53.34 36.4812 52.9191 36.4812C52.6688 36.4812 52.4242 36.5096 52.1854 36.5665C51.9578 36.6234 51.7474 36.7144 51.554 36.8395C51.372 36.9647 51.2241 37.1296 51.1104 37.3344C50.9966 37.5278 50.9397 37.761 50.9397 38.034C50.9397 38.4435 51.0819 38.7563 51.3663 38.9724C51.6507 39.1886 52.0033 39.3763 52.4242 39.5355C52.8451 39.6948 53.3058 39.8484 53.8064 39.9962C54.3069 40.1441 54.7676 40.3489 55.1885 40.6105C55.6094 40.8722 55.962 41.2191 56.2464 41.6514C56.5308 42.0837 56.673 42.6581 56.673 43.3748C56.673 44.0232 56.5536 44.592 56.3147 45.0811C56.0758 45.5589 55.7516 45.957 55.3421 46.2755C54.9439 46.5941 54.4775 46.8329 53.9429 46.9922C53.4082 47.1515 52.8451 47.2311 52.2536 47.2311C51.5028 47.2311 50.7805 47.106 50.0866 46.8557C49.3927 46.6054 48.7954 46.1845 48.2949 45.593L49.9159 44.0232C50.1776 44.4213 50.5188 44.7342 50.9397 44.9617C51.372 45.1778 51.827 45.2859 52.3048 45.2859C52.5551 45.2859 52.8053 45.2517 53.0556 45.1835C53.3058 45.1152 53.5334 45.0129 53.7381 44.8763C53.9429 44.7398 54.1078 44.5692 54.2329 44.3644C54.3581 44.1483 54.4206 43.9037 54.4206 43.6307C54.4206 43.1871 54.2784 42.8458 53.9941 42.6069C53.7097 42.368 53.357 42.169 52.9361 42.0097C52.5152 41.8391 52.0545 41.6798 51.554 41.5319C51.0535 41.3841 50.5928 41.185 50.1719 40.9347C49.751 40.6731 49.3983 40.3318 49.114 39.9109C48.8296 39.4787 48.6874 38.9042 48.6874 38.1875C48.6874 37.5619 48.8125 37.0215 49.0628 36.5665C49.3244 36.1115 49.66 35.7361 50.0695 35.4403C50.4904 35.1332 50.9682 34.9057 51.5028 34.7578C52.0375 34.6099 52.5835 34.536 53.1409 34.536C53.7779 34.536 54.3922 34.6327 54.9837 34.8261C55.5866 35.0195 56.127 35.338 56.6047 35.7816L55.0349 37.4368Z" fill="#034EA2"/>
<path d="M63.8433 45.7978H63.7921C63.4964 46.2642 63.121 46.6054 62.6659 46.8216C62.2109 47.0263 61.7104 47.1287 61.1644 47.1287C60.789 47.1287 60.4193 47.0775 60.0553 46.9751C59.7026 46.8728 59.3841 46.7192 59.0997 46.5144C58.8267 46.3097 58.6049 46.0537 58.4342 45.7466C58.2636 45.4394 58.1783 45.0811 58.1783 44.6716C58.1783 44.2279 58.2579 43.8526 58.4172 43.5454C58.5764 43.2269 58.7869 42.9653 59.0485 42.7605C59.3215 42.5444 59.6344 42.3737 59.987 42.2486C60.3397 42.1235 60.7037 42.0325 61.0791 41.9756C61.4658 41.9073 61.8526 41.8675 62.2394 41.8561C62.6261 41.8334 62.9901 41.822 63.3314 41.822H63.8433V41.6002C63.8433 41.0883 63.667 40.7072 63.3144 40.457C62.9617 40.1953 62.5124 40.0645 61.9664 40.0645C61.5341 40.0645 61.1302 40.1441 60.7549 40.3034C60.3795 40.4513 60.0553 40.656 59.7822 40.9177L58.7073 39.8427C59.1623 39.3763 59.6912 39.0407 60.2941 38.8359C60.9084 38.6312 61.5398 38.5288 62.1882 38.5288C62.7683 38.5288 63.2575 38.5971 63.6556 38.7336C64.0538 38.8587 64.3836 39.0236 64.6453 39.2284C64.9069 39.4332 65.106 39.672 65.2425 39.9451C65.3904 40.2067 65.4928 40.474 65.5496 40.747C65.6179 41.02 65.6577 41.2874 65.6691 41.549C65.6805 41.7993 65.6861 42.0211 65.6861 42.2145V46.9239H63.8433V45.7978ZM63.7239 43.2553H63.2973C63.0129 43.2553 62.6944 43.2667 62.3417 43.2895C61.9891 43.3122 61.6535 43.3691 61.335 43.4601C61.0279 43.5397 60.7662 43.6649 60.5501 43.8355C60.334 43.9947 60.2259 44.2223 60.2259 44.518C60.2259 44.7114 60.2657 44.8763 60.3453 45.0129C60.4363 45.138 60.5501 45.2461 60.6866 45.3371C60.8231 45.4281 60.9767 45.4963 61.1473 45.5418C61.3179 45.5759 61.4886 45.593 61.6592 45.593C62.3645 45.593 62.8821 45.4281 63.212 45.0982C63.5532 44.7569 63.7239 44.2962 63.7239 43.716V43.2553Z" fill="#034EA2"/>
<path d="M68.6229 40.474H66.9336V38.7336H68.6229V37.5733C68.6229 37.0045 68.6627 36.4926 68.7423 36.0376C68.822 35.5712 68.9699 35.173 69.186 34.8431C69.4135 34.5132 69.7263 34.263 70.1245 34.0923C70.5226 33.9103 71.0402 33.8193 71.6772 33.8193C72.1436 33.8193 72.5759 33.8592 72.974 33.9388L72.8375 35.6792C72.6897 35.6451 72.5475 35.6167 72.411 35.5939C72.2744 35.5712 72.1322 35.5598 71.9844 35.5598C71.7 35.5598 71.4725 35.6053 71.3018 35.6963C71.1312 35.7873 70.9947 35.9124 70.8923 36.0717C70.8013 36.2196 70.7387 36.3959 70.7046 36.6007C70.6819 36.8054 70.6705 37.0215 70.6705 37.2491V38.7336H72.5645V40.474H70.6705V46.9239H68.6229V40.474Z" fill="#034EA2"/>
<path d="M75.5261 43.5454C75.5943 44.1597 75.8332 44.6375 76.2427 44.9787C76.6522 45.32 77.1471 45.4906 77.7272 45.4906C78.2391 45.4906 78.6657 45.3882 79.007 45.1835C79.3596 44.9674 79.6668 44.7 79.9284 44.3815L81.3958 45.4906C80.9181 46.0822 80.3834 46.503 79.7919 46.7533C79.2004 47.0036 78.5804 47.1287 77.932 47.1287C77.3177 47.1287 76.7376 47.0263 76.1915 46.8216C75.6455 46.6168 75.1734 46.3267 74.7753 45.9513C74.3771 45.5759 74.0586 45.1266 73.8197 44.6033C73.5922 44.0687 73.4785 43.4772 73.4785 42.8288C73.4785 42.1803 73.5922 41.5945 73.8197 41.0712C74.0586 40.5366 74.3771 40.0816 74.7753 39.7062C75.1734 39.3308 75.6455 39.0407 76.1915 38.8359C76.7376 38.6312 77.3177 38.5288 77.932 38.5288C78.5008 38.5288 79.0184 38.6312 79.4848 38.8359C79.9625 39.0293 80.3664 39.3137 80.6962 39.6891C81.0375 40.0645 81.2991 40.5309 81.4812 41.0883C81.6745 41.6343 81.7712 42.2657 81.7712 42.9823V43.5454H75.5261ZM79.7236 42.0097C79.7123 41.4068 79.5246 40.9347 79.1605 40.5935C78.7965 40.2408 78.2903 40.0645 77.6419 40.0645C77.0276 40.0645 76.5385 40.2408 76.1745 40.5935C75.8218 40.9461 75.6057 41.4182 75.5261 42.0097H79.7236Z" fill="#034EA2"/>
<path d="M88.9228 34.8431H91.0727V39.655H96.7207V34.8431H98.8707V46.9239H96.7207V41.6002H91.0727V46.9239H88.9228V34.8431Z" fill="#034EA2"/>
<path d="M106.502 45.7978H106.45C106.155 46.2642 105.779 46.6054 105.324 46.8216C104.869 47.0263 104.369 47.1287 103.823 47.1287C103.447 47.1287 103.078 47.0775 102.713 46.9751C102.361 46.8728 102.042 46.7192 101.758 46.5144C101.485 46.3097 101.263 46.0537 101.092 45.7466C100.922 45.4394 100.837 45.0811 100.837 44.6716C100.837 44.2279 100.916 43.8526 101.075 43.5454C101.235 43.2269 101.445 42.9653 101.707 42.7605C101.98 42.5444 102.293 42.3737 102.645 42.2486C102.998 42.1235 103.362 42.0325 103.737 41.9756C104.124 41.9073 104.511 41.8675 104.898 41.8561C105.284 41.8334 105.648 41.822 105.99 41.822H106.502V41.6002C106.502 41.0883 106.325 40.7072 105.973 40.457C105.62 40.1953 105.171 40.0645 104.625 40.0645C104.192 40.0645 103.788 40.1441 103.413 40.3034C103.038 40.4513 102.713 40.656 102.44 40.9177L101.365 39.8427C101.821 39.3763 102.349 39.0407 102.952 38.8359C103.567 38.6312 104.198 38.5288 104.846 38.5288C105.427 38.5288 105.916 38.5971 106.314 38.7336C106.712 38.8587 107.042 39.0236 107.304 39.2284C107.565 39.4332 107.764 39.672 107.901 39.9451C108.049 40.2067 108.151 40.474 108.208 40.747C108.276 41.02 108.316 41.2874 108.327 41.549C108.339 41.7993 108.344 42.0211 108.344 42.2145V46.9239H106.502V45.7978ZM106.382 43.2553H105.956C105.671 43.2553 105.353 43.2667 105 43.2895C104.647 43.3122 104.312 43.3691 103.993 43.4601C103.686 43.5397 103.424 43.6649 103.208 43.8355C102.992 43.9947 102.884 44.2223 102.884 44.518C102.884 44.7114 102.924 44.8763 103.004 45.0129C103.095 45.138 103.208 45.2461 103.345 45.3371C103.481 45.4281 103.635 45.4963 103.806 45.5418C103.976 45.5759 104.147 45.593 104.317 45.593C105.023 45.593 105.54 45.4281 105.87 45.0982C106.211 44.7569 106.382 44.2962 106.382 43.716V43.2553Z" fill="#034EA2"/>
<path d="M109.438 38.7336H111.674L113.858 44.4668H113.892L116.093 38.7336H118.192L114.967 46.9239H112.783L109.438 38.7336Z" fill="#034EA2"/>
<path d="M121.034 43.5454C121.102 44.1597 121.341 44.6375 121.75 44.9787C122.16 45.32 122.655 45.4906 123.235 45.4906C123.747 45.4906 124.173 45.3882 124.515 45.1835C124.867 44.9674 125.174 44.7 125.436 44.3815L126.904 45.4906C126.426 46.0822 125.891 46.503 125.3 46.7533C124.708 47.0036 124.088 47.1287 123.44 47.1287C122.825 47.1287 122.245 47.0263 121.699 46.8216C121.153 46.6168 120.681 46.3267 120.283 45.9513C119.885 45.5759 119.566 45.1266 119.327 44.6033C119.1 44.0687 118.986 43.4772 118.986 42.8288C118.986 42.1803 119.1 41.5945 119.327 41.0712C119.566 40.5366 119.885 40.0816 120.283 39.7062C120.681 39.3308 121.153 39.0407 121.699 38.8359C122.245 38.6312 122.825 38.5288 123.44 38.5288C124.008 38.5288 124.526 38.6312 124.992 38.8359C125.47 39.0293 125.874 39.3137 126.204 39.6891C126.545 40.0645 126.807 40.5309 126.989 41.0883C127.182 41.6343 127.279 42.2657 127.279 42.9823V43.5454H121.034ZM125.231 42.0097C125.22 41.4068 125.032 40.9347 124.668 40.5935C124.304 40.2408 123.798 40.0645 123.15 40.0645C122.535 40.0645 122.046 40.2408 121.682 40.5935C121.329 40.9461 121.113 41.4182 121.034 42.0097H125.231Z" fill="#034EA2"/>
<path d="M129.194 38.7336H131.139V40.0474H131.173C131.366 39.6379 131.662 39.2853 132.06 38.9895C132.458 38.6824 132.999 38.5288 133.681 38.5288C134.227 38.5288 134.688 38.6198 135.063 38.8018C135.45 38.9838 135.763 39.2227 136.002 39.5185C136.241 39.8142 136.411 40.1555 136.514 40.5423C136.616 40.929 136.667 41.3329 136.667 41.7538V46.9239H134.62V42.7776C134.62 42.5501 134.608 42.2998 134.586 42.0268C134.563 41.7424 134.5 41.4808 134.398 41.2419C134.307 40.9916 134.159 40.7868 133.954 40.6276C133.75 40.457 133.471 40.3716 133.118 40.3716C132.777 40.3716 132.487 40.4285 132.248 40.5423C132.021 40.656 131.827 40.8096 131.668 41.003C131.52 41.1964 131.412 41.4182 131.344 41.6684C131.275 41.9187 131.241 42.1803 131.241 42.4534V46.9239H129.194V38.7336Z" fill="#034EA2"/>
<path d="M144.28 34.8431H147.556L150.781 43.3065L154.04 34.8431H157.282V46.9239H155.234V36.8907H155.2L151.532 46.9239H150.03L146.361 36.8907H146.327V46.9239H144.28V34.8431Z" fill="#034EA2"/>
<path d="M159.872 38.7336H161.919V46.9239H159.872V38.7336ZM159.582 35.9522C159.582 35.6224 159.701 35.338 159.94 35.0991C160.19 34.8488 160.503 34.7237 160.879 34.7237C161.254 34.7237 161.567 34.8431 161.817 35.082C162.079 35.3095 162.209 35.5996 162.209 35.9522C162.209 36.3049 162.079 36.6007 161.817 36.8395C161.567 37.067 161.254 37.1808 160.879 37.1808C160.503 37.1808 160.19 37.0614 159.94 36.8225C159.701 36.5722 159.582 36.2821 159.582 35.9522Z" fill="#034EA2"/>
<path d="M169.867 41.1907C169.628 40.9404 169.378 40.7413 169.116 40.5935C168.854 40.4456 168.587 40.3716 168.314 40.3716C167.939 40.3716 167.603 40.4399 167.307 40.5764C167.012 40.7129 166.756 40.8949 166.54 41.1224C166.335 41.3499 166.176 41.6116 166.062 41.9073C165.959 42.2031 165.908 42.5102 165.908 42.8288C165.908 43.1473 165.959 43.4544 166.062 43.7502C166.176 44.0459 166.335 44.3076 166.54 44.5351C166.756 44.7626 167.012 44.9446 167.307 45.0811C167.603 45.2176 167.939 45.2859 168.314 45.2859C168.633 45.2859 168.928 45.2233 169.201 45.0982C169.474 44.9617 169.708 44.7683 169.901 44.518L171.266 45.9855C171.061 46.1902 170.822 46.3665 170.549 46.5144C170.288 46.6623 170.02 46.7817 169.747 46.8728C169.474 46.9638 169.213 47.0263 168.963 47.0605C168.712 47.106 168.496 47.1287 168.314 47.1287C167.7 47.1287 167.12 47.0263 166.574 46.8216C166.028 46.6168 165.556 46.3267 165.157 45.9513C164.759 45.5759 164.441 45.1266 164.202 44.6033C163.974 44.0687 163.861 43.4772 163.861 42.8288C163.861 42.1803 163.974 41.5945 164.202 41.0712C164.441 40.5366 164.759 40.0816 165.157 39.7062C165.556 39.3308 166.028 39.0407 166.574 38.8359C167.12 38.6312 167.7 38.5288 168.314 38.5288C168.837 38.5288 169.361 38.6312 169.884 38.8359C170.419 39.0293 170.885 39.3422 171.283 39.7744L169.867 41.1907Z" fill="#034EA2"/>
<path d="M172.502 38.7336H174.549V40.0304H174.584C174.811 39.5526 175.135 39.1829 175.556 38.9213C175.977 38.6596 176.46 38.5288 177.007 38.5288C177.132 38.5288 177.251 38.5402 177.365 38.5629C177.49 38.5857 177.615 38.6141 177.74 38.6482V40.6276C177.57 40.5821 177.399 40.548 177.228 40.5252C177.069 40.4911 176.91 40.474 176.751 40.474C176.273 40.474 175.886 40.565 175.59 40.747C175.306 40.9177 175.084 41.1167 174.925 41.3442C174.777 41.5718 174.675 41.7993 174.618 42.0268C174.572 42.2543 174.549 42.4249 174.549 42.5387V46.9239H172.502V38.7336Z" fill="#034EA2"/>
<path d="M178.424 42.8288C178.424 42.1803 178.538 41.5945 178.766 41.0712C179.005 40.5366 179.323 40.0816 179.721 39.7062C180.119 39.3308 180.591 39.0407 181.137 38.8359C181.683 38.6312 182.264 38.5288 182.878 38.5288C183.492 38.5288 184.072 38.6312 184.618 38.8359C185.164 39.0407 185.636 39.3308 186.035 39.7062C186.433 40.0816 186.746 40.5366 186.973 41.0712C187.212 41.5945 187.331 42.1803 187.331 42.8288C187.331 43.4772 187.212 44.0687 186.973 44.6033C186.746 45.1266 186.433 45.5759 186.035 45.9513C185.636 46.3267 185.164 46.6168 184.618 46.8216C184.072 47.0263 183.492 47.1287 182.878 47.1287C182.264 47.1287 181.683 47.0263 181.137 46.8216C180.591 46.6168 180.119 46.3267 179.721 45.9513C179.323 45.5759 179.005 45.1266 178.766 44.6033C178.538 44.0687 178.424 43.4772 178.424 42.8288ZM180.472 42.8288C180.472 43.1473 180.523 43.4544 180.626 43.7502C180.739 44.0459 180.899 44.3076 181.103 44.5351C181.319 44.7626 181.575 44.9446 181.871 45.0811C182.167 45.2176 182.503 45.2859 182.878 45.2859C183.253 45.2859 183.589 45.2176 183.885 45.0811C184.18 44.9446 184.431 44.7626 184.635 44.5351C184.852 44.3076 185.011 44.0459 185.113 43.7502C185.227 43.4544 185.284 43.1473 185.284 42.8288C185.284 42.5102 185.227 42.2031 185.113 41.9073C185.011 41.6116 184.852 41.3499 184.635 41.1224C184.431 40.8949 184.18 40.7129 183.885 40.5764C183.589 40.4399 183.253 40.3716 182.878 40.3716C182.503 40.3716 182.167 40.4399 181.871 40.5764C181.575 40.7129 181.319 40.8949 181.103 41.1224C180.899 41.3499 180.739 41.6116 180.626 41.9073C180.523 42.2031 180.472 42.5102 180.472 42.8288Z" fill="#034EA2"/>
<path d="M189.982 40.474H188.293V38.7336H189.982V37.5733C189.982 37.0045 190.022 36.4926 190.102 36.0376C190.181 35.5712 190.329 35.173 190.545 34.8431C190.773 34.5132 191.086 34.263 191.484 34.0923C191.882 33.9103 192.4 33.8193 193.037 33.8193C193.503 33.8193 193.935 33.8592 194.333 33.9388L194.197 35.6792C194.049 35.6451 193.907 35.6167 193.77 35.5939C193.634 35.5712 193.492 35.5598 193.344 35.5598C193.059 35.5598 192.832 35.6053 192.661 35.6963C192.491 35.7873 192.354 35.9124 192.252 36.0717C192.161 36.2196 192.098 36.3959 192.064 36.6007C192.041 36.8054 192.03 37.0215 192.03 37.2491V38.7336H193.924V40.474H192.03V46.9239H189.982V40.474ZM195.255 38.7336H197.302V46.9239H195.255V38.7336ZM194.982 35.9522C194.982 35.6224 195.101 35.338 195.34 35.0991C195.59 34.8488 195.903 34.7237 196.279 34.7237C196.654 34.7237 196.967 34.8431 197.217 35.082C197.479 35.3095 197.61 35.5996 197.61 35.9522C197.61 36.3049 197.479 36.6007 197.217 36.8395C196.967 37.067 196.654 37.1808 196.279 37.1808C195.903 37.1808 195.59 37.0614 195.34 36.8225C195.101 36.5722 194.982 36.2821 194.982 35.9522Z" fill="#034EA2"/>
<path d="M199.363 38.7336H201.308V40.0474H201.343C201.536 39.6379 201.832 39.2853 202.23 38.9895C202.628 38.6824 203.168 38.5288 203.851 38.5288C204.397 38.5288 204.858 38.6198 205.233 38.8018C205.62 38.9838 205.933 39.2227 206.171 39.5185C206.41 39.8142 206.581 40.1555 206.683 40.5423C206.786 40.929 206.837 41.3329 206.837 41.7538V46.9239H204.789V42.7776C204.789 42.5501 204.778 42.2998 204.755 42.0268C204.732 41.7424 204.67 41.4808 204.567 41.2419C204.476 40.9916 204.329 40.7868 204.124 40.6276C203.919 40.457 203.64 40.3716 203.288 40.3716C202.946 40.3716 202.656 40.4285 202.417 40.5423C202.19 40.656 201.997 40.8096 201.837 41.003C201.689 41.1964 201.581 41.4182 201.513 41.6684C201.445 41.9187 201.411 42.1803 201.411 42.4534V46.9239H199.363V38.7336Z" fill="#034EA2"/>
<path d="M214.28 45.7978H214.229C213.933 46.2642 213.558 46.6054 213.103 46.8216C212.648 47.0263 212.147 47.1287 211.601 47.1287C211.226 47.1287 210.856 47.0775 210.492 46.9751C210.14 46.8728 209.821 46.7192 209.537 46.5144C209.264 46.3097 209.042 46.0537 208.871 45.7466C208.701 45.4394 208.615 45.0811 208.615 44.6716C208.615 44.2279 208.695 43.8526 208.854 43.5454C209.013 43.2269 209.224 42.9653 209.485 42.7605C209.758 42.5444 210.071 42.3737 210.424 42.2486C210.777 42.1235 211.141 42.0325 211.516 41.9756C211.903 41.9073 212.29 41.8675 212.676 41.8561C213.063 41.8334 213.427 41.822 213.768 41.822H214.28V41.6002C214.28 41.0883 214.104 40.7072 213.751 40.457C213.399 40.1953 212.949 40.0645 212.403 40.0645C211.971 40.0645 211.567 40.1441 211.192 40.3034C210.816 40.4513 210.492 40.656 210.219 40.9177L209.144 39.8427C209.599 39.3763 210.128 39.0407 210.731 38.8359C211.345 38.6312 211.977 38.5288 212.625 38.5288C213.205 38.5288 213.694 38.5971 214.093 38.7336C214.491 38.8587 214.821 39.0236 215.082 39.2284C215.344 39.4332 215.543 39.672 215.679 39.9451C215.827 40.2067 215.93 40.474 215.987 40.747C216.055 41.02 216.095 41.2874 216.106 41.549C216.117 41.7993 216.123 42.0211 216.123 42.2145V46.9239H214.28V45.7978ZM214.161 43.2553H213.734C213.45 43.2553 213.131 43.2667 212.779 43.2895C212.426 43.3122 212.09 43.3691 211.772 43.4601C211.465 43.5397 211.203 43.6649 210.987 43.8355C210.771 43.9947 210.663 44.2223 210.663 44.518C210.663 44.7114 210.703 44.8763 210.782 45.0129C210.873 45.138 210.987 45.2461 211.124 45.3371C211.26 45.4281 211.414 45.4963 211.584 45.5418C211.755 45.5759 211.925 45.593 212.096 45.593C212.801 45.593 213.319 45.4281 213.649 45.0982C213.99 44.7569 214.161 44.2962 214.161 43.716V43.2553Z" fill="#034EA2"/>
<path d="M218.326 38.7336H220.271V40.0474H220.305C220.499 39.6379 220.795 39.2853 221.193 38.9895C221.591 38.6824 222.131 38.5288 222.814 38.5288C223.36 38.5288 223.82 38.6198 224.196 38.8018C224.583 38.9838 224.895 39.2227 225.134 39.5185C225.373 39.8142 225.544 40.1555 225.646 40.5423C225.749 40.929 225.8 41.3329 225.8 41.7538V46.9239H223.752V42.7776C223.752 42.5501 223.741 42.2998 223.718 42.0268C223.695 41.7424 223.633 41.4808 223.53 41.2419C223.439 40.9916 223.292 40.7868 223.087 40.6276C222.882 40.457 222.603 40.3716 222.251 40.3716C221.909 40.3716 221.619 40.4285 221.38 40.5423C221.153 40.656 220.96 40.8096 220.8 41.003C220.652 41.1964 220.544 41.4182 220.476 41.6684C220.408 41.9187 220.374 42.1803 220.374 42.4534V46.9239H218.326V38.7336Z" fill="#034EA2"/>
<path d="M233.721 41.1907C233.482 40.9404 233.232 40.7413 232.97 40.5935C232.708 40.4456 232.441 40.3716 232.168 40.3716C231.793 40.3716 231.457 40.4399 231.161 40.5764C230.866 40.7129 230.61 40.8949 230.394 41.1224C230.189 41.3499 230.03 41.6116 229.916 41.9073C229.813 42.2031 229.762 42.5102 229.762 42.8288C229.762 43.1473 229.813 43.4544 229.916 43.7502C230.03 44.0459 230.189 44.3076 230.394 44.5351C230.61 44.7626 230.866 44.9446 231.161 45.0811C231.457 45.2176 231.793 45.2859 232.168 45.2859C232.487 45.2859 232.782 45.2233 233.055 45.0982C233.328 44.9617 233.562 44.7683 233.755 44.518L235.12 45.9855C234.915 46.1902 234.676 46.3665 234.403 46.5144C234.142 46.6623 233.874 46.7817 233.601 46.8728C233.328 46.9638 233.067 47.0263 232.817 47.0605C232.566 47.106 232.35 47.1287 232.168 47.1287C231.554 47.1287 230.974 47.0263 230.428 46.8216C229.882 46.6168 229.41 46.3267 229.011 45.9513C228.613 45.5759 228.295 45.1266 228.056 44.6033C227.828 44.0687 227.715 43.4772 227.715 42.8288C227.715 42.1803 227.828 41.5945 228.056 41.0712C228.295 40.5366 228.613 40.0816 229.011 39.7062C229.41 39.3308 229.882 39.0407 230.428 38.8359C230.974 38.6312 231.554 38.5288 232.168 38.5288C232.691 38.5288 233.215 38.6312 233.738 38.8359C234.273 39.0293 234.739 39.3422 235.137 39.7744L233.721 41.1907Z" fill="#034EA2"/>
<path d="M237.994 43.5454C238.062 44.1597 238.301 44.6375 238.711 44.9787C239.12 45.32 239.615 45.4906 240.195 45.4906C240.707 45.4906 241.134 45.3882 241.475 45.1835C241.827 44.9674 242.135 44.7 242.396 44.3815L243.864 45.4906C243.386 46.0822 242.851 46.503 242.26 46.7533C241.668 47.0036 241.048 47.1287 240.4 47.1287C239.786 47.1287 239.205 47.0263 238.659 46.8216C238.113 46.6168 237.641 46.3267 237.243 45.9513C236.845 45.5759 236.526 45.1266 236.288 44.6033C236.06 44.0687 235.946 43.4772 235.946 42.8288C235.946 42.1803 236.06 41.5945 236.288 41.0712C236.526 40.5366 236.845 40.0816 237.243 39.7062C237.641 39.3308 238.113 39.0407 238.659 38.8359C239.205 38.6312 239.786 38.5288 240.4 38.5288C240.969 38.5288 241.486 38.6312 241.953 38.8359C242.43 39.0293 242.834 39.3137 243.164 39.6891C243.505 40.0645 243.767 40.5309 243.949 41.0883C244.142 41.6343 244.239 42.2657 244.239 42.9823V43.5454H237.994ZM242.191 42.0097C242.18 41.4068 241.992 40.9347 241.628 40.5935C241.264 40.2408 240.758 40.0645 240.11 40.0645C239.495 40.0645 239.006 40.2408 238.642 40.5935C238.29 40.9461 238.074 41.4182 237.994 42.0097H242.191Z" fill="#034EA2"/>
<path d="M251.391 34.8431H256.1C256.555 34.8431 257.004 34.9 257.448 35.0138C257.892 35.1161 258.284 35.2925 258.625 35.5427C258.978 35.7816 259.262 36.0944 259.479 36.4812C259.695 36.868 259.803 37.3344 259.803 37.8804C259.803 38.5629 259.609 39.126 259.223 39.5697C258.836 40.0133 258.33 40.3318 257.704 40.5252V40.5593C258.079 40.6048 258.426 40.7129 258.745 40.8835C259.075 41.0428 259.353 41.2532 259.581 41.5149C259.809 41.7651 259.985 42.0609 260.11 42.4022C260.246 42.7321 260.315 43.0904 260.315 43.4772C260.315 44.1369 260.184 44.6887 259.922 45.1323C259.661 45.5646 259.314 45.9172 258.881 46.1902C258.46 46.4519 257.971 46.6396 257.414 46.7533C256.868 46.8671 256.311 46.9239 255.742 46.9239H251.391V34.8431ZM253.541 39.7574H255.503C256.22 39.7574 256.754 39.6209 257.107 39.3478C257.471 39.0635 257.653 38.6937 257.653 38.2387C257.653 37.7155 257.465 37.3287 257.09 37.0784C256.726 36.8168 256.134 36.686 255.315 36.686H253.541V39.7574ZM253.541 45.0811H255.52C255.793 45.0811 256.083 45.064 256.39 45.0299C256.709 44.9958 256.999 44.9162 257.26 44.791C257.522 44.6659 257.738 44.4896 257.909 44.2621C258.079 44.0232 258.165 43.7047 258.165 43.3065C258.165 42.6695 257.954 42.2259 257.533 41.9756C257.124 41.7253 256.481 41.6002 255.605 41.6002H253.541V45.0811Z" fill="#034EA2"/>
<path d="M267.386 45.7978H267.335C267.039 46.2642 266.664 46.6054 266.209 46.8216C265.754 47.0263 265.253 47.1287 264.707 47.1287C264.332 47.1287 263.962 47.0775 263.598 46.9751C263.246 46.8728 262.927 46.7192 262.643 46.5144C262.37 46.3097 262.148 46.0537 261.977 45.7466C261.807 45.4394 261.721 45.0811 261.721 44.6716C261.721 44.2279 261.801 43.8526 261.96 43.5454C262.12 43.2269 262.33 42.9653 262.592 42.7605C262.865 42.5444 263.177 42.3737 263.53 42.2486C263.883 42.1235 264.247 42.0325 264.622 41.9756C265.009 41.9073 265.396 41.8675 265.782 41.8561C266.169 41.8334 266.533 41.822 266.874 41.822H267.386V41.6002C267.386 41.0883 267.21 40.7072 266.857 40.457C266.505 40.1953 266.055 40.0645 265.509 40.0645C265.077 40.0645 264.673 40.1441 264.298 40.3034C263.923 40.4513 263.598 40.656 263.325 40.9177L262.25 39.8427C262.705 39.3763 263.234 39.0407 263.837 38.8359C264.451 38.6312 265.083 38.5288 265.731 38.5288C266.311 38.5288 266.801 38.5971 267.199 38.7336C267.597 38.8587 267.927 39.0236 268.188 39.2284C268.45 39.4332 268.649 39.672 268.786 39.9451C268.933 40.2067 269.036 40.474 269.093 40.747C269.161 41.02 269.201 41.2874 269.212 41.549C269.224 41.7993 269.229 42.0211 269.229 42.2145V46.9239H267.386V45.7978ZM267.267 43.2553H266.84C266.556 43.2553 266.237 43.2667 265.885 43.2895C265.532 43.3122 265.197 43.3691 264.878 43.4601C264.571 43.5397 264.309 43.6649 264.093 43.8355C263.877 43.9947 263.769 44.2223 263.769 44.518C263.769 44.7114 263.809 44.8763 263.888 45.0129C263.979 45.138 264.093 45.2461 264.23 45.3371C264.366 45.4281 264.52 45.4963 264.69 45.5418C264.861 45.5759 265.032 45.593 265.202 45.593C265.908 45.593 266.425 45.4281 266.755 45.0982C267.096 44.7569 267.267 44.2962 267.267 43.716V43.2553Z" fill="#034EA2"/>
<path d="M271.432 38.7336H273.377V40.0474H273.412C273.605 39.6379 273.901 39.2853 274.299 38.9895C274.697 38.6824 275.237 38.5288 275.92 38.5288C276.466 38.5288 276.927 38.6198 277.302 38.8018C277.689 38.9838 278.002 39.2227 278.24 39.5185C278.479 39.8142 278.65 40.1555 278.752 40.5423C278.855 40.929 278.906 41.3329 278.906 41.7538V46.9239H276.858V42.7776C276.858 42.5501 276.847 42.2998 276.824 42.0268C276.801 41.7424 276.739 41.4808 276.637 41.2419C276.546 40.9916 276.398 40.7868 276.193 40.6276C275.988 40.457 275.709 40.3716 275.357 40.3716C275.016 40.3716 274.725 40.4285 274.487 40.5423C274.259 40.656 274.066 40.8096 273.906 41.003C273.759 41.1964 273.65 41.4182 273.582 41.6684C273.514 41.9187 273.48 42.1803 273.48 42.4534V46.9239H271.432V38.7336Z" fill="#034EA2"/>
<path d="M281.23 34.0241H283.278V42.1292L286.435 38.7336H289.062L285.547 42.4534L289.284 46.9239H286.571L283.312 42.7434H283.278V46.9239H281.23V34.0241Z" fill="#034EA2"/>
<path fill-rule="evenodd" clip-rule="evenodd" d="M10 0C4.47715 0 0 4.47714 0 9.99999V103.755C0 109.278 4.47715 113.755 10 113.755H327C332.523 113.755 337 109.278 337 103.755V10C337 4.47715 332.523 0 327 0H10ZM21.6782 9.24291C16.1554 9.24291 11.6782 13.7201 11.6782 19.2429V94.5129C11.6782 100.036 16.1554 104.513 21.6782 104.513H315.322C320.845 104.513 325.322 100.036 325.322 94.5129V19.2429C325.322 13.7201 320.845 9.24291 315.322 9.24291H21.6782Z" fill="#034EA2"/>
</svg>
