<svg width="30" height="30" viewBox="0 0 30 30" fill="none" xmlns="http://www.w3.org/2000/svg">
<path fill-rule="evenodd" clip-rule="evenodd" d="M1.23999 14.8802C1.23999 7.34707 7.34683 1.24023 14.88 1.24023C22.4132 1.24023 28.52 7.34707 28.52 14.8802C28.52 22.4134 22.4132 28.5202 14.88 28.5202C7.34683 28.5202 1.23999 22.4134 1.23999 14.8802Z" fill="#034EA2"/>
<path fill-rule="evenodd" clip-rule="evenodd" d="M21.4652 9.97363C21.9495 10.4579 21.9495 11.243 21.4652 11.7273L13.7684 19.7873C13.2841 20.2715 12.499 20.2715 12.0148 19.7873L8.29477 16.0673C7.81052 15.583 7.81052 14.7979 8.29477 14.3136C8.77902 13.8294 9.56414 13.8294 10.0484 14.3136L12.8916 17.1568L19.7116 9.97363C20.1958 9.48938 20.981 9.48938 21.4652 9.97363Z" fill="white"/>
</svg>
