<svg width="115" height="115" viewBox="0 0 115 115" fill="none" xmlns="http://www.w3.org/2000/svg">
<path d="M57.1336 114.267C88.6876 114.267 114.267 88.6876 114.267 57.1336C114.267 25.5796 88.6876 0 57.1336 0C25.5796 0 0 25.5796 0 57.1336C0 88.6876 25.5796 114.267 57.1336 114.267Z" fill="#F1F5F9"/>
<path d="M83.4024 35.0187C84.1226 35.6079 73.4509 49.9677 59.5712 67.0773L51.1474 77.2906L49.9908 78.6873L48.7687 77.4216C37.857 66.2262 30.5025 57.9333 31.0263 57.4095C31.55 56.8858 39.8647 64.2839 51.0383 75.1301L48.6814 75.3702L56.9306 65.0477C70.8103 47.8291 82.6604 34.4295 83.4024 35.0187Z" fill="#034EA2"/>
</svg>
