<svg width="36" height="36" viewBox="0 0 36 36" fill="none" xmlns="http://www.w3.org/2000/svg">
<rect width="36" height="36" rx="12" fill="#E2E8F0"/>
<path d="M13.7222 15.6667H13.7317M17.5 15.6667H17.5094M21.2778 15.6667H21.2872M14.6667 21.3333H10.8889C10.3879 21.3333 9.90748 21.1343 9.55324 20.7801C9.19901 20.4259 9 19.9454 9 19.4444V11.8889C9 11.3879 9.19901 10.9075 9.55324 10.5532C9.90748 10.199 10.3879 10 10.8889 10H24.1111C24.6121 10 25.0925 10.199 25.4468 10.5532C25.801 10.9075 26 11.3879 26 11.8889V19.4444C26 19.9454 25.801 20.4259 25.4468 20.7801C25.0925 21.1343 24.6121 21.3333 24.1111 21.3333H19.3889L14.6667 26.0556V21.3333Z" stroke="#034EA2" stroke-width="1.88889" stroke-linecap="round" stroke-linejoin="round"/>
</svg>
