<svg width="36" height="36" viewBox="0 0 36 36" fill="none" xmlns="http://www.w3.org/2000/svg">
<rect width="36" height="36" rx="12" fill="#E5E7EB"/>
<path d="M18.3333 23.3333H18.3422M14.7778 26H21.8889C22.3604 26 22.8126 25.8127 23.146 25.4793C23.4794 25.1459 23.6667 24.6937 23.6667 24.2222V11.7778C23.6667 11.3063 23.4794 10.8541 23.146 10.5207C22.8126 10.1873 22.3604 10 21.8889 10H14.7778C14.3063 10 13.8541 10.1873 13.5207 10.5207C13.1873 10.8541 13 11.3063 13 11.7778V24.2222C13 24.6937 13.1873 25.1459 13.5207 25.4793C13.8541 25.8127 14.3063 26 14.7778 26Z" stroke="#6B7280" stroke-width="1.77778" stroke-linecap="round" stroke-linejoin="round"/>
</svg>
