<svg width="36" height="36" viewBox="0 0 36 36" fill="none" xmlns="http://www.w3.org/2000/svg">
<rect width="36" height="36" rx="12" fill="#E5E7EB"/>
<path d="M20.6667 13.5516C21.1382 13.5516 21.5903 13.7389 21.9237 14.0724C22.2571 14.4059 22.4444 14.8583 22.4444 15.3299L20.6667 13.5516ZM26 15.3299C26.0002 16.1632 25.8053 16.985 25.4309 17.7294C25.0565 18.4738 24.513 19.1201 23.8439 19.6165C23.1748 20.1129 22.3988 20.4457 21.578 20.5881C20.7572 20.7304 19.9144 20.6785 19.1173 20.4364L17.1111 22.4433H15.3333V24.2217H13.5556V26H10.8889C10.6531 26 10.427 25.9063 10.2603 25.7396C10.0937 25.5728 10 25.3466 10 25.1108V22.8114C10.0001 22.5756 10.0937 22.3495 10.2604 22.1828L15.5618 16.8797C15.34 16.1462 15.2787 15.3734 15.3823 14.6141C15.4858 13.8547 15.7517 13.1266 16.1618 12.4793C16.5719 11.8319 17.1166 11.2806 17.7588 10.8627C18.4011 10.4449 19.1258 10.1703 19.8836 10.0578C20.6415 9.94529 21.4146 9.99742 22.1505 10.2106C22.8864 10.4239 23.5677 10.7932 24.1481 11.2935C24.7285 11.7937 25.1943 12.4132 25.5139 13.1098C25.8335 13.8063 25.9993 14.5635 26 15.3299Z" stroke="#6B7280" stroke-width="2" stroke-linecap="round" stroke-linejoin="round"/>
</svg>
