<svg width="27" height="34" viewBox="0 0 27 34" fill="none" xmlns="http://www.w3.org/2000/svg">
<path d="M8.14286 18.7778H18.8571M13.5 13.4444V24.1111M22.4286 33H4.57143C3.62423 33 2.71582 32.6254 2.04605 31.9586C1.37627 31.2918 1 30.3874 1 29.4444V4.55556C1 3.61256 1.37627 2.70819 2.04605 2.0414C2.71582 1.3746 3.62423 1 4.57143 1H14.5464C15.02 1.0001 15.4741 1.18747 15.8089 1.52089L25.4768 11.1458C25.8117 11.4791 25.9999 11.9312 26 12.4027V29.4444C26 30.3874 25.6237 31.2918 24.954 31.9586C24.2842 32.6254 23.3758 33 22.4286 33Z" stroke="#9FA6B2" stroke-width="2" stroke-linecap="round" stroke-linejoin="round"/>
</svg>
