<svg width="36" height="36" viewBox="0 0 36 36" fill="none" xmlns="http://www.w3.org/2000/svg">
<rect width="36" height="36" rx="12" fill="#E2E8F0"/>
<path fill-rule="evenodd" clip-rule="evenodd" d="M18.496 11.1317C18.3449 11.0454 18.174 11 18 11C17.826 11 17.6551 11.0454 17.504 11.1317L10.504 15.1317C10.3127 15.2411 10.1629 15.4107 10.0779 15.6141C9.99289 15.8175 9.97749 16.0433 10.0341 16.2563C10.0906 16.4694 10.216 16.6577 10.3907 16.7922C10.5654 16.9266 10.7796 16.9996 11 16.9997V23.9997C10.7348 23.9997 10.4804 24.105 10.2929 24.2926C10.1054 24.4801 10 24.7345 10 24.9997C10 25.2649 10.1054 25.5192 10.2929 25.7068C10.4804 25.8943 10.7348 25.9997 11 25.9997H25C25.2652 25.9997 25.5196 25.8943 25.7071 25.7068C25.8946 25.5192 26 25.2649 26 24.9997C26 24.7345 25.8946 24.4801 25.7071 24.2926C25.5196 24.105 25.2652 23.9997 25 23.9997V16.9997C25.2204 16.9996 25.4346 16.9266 25.6093 16.7922C25.784 16.6577 25.9094 16.4694 25.9659 16.2563C26.0225 16.0433 26.0071 15.8175 25.9221 15.6141C25.8371 15.4107 25.6873 15.2411 25.496 15.1317L18.496 11.1317ZM14 17.9997C13.7348 17.9997 13.4804 18.105 13.2929 18.2926C13.1054 18.4801 13 18.7345 13 18.9997V21.9997C13 22.2649 13.1054 22.5192 13.2929 22.7068C13.4804 22.8943 13.7348 22.9997 14 22.9997C14.2652 22.9997 14.5196 22.8943 14.7071 22.7068C14.8946 22.5192 15 22.2649 15 21.9997V18.9997C15 18.7345 14.8946 18.4801 14.7071 18.2926C14.5196 18.105 14.2652 17.9997 14 17.9997ZM17 18.9997C17 18.7345 17.1054 18.4801 17.2929 18.2926C17.4804 18.105 17.7348 17.9997 18 17.9997C18.2652 17.9997 18.5196 18.105 18.7071 18.2926C18.8946 18.4801 19 18.7345 19 18.9997V21.9997C19 22.2649 18.8946 22.5192 18.7071 22.7068C18.5196 22.8943 18.2652 22.9997 18 22.9997C17.7348 22.9997 17.4804 22.8943 17.2929 22.7068C17.1054 22.5192 17 22.2649 17 21.9997V18.9997ZM22 17.9997C21.7348 17.9997 21.4804 18.105 21.2929 18.2926C21.1054 18.4801 21 18.7345 21 18.9997V21.9997C21 22.2649 21.1054 22.5192 21.2929 22.7068C21.4804 22.8943 21.7348 22.9997 22 22.9997C22.2652 22.9997 22.5196 22.8943 22.7071 22.7068C22.8946 22.5192 23 22.2649 23 21.9997V18.9997C23 18.7345 22.8946 18.4801 22.7071 18.2926C22.5196 18.105 22.2652 17.9997 22 17.9997Z" fill="#034EA2"/>
</svg>
