<svg width="46" height="32" viewBox="0 0 46 32" fill="none" xmlns="http://www.w3.org/2000/svg">
<ellipse cx="9.93461" cy="15.5626" rx="6.93461" ry="6.87505" fill="#EE312A"/>
<path fill-rule="evenodd" clip-rule="evenodd" d="M18.9346 13.4963C19.2944 13.5587 19.7107 13.7095 19.9723 13.8709C20.6186 14.2714 21.0715 14.9457 21.2688 15.7986C21.3679 16.2327 21.3808 16.3585 21.3798 16.9252C21.3778 17.2162 21.3699 17.4938 21.361 17.5447L21.3441 17.6341L19.0238 17.6398L16.7054 17.6437V17.6936C16.7054 17.7685 16.7718 17.9789 16.8422 18.122C17.1148 18.6771 17.652 19.0162 18.4092 19.1151C18.6075 19.142 19.1516 19.142 19.4183 19.1151C19.8484 19.0738 20.2687 19.0018 20.687 18.899C20.8109 18.8692 20.9169 18.8471 20.9219 18.851C20.9278 18.8577 21.131 20.3868 21.131 20.4358C21.131 20.4569 20.8892 20.5357 20.5938 20.6135C19.8901 20.7921 18.994 20.8824 18.322 20.8411C17.4498 20.7854 16.7827 20.5875 16.194 20.2062C15.9244 20.0314 15.5586 19.6799 15.3772 19.4196C14.9114 18.7482 14.7012 17.9356 14.729 16.9166C14.7409 16.4949 14.7706 16.2759 14.8648 15.9206C15.0353 15.278 15.3336 14.7699 15.8014 14.331C16.3129 13.8517 16.978 13.5568 17.761 13.4637C18.0088 13.4329 18.6848 13.4531 18.9346 13.4963ZM40.2953 13.4619C41.0595 13.5406 41.7008 13.8461 42.1448 14.3398C42.6652 14.9189 42.9576 15.7469 42.9972 16.7534C43.0061 17.0118 42.9843 17.4373 42.9526 17.5871L42.9427 17.6419H40.6214C38.6915 17.6419 38.299 17.6448 38.299 17.6649C38.299 17.737 38.3823 17.9877 38.4527 18.1327C38.7173 18.6677 39.2268 18.9981 39.9603 19.1037C40.5322 19.1883 41.5134 19.0989 42.3411 18.8867C42.4412 18.8617 42.5244 18.8415 42.5284 18.8454C42.5324 18.8511 42.7038 20.1968 42.7306 20.4225C42.7375 20.4763 42.0972 20.6539 41.5927 20.7365C41.108 20.8163 40.7879 20.8412 40.2804 20.8412C39.9394 20.8412 39.7412 20.8336 39.5668 20.8105C38.2059 20.6386 37.2543 20.0316 36.7429 19.0144C36.5615 18.6514 36.4436 18.2566 36.3692 17.7581C36.3544 17.6544 36.3454 17.4066 36.3454 17.0579C36.3464 16.4749 36.3653 16.2991 36.4743 15.8938C36.6101 15.3876 36.8727 14.8997 37.2097 14.5194C37.7242 13.9412 38.5151 13.5551 39.3725 13.4619C39.5767 13.4408 40.0871 13.4388 40.2953 13.4619ZM26.5727 13.5223C26.8116 13.5559 27.101 13.6097 27.214 13.6443L27.2893 13.6673L27.1337 14.4645C27.0504 14.9025 26.9761 15.2646 26.9731 15.2684C26.9692 15.2713 26.9434 15.2665 26.9137 15.256C26.6817 15.1695 26.086 15.1215 25.7986 15.1657C25.5339 15.207 25.1692 15.3434 25.0502 15.4481C25.0195 15.475 25.0175 15.6238 25.0175 18.0769V20.675H23.9798H22.943V17.466V14.2599L23.0966 14.1668C23.6725 13.8143 24.3227 13.5991 25.0909 13.506C25.3783 13.4724 26.2714 13.481 26.5727 13.5223ZM30.46 13.6709C30.4659 13.6911 30.4818 13.7555 30.5046 13.8409C30.5234 13.9149 30.5462 14.0061 30.571 14.0984C30.8763 15.2826 31.3521 16.7089 31.8318 17.8826L31.9854 18.2553L32.0558 18.092C32.5286 16.9923 33.0767 15.3633 33.4246 14.0263L33.5316 13.6133L34.5694 13.6085L35.6082 13.6047L35.5616 13.7699C35.4872 14.035 35.3574 14.4624 35.2285 14.8696C34.5803 16.8933 33.7953 18.8229 33.0024 20.3251L32.823 20.6661L31.9963 20.6709C31.3372 20.6747 31.1657 20.6709 31.1508 20.6517C31.1231 20.619 30.6909 19.7796 30.5482 19.4799C29.788 17.8826 28.9871 15.7561 28.4707 13.9629C28.4241 13.7996 28.3815 13.6527 28.3765 13.6354C28.3676 13.6066 28.4241 13.6047 29.4044 13.6047H30.4412L30.46 13.6709ZM17.9171 14.8621C17.4314 14.9331 17.0875 15.1886 16.8684 15.642C16.7931 15.7966 16.7039 16.0963 16.7039 16.1914V16.2432H18.1411H19.5763L19.5634 16.1578C19.5386 15.9954 19.4613 15.7659 19.3672 15.5795C19.2839 15.4182 19.2462 15.3673 19.1015 15.228C18.9648 15.0916 18.9073 15.0503 18.7774 14.9908C18.6912 14.9495 18.5663 14.9043 18.4999 14.8909C18.3443 14.8544 18.0578 14.8419 17.9171 14.8621ZM39.0913 14.991C39.2638 14.9123 39.352 14.8854 39.5245 14.8623C39.6841 14.8402 39.9507 14.8566 40.1192 14.8979C40.5077 14.9949 40.7872 15.2244 40.9825 15.6067C41.0687 15.7805 41.1659 16.086 41.1659 16.1916V16.2435H39.7287H38.2935L38.3063 16.158C38.3301 15.9957 38.4084 15.7661 38.5026 15.5798C38.5858 15.4184 38.6225 15.3675 38.7672 15.2283C38.906 15.0919 38.9595 15.0525 39.0913 14.991Z" fill="#00579F"/>
<path fill-rule="evenodd" clip-rule="evenodd" d="M7.10315 12.1582C7.57034 13.3979 8.23689 15.0416 8.79335 16.3283C9.16035 17.1751 9.66225 18.27 9.67712 18.2559C9.69399 18.2371 10.1017 17.3414 10.3903 16.6817C11.0043 15.2851 11.7819 13.3763 12.2422 12.1441L12.3493 11.8594H13.5406C14.1972 11.8594 14.7348 11.8631 14.7348 11.8688C14.7348 11.8913 14.4511 12.6178 14.2438 13.1328C13.5425 14.8621 12.7421 16.6337 11.8345 18.4702C11.5637 19.02 10.8376 20.4316 10.7057 20.6656L10.6075 20.8414L9.66919 20.8461L8.72986 20.8498L8.49082 20.3987C7.03471 17.6365 5.59051 14.4862 4.67202 12.0511L4.59961 11.8594L5.79683 11.8631L6.99405 11.8688L7.10315 12.1582Z" fill="white"/>
</svg>
