<svg width="46" height="32" viewBox="0 0 46 32" fill="none" xmlns="http://www.w3.org/2000/svg">
<g style="mix-blend-mode:luminosity">
<path fill-rule="evenodd" clip-rule="evenodd" d="M13.0004 22.0393H9.53867L6.94278 11.8446C6.81957 11.3756 6.55796 10.961 6.17313 10.7656C5.21275 10.2746 4.15448 9.8838 3 9.6867V9.2942H8.57661C9.34626 9.2942 9.9235 9.8838 10.0197 10.5685L11.3666 17.9224L14.8267 9.2942H18.1922L13.0004 22.0393ZM20.1164 22.0393H16.8471L19.5392 9.2942H22.8085L20.1164 22.0393ZM27.0383 12.8247C27.1345 12.1383 27.7117 11.7458 28.3852 11.7458C29.4434 11.6472 30.5962 11.8443 31.5583 12.3337L32.1355 9.5896C31.1735 9.1971 30.1152 9 29.1548 9C25.9817 9 23.6727 10.7654 23.6727 13.2155C23.6727 15.0795 25.3082 16.0582 26.4627 16.6478C27.7117 17.2357 28.1927 17.6282 28.0965 18.2161C28.0965 19.0979 27.1345 19.4904 26.1741 19.4904C25.0196 19.4904 23.8651 19.1964 22.8085 18.7054L22.2313 21.4512C23.3858 21.9405 24.6348 22.1376 25.7893 22.1376C29.3472 22.2345 31.5583 20.4708 31.5583 17.8236C31.5583 14.4899 27.0383 14.2945 27.0383 12.8247ZM43 22.0393L40.4041 9.2942H37.6158C37.0386 9.2942 36.4613 9.6867 36.2689 10.2746L31.462 22.0393H34.8275L35.4993 20.1771H39.6345L40.0193 22.0393H43ZM38.0969 12.7261L39.0573 17.5295H36.3652L38.0969 12.7261Z" fill="#172B85"/>
</g>
</svg>
