<svg width="50" height="50" viewBox="0 0 50 50" fill="none" xmlns="http://www.w3.org/2000/svg">
<path d="M0 25C0 11.1929 11.1929 0 25 0C38.8071 0 50 11.1929 50 25C50 38.8071 38.8071 50 25 50C11.1929 50 0 38.8071 0 25Z" fill="#ED1C24"/>
<path d="M35.7649 39.9792C35.4607 39.9792 35.2149 39.7193 35.2149 39.401V32.8936L33.7441 33.1212V39.3527C33.7441 40.2593 34.4473 40.9926 35.3136 40.9926H36.1316V39.9792H35.7649Z" fill="white"/>
<path d="M18.7324 40.9944H20.2032V34.8032L18.7324 35.0289V40.9944Z" fill="white"/>
<path d="M21.1416 35.8869V40.9941H22.6143V36.9446L22.6063 36.4671C22.6063 35.7116 24.3027 35.8567 24.3027 35.8567L24.8325 34.6982C22.4834 34.0314 21.1416 35.8889 21.1416 35.8889V35.8869Z" fill="white"/>
<path d="M26.7676 39.401V35.8149H27.6521V34.6886H26.7676V32.8936L25.2969 33.1212V39.3527C25.2969 40.2593 26 40.9926 26.8663 40.9926H27.6843V39.9792H27.3176C27.0134 39.9792 26.7676 39.7193 26.7676 39.401Z" fill="white"/>
<path d="M19.4692 32.3564C18.9656 32.3564 18.5586 32.7634 18.5586 33.2671C18.5586 33.7708 18.9656 34.1777 19.4692 34.1777C19.9729 34.1777 20.3799 33.7708 20.3799 33.2671C20.3799 32.7634 19.9729 32.3564 19.4692 32.3564Z" fill="white"/>
<path d="M30.4677 39.8508C29.4906 39.4761 29.5631 38.0174 29.5631 38.0174H33.0969C33.0969 36.1861 32.6556 34.6025 30.8767 34.6025C29.0977 34.6025 28.042 35.9081 28.042 37.7394C28.042 39.5708 29.1702 40.9972 30.9492 40.9972C31.6564 40.9972 32.6234 40.7635 33.1533 40.3666L32.6496 39.4902C32.6496 39.4902 31.4428 40.2256 30.4657 39.8528L30.4677 39.8508ZM30.6732 35.7247C31.5173 35.7247 31.6866 36.9174 31.6866 36.9174H29.6598C29.6598 36.9174 29.829 35.7247 30.6732 35.7247Z" fill="white"/>
<path d="M15.8233 34.6422C15.8233 34.6422 15.2007 34.6502 14.5742 34.7711C13.9859 34.8839 13.3956 35.2889 13.3956 35.2889L13.863 36.2499C13.863 36.2499 14.4654 35.6837 15.4062 35.6837C16.6614 35.6837 16.4841 36.9409 16.4841 36.9409C14.0403 36.4393 12.8395 37.6944 12.8738 38.9879C12.8899 39.5761 12.9685 40.1705 13.6373 40.6117C15.7769 42.028 17.8521 39.969 17.8521 39.969V36.5541C17.8521 35.5306 16.9434 34.6401 15.8213 34.6401L15.8233 34.6422ZM16.4519 39.7615C16.4519 39.7615 15.4868 40.2128 14.8683 39.8421C14.2498 39.4714 14.3223 38.46 14.9046 38.1457C15.4868 37.8314 16.4519 38.0248 16.4519 38.0248V39.7615Z" fill="white"/>
<path d="M17.2994 12.9601C10.6428 18.9901 13.0423 20.9967 14.6359 21.7704C16.2276 22.544 18.351 21.4822 21.0044 19.4071C23.6578 17.332 29.8006 13.3288 31.2491 15.3213C32.6957 17.3159 32.7279 21.2727 26.5206 26.4827C20.3134 31.6927 19.026 28.6465 22.0903 26.2571C25.1547 23.8676 24.5906 22.4292 23.144 22.2196C21.6249 22 20.3134 22.3647 18.9635 24.8428C18.9635 24.8428 16.8964 28.8359 19.5417 29.8594C21.3852 30.5726 26.8269 28.3765 30.824 24.3512C33.7695 21.3855 35.9232 17.8397 35.0206 13.1092C33.838 6.90996 23.9579 6.92607 17.3014 12.9581L17.2994 12.9601Z" fill="white"/>
</svg>
