<svg width="24" height="24" viewBox="0 0 24 24" fill="none" xmlns="http://www.w3.org/2000/svg">
<ellipse cx="8.99859" cy="9.99909" rx="6.0025" ry="2.50104" stroke="#034EA2" stroke-width="1.5" stroke-linecap="round" stroke-linejoin="round"/>
<path d="M15.0011 13.501C15.0011 14.8823 12.3137 16.002 8.99859 16.002C5.6835 16.002 2.99609 14.8823 2.99609 13.501" stroke="#034EA2" stroke-width="1.5" stroke-linecap="round" stroke-linejoin="round"/>
<path d="M21.0035 9.99902C21.0035 11.3803 18.3161 12.5001 15.001 12.5001" stroke="#034EA2" stroke-width="1.5" stroke-linecap="round" stroke-linejoin="round"/>
<path d="M15.0011 9.99902V17.5021C15.0011 18.8834 12.3137 20.0032 8.99859 20.0032C5.6835 20.0032 2.99609 18.8834 2.99609 17.5021V9.99902" stroke="#034EA2" stroke-width="1.5" stroke-linecap="round" stroke-linejoin="round"/>
<path d="M21.0035 6.49805V14.0012C21.0035 15.3825 18.3161 16.5022 15.001 16.5022" stroke="#034EA2" stroke-width="1.5" stroke-linecap="round" stroke-linejoin="round"/>
<path d="M9.49923 7.50853C9.20224 7.2536 9.02168 6.88886 8.99902 6.49811C8.99902 5.11754 11.6901 3.99707 15.0015 3.99707C18.3129 3.99707 21.004 5.11754 21.004 6.49811C21.004 7.87869 18.3129 8.99915 15.0015 8.99915C14.8315 8.99915 14.6614 8.99915 14.5013 8.98915" stroke="#034EA2" stroke-width="1.5" stroke-linecap="round" stroke-linejoin="round"/>
</svg>
