<svg width="33" height="32" viewBox="0 0 33 32" fill="none" xmlns="http://www.w3.org/2000/svg">
<path fill-rule="evenodd" clip-rule="evenodd" d="M8.66663 25.3327H5.99996C5.26396 25.3327 4.66663 24.7353 4.66663 23.9993V19.9993C4.66663 19.2633 5.26396 18.666 5.99996 18.666H8.66663C9.40263 18.666 9.99996 19.2633 9.99996 19.9993V23.9993C9.99996 24.7353 9.40263 25.3327 8.66663 25.3327Z" stroke="#E1EFFE" stroke-width="2" stroke-linecap="round" stroke-linejoin="round"/>
<path fill-rule="evenodd" clip-rule="evenodd" d="M18.0004 25.334H15.3337C14.5977 25.334 14.0004 24.7367 14.0004 24.0007V14.6673C14.0004 13.9313 14.5977 13.334 15.3337 13.334H18.0004C18.7364 13.334 19.3337 13.9313 19.3337 14.6673V24.0007C19.3337 24.7367 18.7364 25.334 18.0004 25.334Z" stroke="#E1EFFE" stroke-width="2" stroke-linecap="round" stroke-linejoin="round"/>
<path fill-rule="evenodd" clip-rule="evenodd" d="M27.3329 25.3327H24.6662C23.9302 25.3327 23.3329 24.7353 23.3329 23.9993V7.99935C23.3329 7.26335 23.9302 6.66602 24.6662 6.66602H27.3329C28.0689 6.66602 28.6662 7.26335 28.6662 7.99935V23.9993C28.6662 24.7353 28.0689 25.3327 27.3329 25.3327Z" stroke="#E1EFFE" stroke-width="2" stroke-linecap="round" stroke-linejoin="round"/>
</svg>
