<svg width="52" height="55" viewBox="0 0 52 55" fill="none" xmlns="http://www.w3.org/2000/svg">
<circle cx="26" cy="28.25" r="25.5" fill="#CFD8E3" stroke="#F9FAFB"/>
<mask id="mask0_13825_20510" style="mask-type:alpha" maskUnits="userSpaceOnUse" x="0" y="0" width="52" height="53">
<circle cx="26" cy="26.9492" r="25.5" fill="#C4C4C4" stroke="#F9FAFB"/>
</mask>
<g mask="url(#mask0_13825_20510)">
<path d="M41.6953 50.2051C39.766 52.0935 37.4731 52.9819 34.8821 53.3958C32.5862 53.7626 30.0917 53.7532 27.4243 53.7431C26.9821 53.7414 26.5352 53.7397 26.0836 53.7397C25.7126 53.7397 25.3447 53.7406 24.9799 53.7415C22.1901 53.7483 19.5846 53.7547 17.1981 53.3536C14.5832 52.914 12.2725 51.99 10.3359 50.0587V47.4552C10.3359 44.1545 13.0089 41.4766 16.3078 41.4766H35.7234C39.0223 41.4766 41.6953 44.1545 41.6953 47.4552V50.2051Z" fill="#E2E8F0" stroke="#F9FAFB"/>
<path d="M16.9766 26.9109C16.9766 21.7602 21.0359 17.6094 26.0168 17.6094C30.998 17.6094 35.0603 21.7604 35.0603 26.9109C35.0603 32.0648 30.9979 36.2158 26.0168 36.2158C21.036 36.2158 16.9766 32.0651 16.9766 26.9109Z" fill="#E2E8F0" stroke="#F9FAFB"/>
</g>
</svg>
