<svg width="28" height="28" viewBox="0 0 28 28" fill="none" xmlns="http://www.w3.org/2000/svg">
<path fill-rule="evenodd" clip-rule="evenodd" d="M14.0013 3.5013C12.1448 3.5013 10.3643 4.2388 9.05155 5.55155C7.7388 6.86431 7.0013 8.64479 7.0013 10.5013V16.3346C7.0013 17.1609 6.78217 17.9646 6.3761 18.668H21.6265C21.2204 17.9646 21.0013 17.1609 21.0013 16.3346V10.5013C21.0013 8.64479 20.2638 6.86431 18.951 5.55155C17.6383 4.2388 15.8578 3.5013 14.0013 3.5013ZM25.668 18.668C25.0491 18.668 24.4556 18.4221 24.0181 17.9846C23.5805 17.547 23.3346 16.9535 23.3346 16.3346V10.5013C23.3346 8.02595 22.3513 5.65198 20.601 3.90164C18.8506 2.1513 16.4767 1.16797 14.0013 1.16797C11.5259 1.16797 9.15198 2.1513 7.40164 3.90164C5.6513 5.65198 4.66797 8.02595 4.66797 10.5013V16.3346C4.66797 16.9535 4.42214 17.547 3.98455 17.9846C3.54697 18.4221 2.95347 18.668 2.33464 18.668C1.6903 18.668 1.16797 19.1903 1.16797 19.8346C1.16797 20.479 1.6903 21.0013 2.33464 21.0013H25.668V18.668ZM11.3976 23.4921C11.9549 23.1688 12.6688 23.3586 12.9921 23.9159C13.0947 24.0927 13.2419 24.2395 13.419 24.3415C13.5961 24.4435 13.7969 24.4972 14.0013 24.4972C14.2057 24.4972 14.4065 24.4435 14.5836 24.3415C14.7607 24.2395 14.9079 24.0927 15.0105 23.9159C15.3338 23.3586 16.0477 23.1688 16.605 23.4921C17.1624 23.8154 17.3521 24.5294 17.0288 25.0867C16.7211 25.6171 16.2795 26.0573 15.7482 26.3634C15.2169 26.6694 14.6145 26.8305 14.0013 26.8305C13.3881 26.8305 12.7857 26.6694 12.2544 26.3634C11.7231 26.0573 11.2815 25.6171 10.9738 25.0867C10.6505 24.5294 10.8402 23.8154 11.3976 23.4921Z" fill="#97A6BA"/>
</svg>
