<svg width="18" height="18" viewBox="0 0 18 18" fill="none" xmlns="http://www.w3.org/2000/svg">
<g clip-path="url(#clip0_25374_37271)">
<path d="M9.00195 1.37988C13.2105 1.37988 16.6221 4.79143 16.6221 9C16.6221 13.2086 13.2105 16.6201 9.00195 16.6201C4.79339 16.6201 1.38184 13.2086 1.38184 9C1.38184 4.79143 4.79339 1.37988 9.00195 1.37988Z" fill="#034EA2" stroke="#EBF5FF" stroke-width="1.25943" stroke-linecap="round" stroke-linejoin="round"/>
<path fill-rule="evenodd" clip-rule="evenodd" d="M12.9845 6.03223C13.2774 6.32512 13.2774 6.79999 12.9845 7.09289L8.32916 11.9679C8.03627 12.2608 7.56139 12.2608 7.2685 11.9679L5.0185 9.71789C4.7256 9.425 4.7256 8.95012 5.0185 8.65723C5.31139 8.36433 5.78627 8.36433 6.07916 8.65723L7.79883 10.3769L11.9238 6.03223C12.2167 5.73933 12.6916 5.73933 12.9845 6.03223Z" fill="white"/>
</g>
<defs>
<clipPath id="clip0_25374_37271">
<rect width="18" height="18" fill="white"/>
</clipPath>
</defs>
</svg>
