<svg width="24" height="24" viewBox="0 0 24 24" fill="none" xmlns="http://www.w3.org/2000/svg">
<path d="M16 2V6" stroke="#6B7280" stroke-width="1.5" stroke-linecap="round" stroke-linejoin="round"/>
<path d="M8 2V6" stroke="#6B7280" stroke-width="1.5" stroke-linecap="round" stroke-linejoin="round"/>
<path d="M3 9H21" stroke="#6B7280" stroke-width="1.5" stroke-linecap="round" stroke-linejoin="round"/>
<path fill-rule="evenodd" clip-rule="evenodd" d="M19 4H5C3.895 4 3 4.895 3 6V19C3 20.105 3.895 21 5 21H19C20.105 21 21 20.105 21 19V6C21 4.895 20.105 4 19 4Z" stroke="#6B7280" stroke-width="1.5" stroke-linecap="round" stroke-linejoin="round"/>
<path d="M12.013 12.7285C11.875 12.7285 11.763 12.8405 11.764 12.9785C11.764 13.1165 11.876 13.2285 12.014 13.2285C12.152 13.2285 12.264 13.1165 12.264 12.9785C12.264 12.8405 12.152 12.7285 12.013 12.7285" stroke="#6B7280" stroke-width="1.5" stroke-linecap="round" stroke-linejoin="round"/>
<path d="M17.013 12.7285C16.875 12.7285 16.763 12.8405 16.764 12.9785C16.764 13.1165 16.876 13.2285 17.014 13.2285C17.152 13.2285 17.264 13.1165 17.264 12.9785C17.264 12.8405 17.152 12.7285 17.013 12.7285" stroke="#6B7280" stroke-width="1.5" stroke-linecap="round" stroke-linejoin="round"/>
<path d="M7.01304 16.7285C6.87504 16.7285 6.76304 16.8405 6.76404 16.9785C6.76404 17.1165 6.87604 17.2285 7.01404 17.2285C7.15204 17.2285 7.26404 17.1165 7.26404 16.9785C7.26404 16.8405 7.15204 16.7285 7.01304 16.7285" stroke="#6B7280" stroke-width="1.5" stroke-linecap="round" stroke-linejoin="round"/>
<path d="M12.013 16.7285C11.875 16.7285 11.763 16.8405 11.764 16.9785C11.764 17.1165 11.876 17.2285 12.014 17.2285C12.152 17.2285 12.264 17.1165 12.264 16.9785C12.264 16.8405 12.152 16.7285 12.013 16.7285" stroke="#6B7280" stroke-width="1.5" stroke-linecap="round" stroke-linejoin="round"/>
</svg>
