<svg width="25" height="24" viewBox="0 0 25 24" fill="none" xmlns="http://www.w3.org/2000/svg">
<path d="M3.5 7H21.5" stroke="#034EA2" stroke-width="1.5" stroke-linecap="round" stroke-linejoin="round"/>
<path d="M10.07 11H7.5" stroke="#034EA2" stroke-width="1.5" stroke-linecap="round" stroke-linejoin="round"/>
<path d="M9.5 17H6.5C4.843 17 3.5 15.657 3.5 14V6C3.5 4.343 4.843 3 6.5 3H18.5C20.157 3 21.5 4.343 21.5 6V10" stroke="#034EA2" stroke-width="1.5" stroke-linecap="round" stroke-linejoin="round"/>
<path fill-rule="evenodd" clip-rule="evenodd" d="M22.5 16.9561C22.5 19.7471 20.249 21.9981 17.458 21.9981C14.667 21.9981 12.416 19.7471 12.416 16.9561C12.416 14.1651 14.667 11.9141 17.458 11.9141C20.249 11.9141 22.5 14.1651 22.5 16.9561Z" stroke="#034EA2" stroke-width="1.5" stroke-linecap="round" stroke-linejoin="round"/>
<path d="M13.894 20.5225L21.022 13.3945" stroke="#034EA2" stroke-width="1.5" stroke-linecap="round" stroke-linejoin="round"/>
</svg>
