<svg width="24" height="24" viewBox="0 0 24 24" fill="none" xmlns="http://www.w3.org/2000/svg">
<path d="M2 6.85156H21" stroke="#334155" stroke-width="1.5" stroke-linecap="round" stroke-linejoin="round"/>
<path d="M21 13V5C21 3.895 20.105 3 19 3H4C2.895 3 2 3.895 2 5V14C2 15.105 2.895 16 4 16H12" stroke="#334155" stroke-width="1.5" stroke-linecap="round" stroke-linejoin="round"/>
<path d="M20.536 12.4644C22.489 14.4174 22.489 17.5824 20.536 19.5354C18.583 21.4884 15.418 21.4884 13.465 19.5354C11.512 17.5824 11.512 14.4174 13.465 12.4644C15.418 10.5114 18.583 10.5124 20.536 12.4644" stroke="#334155" stroke-width="1.5" stroke-linecap="round" stroke-linejoin="round"/>
<path d="M17 18.6492C16.973 18.6492 16.95 18.6722 16.95 18.6992C16.95 18.7262 16.973 18.7492 17 18.7492C17.027 18.7492 17.05 18.7262 17.05 18.6992C17.05 18.6722 17.027 18.6492 17 18.6492V18.6492" stroke="#334155" stroke-width="1.5" stroke-linecap="round" stroke-linejoin="round"/>
<path d="M17 16.626C17.863 16.626 18.563 15.926 18.563 15.063C18.563 14.2 17.864 13.5 17 13.5C16.158 13.5 15.477 14.166 15.444 15" stroke="#334155" stroke-width="1.5" stroke-linecap="round" stroke-linejoin="round"/>
</svg>
