<svg width="33" height="33" viewBox="0 0 33 33" fill="none" xmlns="http://www.w3.org/2000/svg">
<path d="M9.83319 21.8333C8.51987 21.8348 7.25219 21.3516 6.27301 20.4764C5.29383 19.6012 4.67201 18.3954 4.52667 17.0902C4.38133 15.7849 4.72269 14.4719 5.48537 13.4028C6.24804 12.3336 7.37839 11.5834 8.65986 11.296C8.28908 9.56674 8.62042 7.76107 9.58098 6.27615C10.5415 4.79124 12.0526 3.74873 13.7819 3.37796C15.5111 3.00718 17.3167 3.33852 18.8017 4.29908C20.2866 5.25965 21.3291 6.77074 21.6999 8.49996H21.8332C23.4865 8.49829 25.0814 9.111 26.3083 10.2191C27.5352 11.3272 28.3067 12.8517 28.4728 14.4966C28.639 16.1415 28.188 17.7895 27.2074 19.1206C26.2269 20.4517 24.7867 21.371 23.1665 21.7M20.4999 17.8333L16.4999 13.8333M16.4999 13.8333L12.4999 17.8333M16.4999 13.8333V29.8333" stroke="#9CA3AF" stroke-width="1.06667" stroke-linecap="round" stroke-linejoin="round"/>
</svg>
