<svg width="25" height="24" viewBox="0 0 25 24" fill="none" xmlns="http://www.w3.org/2000/svg">
<ellipse cx="9.49872" cy="9.99909" rx="6.0025" ry="2.50104" stroke="#64748B" stroke-width="1.5" stroke-linecap="round" stroke-linejoin="round"/>
<path d="M15.5012 13.5C15.5012 14.8813 12.8138 16.001 9.49872 16.001C6.18363 16.001 3.49622 14.8813 3.49622 13.5" stroke="#64748B" stroke-width="1.5" stroke-linecap="round" stroke-linejoin="round"/>
<path d="M21.5037 9.99805C21.5037 11.3793 18.8163 12.4991 15.5012 12.4991" stroke="#64748B" stroke-width="1.5" stroke-linecap="round" stroke-linejoin="round"/>
<path d="M15.5012 9.99805V17.5012C15.5012 18.8825 12.8138 20.0022 9.49872 20.0022C6.18363 20.0022 3.49622 18.8825 3.49622 17.5012V9.99805" stroke="#64748B" stroke-width="1.5" stroke-linecap="round" stroke-linejoin="round"/>
<path d="M21.5037 6.49609V13.9992C21.5037 15.3805 18.8163 16.5003 15.5012 16.5003" stroke="#64748B" stroke-width="1.5" stroke-linecap="round" stroke-linejoin="round"/>
<path d="M9.99899 7.50756C9.702 7.25262 9.52143 6.88788 9.49878 6.49714C9.49878 5.11656 12.1899 3.99609 15.5013 3.99609C18.8127 3.99609 21.5038 5.11656 21.5038 6.49714C21.5038 7.87771 18.8127 8.99818 15.5013 8.99818C15.3312 8.99818 15.1611 8.99818 15.0011 8.98817" stroke="#64748B" stroke-width="1.5" stroke-linecap="round" stroke-linejoin="round"/>
</svg>
