<svg width="24" height="24" viewBox="0 0 24 24" fill="none" xmlns="http://www.w3.org/2000/svg">
<ellipse cx="8.99872" cy="9.99916" rx="6.0025" ry="2.50104" stroke="#64748B" stroke-width="1.5" stroke-linecap="round" stroke-linejoin="round"/>
<path d="M15.0012 13.5006C15.0012 14.8819 12.3138 16.0017 8.99872 16.0017C5.68363 16.0017 2.99622 14.8819 2.99622 13.5006" stroke="#64748B" stroke-width="1.5" stroke-linecap="round" stroke-linejoin="round"/>
<path d="M21.0037 9.99916C21.0037 11.3804 18.3163 12.5002 15.0012 12.5002" stroke="#64748B" stroke-width="1.5" stroke-linecap="round" stroke-linejoin="round"/>
<path d="M15.0012 9.99916V17.5023C15.0012 18.8836 12.3138 20.0033 8.99872 20.0033C5.68363 20.0033 2.99622 18.8836 2.99622 17.5023V9.99916" stroke="#64748B" stroke-width="1.5" stroke-linecap="round" stroke-linejoin="round"/>
<path d="M21.0037 6.4977V14.0008C21.0037 15.3821 18.3163 16.5019 15.0012 16.5019" stroke="#64748B" stroke-width="1.5" stroke-linecap="round" stroke-linejoin="round"/>
<path d="M9.49899 7.50812C9.202 7.25318 9.02143 6.88845 8.99878 6.4977C8.99878 5.11713 11.6899 3.99666 15.0013 3.99666C18.3127 3.99666 21.0038 5.11713 21.0038 6.4977C21.0038 7.87827 18.3127 8.99874 15.0013 8.99874C14.8312 8.99874 14.6611 8.99874 14.5011 8.98874" stroke="#64748B" stroke-width="1.5" stroke-linecap="round" stroke-linejoin="round"/>
</svg>
