<svg width="24" height="24" viewBox="0 0 24 24" fill="none" xmlns="http://www.w3.org/2000/svg">
<path fill-rule="evenodd" clip-rule="evenodd" d="M20.926 15.999V8.00101C20.926 7.28601 20.545 6.62601 19.926 6.26901L13 2.27001C12.381 1.91301 11.619 1.91301 11 2.27001L4.074 6.26901C3.455 6.62601 3.074 7.28701 3.074 8.00101V15.998C3.074 16.713 3.455 17.373 4.074 17.73L11 21.73C11.619 22.087 12.381 22.087 13 21.73L19.926 17.731C20.545 17.374 20.926 16.713 20.926 15.999Z" stroke="#64748B" stroke-width="1.5" stroke-linecap="round" stroke-linejoin="round"/>
<path d="M6.17 12.63L9.17 14.37" stroke="#64748B" stroke-width="1.5" stroke-linecap="round" stroke-linejoin="round"/>
<path d="M3.342 7.00101L12 12L20.658 7.00101" stroke="#64748B" stroke-width="1.5" stroke-linecap="round" stroke-linejoin="round"/>
<path d="M12 22V12" stroke="#64748B" stroke-width="1.5" stroke-linecap="round" stroke-linejoin="round"/>
<path d="M7.67 9.50001L16.6 4.35001" stroke="#64748B" stroke-width="1.5" stroke-linecap="round" stroke-linejoin="round"/>
</svg>
