<svg width="24" height="24" viewBox="0 0 24 24" fill="none" xmlns="http://www.w3.org/2000/svg">
<path fill-rule="evenodd" clip-rule="evenodd" d="M20.9223 15.9987V8.0007C20.9223 7.2857 20.5413 6.6257 19.9223 6.2687L12.9963 2.2697C12.3773 1.9127 11.6153 1.9127 10.9963 2.2697L4.07031 6.2687C3.45131 6.6257 3.07031 7.2867 3.07031 8.0007V15.9977C3.07031 16.7127 3.45131 17.3727 4.07031 17.7297L10.9963 21.7297C11.6153 22.0867 12.3773 22.0867 12.9963 21.7297L19.9223 17.7307C20.5413 17.3737 20.9223 16.7127 20.9223 15.9987Z" stroke="#034EA2" stroke-width="1.5" stroke-linecap="round" stroke-linejoin="round"/>
<path d="M6.16406 12.6299L9.16406 14.3699" stroke="#034EA2" stroke-width="1.5" stroke-linecap="round" stroke-linejoin="round"/>
<path d="M3.34375 7.00098L12.0017 12L20.6597 7.00098" stroke="#034EA2" stroke-width="1.5" stroke-linecap="round" stroke-linejoin="round"/>
<path d="M12 22V12" stroke="#034EA2" stroke-width="1.5" stroke-linecap="round" stroke-linejoin="round"/>
<path d="M7.67188 9.49961L16.6019 4.34961" stroke="#034EA2" stroke-width="1.5" stroke-linecap="round" stroke-linejoin="round"/>
</svg>
