<svg width="31" height="34" viewBox="0 0 31 34" fill="none" xmlns="http://www.w3.org/2000/svg">
<g id="Group">
<path id="Path" d="M29.5 10.875H23.375C21.442 10.875 19.875 9.308 19.875 7.375V1.25" stroke="#034EA2" stroke-width="1.5" stroke-linecap="round" stroke-linejoin="round"/>
<path id="Path_2" d="M15.5 32.75V24" stroke="#034EA2" stroke-width="1.5" stroke-linecap="round" stroke-linejoin="round"/>
<path id="Path_3" d="M15.5 24L12 27.5" stroke="#034EA2" stroke-width="1.5" stroke-linecap="round" stroke-linejoin="round"/>
<path id="Path_4" d="M19 27.5L15.5 24" stroke="#034EA2" stroke-width="1.5" stroke-linecap="round" stroke-linejoin="round"/>
<path id="Path_5" d="M24.25 32.75C27.1495 32.75 29.5 30.3995 29.5 27.5V10.4246C29.5 9.03223 28.9469 7.69688 27.9623 6.71231L24.0377 2.78769C23.0531 1.80312 21.7178 1.25 20.3254 1.25H6.75C3.85051 1.25 1.5 3.60051 1.5 6.5V27.5C1.5 30.3995 3.85051 32.75 6.75 32.75" stroke="#034EA2" stroke-width="1.5" stroke-linecap="round" stroke-linejoin="round"/>
<path id="Path_6" d="M6.75 32.75H8.5" stroke="#034EA2" stroke-width="1.5" stroke-linecap="round" stroke-linejoin="round"/>
<path id="Path_7" d="M22.5 32.75H24.25" stroke="#034EA2" stroke-width="1.5" stroke-linecap="round" stroke-linejoin="round"/>
</g>
</svg>
