<svg width="24" height="24" viewBox="0 0 24 24" fill="none" xmlns="http://www.w3.org/2000/svg">
<path d="M21.0038 11.9998V16.0015C21.0038 18.7641 18.7643 21.0036 16.0018 21.0036H7.99842C5.23585 21.0036 2.99634 18.7641 2.99634 16.0015V7.99818C2.99634 5.2356 5.23585 2.99609 7.99842 2.99609H12.0001" stroke="#94A3B8" stroke-width="1.5" stroke-linecap="round" stroke-linejoin="round"/>
<path fill-rule="evenodd" clip-rule="evenodd" d="M17.3818 3.61662C17.7799 3.21882 18.3198 2.99559 18.8825 2.99609C19.4453 2.9966 19.9848 3.22079 20.3821 3.6193V3.6193C20.7802 4.01724 21.0037 4.55706 21.0037 5.11991C21.0037 5.68276 20.7799 6.22252 20.3817 6.62036C20.3811 6.61972 16.2039 10.7967 14.7594 12.2412C14.4447 12.5558 14.0337 12.7561 13.5919 12.81L12.1135 12.9926C11.8069 13.0305 11.5001 12.9233 11.2837 12.7028C11.0674 12.4823 10.9661 12.1735 11.0097 11.8677L11.2284 10.3361C11.288 9.90937 11.485 9.5137 11.7895 9.20897C12.8005 8.19758 15.2709 5.72703 17.3818 3.61662Z" stroke="#94A3B8" stroke-width="1.5" stroke-linecap="round" stroke-linejoin="round"/>
</svg>
