<svg width="38" height="38" viewBox="0 0 38 38" fill="none" xmlns="http://www.w3.org/2000/svg">
<path d="M0 19C0 8.50659 8.50659 0 19 0C29.4934 0 38 8.50659 38 19C38 29.4934 29.4934 38 19 38C8.50659 38 0 29.4934 0 19Z" fill="#FEF2F2"/>
<path d="M5 19C5 11.268 11.268 5 19 5C26.732 5 33 11.268 33 19C33 26.732 26.732 33 19 33C11.268 33 5 26.732 5 19Z" fill="#FEE2E2"/>
<circle cx="19.0001" cy="19" r="6.75281" stroke="#DC2626" stroke-width="1.35" stroke-linecap="round" stroke-linejoin="round"/>
<path d="M18.2502 21.626H19.983" stroke="#DC2626" stroke-width="1.35" stroke-linecap="round" stroke-linejoin="round"/>
<path d="M19.1197 21.6261V18.4373H18.2568" stroke="#DC2626" stroke-width="1.35" stroke-linecap="round" stroke-linejoin="round"/>
<path d="M19.0752 16.1841C19.0752 16.2877 18.9912 16.3717 18.8876 16.3717C18.784 16.3717 18.7 16.2877 18.7 16.1841C18.7 16.0805 18.784 15.9965 18.8876 15.9965" stroke="#DC2626" stroke-width="1.35" stroke-linecap="round" stroke-linejoin="round"/>
<path d="M18.8876 15.9966C18.9912 15.9966 19.0751 16.0806 19.0751 16.1842" stroke="#DC2626" stroke-width="1.35" stroke-linecap="round" stroke-linejoin="round"/>
</svg>
