<svg width="16" height="16" viewBox="0 0 16 16" fill="none" xmlns="http://www.w3.org/2000/svg">
<path fill-rule="evenodd" clip-rule="evenodd" d="M2.07874 8.31198C1.97408 8.11798 1.97408 7.88265 2.07874 7.68865C3.34008 5.35598 5.67008 3.33398 8.00008 3.33398C10.3301 3.33398 12.6601 5.35598 13.9214 7.68932C14.0261 7.88332 14.0261 8.11865 13.9214 8.31265C12.6601 10.6453 10.3301 12.6673 8.00008 12.6673C5.67008 12.6673 3.34008 10.6453 2.07874 8.31198Z" stroke="#94A3B8" stroke-linecap="round" stroke-linejoin="round"/>
<path d="M9.41421 6.58579C10.1953 7.36683 10.1953 8.63316 9.41421 9.41421C8.63316 10.1953 7.36683 10.1953 6.58579 9.41421C5.80474 8.63316 5.80474 7.36683 6.58579 6.58579C7.36683 5.80474 8.63316 5.80474 9.41421 6.58579" stroke="#94A3B8" stroke-linecap="round" stroke-linejoin="round"/>
</svg>
