<svg width="24" height="24" viewBox="0 0 24 24" fill="none" xmlns="http://www.w3.org/2000/svg">
<path d="M21.0037 8.00021H2.99622" stroke="#334155" stroke-width="1.5" stroke-linecap="round" stroke-linejoin="round"/>
<path d="M7.9983 13.0002H2.99622" stroke="#334155" stroke-width="1.5" stroke-linecap="round" stroke-linejoin="round"/>
<path d="M7.9983 18.0041H2.99622" stroke="#334155" stroke-width="1.5" stroke-linecap="round" stroke-linejoin="round"/>
<path d="M21.0037 2.9963H2.99622" stroke="#334155" stroke-width="1.5" stroke-linecap="round" stroke-linejoin="round"/>
<path fill-rule="evenodd" clip-rule="evenodd" d="M15.4014 17.5199V20.113C15.3992 20.4221 15.5579 20.7102 15.8205 20.8735C16.083 21.0368 16.4115 21.0519 16.6879 20.9133L18.1125 20.201C18.4158 20.0499 18.6067 19.7395 18.6047 19.4007V17.5199L20.6586 15.9352C20.8758 15.7677 21.0035 15.5093 21.0047 15.2349V13.8894C21.0047 13.6533 20.9109 13.427 20.7439 13.2601C20.5769 13.0933 20.3504 12.9997 20.1143 13H13.8897C13.3986 13 13.0004 13.3982 13.0004 13.8894V15.2309C13.0017 15.5052 13.1294 15.7636 13.3465 15.9312L15.4014 17.5199Z" stroke="#334155" stroke-width="1.5" stroke-linecap="round" stroke-linejoin="round"/>
</svg>
