<svg width="24" height="24" viewBox="0 0 24 24" fill="none" xmlns="http://www.w3.org/2000/svg">
<circle cx="18" cy="10.1133" r="4.5" stroke="#034EA2" stroke-width="1.5" stroke-linecap="round" stroke-linejoin="round"/>
<path d="M21 16.75V18C21 19.6568 19.6568 21 18 21H6C4.34315 21 3 19.6568 3 18V10.3604C3 9.73796 3.28981 9.15099 3.784 8.77254L10.784 3.4121C11.5015 2.86263 12.4984 2.86263 13.2159 3.4121L14.2499 4.20391" stroke="#034EA2" stroke-width="1.5" stroke-linecap="round" stroke-linejoin="round"/>
<path d="M13.2158 15.5877C12.4983 16.1372 11.5014 16.1372 10.7839 15.5877L3.10962 9.71094" stroke="#034EA2" stroke-width="1.5" stroke-linecap="round" stroke-linejoin="round"/>
<path d="M19.5889 10.1133C19.5889 10.1379 19.5689 10.1577 19.5444 10.1577C19.5199 10.1577 19.5 10.1378 19.5 10.1133C19.5 10.0887 19.5199 10.0688 19.5444 10.0688C19.5689 10.0688 19.5889 10.0887 19.5889 10.1132V10.1133" stroke="#034EA2" stroke-width="1.5" stroke-linecap="round" stroke-linejoin="round"/>
<path d="M17.1001 10.1133C17.1001 10.1379 17.0802 10.1577 17.0556 10.1577C17.0311 10.1577 17.0112 10.1378 17.0112 10.1133C17.0112 10.0887 17.0311 10.0688 17.0556 10.0688C17.0802 10.0688 17.1001 10.0887 17.1001 10.1132V10.1133" stroke="#034EA2" stroke-width="1.5" stroke-linecap="round" stroke-linejoin="round"/>
</svg>
