<svg width="26" height="26" viewBox="0 0 26 26" fill="none" xmlns="http://www.w3.org/2000/svg">
<path d="M11.8155 0.490634C12.5739 0.176486 13.4261 0.176486 14.1845 0.490634L21.0079 3.31698C21.7663 3.63112 22.3689 4.23369 22.683 4.99211L25.5094 11.8155C25.8235 12.5739 25.8235 13.4261 25.5094 14.1845L22.683 21.0079C22.3689 21.7663 21.7663 22.3689 21.0079 22.683L14.1845 25.5094C13.4261 25.8235 12.5739 25.8235 11.8155 25.5094L4.99211 22.683C4.23369 22.3689 3.63112 21.7663 3.31698 21.0079L0.490634 14.1845C0.176486 13.4261 0.176486 12.5739 0.490634 11.8155L3.31698 4.99211C3.63112 4.23369 4.23369 3.63112 4.99211 3.31698L11.8155 0.490634Z" fill="#F59E0B"/>
<mask id="mask0_2_498" style="mask-type:alpha" maskUnits="userSpaceOnUse" x="0" y="0" width="26" height="26">
<path d="M11.8155 0.490634C12.5739 0.176486 13.4261 0.176486 14.1845 0.490634L21.0079 3.31698C21.7663 3.63112 22.3689 4.23369 22.683 4.99211L25.5094 11.8155C25.8235 12.5739 25.8235 13.4261 25.5094 14.1845L22.683 21.0079C22.3689 21.7663 21.7663 22.3689 21.0079 22.683L14.1845 25.5094C13.4261 25.8235 12.5739 25.8235 11.8155 25.5094L4.99211 22.683C4.23369 22.3689 3.63112 21.7663 3.31698 21.0079L0.490634 14.1845C0.176486 13.4261 0.176486 12.5739 0.490634 11.8155L3.31698 4.99211C3.63112 4.23369 4.23369 3.63112 4.99211 3.31698L11.8155 0.490634Z" fill="#2563EB"/>
</mask>
<g mask="url(#mask0_2_498)">
<circle cx="13.62" cy="16.7146" r="11.7619" fill="#FCD34D" fill-opacity="0.3"/>
<path d="M28.1093 4.61848C29.1774 4.90468 30.0118 5.739 30.298 6.80714L33.11 17.3018C33.3962 18.37 33.0908 19.5097 32.3089 20.2916L24.6263 27.9743C23.8443 28.7562 22.7046 29.0616 21.6365 28.7754L11.1418 25.9633C10.0736 25.6771 9.23934 24.8428 8.95313 23.7747L6.14108 13.28C5.85487 12.2118 6.16026 11.0721 6.94219 10.2902L14.6248 2.60754C15.4068 1.8256 16.5465 1.52022 17.6146 1.80643L28.1093 4.61848Z" fill="#92400E" fill-opacity="0.3"/>
</g>
<path d="M16.1961 15.2285V17.2326H10.1836V15.2285H12.1599V11.6794C12.0764 11.7907 11.9465 11.9067 11.7702 12.0273C11.5939 12.1387 11.3944 12.2454 11.1717 12.3474C10.9583 12.4402 10.7356 12.5191 10.5037 12.584C10.281 12.6397 10.0815 12.6676 9.90521 12.6676V10.6077C10.0537 10.6077 10.2439 10.5567 10.4758 10.4546C10.7171 10.3525 10.9537 10.2319 11.1857 10.0927C11.4176 9.94428 11.6264 9.79582 11.812 9.64737C11.9975 9.49891 12.1135 9.37829 12.1599 9.2855H14.4285V15.2285H16.1961Z" fill="white"/>
</svg>
