<svg width="24" height="24" viewBox="0 0 24 24" fill="none" xmlns="http://www.w3.org/2000/svg">
<path d="M18.0215 12.0217L19.7523 10.291C20.8587 9.21756 21.3009 7.63127 20.9095 6.14023C20.518 4.64919 19.3535 3.48473 17.8625 3.09326C16.3715 2.70179 14.7852 3.14404 13.7117 4.25048L10.0102 7.95202C9.20881 8.75284 8.75854 9.83934 8.75854 10.9723C8.75854 12.1052 9.20881 13.1917 10.0102 13.9925L9.9992 14.0035C10.344 14.3418 10.7443 14.6182 11.1827 14.8209" stroke="#334155" stroke-width="1.5" stroke-linecap="round" stroke-linejoin="round"/>
<path d="M12.8064 9.19141C13.2448 9.39442 13.6451 9.67122 13.9898 10.0097C14.7912 10.8106 15.2415 11.8971 15.2415 13.03C15.2415 14.1629 14.7912 15.2494 13.9898 16.0503L10.2883 19.7518C8.61311 21.377 5.94357 21.3568 4.29317 19.7064C2.64276 18.056 2.62256 15.3865 4.24779 13.7113L5.97851 11.9806" stroke="#334155" stroke-width="1.5" stroke-linecap="round" stroke-linejoin="round"/>
</svg>
