<svg width="11" height="10" viewBox="0 0 11 10" fill="none" xmlns="http://www.w3.org/2000/svg">
<path d="M0 7.63793V3L5.71374 6.6642C5.71374 6.6642 3.61963 7.9281 4.05981 7.46405C3.11963 8.9281 2.55981 8.46405 4.05981 7.46405L11 3V7.63793C11 8.13178 10.7733 8.60541 10.3696 8.95461C9.96603 9.30382 9.41862 9.5 8.84783 9.5H2.15217C1.58138 9.5 1.03397 9.30382 0.630357 8.95461C0.226746 8.60541 0 8.13178 0 7.63793Z" fill="#034EA2"/>
<path d="M2.15217 1.61778e-07C1.58138 1.61778e-07 1.03397 0.258564 0.630357 0.71881C0.226746 1.17906 0 1.80328 0 2.45417V2.50925L5.30859 5.92819C6 6.5 5.5 4.5 5.5 4.5C5.5 4.5 5 6.5 5.7353 5.92819L10.9976 2.49453L11 2.45417C10.9994 2.23784 10.9759 2.02933 10.9297 1.82863C10.8085 1.30443 10.5386 0.840727 10.1619 0.509916C9.7853 0.179106 9.32323 -0.000196606 8.84783 1.61778e-07H2.15217Z" fill="url(#paint0_linear_15_32)"/>
<defs>
<linearGradient id="paint0_linear_15_32" x1="14.768" y1="-1.94088" x2="19.3461" y2="8.06781" gradientUnits="userSpaceOnUse">
<stop stop-color="#034EA2"/>
<stop offset="0.462" stop-color="#2980E3"/>
<stop offset="1" stop-color="#034EA2"/>
</linearGradient>
</defs>
</svg>
