<svg width="28" height="42" viewBox="0 0 28 42" fill="none" xmlns="http://www.w3.org/2000/svg">
<path d="M2.00391 7.89564V17.875C2.00391 18.7985 2.39899 19.6842 3.10226 20.3372C3.80552 20.9903 4.75934 21.3571 5.75391 21.3571H22.2499C23.2445 21.3571 24.1983 20.9903 24.9016 20.3372C25.6048 19.6842 25.9999 18.7985 25.9999 17.875V7.89286L14.3419 13.4383C14.2361 13.4886 14.1188 13.5149 13.9999 13.5149C13.881 13.5149 13.7638 13.4886 13.6579 13.4383L2.00391 7.89564Z" fill="#034EA2"/>
<path d="M2.00391 7.89564V17.875C2.00391 18.7985 2.39899 19.6842 3.10226 20.3372C3.80552 20.9903 4.75934 21.3571 5.75391 21.3571H22.2499C23.2445 21.3571 24.1983 20.9903 24.9016 20.3372C25.6048 19.6842 25.9999 18.7985 25.9999 17.875V7.89286L14.3419 13.4383C14.2361 13.4886 14.1188 13.5149 13.9999 13.5149C13.881 13.5149 13.7638 13.4886 13.6579 13.4383L2.00391 7.89564Z" fill="url(#paint0_linear_14_11)"/>
<path d="M2.00391 7.89564V17.875C2.00391 18.7985 2.39899 19.6842 3.10226 20.3372C3.80552 20.9903 4.75934 21.3571 5.75391 21.3571H22.2499C23.2445 21.3571 24.1983 20.9903 24.9016 20.3372C25.6048 19.6842 25.9999 18.7985 25.9999 17.875V7.89286L14.3419 13.4383C14.2361 13.4886 14.1188 13.5149 13.9999 13.5149C13.881 13.5149 13.7638 13.4886 13.6579 13.4383L2.00391 7.89564Z" fill="url(#paint1_linear_14_11)"/>
<path d="M2.00391 7.89564V17.875C2.00391 18.7985 2.39899 19.6842 3.10226 20.3372C3.80552 20.9903 4.75934 21.3571 5.75391 21.3571H22.2499C23.2445 21.3571 24.1983 20.9903 24.9016 20.3372C25.6048 19.6842 25.9999 18.7985 25.9999 17.875V7.89286L14.3419 13.4383C14.2361 13.4886 14.1188 13.5149 13.9999 13.5149C13.881 13.5149 13.7638 13.4886 13.6579 13.4383L2.00391 7.89564Z" fill="url(#paint2_linear_14_11)" fill-opacity="0.75"/>
<path d="M4 27.8599V37.8393C4 38.7628 4.39509 39.6485 5.09835 40.3015C5.80161 40.9546 6.75544 41.3214 7.75 41.3214H24.246C25.2406 41.3214 26.1944 40.9546 26.8977 40.3015C27.6009 39.6485 27.996 38.7628 27.996 37.8393V27.8571L16.338 33.4026C16.5026 33.3243 16.1149 33.4792 15.996 33.4792C15.8771 33.4792 15.7598 33.4529 15.654 33.4026L4 27.8599Z" fill="url(#paint3_linear_14_11)" fill-opacity="0.7"/>
<path d="M2 6.26786C2 5.34434 2.39509 4.45864 3.09835 3.80561C3.80161 3.15258 4.75544 2.78571 5.75 2.78571H22.246C23.2406 2.78571 24.1944 3.15258 24.8977 3.80561C25.6009 4.45864 25.996 5.34434 25.996 6.26786V7.38214L14.338 12.9276C14.2322 12.9779 14.1149 13.0042 13.996 13.0042C13.8771 13.0042 13.7598 12.9779 13.654 12.9276L2 7.38493V6.26786Z" fill="url(#paint4_linear_14_11)"/>
<defs>
<linearGradient id="paint0_linear_14_11" x1="17.4999" y1="9.75" x2="22.4942" y2="22.2767" gradientUnits="userSpaceOnUse">
<stop offset="0.199" stop-color="#0094F0" stop-opacity="0"/>
<stop offset="0.431" stop-color="#0094F0"/>
</linearGradient>
<linearGradient id="paint1_linear_14_11" x1="10.5739" y1="9.30986" x2="5.26729" y2="22.7127" gradientUnits="userSpaceOnUse">
<stop stop-color="#034EA2" stop-opacity="0"/>
<stop offset="0.88" stop-color="#034EA2"/>
</linearGradient>
<linearGradient id="paint2_linear_14_11" x1="20.3289" y1="15.9259" x2="21.1726" y2="22.6227" gradientUnits="userSpaceOnUse">
<stop stop-color="#2764E7" stop-opacity="0"/>
<stop offset="1" stop-color="#2764E7"/>
</linearGradient>
<linearGradient id="paint3_linear_14_11" x1="27.2125" y1="10.9395" x2="27.4758" y2="10.659" gradientUnits="userSpaceOnUse">
<stop offset="1" stop-color="#0A0432" stop-opacity="0"/>
<stop offset="1" stop-color="#0A0432" stop-opacity="0.817073"/>
<stop offset="1" stop-color="#0A0432"/>
</linearGradient>
<linearGradient id="paint4_linear_14_11" x1="62.6307" y1="-5.05188" x2="69.076" y2="13.1269" gradientUnits="userSpaceOnUse">
<stop offset="0.25" stop-color="#1270DA"/>
<stop offset="0.62" stop-color="#358EF1"/>
<stop offset="1" stop-color="#4894FE"/>
</linearGradient>
</defs>
</svg>
