<svg width="20" height="20" viewBox="0 0 20 20" fill="none" xmlns="http://www.w3.org/2000/svg">
<path d="M16.364 3.63604C19.8787 7.15076 19.8787 12.8492 16.364 16.3639C12.8493 19.8787 7.1508 19.8787 3.6361 16.3639C0.121381 12.8492 0.121381 7.15074 3.6361 3.63604C7.15082 0.12132 12.8493 0.12132 16.364 3.63604" stroke="#64748B" stroke-width="1.5" stroke-linecap="round" stroke-linejoin="round"/>
<path d="M11.5 12.5C9.567 12.5 8 10.933 8 9C8 7.067 9.567 5.5 11.5 5.5C13.434 5.5 15 7.067 15 9C15 10.933 13.434 12.5 11.5 12.5" stroke="#64748B" stroke-width="1.5" stroke-linecap="round" stroke-linejoin="round"/>
<path d="M8.33 7.51801C6.478 7.60801 5 9.12601 5 11C5 12.933 6.567 14.5 8.5 14.5C9.897 14.5 11.093 13.676 11.655 12.492" stroke="#64748B" stroke-width="1.5" stroke-linecap="round" stroke-linejoin="round"/>
</svg>
