<svg width="183" height="40" viewBox="0 0 183 40" fill="none" xmlns="http://www.w3.org/2000/svg">
<rect width="40" height="40" rx="3.19934" fill="#F9FAFB"/>
<path d="M17.332 9.33594V11.7359C17.332 12.1773 17.6307 12.5359 17.9987 12.5359H21.9987C22.3667 12.5359 22.6654 12.1773 22.6654 11.7359V9.33594" stroke="#034EA2" stroke-linecap="round" stroke-linejoin="round"/>
<path d="M18.5078 27.3346H21.4945" stroke="#034EA2" stroke-linecap="round" stroke-linejoin="round"/>
<path fill-rule="evenodd" clip-rule="evenodd" d="M15.9987 9.33594H23.9987C25.472 9.33594 26.6654 10.5293 26.6654 12.0026V28.0026C26.6654 29.4759 25.472 30.6693 23.9987 30.6693H15.9987C14.5254 30.6693 13.332 29.4759 13.332 28.0026V12.0026C13.332 10.5293 14.5254 9.33594 15.9987 9.33594Z" stroke="#034EA2" stroke-linecap="round" stroke-linejoin="round"/>
<path d="M47.264 14.172H49.936L55.424 22.588H55.456V14.172H57.472V25.5H54.912L49.312 16.812H49.28V25.5H47.264V14.172ZM59.9504 14.172H61.9664V25.5H59.9504V14.172ZM64.4995 14.172H67.5715L70.5955 22.108L73.6515 14.172H76.6915V25.5H74.7715V16.092H74.7395L71.2995 25.5H69.8915L66.4515 16.092H66.4195V25.5H64.4995V14.172ZM87.04 16.828C86.624 16.38 86.2187 16.0813 85.824 15.932C85.44 15.7827 85.0507 15.708 84.656 15.708C84.0693 15.708 83.536 15.8147 83.056 16.028C82.5867 16.2307 82.1813 16.5187 81.84 16.892C81.4987 17.2547 81.232 17.6813 81.04 18.172C80.8587 18.6627 80.768 19.1907 80.768 19.756C80.768 20.364 80.8587 20.924 81.04 21.436C81.232 21.948 81.4987 22.3907 81.84 22.764C82.1813 23.1373 82.5867 23.4307 83.056 23.644C83.536 23.8573 84.0693 23.964 84.656 23.964C85.1147 23.964 85.5573 23.8573 85.984 23.644C86.4213 23.42 86.8267 23.068 87.2 22.588L88.864 23.772C88.352 24.476 87.728 24.988 86.992 25.308C86.256 25.628 85.472 25.788 84.64 25.788C83.7653 25.788 82.96 25.6493 82.224 25.372C81.4987 25.084 80.8693 24.684 80.336 24.172C79.8133 23.6493 79.4027 23.0253 79.104 22.3C78.8053 21.5747 78.656 20.7693 78.656 19.884C78.656 18.9773 78.8053 18.156 79.104 17.42C79.4027 16.6733 79.8133 16.0387 80.336 15.516C80.8693 14.9933 81.4987 14.5933 82.224 14.316C82.96 14.028 83.7653 13.884 84.64 13.884C85.408 13.884 86.1173 14.0227 86.768 14.3C87.4293 14.5667 88.0427 15.0253 88.608 15.676L87.04 16.828ZM94.9995 14.172H98.0715L101.096 22.108L104.152 14.172H107.192V25.5H105.272V16.092H105.24L101.8 25.5H100.392L96.9515 16.092H96.9195V25.5H94.9995V14.172ZM109.204 21.66C109.204 21.052 109.311 20.5027 109.524 20.012C109.748 19.5107 110.047 19.084 110.42 18.732C110.793 18.38 111.236 18.108 111.748 17.916C112.26 17.724 112.804 17.628 113.38 17.628C113.956 17.628 114.5 17.724 115.012 17.916C115.524 18.108 115.967 18.38 116.34 18.732C116.713 19.084 117.007 19.5107 117.22 20.012C117.444 20.5027 117.556 21.052 117.556 21.66C117.556 22.268 117.444 22.8227 117.22 23.324C117.007 23.8147 116.713 24.236 116.34 24.588C115.967 24.94 115.524 25.212 115.012 25.404C114.5 25.596 113.956 25.692 113.38 25.692C112.804 25.692 112.26 25.596 111.748 25.404C111.236 25.212 110.793 24.94 110.42 24.588C110.047 24.236 109.748 23.8147 109.524 23.324C109.311 22.8227 109.204 22.268 109.204 21.66ZM111.124 21.66C111.124 21.9587 111.172 22.2467 111.268 22.524C111.375 22.8013 111.524 23.0467 111.716 23.26C111.919 23.4733 112.159 23.644 112.436 23.772C112.713 23.9 113.028 23.964 113.38 23.964C113.732 23.964 114.047 23.9 114.324 23.772C114.601 23.644 114.836 23.4733 115.028 23.26C115.231 23.0467 115.38 22.8013 115.476 22.524C115.583 22.2467 115.636 21.9587 115.636 21.66C115.636 21.3613 115.583 21.0733 115.476 20.796C115.38 20.5187 115.231 20.2733 115.028 20.06C114.836 19.8467 114.601 19.676 114.324 19.548C114.047 19.42 113.732 19.356 113.38 19.356C113.028 19.356 112.713 19.42 112.436 19.548C112.159 19.676 111.919 19.8467 111.716 20.06C111.524 20.2733 111.375 20.5187 111.268 20.796C111.172 21.0733 111.124 21.3613 111.124 21.66ZM119.354 13.404H121.274V18.796H121.322C121.418 18.668 121.54 18.54 121.69 18.412C121.839 18.2733 122.02 18.1453 122.234 18.028C122.447 17.9107 122.692 17.8147 122.97 17.74C123.247 17.6653 123.567 17.628 123.93 17.628C124.474 17.628 124.975 17.7347 125.434 17.948C125.892 18.1507 126.282 18.4333 126.602 18.796C126.932 19.1587 127.188 19.5853 127.37 20.076C127.551 20.5667 127.642 21.0947 127.642 21.66C127.642 22.2253 127.556 22.7533 127.386 23.244C127.215 23.7347 126.964 24.1613 126.634 24.524C126.303 24.8867 125.903 25.1747 125.434 25.388C124.964 25.5907 124.436 25.692 123.85 25.692C123.306 25.692 122.799 25.5853 122.33 25.372C121.86 25.1587 121.487 24.8173 121.21 24.348H121.178V25.5H119.354V13.404ZM125.722 21.66C125.722 21.3613 125.668 21.0733 125.562 20.796C125.466 20.5187 125.316 20.2733 125.114 20.06C124.922 19.8467 124.687 19.676 124.41 19.548C124.132 19.42 123.818 19.356 123.466 19.356C123.114 19.356 122.799 19.42 122.522 19.548C122.244 19.676 122.004 19.8467 121.802 20.06C121.61 20.2733 121.46 20.5187 121.354 20.796C121.258 21.0733 121.21 21.3613 121.21 21.66C121.21 21.9587 121.258 22.2467 121.354 22.524C121.46 22.8013 121.61 23.0467 121.802 23.26C122.004 23.4733 122.244 23.644 122.522 23.772C122.799 23.9 123.114 23.964 123.466 23.964C123.818 23.964 124.132 23.9 124.41 23.772C124.687 23.644 124.922 23.4733 125.114 23.26C125.316 23.0467 125.466 22.8013 125.562 22.524C125.668 22.2467 125.722 21.9587 125.722 21.66ZM129.464 17.82H131.384V25.5H129.464V17.82ZM129.192 15.212C129.192 14.9027 129.304 14.636 129.528 14.412C129.762 14.1773 130.056 14.06 130.408 14.06C130.76 14.06 131.053 14.172 131.288 14.396C131.533 14.6093 131.656 14.8813 131.656 15.212C131.656 15.5427 131.533 15.82 131.288 16.044C131.053 16.2573 130.76 16.364 130.408 16.364C130.056 16.364 129.762 16.252 129.528 16.028C129.304 15.7933 129.192 15.5213 129.192 15.212ZM133.62 13.404H135.54V25.5H133.62V13.404ZM139.28 22.332C139.344 22.908 139.568 23.356 139.952 23.676C140.336 23.996 140.8 24.156 141.344 24.156C141.824 24.156 142.224 24.06 142.544 23.868C142.875 23.6653 143.163 23.4147 143.408 23.116L144.784 24.156C144.336 24.7107 143.835 25.1053 143.28 25.34C142.726 25.5747 142.144 25.692 141.536 25.692C140.96 25.692 140.416 25.596 139.904 25.404C139.392 25.212 138.95 24.94 138.576 24.588C138.203 24.236 137.904 23.8147 137.68 23.324C137.467 22.8227 137.36 22.268 137.36 21.66C137.36 21.052 137.467 20.5027 137.68 20.012C137.904 19.5107 138.203 19.084 138.576 18.732C138.95 18.38 139.392 18.108 139.904 17.916C140.416 17.724 140.96 17.628 141.536 17.628C142.07 17.628 142.555 17.724 142.992 17.916C143.44 18.0973 143.819 18.364 144.128 18.716C144.448 19.068 144.694 19.5053 144.864 20.028C145.046 20.54 145.136 21.132 145.136 21.804V22.332H139.28ZM143.216 20.892C143.206 20.3267 143.03 19.884 142.688 19.564C142.347 19.2333 141.872 19.068 141.264 19.068C140.688 19.068 140.23 19.2333 139.888 19.564C139.558 19.8947 139.355 20.3373 139.28 20.892H143.216ZM155.506 14.172H157.25L162.13 25.5H159.826L158.77 22.908H153.858L152.834 25.5H150.578L155.506 14.172ZM158.066 21.18L156.322 16.572L154.546 21.18H158.066ZM163.213 17.82H165.037V18.972H165.069C165.346 18.5027 165.72 18.1613 166.189 17.948C166.658 17.7347 167.165 17.628 167.709 17.628C168.296 17.628 168.824 17.7347 169.293 17.948C169.762 18.1507 170.162 18.4333 170.493 18.796C170.824 19.1587 171.074 19.5853 171.245 20.076C171.416 20.5667 171.501 21.0947 171.501 21.66C171.501 22.2253 171.41 22.7533 171.229 23.244C171.048 23.7347 170.792 24.1613 170.461 24.524C170.141 24.8867 169.752 25.1747 169.293 25.388C168.834 25.5907 168.333 25.692 167.789 25.692C167.426 25.692 167.106 25.6547 166.829 25.58C166.552 25.5053 166.306 25.4093 166.093 25.292C165.88 25.1747 165.698 25.052 165.549 24.924C165.4 24.7853 165.277 24.652 165.181 24.524H165.133V29.148H163.213V17.82ZM169.581 21.66C169.581 21.3613 169.528 21.0733 169.421 20.796C169.325 20.5187 169.176 20.2733 168.973 20.06C168.781 19.8467 168.546 19.676 168.269 19.548C167.992 19.42 167.677 19.356 167.325 19.356C166.973 19.356 166.658 19.42 166.381 19.548C166.104 19.676 165.864 19.8467 165.661 20.06C165.469 20.2733 165.32 20.5187 165.213 20.796C165.117 21.0733 165.069 21.3613 165.069 21.66C165.069 21.9587 165.117 22.2467 165.213 22.524C165.32 22.8013 165.469 23.0467 165.661 23.26C165.864 23.4733 166.104 23.644 166.381 23.772C166.658 23.9 166.973 23.964 167.325 23.964C167.677 23.964 167.992 23.9 168.269 23.772C168.546 23.644 168.781 23.4733 168.973 23.26C169.176 23.0467 169.325 22.8013 169.421 22.524C169.528 22.2467 169.581 21.9587 169.581 21.66ZM173.291 17.82H175.115V18.972H175.147C175.424 18.5027 175.798 18.1613 176.267 17.948C176.736 17.7347 177.243 17.628 177.787 17.628C178.374 17.628 178.902 17.7347 179.371 17.948C179.84 18.1507 180.24 18.4333 180.571 18.796C180.902 19.1587 181.152 19.5853 181.323 20.076C181.494 20.5667 181.579 21.0947 181.579 21.66C181.579 22.2253 181.488 22.7533 181.307 23.244C181.126 23.7347 180.87 24.1613 180.539 24.524C180.219 24.8867 179.83 25.1747 179.371 25.388C178.912 25.5907 178.411 25.692 177.867 25.692C177.504 25.692 177.184 25.6547 176.907 25.58C176.63 25.5053 176.384 25.4093 176.171 25.292C175.958 25.1747 175.776 25.052 175.627 24.924C175.478 24.7853 175.355 24.652 175.259 24.524H175.211V29.148H173.291V17.82ZM179.659 21.66C179.659 21.3613 179.606 21.0733 179.499 20.796C179.403 20.5187 179.254 20.2733 179.051 20.06C178.859 19.8467 178.624 19.676 178.347 19.548C178.07 19.42 177.755 19.356 177.403 19.356C177.051 19.356 176.736 19.42 176.459 19.548C176.182 19.676 175.942 19.8467 175.739 20.06C175.547 20.2733 175.398 20.5187 175.291 20.796C175.195 21.0733 175.147 21.3613 175.147 21.66C175.147 21.9587 175.195 22.2467 175.291 22.524C175.398 22.8013 175.547 23.0467 175.739 23.26C175.942 23.4733 176.182 23.644 176.459 23.772C176.736 23.9 177.051 23.964 177.403 23.964C177.755 23.964 178.07 23.9 178.347 23.772C178.624 23.644 178.859 23.4733 179.051 23.26C179.254 23.0467 179.403 22.8013 179.499 22.524C179.606 22.2467 179.659 21.9587 179.659 21.66Z" fill="#034EA2"/>
</svg>
