<svg width="20" height="20" viewBox="0 0 20 20" fill="none" xmlns="http://www.w3.org/2000/svg">
<g id="Group">
<path id="Path" d="M10.0019 6.01588C9.97438 6.01588 9.94796 6.02688 9.92855 6.04645C9.90914 6.06602 9.89835 6.09253 9.89857 6.12009C9.89857 6.17764 9.94523 6.2243 10.0028 6.2243C10.0603 6.2243 10.107 6.17764 10.107 6.12009C10.1061 6.06259 10.0595 6.01632 10.0019 6.01588" stroke="#6B7280" stroke-width="1.25" stroke-linecap="round" stroke-linejoin="round"/>
<path id="Path_2" fill-rule="evenodd" clip-rule="evenodd" d="M17.4818 8.61026H2.52221C2.40555 8.61048 2.29358 8.56429 2.21101 8.48187C2.12843 8.39946 2.08203 8.28758 2.08203 8.17091V6.52356C2.0823 6.16488 2.31197 5.84657 2.65227 5.73323L9.72355 3.37558C9.90433 3.31556 10.0997 3.31556 10.2804 3.37558L17.3517 5.73323C17.692 5.84657 17.9217 6.16488 17.922 6.52356V8.17091C17.922 8.28758 17.8756 8.39946 17.793 8.48187C17.7104 8.56429 17.5984 8.61048 17.4818 8.61026Z" stroke="#6B7280" stroke-width="1.25" stroke-linecap="round" stroke-linejoin="round"/>
<path id="Path_3" d="M3.33481 15.0021V8.61023" stroke="#6B7280" stroke-width="1.25" stroke-linecap="round" stroke-linejoin="round"/>
<path id="Path_4" d="M16.6747 8.61023V15.0021" stroke="#6B7280" stroke-width="1.25" stroke-linecap="round" stroke-linejoin="round"/>
<path id="Path_5" d="M6.67075 8.61023V15.0021" stroke="#6B7280" stroke-width="1.25" stroke-linecap="round" stroke-linejoin="round"/>
<path id="Path_6" d="M10.0028 8.61023V15.0021" stroke="#6B7280" stroke-width="1.25" stroke-linecap="round" stroke-linejoin="round"/>
<path id="Path_7" d="M13.3387 8.61023V15.0021" stroke="#6B7280" stroke-width="1.25" stroke-linecap="round" stroke-linejoin="round"/>
<path id="Path_8" fill-rule="evenodd" clip-rule="evenodd" d="M16.9888 15.0021H3.01296C2.69727 15.0022 2.40876 15.1807 2.26765 15.4631L1.75243 16.4935C1.69425 16.6091 1.66406 16.7368 1.66406 16.8662V17.5031H18.3377V16.8662C18.3377 16.7368 18.3075 16.6091 18.2493 16.4935L17.7341 15.4631C17.593 15.1807 17.3045 15.0022 16.9888 15.0021Z" stroke="#6B7280" stroke-width="1.25" stroke-linecap="round" stroke-linejoin="round"/>
<path id="Path_9" d="M19.173 17.5031H0.832031" stroke="#6B7280" stroke-width="1.25" stroke-linecap="round" stroke-linejoin="round"/>
</g>
</svg>
