<svg width="24" height="24" viewBox="0 0 24 24" fill="none" xmlns="http://www.w3.org/2000/svg">
<path fill-rule="evenodd" clip-rule="evenodd" d="M13.8728 16.576L6.29322 20.3658C5.53043 20.7472 4.60918 20.5977 4.00615 19.9947V19.9947C3.40312 19.3917 3.25362 18.4704 3.63501 17.7076L7.4248 10.128C7.56854 9.84051 7.84175 9.63961 8.15907 9.58812C8.47638 9.53663 8.7991 9.64082 9.0264 9.86814L14.1327 14.9745C14.36 15.2018 14.4642 15.5245 14.4127 15.8418C14.3612 16.1591 14.1603 16.4323 13.8728 16.576Z" stroke="#034EA2" stroke-width="1.5" stroke-linecap="round" stroke-linejoin="round"/>
<path d="M5 3V3.5" stroke="#034EA2" stroke-width="1.5" stroke-linecap="round" stroke-linejoin="round"/>
<path d="M5 7V6.5" stroke="#034EA2" stroke-width="1.5" stroke-linecap="round" stroke-linejoin="round"/>
<path d="M7 5H6.5" stroke="#034EA2" stroke-width="1.5" stroke-linecap="round" stroke-linejoin="round"/>
<path d="M3 5H3.5" stroke="#034EA2" stroke-width="1.5" stroke-linecap="round" stroke-linejoin="round"/>
<path d="M12 3C12.5064 3.25322 12.8797 3.7117 13.025 4.25892C13.1704 4.80614 13.0737 5.38942 12.7596 5.86052L12 7" stroke="#034EA2" stroke-width="1.5" stroke-linecap="round" stroke-linejoin="round"/>
<path d="M17 12.0003L18.1395 11.2407C18.6106 10.9266 19.1939 10.83 19.7411 10.9753C20.2883 11.1206 20.7468 11.4939 21 12.0003" stroke="#034EA2" stroke-width="1.5" stroke-linecap="round" stroke-linejoin="round"/>
<path d="M19 17V17.5" stroke="#034EA2" stroke-width="1.5" stroke-linecap="round" stroke-linejoin="round"/>
<path d="M19 21V20.5" stroke="#034EA2" stroke-width="1.5" stroke-linecap="round" stroke-linejoin="round"/>
<path d="M21 19H20.5" stroke="#034EA2" stroke-width="1.5" stroke-linecap="round" stroke-linejoin="round"/>
<path d="M17 19H17.5" stroke="#034EA2" stroke-width="1.5" stroke-linecap="round" stroke-linejoin="round"/>
<path d="M19 3V3.5" stroke="#034EA2" stroke-width="1.5" stroke-linecap="round" stroke-linejoin="round"/>
<path d="M19 7V6.5" stroke="#034EA2" stroke-width="1.5" stroke-linecap="round" stroke-linejoin="round"/>
<path d="M21 5H20.5" stroke="#034EA2" stroke-width="1.5" stroke-linecap="round" stroke-linejoin="round"/>
<path d="M17 5H17.5" stroke="#034EA2" stroke-width="1.5" stroke-linecap="round" stroke-linejoin="round"/>
<path d="M14 10L15 9" stroke="#034EA2" stroke-width="1.5" stroke-linecap="round" stroke-linejoin="round"/>
</svg>
