<svg width="24" height="24" viewBox="0 0 24 24" fill="none" xmlns="http://www.w3.org/2000/svg">
<path fill-rule="evenodd" clip-rule="evenodd" d="M13.8723 16.5757L6.2927 20.3655C5.52992 20.7469 4.60866 20.5974 4.00563 19.9944V19.9944C3.4026 19.3914 3.2531 18.4701 3.63449 17.7073L7.42428 10.1277C7.56802 9.84021 7.84123 9.63931 8.15855 9.58782C8.47586 9.53632 8.79858 9.64051 9.02588 9.86783L14.1322 14.9742C14.3595 15.2015 14.4637 15.5242 14.4122 15.8415C14.3607 16.1588 14.1598 16.432 13.8723 16.5757Z" stroke="#64748B" stroke-width="1.5" stroke-linecap="round" stroke-linejoin="round"/>
<path d="M5 3V3.5" stroke="#64748B" stroke-width="1.5" stroke-linecap="round" stroke-linejoin="round"/>
<path d="M5 7V6.5" stroke="#64748B" stroke-width="1.5" stroke-linecap="round" stroke-linejoin="round"/>
<path d="M7 5H6.5" stroke="#64748B" stroke-width="1.5" stroke-linecap="round" stroke-linejoin="round"/>
<path d="M3 5H3.5" stroke="#64748B" stroke-width="1.5" stroke-linecap="round" stroke-linejoin="round"/>
<path d="M12 3C12.5064 3.25322 12.8797 3.7117 13.025 4.25892C13.1704 4.80614 13.0737 5.38942 12.7596 5.86052L12 7" stroke="#64748B" stroke-width="1.5" stroke-linecap="round" stroke-linejoin="round"/>
<path d="M17 12L18.1395 11.2404C18.6106 10.9263 19.1939 10.8297 19.7411 10.975C20.2883 11.1203 20.7468 11.4936 21 12" stroke="#64748B" stroke-width="1.5" stroke-linecap="round" stroke-linejoin="round"/>
<path d="M19 17V17.5" stroke="#64748B" stroke-width="1.5" stroke-linecap="round" stroke-linejoin="round"/>
<path d="M19 21V20.5" stroke="#64748B" stroke-width="1.5" stroke-linecap="round" stroke-linejoin="round"/>
<path d="M21 19H20.5" stroke="#64748B" stroke-width="1.5" stroke-linecap="round" stroke-linejoin="round"/>
<path d="M17 19H17.5" stroke="#64748B" stroke-width="1.5" stroke-linecap="round" stroke-linejoin="round"/>
<path d="M19 3V3.5" stroke="#64748B" stroke-width="1.5" stroke-linecap="round" stroke-linejoin="round"/>
<path d="M19 7V6.5" stroke="#64748B" stroke-width="1.5" stroke-linecap="round" stroke-linejoin="round"/>
<path d="M21 5H20.5" stroke="#64748B" stroke-width="1.5" stroke-linecap="round" stroke-linejoin="round"/>
<path d="M17 5H17.5" stroke="#64748B" stroke-width="1.5" stroke-linecap="round" stroke-linejoin="round"/>
<path d="M14 10L15 9" stroke="#64748B" stroke-width="1.5" stroke-linecap="round" stroke-linejoin="round"/>
</svg>
