<svg width="27" height="26" viewBox="0 0 27 26" fill="none" xmlns="http://www.w3.org/2000/svg">
<path d="M9.33331 13.6667H10.6666" stroke="#E1EFFE" stroke-width="2" stroke-linecap="round" stroke-linejoin="round"/>
<path d="M14.6667 13.6667H20" stroke="#E1EFFE" stroke-width="2" stroke-linecap="round" stroke-linejoin="round"/>
<path d="M9.33331 8.9987H10.6666" stroke="#E1EFFE" stroke-width="2" stroke-linecap="round" stroke-linejoin="round"/>
<path d="M14.6667 8.9987H20" stroke="#E1EFFE" stroke-width="2" stroke-linecap="round" stroke-linejoin="round"/>
<path d="M4.00004 19.6663V3.23457C4.00003 2.759 4.25331 2.31943 4.66476 2.08096L5.98864 1.31365C6.40054 1.07489 6.9085 1.07387 7.32135 1.31098L9.3278 2.46345L9.3342 2.46612C9.36977 2.44518 10.5511 1.76038 11.3253 1.3116C11.7364 1.07345 12.2434 1.0732 12.6547 1.31094L14.6611 2.46342H14.6722L16.6787 1.31108C17.0916 1.07396 17.5995 1.07498 18.0114 1.31374L19.9945 2.46308H20.0056L22.012 1.3106C22.4249 1.07348 22.9328 1.0745 23.3447 1.31326L24.6686 2.08058C25.0801 2.31903 25.3333 2.75856 25.3334 3.23409V22.9996C25.3334 24.1042 24.4379 24.9996 23.3334 24.9996V24.9996C22.2288 24.9996 21.3334 24.1042 21.3334 22.9996V20.9996C21.3334 20.2632 20.7364 19.6663 20 19.6663H2.66671C1.93033 19.6663 1.33337 20.2632 1.33337 20.9996V22.333C1.33337 23.8057 2.52728 24.9996 4.00004 24.9996H23.3334" stroke="#E1EFFE" stroke-width="2" stroke-linecap="round" stroke-linejoin="round"/>
</svg>
