<svg width="42" height="42" viewBox="0 0 42 42" fill="none" xmlns="http://www.w3.org/2000/svg">
<g filter="url(#filter0_d_25327_146830)">
<circle cx="21" cy="20" r="18" fill="#A78BFA"/>
<g style="mix-blend-mode:overlay" opacity="0.3">
<mask id="mask0_25327_146830" style="mask-type:alpha" maskUnits="userSpaceOnUse" x="3" y="2" width="36" height="36">
<circle cx="21" cy="20" r="18" fill="#D9D9D9"/>
</mask>
<g mask="url(#mask0_25327_146830)">
<circle cx="25.2734" cy="22.4414" r="18" fill="#6941C6"/>
</g>
</g>
<path d="M11.5425 14.2735C11.5425 13.5615 12.1196 12.9844 12.8316 12.9844H27.0116C27.7235 12.9844 28.3007 13.5615 28.3007 14.2735V16.336H11.5425V14.2735Z" fill="white"/>
<path d="M11.5425 17.1094H28.3007V24.3627C28.3007 25.0746 27.7235 25.6517 27.0116 25.6517H12.8316C12.1196 25.6517 11.5425 25.0746 11.5425 24.3627V17.1094Z" fill="white"/>
<rect x="20.9833" y="17.7821" width="8.5803" height="8.5803" rx="4.29015" fill="#8B5CF6"/>
<rect x="20.9833" y="17.7821" width="8.5803" height="8.5803" rx="4.29015" stroke="#A78BFA" stroke-width="0.57202"/>
<path d="M22.4136 23.1113V21.0312H23.2434C23.3938 21.0312 23.5236 21.0617 23.6328 21.1227C23.7427 21.1829 23.8274 21.2672 23.8869 21.3756C23.9464 21.4832 23.9762 21.6085 23.9762 21.7513C23.9762 21.8949 23.9457 22.0205 23.8849 22.1282C23.8248 22.2351 23.7388 22.3181 23.627 22.377C23.5151 22.4359 23.3824 22.4653 23.2287 22.4653H22.7167V22.0692H23.1385C23.2117 22.0692 23.2728 22.056 23.3219 22.0296C23.3716 22.0032 23.4092 21.9663 23.4347 21.9189C23.4602 21.8709 23.473 21.815 23.473 21.7513C23.473 21.687 23.4602 21.6315 23.4347 21.5848C23.4092 21.5374 23.3716 21.5008 23.3219 21.4751C23.2722 21.4494 23.2111 21.4365 23.1385 21.4365H22.8991V23.1113H22.4136Z" fill="white"/>
<path d="M24.2155 23.1113V21.0312H24.701V21.8661H25.4926V21.0312H25.9772V23.1113H25.4926V22.2754H24.701V23.1113H24.2155Z" fill="white"/>
<path d="M26.1817 21.0312H26.7242L27.1489 21.9017H27.1666L27.5913 21.0312H28.1337L27.399 22.4166V23.1113H26.9164V22.4166L26.1817 21.0312Z" fill="white"/>
</g>
<defs>
<filter id="filter0_d_25327_146830" x="0.559322" y="0.779661" width="40.8814" height="40.8814" filterUnits="userSpaceOnUse" color-interpolation-filters="sRGB">
<feFlood flood-opacity="0" result="BackgroundImageFix"/>
<feColorMatrix in="SourceAlpha" type="matrix" values="0 0 0 0 0 0 0 0 0 0 0 0 0 0 0 0 0 0 127 0" result="hardAlpha"/>
<feOffset dy="1.22034"/>
<feGaussianBlur stdDeviation="1.22034"/>
<feComposite in2="hardAlpha" operator="out"/>
<feColorMatrix type="matrix" values="0 0 0 0 0 0 0 0 0 0 0 0 0 0 0 0 0 0 0.1 0"/>
<feBlend mode="normal" in2="BackgroundImageFix" result="effect1_dropShadow_25327_146830"/>
<feBlend mode="normal" in="SourceGraphic" in2="effect1_dropShadow_25327_146830" result="shape"/>
</filter>
</defs>
</svg>
