<svg width="25" height="24" viewBox="0 0 25 24" fill="none" xmlns="http://www.w3.org/2000/svg">
<path d="M8.34898 7.73538C8.49498 7.88137 8.49498 8.11938 8.34898 8.26538C8.20298 8.41138 7.96498 8.41138 7.81898 8.26538C7.67298 8.11938 7.67298 7.88137 7.81898 7.73538C7.96498 7.58838 8.20198 7.58838 8.34898 7.73538" stroke="#034EA2" stroke-width="1.5" stroke-linecap="round" stroke-linejoin="round"/>
<path d="M12.765 7.73538C12.911 7.88137 12.911 8.11938 12.765 8.26538C12.619 8.41138 12.381 8.41138 12.235 8.26538C12.089 8.11938 12.089 7.88137 12.235 7.73538C12.381 7.58838 12.619 7.58838 12.765 7.73538" stroke="#034EA2" stroke-width="1.5" stroke-linecap="round" stroke-linejoin="round"/>
<path d="M17.182 7.73538C17.328 7.88137 17.328 8.11938 17.182 8.26538C17.036 8.41138 16.798 8.41138 16.652 8.26538C16.506 8.11938 16.506 7.88137 16.652 7.73538C16.798 7.58838 17.035 7.58838 17.182 7.73538" stroke="#034EA2" stroke-width="1.5" stroke-linecap="round" stroke-linejoin="round"/>
<path d="M11.5 13H5.5C4.395 13 3.5 12.105 3.5 11V5C3.5 3.895 4.395 3 5.5 3H19.5C20.605 3 21.5 3.895 21.5 5V8" stroke="#034EA2" stroke-width="1.5" stroke-linecap="round" stroke-linejoin="round"/>
<path d="M19.893 15.697V13.963C19.893 12.879 19.014 12 17.93 12V12C16.846 12 15.967 12.879 15.967 13.963V15.697" stroke="#034EA2" stroke-width="1.5" stroke-linecap="round" stroke-linejoin="round"/>
<path fill-rule="evenodd" clip-rule="evenodd" d="M20.5 15.6992H15.5C14.948 15.6992 14.5 16.1472 14.5 16.6992V20.0012C14.5 20.5532 14.948 21.0012 15.5 21.0012H20.5C21.052 21.0012 21.5 20.5532 21.5 20.0012V16.6992C21.5 16.1462 21.052 15.6992 20.5 15.6992Z" stroke="#034EA2" stroke-width="1.5" stroke-linecap="round" stroke-linejoin="round"/>
</svg>
