<svg width="20" height="20" viewBox="0 0 20 20" fill="none" xmlns="http://www.w3.org/2000/svg">
<g id="exclamation-circle">
<path id="Vector" d="M10 6.83333V10M10 13.1667H10.0079M17.125 10C17.125 10.9357 16.9407 11.8622 16.5826 12.7266C16.2246 13.5911 15.6998 14.3765 15.0381 15.0381C14.3765 15.6998 13.5911 16.2246 12.7266 16.5826C11.8622 16.9407 10.9357 17.125 10 17.125C9.06433 17.125 8.13783 16.9407 7.27338 16.5826C6.40894 16.2246 5.62348 15.6998 4.96186 15.0381C4.30025 14.3765 3.77542 13.5911 3.41736 12.7266C3.05929 11.8622 2.875 10.9357 2.875 10C2.875 8.11033 3.62567 6.29806 4.96186 4.96186C6.29806 3.62567 8.11033 2.875 10 2.875C11.8897 2.875 13.7019 3.62567 15.0381 4.96186C16.3743 6.29806 17.125 8.11033 17.125 10Z" stroke="#E02424" stroke-width="1.1" stroke-linecap="round" stroke-linejoin="round"/>
</g>
</svg>
