<svg width="24" height="24" viewBox="0 0 24 24" fill="none" xmlns="http://www.w3.org/2000/svg">
<path d="M9 12.5H10" stroke="#034EA2" stroke-width="1.5" stroke-linecap="round" stroke-linejoin="round"/>
<path d="M13 12.5H17" stroke="#034EA2" stroke-width="1.5" stroke-linecap="round" stroke-linejoin="round"/>
<path d="M9 9H10" stroke="#034EA2" stroke-width="1.5" stroke-linecap="round" stroke-linejoin="round"/>
<path d="M13 9H17" stroke="#034EA2" stroke-width="1.5" stroke-linecap="round" stroke-linejoin="round"/>
<path d="M5 16.9997V4.67593C4.99999 4.31925 5.18995 3.98957 5.49854 3.81072L6.49145 3.23524C6.80037 3.05617 7.18134 3.0554 7.49098 3.23324L8.99582 4.09759L9.00062 4.09959C9.0273 4.08389 9.9133 3.57029 10.494 3.2337C10.8023 3.05509 11.1825 3.0549 11.491 3.23321L12.9958 4.09757H13.0041L14.509 3.23331C14.8186 3.05547 15.1996 3.05624 15.5085 3.23531L16.9958 4.09731H17.0041L18.509 3.23295C18.8186 3.05511 19.1996 3.05588 19.5085 3.23495L20.5014 3.81044C20.81 3.98928 21 4.31892 21 4.67557V19.4997C21 20.3281 20.3284 20.9997 19.5 20.9997V20.9997C18.6716 20.9997 18 20.3281 18 19.4997V17.9997C18 17.4474 17.5523 16.9997 17 16.9997H4C3.44772 16.9997 3 17.4474 3 17.9997V18.9997C3 20.1043 3.89543 20.9997 5 20.9997H19.5" stroke="#034EA2" stroke-width="1.5" stroke-linecap="round" stroke-linejoin="round"/>
</svg>
