<svg width="20" height="20" viewBox="0 0 20 20" fill="none" xmlns="http://www.w3.org/2000/svg">
<g id="Group">
<circle id="Oval" cx="9.99809" cy="10" r="7.91997" stroke="#374151" stroke-width="0.833333" stroke-linecap="round" stroke-linejoin="round"/>
<path id="Path" fill-rule="evenodd" clip-rule="evenodd" d="M9.25103 6.86721C9.39144 6.58257 9.6813 6.40234 9.99869 6.40234C10.3161 6.40234 10.6059 6.58257 10.7463 6.86721L11.2597 7.90777C11.3811 8.15389 11.6158 8.3245 11.8874 8.36396L13.0356 8.53084C13.3496 8.57648 13.6104 8.79638 13.7085 9.09812C13.8066 9.39986 13.7249 9.73112 13.4978 9.95266L12.6667 10.7633C12.4703 10.9548 12.3807 11.2307 12.4271 11.501L12.6233 12.6443C12.6769 12.9571 12.5484 13.2732 12.2917 13.4597C12.0349 13.6462 11.6946 13.6709 11.4137 13.5232L10.3866 12.9834C10.1437 12.8558 9.85367 12.8558 9.61085 12.9834L8.58369 13.5232C8.3028 13.6709 7.96246 13.6462 7.70576 13.4597C7.44905 13.2732 7.3205 12.9571 7.37415 12.6443L7.57028 11.501C7.61666 11.2307 7.52708 10.9548 7.33071 10.7633L6.49965 9.95266C6.27251 9.73112 6.19082 9.39986 6.28891 9.09812C6.387 8.79638 6.64786 8.57648 6.96184 8.53084L8.10998 8.36396C8.38157 8.3245 8.61633 8.15389 8.73775 7.90777L9.25103 6.86721Z" stroke="#374151" stroke-width="0.833333" stroke-linecap="round" stroke-linejoin="round"/>
</g>
</svg>
