<svg width="73" height="29" viewBox="0 0 73 29" fill="none" xmlns="http://www.w3.org/2000/svg">
<path d="M4.9991 0.874023H67.9991C70.554 0.874023 72.6251 2.94515 72.6251 5.5V23.5C72.6251 26.0549 70.5539 28.126 67.9991 28.126H4.9991C2.44425 28.126 0.373123 26.0548 0.373123 23.5V5.5C0.373123 2.94515 2.44425 0.874023 4.9991 0.874023Z" fill="black"/>
<path d="M4.9991 0.874023H67.9991C70.554 0.874023 72.6251 2.94515 72.6251 5.5V23.5C72.6251 26.0549 70.5539 28.126 67.9991 28.126H4.9991C2.44425 28.126 0.373123 26.0548 0.373123 23.5V5.5C0.373123 2.94515 2.44425 0.874023 4.9991 0.874023Z" stroke="#A6A6A6" stroke-width="0.748071"/>
<path d="M32.8636 16.1685C31.6512 16.1685 30.663 17.1322 30.663 18.4594C30.663 19.7786 31.6512 20.7503 32.8636 20.7503C34.0765 20.7503 35.0646 19.7786 35.0646 18.4594C35.0641 17.1322 34.076 16.1685 32.8636 16.1685ZM32.8636 19.8486C32.1991 19.8486 31.6265 19.276 31.6265 18.46C31.6265 17.6353 32.1997 17.0713 32.8636 17.0713C33.528 17.0713 34.1007 17.6353 34.1007 18.46C34.1007 19.2755 33.528 19.8486 32.8636 19.8486ZM28.0625 16.1685C26.8501 16.1685 25.8619 17.1322 25.8619 18.4594C25.8619 19.7786 26.8501 20.7503 28.0625 20.7503C29.2754 20.7503 30.2636 19.7786 30.2636 18.4594C30.2636 17.1322 29.2754 16.1685 28.0625 16.1685ZM28.0625 19.8486C27.398 19.8486 26.8254 19.276 26.8254 18.46C26.8254 17.6353 27.3986 17.0713 28.0625 17.0713C28.7269 17.0713 29.2996 17.6353 29.2996 18.46C29.3001 19.2755 28.7269 19.8486 28.0625 19.8486ZM22.3521 17.8437H24.5779C24.5114 18.3905 24.3372 18.7896 24.0712 19.067C23.7475 19.4053 23.2408 19.7786 22.3521 19.7786C20.982 19.7786 19.9108 18.6242 19.9108 17.1925C19.9108 15.7608 20.982 14.6065 22.3521 14.6065C23.0913 14.6065 23.631 14.9103 24.0294 15.3008L24.6856 14.6151C24.1289 14.0597 23.3903 13.6347 22.3521 13.6347C20.4753 13.6347 18.8974 15.2313 18.8974 17.1925C18.8974 19.1537 20.4753 20.7503 22.3521 20.7503C23.365 20.7503 24.1294 20.4029 24.7269 19.7522C25.3413 19.1101 25.5326 18.2073 25.5326 17.4785C25.5326 17.2534 25.5161 17.0449 25.4826 16.8715H22.3521V17.8437ZM45.7071 17.6267C45.5246 17.1149 44.9679 16.1685 43.8302 16.1685C42.7008 16.1685 41.7622 17.0972 41.7622 18.4594C41.7622 19.7436 42.6926 20.7503 43.938 20.7503C44.9426 20.7503 45.5241 20.1082 45.7653 19.7349L45.0179 19.2141C44.7689 19.596 44.4282 19.8475 43.938 19.8475C43.4483 19.8475 43.0993 19.6132 42.8751 19.1532L45.8065 17.8863L45.7071 17.6267ZM42.7173 18.3905C42.6926 17.5049 43.3735 17.0541 43.8637 17.0541C44.2457 17.0541 44.5694 17.2539 44.6777 17.5399L42.7173 18.3905ZM40.3343 20.6119H41.2972V13.8782H40.3343V20.6119ZM38.7229 16.6808C38.507 16.4115 38.0915 16.1685 37.5688 16.1685C36.4724 16.1685 35.4677 17.1753 35.4677 18.4686C35.4677 19.7527 36.4724 20.7508 37.5688 20.7508C38.092 20.7508 38.507 20.5079 38.7229 20.2305H38.7559V20.5602C38.7559 21.4365 38.3075 21.9052 37.5853 21.9052C36.9956 21.9052 36.6301 21.4629 36.4806 21.0897L35.642 21.4543C35.8827 22.0614 36.5219 22.8079 37.5853 22.8079C38.7147 22.8079 39.6699 22.1136 39.6699 20.4212V16.308H38.7565V16.6808H38.7229ZM37.6518 19.8486C36.9874 19.8486 36.4312 19.2669 36.4312 18.4686C36.4312 17.6611 36.9874 17.0713 37.6518 17.0713C38.3075 17.0713 38.8224 17.6611 38.8224 18.4686C38.8224 19.2669 38.3075 19.8486 37.6518 19.8486ZM50.2195 13.8782H47.9148V20.6119H48.8762V18.0608H50.219C51.285 18.0608 52.3334 17.2545 52.3334 15.9698C52.3334 14.6851 51.2855 13.8782 50.2195 13.8782ZM50.2442 17.1236H48.8762V14.8154H50.2442C50.9633 14.8154 51.3716 15.4376 51.3716 15.9698C51.3716 16.4912 50.9633 17.1236 50.2442 17.1236ZM56.1886 16.1567C55.4922 16.1567 54.7711 16.4772 54.4726 17.1877L55.3263 17.5599C55.5087 17.1877 55.849 17.0659 56.2051 17.0659C56.7026 17.0659 57.2082 17.3778 57.2165 17.9321V18.0016C57.0423 17.8976 56.6691 17.7419 56.2134 17.7419C55.2933 17.7419 54.3561 18.2704 54.3561 19.2577C54.3561 20.1589 55.1108 20.739 55.9562 20.739C56.6026 20.739 56.9593 20.4357 57.183 20.0802H57.216V20.6H58.1449V18.0183C58.1454 16.8235 57.2907 16.1567 56.1886 16.1567ZM56.0722 19.847C55.7577 19.847 55.318 19.6822 55.318 19.2749C55.318 18.7551 55.8654 18.5558 56.3381 18.5558C56.7603 18.5558 56.9598 18.6512 57.2165 18.781C57.1418 19.4053 56.6278 19.847 56.0722 19.847ZM61.5274 16.3037L60.4248 19.2232H60.3918L59.2475 16.3037H58.2114L59.9274 20.384L58.949 22.6539H59.9521L62.597 16.3037H61.5274ZM52.8644 20.6119H53.8257V13.8782H52.8644V20.6119Z" fill="white"/>
<path d="M22.0125 8.42222C22.0125 8.89908 21.8852 9.27864 21.6299 9.56202C21.3403 9.8989 20.9623 10.0673 20.4981 10.0673C20.0534 10.0673 19.6749 9.89662 19.3642 9.55519C19.053 9.21319 18.8974 8.78982 18.8974 8.28451C18.8974 7.77862 19.053 7.35525 19.3642 7.01382C19.6749 6.67183 20.0534 6.50111 20.4981 6.50111C20.7189 6.50111 20.93 6.54891 21.1303 6.64394C21.3311 6.73954 21.4918 6.86644 21.612 7.0252L21.3413 7.32566C21.1375 7.05536 20.8566 6.9205 20.4976 6.9205C20.173 6.9205 19.8926 7.04683 19.6559 7.29949C19.4192 7.55214 19.3011 7.88048 19.3011 8.28394C19.3011 8.68739 19.4192 9.01573 19.6559 9.26839C19.8926 9.52105 20.173 9.64738 20.4976 9.64738C20.8417 9.64738 21.1287 9.52048 21.3583 9.26612C21.5072 9.10052 21.5935 8.87006 21.6166 8.57472H20.4976V8.16444H21.9904C22.0058 8.25378 22.0125 8.33971 22.0125 8.42222Z" fill="white"/>
<path d="M24.38 6.99622H22.977V8.07855H24.2423V8.48883H22.977V9.57116H24.38V9.99112H22.5811V6.57683H24.38V6.99622Z" fill="white"/>
<path d="M26.0494 9.99112H25.6535V6.99622H24.7928V6.57683H26.9101V6.99622H26.0494V9.99112Z" fill="white"/>
<path d="M28.442 9.99112V6.57683H28.8379V9.99112H28.442Z" fill="white"/>
<path d="M30.5938 9.99112H30.1978V6.99622H29.3371V6.57683H31.4545V6.99622H30.5938V9.99112Z" fill="white"/>
<path d="M35.4625 9.5501C35.1595 9.89494 34.7831 10.0674 34.3327 10.0674C33.8823 10.0674 33.5059 9.89494 33.2034 9.5501C32.9005 9.20526 32.7495 8.78302 32.7495 8.28397C32.7495 7.78491 32.9005 7.36268 33.2034 7.01783C33.5059 6.67299 33.8823 6.5 34.3327 6.5C34.7805 6.5 35.1564 6.67356 35.4604 7.02011C35.7645 7.36666 35.9165 7.78776 35.9165 8.28397C35.9165 8.78302 35.765 9.20526 35.4625 9.5501ZM33.4956 9.26387C33.7237 9.51994 34.0025 9.64741 34.3327 9.64741C34.6629 9.64741 34.9423 9.51937 35.1698 9.26387C35.3978 9.0078 35.5123 8.68116 35.5123 8.28397C35.5123 7.88677 35.3978 7.56014 35.1698 7.30407C34.9423 7.04799 34.6629 6.92053 34.3327 6.92053C34.0025 6.92053 33.7237 7.04856 33.4956 7.30407C33.2682 7.56014 33.1536 7.88677 33.1536 8.28397C33.1536 8.68116 33.2682 9.0078 33.4956 9.26387Z" fill="white"/>
<path d="M36.4721 9.99112V6.57683H36.9538L38.4513 9.23257H38.4682L38.4513 8.57475V6.57683H38.8472V9.99112H38.4338L36.867 7.20619H36.8501L36.867 7.86401V9.99112H36.4721Z" fill="white"/>
<path d="M32.8636 16.1685C31.6512 16.1685 30.663 17.1322 30.663 18.4594C30.663 19.7786 31.6512 20.7503 32.8636 20.7503C34.0765 20.7503 35.0646 19.7786 35.0646 18.4594C35.0641 17.1322 34.076 16.1685 32.8636 16.1685ZM32.8636 19.8486C32.1991 19.8486 31.6265 19.276 31.6265 18.46C31.6265 17.6353 32.1997 17.0713 32.8636 17.0713C33.528 17.0713 34.1007 17.6353 34.1007 18.46C34.1007 19.2755 33.528 19.8486 32.8636 19.8486ZM28.0625 16.1685C26.8501 16.1685 25.8619 17.1322 25.8619 18.4594C25.8619 19.7786 26.8501 20.7503 28.0625 20.7503C29.2754 20.7503 30.2636 19.7786 30.2636 18.4594C30.2636 17.1322 29.2754 16.1685 28.0625 16.1685ZM28.0625 19.8486C27.398 19.8486 26.8254 19.276 26.8254 18.46C26.8254 17.6353 27.3986 17.0713 28.0625 17.0713C28.7269 17.0713 29.2996 17.6353 29.2996 18.46C29.3001 19.2755 28.7269 19.8486 28.0625 19.8486ZM22.3521 17.8437H24.5779C24.5114 18.3905 24.3372 18.7896 24.0712 19.067C23.7475 19.4053 23.2408 19.7786 22.3521 19.7786C20.982 19.7786 19.9108 18.6242 19.9108 17.1925C19.9108 15.7608 20.982 14.6065 22.3521 14.6065C23.0913 14.6065 23.631 14.9103 24.0294 15.3008L24.6856 14.6151C24.1289 14.0597 23.3903 13.6347 22.3521 13.6347C20.4753 13.6347 18.8974 15.2313 18.8974 17.1925C18.8974 19.1537 20.4753 20.7503 22.3521 20.7503C23.365 20.7503 24.1294 20.4029 24.7269 19.7522C25.3413 19.1101 25.5326 18.2073 25.5326 17.4785C25.5326 17.2534 25.5161 17.0449 25.4826 16.8715H22.3521V17.8437ZM45.7071 17.6267C45.5246 17.1149 44.9679 16.1685 43.8302 16.1685C42.7008 16.1685 41.7622 17.0972 41.7622 18.4594C41.7622 19.7436 42.6926 20.7503 43.938 20.7503C44.9426 20.7503 45.5241 20.1082 45.7653 19.7349L45.0179 19.2141C44.7689 19.596 44.4282 19.8475 43.938 19.8475C43.4483 19.8475 43.0993 19.6132 42.8751 19.1532L45.8065 17.8863L45.7071 17.6267ZM42.7173 18.3905C42.6926 17.5049 43.3735 17.0541 43.8637 17.0541C44.2457 17.0541 44.5694 17.2539 44.6777 17.5399L42.7173 18.3905ZM40.3343 20.6119H41.2972V13.8782H40.3343V20.6119ZM38.7229 16.6808C38.507 16.4115 38.0915 16.1685 37.5688 16.1685C36.4724 16.1685 35.4677 17.1753 35.4677 18.4686C35.4677 19.7527 36.4724 20.7508 37.5688 20.7508C38.092 20.7508 38.507 20.5079 38.7229 20.2305H38.7559V20.5602C38.7559 21.4365 38.3075 21.9052 37.5853 21.9052C36.9956 21.9052 36.6301 21.4629 36.4806 21.0897L35.642 21.4543C35.8827 22.0614 36.5219 22.8079 37.5853 22.8079C38.7147 22.8079 39.6699 22.1136 39.6699 20.4212V16.308H38.7565V16.6808H38.7229ZM37.6518 19.8486C36.9874 19.8486 36.4312 19.2669 36.4312 18.4686C36.4312 17.6611 36.9874 17.0713 37.6518 17.0713C38.3075 17.0713 38.8224 17.6611 38.8224 18.4686C38.8224 19.2669 38.3075 19.8486 37.6518 19.8486ZM50.2195 13.8782H47.9148V20.6119H48.8762V18.0608H50.219C51.285 18.0608 52.3334 17.2545 52.3334 15.9698C52.3334 14.6851 51.2855 13.8782 50.2195 13.8782ZM50.2442 17.1236H48.8762V14.8154H50.2442C50.9633 14.8154 51.3716 15.4376 51.3716 15.9698C51.3716 16.4912 50.9633 17.1236 50.2442 17.1236ZM56.1886 16.1567C55.4922 16.1567 54.7711 16.4772 54.4726 17.1877L55.3263 17.5599C55.5087 17.1877 55.849 17.0659 56.2051 17.0659C56.7026 17.0659 57.2082 17.3778 57.2165 17.9321V18.0016C57.0423 17.8976 56.6691 17.7419 56.2134 17.7419C55.2933 17.7419 54.3561 18.2704 54.3561 19.2577C54.3561 20.1589 55.1108 20.739 55.9562 20.739C56.6026 20.739 56.9593 20.4357 57.183 20.0802H57.216V20.6H58.1449V18.0183C58.1454 16.8235 57.2907 16.1567 56.1886 16.1567ZM56.0722 19.847C55.7577 19.847 55.318 19.6822 55.318 19.2749C55.318 18.7551 55.8654 18.5558 56.3381 18.5558C56.7603 18.5558 56.9598 18.6512 57.2165 18.781C57.1418 19.4053 56.6278 19.847 56.0722 19.847ZM61.5274 16.3037L60.4248 19.2232H60.3918L59.2475 16.3037H58.2114L59.9274 20.384L58.949 22.6539H59.9521L62.597 16.3037H61.5274ZM52.8644 20.6119H53.8257V13.8782H52.8644V20.6119Z" stroke="white" stroke-width="0.149614" stroke-miterlimit="10"/>
<path d="M22.0125 8.42222C22.0125 8.89908 21.8852 9.27864 21.6299 9.56202C21.3403 9.8989 20.9623 10.0673 20.4981 10.0673C20.0534 10.0673 19.6749 9.89662 19.3642 9.55519C19.053 9.21319 18.8974 8.78982 18.8974 8.28451C18.8974 7.77862 19.053 7.35525 19.3642 7.01382C19.6749 6.67183 20.0534 6.50111 20.4981 6.50111C20.7189 6.50111 20.93 6.54891 21.1303 6.64394C21.3311 6.73954 21.4918 6.86644 21.612 7.0252L21.3413 7.32566C21.1375 7.05536 20.8566 6.9205 20.4976 6.9205C20.173 6.9205 19.8926 7.04683 19.6559 7.29949C19.4192 7.55214 19.3011 7.88048 19.3011 8.28394C19.3011 8.68739 19.4192 9.01573 19.6559 9.26839C19.8926 9.52105 20.173 9.64738 20.4976 9.64738C20.8417 9.64738 21.1287 9.52048 21.3583 9.26612C21.5072 9.10052 21.5935 8.87006 21.6166 8.57472H20.4976V8.16444H21.9904C22.0058 8.25378 22.0125 8.33971 22.0125 8.42222Z" stroke="white" stroke-width="0.149614" stroke-miterlimit="10"/>
<path d="M24.38 6.99622H22.977V8.07855H24.2423V8.48883H22.977V9.57116H24.38V9.99112H22.5811V6.57683H24.38V6.99622Z" stroke="white" stroke-width="0.149614" stroke-miterlimit="10"/>
<path d="M26.0494 9.99112H25.6535V6.99622H24.7928V6.57683H26.9101V6.99622H26.0494V9.99112Z" stroke="white" stroke-width="0.149614" stroke-miterlimit="10"/>
<path d="M28.442 9.99112V6.57683H28.8379V9.99112H28.442Z" stroke="white" stroke-width="0.149614" stroke-miterlimit="10"/>
<path d="M30.5938 9.99112H30.1978V6.99622H29.3371V6.57683H31.4545V6.99622H30.5938V9.99112Z" stroke="white" stroke-width="0.149614" stroke-miterlimit="10"/>
<path d="M35.4625 9.5501C35.1595 9.89494 34.7831 10.0674 34.3327 10.0674C33.8823 10.0674 33.5059 9.89494 33.2034 9.5501C32.9005 9.20526 32.7495 8.78302 32.7495 8.28397C32.7495 7.78491 32.9005 7.36268 33.2034 7.01783C33.5059 6.67299 33.8823 6.5 34.3327 6.5C34.7805 6.5 35.1564 6.67356 35.4604 7.02011C35.7645 7.36666 35.9165 7.78776 35.9165 8.28397C35.9165 8.78302 35.765 9.20526 35.4625 9.5501ZM33.4956 9.26387C33.7237 9.51994 34.0025 9.64741 34.3327 9.64741C34.6629 9.64741 34.9423 9.51937 35.1698 9.26387C35.3978 9.0078 35.5123 8.68116 35.5123 8.28397C35.5123 7.88677 35.3978 7.56014 35.1698 7.30407C34.9423 7.04799 34.6629 6.92053 34.3327 6.92053C34.0025 6.92053 33.7237 7.04856 33.4956 7.30407C33.2682 7.56014 33.1536 7.88677 33.1536 8.28397C33.1536 8.68116 33.2682 9.0078 33.4956 9.26387Z" stroke="white" stroke-width="0.149614" stroke-miterlimit="10"/>
<path d="M36.4721 9.99112V6.57683H36.9538L38.4513 9.23257H38.4682L38.4513 8.57475V6.57683H38.8472V9.99112H38.4338L36.867 7.20619H36.8501L36.867 7.86401V9.99112H36.4721Z" stroke="white" stroke-width="0.149614" stroke-miterlimit="10"/>
<g filter="url(#filter0_ii_2_367)">
<path d="M6.23979 7.7332C6.08851 7.89795 5.9991 8.15363 5.9991 8.48473V20.3145C5.9991 20.6461 6.08851 20.9013 6.23979 21.066L6.27826 21.1045L12.7186 14.4777V14.3996V14.3215L6.27826 7.69415L6.23979 7.7332Z" fill="url(#paint0_linear_2_367)"/>
<path d="M14.8649 16.6873L12.7189 14.4776V14.3995V14.3214L14.8655 12.1123L14.9138 12.1407L17.4569 13.6277C18.183 14.0524 18.183 14.7472 17.4569 15.1724L14.9138 16.6595L14.8649 16.6873Z" fill="url(#paint1_linear_2_367)"/>
<g filter="url(#filter1_i_2_367)">
<path d="M14.9105 16.6598L12.7147 14.4004L6.23633 21.0668C6.47546 21.3278 6.87106 21.3599 7.31657 21.1L14.9105 16.6598Z" fill="url(#paint2_linear_2_367)"/>
</g>
<path d="M14.9105 12.1409L7.31657 7.70125C6.87106 7.44076 6.47546 7.47338 6.23633 7.73441L12.7152 14.4008L14.9105 12.1409Z" fill="url(#paint3_linear_2_367)"/>
</g>
<defs>
<filter id="filter0_ii_2_367" x="5.9991" y="7.52148" width="12.0024" height="13.7581" filterUnits="userSpaceOnUse" color-interpolation-filters="sRGB">
<feFlood flood-opacity="0" result="BackgroundImageFix"/>
<feBlend mode="normal" in="SourceGraphic" in2="BackgroundImageFix" result="shape"/>
<feColorMatrix in="SourceAlpha" type="matrix" values="0 0 0 0 0 0 0 0 0 0 0 0 0 0 0 0 0 0 127 0" result="hardAlpha"/>
<feOffset dy="-0.112211"/>
<feComposite in2="hardAlpha" operator="arithmetic" k2="-1" k3="1"/>
<feColorMatrix type="matrix" values="0 0 0 0 0 0 0 0 0 0 0 0 0 0 0 0 0 0 0.12 0"/>
<feBlend mode="normal" in2="shape" result="effect1_innerShadow_2_367"/>
<feColorMatrix in="SourceAlpha" type="matrix" values="0 0 0 0 0 0 0 0 0 0 0 0 0 0 0 0 0 0 127 0" result="hardAlpha"/>
<feOffset dy="0.112211"/>
<feComposite in2="hardAlpha" operator="arithmetic" k2="-1" k3="1"/>
<feColorMatrix type="matrix" values="0 0 0 0 1 0 0 0 0 1 0 0 0 0 1 0 0 0 0.25 0"/>
<feBlend mode="normal" in2="effect1_innerShadow_2_367" result="effect2_innerShadow_2_367"/>
</filter>
<filter id="filter1_i_2_367" x="6.23633" y="14.4004" width="8.67416" height="6.87915" filterUnits="userSpaceOnUse" color-interpolation-filters="sRGB">
<feFlood flood-opacity="0" result="BackgroundImageFix"/>
<feBlend mode="normal" in="SourceGraphic" in2="BackgroundImageFix" result="shape"/>
<feColorMatrix in="SourceAlpha" type="matrix" values="0 0 0 0 0 0 0 0 0 0 0 0 0 0 0 0 0 0 127 0" result="hardAlpha"/>
<feOffset dy="-0.112211"/>
<feComposite in2="hardAlpha" operator="arithmetic" k2="-1" k3="1"/>
<feColorMatrix type="matrix" values="0 0 0 0 0 0 0 0 0 0 0 0 0 0 0 0 0 0 0.08 0"/>
<feBlend mode="normal" in2="shape" result="effect1_innerShadow_2_367"/>
</filter>
<linearGradient id="paint0_linear_2_367" x1="12.1477" y1="8.35956" x2="3.17477" y2="17.0801" gradientUnits="userSpaceOnUse">
<stop stop-color="#00A0FF"/>
<stop offset="0.0066" stop-color="#00A1FF"/>
<stop offset="0.2601" stop-color="#00BEFF"/>
<stop offset="0.5122" stop-color="#00D2FF"/>
<stop offset="0.7604" stop-color="#00DFFF"/>
<stop offset="1" stop-color="#00E3FF"/>
</linearGradient>
<linearGradient id="paint1_linear_2_367" x1="18.4021" y1="14.3995" x2="5.82639" y2="14.3995" gradientUnits="userSpaceOnUse">
<stop stop-color="#FFE000"/>
<stop offset="0.4087" stop-color="#FFBD00"/>
<stop offset="0.7754" stop-color="#FFA500"/>
<stop offset="1" stop-color="#FF9C00"/>
</linearGradient>
<linearGradient id="paint2_linear_2_367" x1="13.718" y1="15.6274" x2="1.54954" y2="27.4535" gradientUnits="userSpaceOnUse">
<stop stop-color="#FF3A44"/>
<stop offset="1" stop-color="#C31162"/>
</linearGradient>
<linearGradient id="paint3_linear_2_367" x1="4.60474" y1="3.7964" x2="10.0383" y2="9.07709" gradientUnits="userSpaceOnUse">
<stop stop-color="#32A071"/>
<stop offset="0.0685" stop-color="#2DA771"/>
<stop offset="0.4762" stop-color="#15CF74"/>
<stop offset="0.8009" stop-color="#06E775"/>
<stop offset="1" stop-color="#00F076"/>
</linearGradient>
</defs>
</svg>
