<svg width="24" height="24" viewBox="0 0 24 24" fill="none" xmlns="http://www.w3.org/2000/svg">
<path d="M7 11.5H11.5V6" stroke="#64748B" stroke-width="1.5" stroke-linecap="round" stroke-linejoin="round"/>
<path d="M22 17V14C22 13.1707 20.32 12.5 18.25 12.5C16.18 12.5 14.5011 13.1718 14.5 14V20C14.5011 20.8282 16.1789 21.5 18.25 21.5C20.3211 21.5 21.9989 20.8282 22 20V14" stroke="#64748B" stroke-width="1.5" stroke-linecap="round" stroke-linejoin="round"/>
<path d="M14.5 14C14.5 14.8282 16.1792 15.5 18.2505 15.5C20.3219 15.5 22 14.8282 22 14" stroke="#64748B" stroke-width="1.5" stroke-linecap="round" stroke-linejoin="round"/>
<path d="M14.5 17C14.5 17.8282 16.1789 18.5 18.25 18.5C20.3211 18.5 22 17.8282 22 17" stroke="#64748B" stroke-width="1.5" stroke-linecap="round" stroke-linejoin="round"/>
<path d="M19.7693 8.99985C18.7213 4.40935 14.3113 1.4032 9.65539 2.10555C4.99946 2.80791 1.67248 6.98119 2.0253 11.6766C2.37812 16.3719 6.2914 20.0012 11 19.9999" stroke="#64748B" stroke-width="1.5" stroke-linecap="round" stroke-linejoin="round"/>
</svg>
