<svg width="24" height="24" viewBox="0 0 24 24" fill="none" xmlns="http://www.w3.org/2000/svg">
<path d="M8 4L6.5 5.5" stroke="#034EA2" stroke-width="1.5" stroke-linecap="round" stroke-linejoin="round"/>
<path d="M6.5 2.5L8 4" stroke="#034EA2" stroke-width="1.5" stroke-linecap="round" stroke-linejoin="round"/>
<path d="M6 4C4.343 4 3 5.343 3 7" stroke="#034EA2" stroke-width="1.5" stroke-linecap="round" stroke-linejoin="round"/>
<path d="M6 4H8" stroke="#034EA2" stroke-width="1.5" stroke-linecap="round" stroke-linejoin="round"/>
<path d="M16 20L17.5 18.5" stroke="#034EA2" stroke-width="1.5" stroke-linecap="round" stroke-linejoin="round"/>
<path d="M17.5 21.5L16 20" stroke="#034EA2" stroke-width="1.5" stroke-linecap="round" stroke-linejoin="round"/>
<path d="M18 20C19.657 20 21 18.657 21 17" stroke="#034EA2" stroke-width="1.5" stroke-linecap="round" stroke-linejoin="round"/>
<path d="M18 20H16" stroke="#034EA2" stroke-width="1.5" stroke-linecap="round" stroke-linejoin="round"/>
<path fill-rule="evenodd" clip-rule="evenodd" d="M9.5 20C12.525 20 15 17.525 15 14.5C15 11.475 12.525 9 9.5 9C6.475 9 4 11.475 4 14.5C4 15.734 4.417 16.873 5.11 17.792C6.115 19.129 7.709 20 9.5 20Z" stroke="#034EA2" stroke-width="1.5" stroke-linecap="round" stroke-linejoin="round"/>
<path d="M18.389 5.61133C20.528 7.75033 20.528 11.2503 18.389 13.3893C18.218 13.5603 18.031 13.7033 17.842 13.8423" stroke="#034EA2" stroke-width="1.5" stroke-linecap="round" stroke-linejoin="round"/>
<path d="M18.389 5.61011C16.25 3.47111 12.75 3.47111 10.611 5.61011C10.441 5.78011 10.295 5.96511 10.153 6.15211" stroke="#034EA2" stroke-width="1.5" stroke-linecap="round" stroke-linejoin="round"/>
</svg>
