<svg width="50" height="50" viewBox="0 0 50 50" fill="none" xmlns="http://www.w3.org/2000/svg">
<rect width="50" height="50" rx="25" fill="#F1F5F9"/>
<path fill-rule="evenodd" clip-rule="evenodd" d="M32.7776 30H17.2224C15.9955 30 15 28.9421 15 27.636V19.363C15 18.0579 15.9955 17 17.2224 17H32.7776C34.0045 17 35 18.0579 35 19.364V27.637C35 28.9421 34.0045 30 32.7776 30Z" fill="#94A3B8"/>
<path d="M29.4601 21.5L28.1868 25.5H27.3153L26.043 21.5" stroke="#E2E8F0" stroke-width="1.5" stroke-linecap="round" stroke-linejoin="round"/>
<path d="M21.8439 21.5V25.5" stroke="#E2E8F0" stroke-width="1.5" stroke-linecap="round" stroke-linejoin="round"/>
<path d="M23.5487 21.5H20.1296" stroke="#E2E8F0" stroke-width="1.5" stroke-linecap="round" stroke-linejoin="round"/>
<path d="M20.9868 33H28.6059" stroke="#94A3B8" stroke-width="1.5977" stroke-linecap="round" stroke-linejoin="round"/>
<path d="M41 32.5C45.6944 32.5 49.5 36.3056 49.5 41C49.5 45.6944 45.6944 49.5 41 49.5C36.3056 49.5 32.5 45.6944 32.5 41C32.5 36.3056 36.3056 32.5 41 32.5Z" fill="#EBF5FF"/>
<path d="M41 32.5C45.6944 32.5 49.5 36.3056 49.5 41C49.5 45.6944 45.6944 49.5 41 49.5C36.3056 49.5 32.5 45.6944 32.5 41C32.5 36.3056 36.3056 32.5 41 32.5Z" stroke="#EBF5FF"/>
<g clip-path="url(#clip0_24584_156678)">
<mask id="mask0_24584_156678" style="mask-type:luminance" maskUnits="userSpaceOnUse" x="33" y="39" width="16" height="4">
<path d="M33.4404 42.3789H48.5605V39.6298H33.4404V42.3789Z" fill="white"/>
</mask>
<g mask="url(#mask0_24584_156678)">
<path d="M48.5188 40.3689H48.1882C48.1299 40.3689 48.0762 40.4226 48.0755 40.4237L46.8198 42.0336C46.7962 42.0636 46.759 42.0629 46.7366 42.0321L45.577 40.424C45.5763 40.4226 45.5333 40.3675 45.4521 40.3675H43.2247C43.1858 40.3675 43.1544 40.3368 43.1547 40.2989L43.1562 39.7676C43.1562 39.6913 43.093 39.6298 43.0157 39.6298H39.6041C39.0758 39.6473 38.8497 39.699 38.608 39.8372C38.3851 39.9651 38.2739 40.1274 38.2739 40.3225C38.2739 40.5293 38.4463 40.7332 38.7912 40.9344C38.8798 40.9866 39.1991 41.1372 39.7482 41.3857C40.0932 41.5417 40.2792 41.6701 40.2658 41.7969C40.2448 42.0009 40.0555 42.0709 39.6041 42.0709H37.5414C37.4914 42.0709 37.4507 42.0625 37.4507 42.0243C37.4507 42.0056 37.4621 41.9885 37.4836 41.9751L37.4833 41.9748C37.9451 41.703 38.0975 41.3358 38.0975 41.003C38.0975 40.3803 37.5625 39.6298 35.4328 39.6298H33.5811C33.5036 39.6298 33.4409 39.6913 33.4409 39.7676V42.2417C33.4409 42.3173 33.5036 42.3789 33.5813 42.3789H35.4328C35.5035 42.3789 35.5721 42.3781 35.6386 42.3763H40.2698C40.6928 42.3763 41.0232 42.3079 41.2618 42.1715C41.4821 42.0446 41.5922 41.884 41.5922 41.6878C41.5922 41.4818 41.4199 41.2783 41.075 41.0773C40.9867 41.0252 40.6676 40.8736 40.1177 40.624C39.7729 40.468 39.6005 40.3419 39.6005 40.2456C39.6005 40.0389 39.8238 39.9387 40.2698 39.9387H41.8354C41.8742 39.9387 41.9056 39.9693 41.9058 40.0071L41.9048 41.8023C41.9048 42.0655 42.0827 42.3763 42.6218 42.3763H46.925C47.027 42.3763 47.0785 42.3118 47.0785 42.3118L48.5529 40.4146C48.5529 40.4146 48.5856 40.3689 48.5188 40.3689ZM35.1547 42.0813H34.6988C34.66 42.0813 34.6285 42.0506 34.6285 42.0128V39.9951C34.6285 39.9573 34.66 39.9265 34.6984 39.9265H35.1547C36.2824 39.9265 36.8806 40.3803 36.8806 41.003C36.8806 41.6285 36.2768 42.0813 35.1547 42.0813ZM45.4847 42.0887H43.4969C43.2203 42.0887 43.1544 42.0115 43.1544 41.8023V40.7229C43.1544 40.6866 43.1837 40.6575 43.2197 40.655H44.374C44.4104 40.6575 44.4543 40.6789 44.4773 40.7061L45.5138 42.037C45.5342 42.0655 45.5219 42.0887 45.4847 42.0887Z" fill="#0095DA"/>
</g>
</g>
<defs>
<clipPath id="clip0_24584_156678">
<rect width="15.12" height="2.74909" fill="white" transform="translate(33.4399 39.625)"/>
</clipPath>
</defs>
</svg>
