<svg width="91" height="40" viewBox="0 0 91 40" fill="none" xmlns="http://www.w3.org/2000/svg">
<rect width="40" height="40" rx="3.19934" fill="#F9FAFB"/>
<path d="M28 28V29.3333C28 30.8061 26.8061 32 25.3333 32H14.6667C13.1939 32 12 30.8061 12 29.3333V10.6667C12 9.19391 13.1939 8 14.6667 8H25.3333C26.8061 8 28 9.19391 28 10.6667V12" stroke="#034EA2" stroke-linecap="round" stroke-linejoin="round"/>
<rect x="17.332" y="15.3359" width="16" height="9.33333" rx="2.33333" stroke="#034EA2" stroke-linecap="round" stroke-linejoin="round"/>
<path d="M21.3592 20.0026L21.3659 20.0093L21.3726 20.0026L21.3659 19.9959L21.3592 20.0026" stroke="#034EA2" stroke-linecap="round" stroke-linejoin="round"/>
<path d="M25.3592 20.0026L25.3659 20.0093L25.3726 20.0026L25.3659 19.9959L25.3592 20.0026" stroke="#034EA2" stroke-linecap="round" stroke-linejoin="round"/>
<path d="M29.3592 20.0026L29.3659 20.0093L29.3726 20.0026L29.3659 19.9959L29.3592 20.0026" stroke="#034EA2" stroke-linecap="round" stroke-linejoin="round"/>
<path d="M23.3346 8V10.6667C23.3346 11.0349 23.0362 11.3333 22.668 11.3333H17.3346C16.9664 11.3333 16.668 11.0349 16.668 10.6667V8" stroke="#034EA2" stroke-linecap="round" stroke-linejoin="round"/>
<path d="M58.336 20.84C58.336 21.5227 58.2187 22.1413 57.984 22.696C57.7493 23.24 57.4293 23.704 57.024 24.088C56.6187 24.472 56.1387 24.7707 55.584 24.984C55.0293 25.1867 54.4267 25.288 53.776 25.288C53.1253 25.288 52.5227 25.1867 51.968 24.984C51.4133 24.7707 50.928 24.472 50.512 24.088C50.1067 23.704 49.7867 23.24 49.552 22.696C49.328 22.1413 49.216 21.5227 49.216 20.84V13.672H51.232V20.776C51.232 21.0533 51.2747 21.3467 51.36 21.656C51.4453 21.9547 51.584 22.232 51.776 22.488C51.9787 22.744 52.24 22.9573 52.56 23.128C52.8907 23.288 53.296 23.368 53.776 23.368C54.256 23.368 54.656 23.288 54.976 23.128C55.3067 22.9573 55.568 22.744 55.76 22.488C55.9627 22.232 56.1067 21.9547 56.192 21.656C56.2773 21.3467 56.32 21.0533 56.32 20.776V13.672H58.336V20.84ZM66.3629 16.104C66.1495 15.7947 65.8615 15.5707 65.4989 15.432C65.1469 15.2827 64.7735 15.208 64.3789 15.208C64.1442 15.208 63.9149 15.2347 63.6909 15.288C63.4775 15.3413 63.2802 15.4267 63.0989 15.544C62.9282 15.6613 62.7895 15.816 62.6829 16.008C62.5762 16.1893 62.5229 16.408 62.5229 16.664C62.5229 17.048 62.6562 17.3413 62.9229 17.544C63.1895 17.7467 63.5202 17.9227 63.9149 18.072C64.3095 18.2213 64.7415 18.3653 65.2109 18.504C65.6802 18.6427 66.1122 18.8347 66.5069 19.08C66.9015 19.3253 67.2322 19.6507 67.4989 20.056C67.7655 20.4613 67.8989 21 67.8989 21.672C67.8989 22.28 67.7869 22.8133 67.5629 23.272C67.3389 23.72 67.0349 24.0933 66.6509 24.392C66.2775 24.6907 65.8402 24.9147 65.3389 25.064C64.8375 25.2133 64.3095 25.288 63.7549 25.288C63.0509 25.288 62.3735 25.1707 61.7229 24.936C61.0722 24.7013 60.5122 24.3067 60.0429 23.752L61.5629 22.28C61.8082 22.6533 62.1282 22.9467 62.5229 23.16C62.9282 23.3627 63.3549 23.464 63.8029 23.464C64.0375 23.464 64.2722 23.432 64.5069 23.368C64.7415 23.304 64.9549 23.208 65.1469 23.08C65.3389 22.952 65.4935 22.792 65.6109 22.6C65.7282 22.3973 65.7869 22.168 65.7869 21.912C65.7869 21.496 65.6535 21.176 65.3869 20.952C65.1202 20.728 64.7895 20.5413 64.3949 20.392C64.0002 20.232 63.5682 20.0827 63.0989 19.944C62.6295 19.8053 62.1975 19.6187 61.8029 19.384C61.4082 19.1387 61.0775 18.8187 60.8109 18.424C60.5442 18.0187 60.4109 17.48 60.4109 16.808C60.4109 16.2213 60.5282 15.7147 60.7629 15.288C61.0082 14.8613 61.3229 14.5093 61.7069 14.232C62.1015 13.944 62.5495 13.7307 63.0509 13.592C63.5522 13.4533 64.0642 13.384 64.5869 13.384C65.1842 13.384 65.7602 13.4747 66.3149 13.656C66.8802 13.8373 67.3869 14.136 67.8349 14.552L66.3629 16.104ZM75.5504 16.104C75.337 15.7947 75.049 15.5707 74.6864 15.432C74.3344 15.2827 73.961 15.208 73.5664 15.208C73.3317 15.208 73.1024 15.2347 72.8784 15.288C72.665 15.3413 72.4677 15.4267 72.2864 15.544C72.1157 15.6613 71.977 15.816 71.8704 16.008C71.7637 16.1893 71.7104 16.408 71.7104 16.664C71.7104 17.048 71.8437 17.3413 72.1104 17.544C72.377 17.7467 72.7077 17.9227 73.1024 18.072C73.497 18.2213 73.929 18.3653 74.3984 18.504C74.8677 18.6427 75.2997 18.8347 75.6944 19.08C76.089 19.3253 76.4197 19.6507 76.6864 20.056C76.953 20.4613 77.0864 21 77.0864 21.672C77.0864 22.28 76.9744 22.8133 76.7504 23.272C76.5264 23.72 76.2224 24.0933 75.8384 24.392C75.465 24.6907 75.0277 24.9147 74.5264 25.064C74.025 25.2133 73.497 25.288 72.9424 25.288C72.2384 25.288 71.561 25.1707 70.9104 24.936C70.2597 24.7013 69.6997 24.3067 69.2304 23.752L70.7504 22.28C70.9957 22.6533 71.3157 22.9467 71.7104 23.16C72.1157 23.3627 72.5424 23.464 72.9904 23.464C73.225 23.464 73.4597 23.432 73.6944 23.368C73.929 23.304 74.1424 23.208 74.3344 23.08C74.5264 22.952 74.681 22.792 74.7984 22.6C74.9157 22.3973 74.9744 22.168 74.9744 21.912C74.9744 21.496 74.841 21.176 74.5744 20.952C74.3077 20.728 73.977 20.5413 73.5824 20.392C73.1877 20.232 72.7557 20.0827 72.2864 19.944C71.817 19.8053 71.385 19.6187 70.9904 19.384C70.5957 19.1387 70.265 18.8187 69.9984 18.424C69.7317 18.0187 69.5984 17.48 69.5984 16.808C69.5984 16.2213 69.7157 15.7147 69.9504 15.288C70.1957 14.8613 70.5104 14.5093 70.8944 14.232C71.289 13.944 71.737 13.7307 72.2384 13.592C72.7397 13.4533 73.2517 13.384 73.7744 13.384C74.3717 13.384 74.9477 13.4747 75.5024 13.656C76.0677 13.8373 76.5744 14.136 77.0224 14.552L75.5504 16.104ZM79.1859 13.672H83.6499C84.3965 13.672 85.1165 13.7893 85.8099 14.024C86.5032 14.248 87.1165 14.5947 87.6499 15.064C88.1832 15.5333 88.6099 16.1253 88.9299 16.84C89.2499 17.544 89.4099 18.376 89.4099 19.336C89.4099 20.3067 89.2232 21.1493 88.8499 21.864C88.4872 22.568 88.0125 23.1547 87.4259 23.624C86.8499 24.0827 86.2045 24.4293 85.4899 24.664C84.7859 24.888 84.0925 25 83.4099 25H79.1859V13.672ZM82.7059 23.176C83.3352 23.176 83.9272 23.1067 84.4819 22.968C85.0472 22.8187 85.5379 22.5947 85.9539 22.296C86.3699 21.9867 86.6952 21.592 86.9299 21.112C87.1752 20.6213 87.2979 20.0293 87.2979 19.336C87.2979 18.6533 87.1912 18.0667 86.9779 17.576C86.7645 17.0853 86.4659 16.6907 86.0819 16.392C85.7085 16.0827 85.2605 15.8587 84.7379 15.72C84.2259 15.5707 83.6605 15.496 83.0419 15.496H81.2019V23.176H82.7059Z" fill="#034EA2"/>
</svg>
