<svg width="24" height="24" viewBox="0 0 24 24" fill="none" xmlns="http://www.w3.org/2000/svg">
<path d="M8.99981 12.4961H9.99981" stroke="#64748B" stroke-width="1.5" stroke-linecap="round" stroke-linejoin="round"/>
<path d="M12.9997 12.4961H16.9997" stroke="#64748B" stroke-width="1.5" stroke-linecap="round" stroke-linejoin="round"/>
<path d="M8.99981 8.99609H9.99981" stroke="#64748B" stroke-width="1.5" stroke-linecap="round" stroke-linejoin="round"/>
<path d="M12.9997 8.99609H16.9997" stroke="#64748B" stroke-width="1.5" stroke-linecap="round" stroke-linejoin="round"/>
<path d="M4.99951 16.9978V4.67397C4.9995 4.3173 5.18946 3.98762 5.49805 3.80876L6.49096 3.23328C6.79989 3.05421 7.18085 3.05345 7.49049 3.23128L8.99533 4.09563L9.00013 4.09763C9.02681 4.08193 9.91281 3.56833 10.4935 3.23174C10.8018 3.05314 11.182 3.05295 11.4905 3.23125L12.9953 4.09561H13.0037L14.5085 3.23135C14.8181 3.05352 15.1991 3.05428 15.508 3.23335L16.9953 4.09535H17.0037L18.5085 3.23099C18.8181 3.05316 19.1991 3.05392 19.508 3.23299L20.5009 3.80848C20.8095 3.98732 20.9995 4.31696 20.9995 4.67361V19.4978C20.9995 20.3262 20.3279 20.9978 19.4995 20.9978V20.9978C18.6711 20.9978 17.9995 20.3262 17.9995 19.4978V17.9978C17.9995 17.4455 17.5518 16.9978 16.9995 16.9978H3.99951C3.44723 16.9978 2.99951 17.4455 2.99951 17.9978V18.9978C2.99951 20.1023 3.89494 20.9978 4.99951 20.9978H19.4995" stroke="#64748B" stroke-width="1.5" stroke-linecap="round" stroke-linejoin="round"/>
</svg>
