<svg width="96" height="96" viewBox="0 0 96 96" fill="none" xmlns="http://www.w3.org/2000/svg">
<path d="M4.57143 0C2.0467 0 0 2.0467 0 4.57143H4.57143V0Z" fill="#1E293B"/>
<path d="M9.14286 0H4.57143V4.57143H9.14286V0Z" fill="#1E293B"/>
<path d="M13.7143 0H9.14286V4.57143H13.7143V0Z" fill="#1E293B"/>
<path d="M18.2857 0H13.7143V4.57143H18.2857V0Z" fill="#1E293B"/>
<path d="M22.8571 0H18.2857V4.57143H22.8571V0Z" fill="#1E293B"/>
<path d="M27.4286 0H22.8571V4.57143H27.4286V0Z" fill="#1E293B"/>
<path d="M32 4.57143C32 2.0467 29.9533 0 27.4286 0V4.57143H32Z" fill="#1E293B"/>
<path d="M41.1429 0H38.8571C37.5948 0 36.5714 1.02335 36.5714 2.28571C36.5714 3.54808 37.5948 4.57143 38.8571 4.57143H41.1429V0Z" fill="#1E293B"/>
<path d="M45.7143 4.57143C45.7143 2.0467 43.6676 0 41.1429 0V4.57143H45.7143Z" fill="#1E293B"/>
<path d="M68.5714 0C66.0467 0 64 2.0467 64 4.57143H68.5714V0Z" fill="#1E293B"/>
<path d="M73.1429 0H68.5714V4.57143H73.1429V0Z" fill="#1E293B"/>
<path d="M77.7143 0H73.1429V4.57143H77.7143V0Z" fill="#1E293B"/>
<path d="M82.2857 0H77.7143V4.57143H82.2857V0Z" fill="#1E293B"/>
<path d="M86.8571 0H82.2857V4.57143H86.8571V0Z" fill="#1E293B"/>
<path d="M91.4286 0H86.8571V4.57143H91.4286V0Z" fill="#1E293B"/>
<path d="M96 4.57143C96 2.0467 93.9533 0 91.4286 0V4.57143H96Z" fill="#1E293B"/>
<path d="M4.57143 4.57143H0V9.14286H4.57143V4.57143Z" fill="#1E293B"/>
<path d="M32 4.57143H27.4286V9.14286H32V4.57143Z" fill="#1E293B"/>
<path d="M45.7143 4.57143H41.1429C41.1429 7.09616 43.1896 9.14286 45.7143 9.14286V4.57143Z" fill="#1E293B"/>
<path d="M68.5714 4.57143H64V9.14286H68.5714V4.57143Z" fill="#1E293B"/>
<path d="M96 4.57143H91.4286V9.14286H96V4.57143Z" fill="#1E293B"/>
<path d="M4.57143 9.14286H0V13.7143H4.57143V9.14286Z" fill="#1E293B"/>
<path d="M13.7143 9.14286C11.1896 9.14286 9.14286 11.1896 9.14286 13.7143H13.7143V9.14286Z" fill="#1E293B"/>
<path d="M18.2857 9.14286H13.7143V13.7143H18.2857V9.14286Z" fill="#1E293B"/>
<path d="M22.8571 13.7143C22.8571 11.1896 20.8104 9.14286 18.2857 9.14286V13.7143H22.8571Z" fill="#1E293B"/>
<path d="M32 9.14286H27.4286V13.7143H32V9.14286Z" fill="#1E293B"/>
<path d="M50.2857 9.14286H45.7143L45.7143 13.7143H50.2857V9.14286Z" fill="#1E293B"/>
<path d="M54.8571 9.14286H50.2857V13.7143H54.8571V9.14286Z" fill="#1E293B"/>
<path d="M59.4286 13.7143C59.4286 11.1896 57.3819 9.14286 54.8571 9.14286V13.7143H59.4286Z" fill="#1E293B"/>
<path d="M68.5714 9.14286H64V13.7143H68.5714V9.14286Z" fill="#1E293B"/>
<path d="M77.7143 9.14286C75.1896 9.14286 73.1429 11.1896 73.1429 13.7143H77.7143V9.14286Z" fill="#1E293B"/>
<path d="M82.2857 9.14286H77.7143V13.7143H82.2857V9.14286Z" fill="#1E293B"/>
<path d="M86.8571 13.7143C86.8571 11.1896 84.8105 9.14286 82.2857 9.14286V13.7143H86.8571Z" fill="#1E293B"/>
<path d="M96 9.14286H91.4286V13.7143H96V9.14286Z" fill="#1E293B"/>
<path d="M4.57143 13.7143H0V18.2857H4.57143V13.7143Z" fill="#1E293B"/>
<path d="M13.7143 13.7143H9.14286V18.2857H13.7143V13.7143Z" fill="#1E293B"/>
<path d="M18.2857 13.7143H13.7143V18.2857H18.2857V13.7143Z" fill="#1E293B"/>
<path d="M22.8571 13.7143H18.2857V18.2857H22.8571V13.7143Z" fill="#1E293B"/>
<path d="M32 13.7143H27.4286V18.2857H32V13.7143Z" fill="#1E293B"/>
<path d="M41.1429 13.7143C38.6181 13.7143 36.5714 15.761 36.5714 18.2857H41.1429V13.7143Z" fill="#1E293B"/>
<path d="M45.7143 13.7143H41.1429V18.2857H45.7143L45.7143 13.7143Z" fill="#1E293B"/>
<path d="M50.2857 13.7143H45.7143L45.7143 18.2857H50.2857V13.7143Z" fill="#1E293B"/>
<path d="M59.4286 13.7143H54.8571V16C54.8571 17.2624 55.8805 18.2857 57.1429 18.2857C58.4052 18.2857 59.4286 17.2624 59.4286 16V13.7143Z" fill="#1E293B"/>
<path d="M68.5714 13.7143H64V18.2857H68.5714V13.7143Z" fill="#1E293B"/>
<path d="M77.7143 13.7143H73.1429V18.2857H77.7143V13.7143Z" fill="#1E293B"/>
<path d="M82.2857 13.7143H77.7143V18.2857H82.2857V13.7143Z" fill="#1E293B"/>
<path d="M86.8571 13.7143H82.2857V18.2857H86.8571V13.7143Z" fill="#1E293B"/>
<path d="M96 13.7143H91.4286V18.2857H96V13.7143Z" fill="#1E293B"/>
<path d="M4.57143 18.2857H0V22.8571H4.57143V18.2857Z" fill="#1E293B"/>
<path d="M13.7143 18.2857H9.14286C9.14286 20.8104 11.1896 22.8571 13.7143 22.8571V18.2857Z" fill="#1E293B"/>
<path d="M18.2857 18.2857H13.7143V22.8571H18.2857V18.2857Z" fill="#1E293B"/>
<path d="M22.8571 18.2857H18.2857V22.8571C20.8104 22.8571 22.8571 20.8104 22.8571 18.2857Z" fill="#1E293B"/>
<path d="M32 18.2857H27.4286V22.8571H32V18.2857Z" fill="#1E293B"/>
<path d="M41.1429 18.2857H36.5714V22.8571H41.1429V18.2857Z" fill="#1E293B"/>
<path d="M50.2857 18.2857H45.7143L45.7143 20.5714C45.7143 21.8338 46.7376 22.8571 48 22.8571C49.2624 22.8571 50.2857 21.8338 50.2857 20.5714V18.2857Z" fill="#1E293B"/>
<path d="M68.5714 18.2857H64V22.8571H68.5714V18.2857Z" fill="#1E293B"/>
<path d="M77.7143 18.2857H73.1429C73.1429 20.8104 75.1896 22.8571 77.7143 22.8571V18.2857Z" fill="#1E293B"/>
<path d="M82.2857 18.2857H77.7143V22.8571H82.2857V18.2857Z" fill="#1E293B"/>
<path d="M86.8571 18.2857H82.2857V22.8571C84.8105 22.8571 86.8571 20.8104 86.8571 18.2857Z" fill="#1E293B"/>
<path d="M96 18.2857H91.4286V22.8571H96V18.2857Z" fill="#1E293B"/>
<path d="M4.57143 22.8571H0V27.4286H4.57143V22.8571Z" fill="#1E293B"/>
<path d="M32 22.8571H27.4286V27.4286H32V22.8571Z" fill="#1E293B"/>
<path d="M41.1429 22.8571H36.5714V27.4286H41.1429V22.8571Z" fill="#1E293B"/>
<path d="M59.4286 25.1429C59.4286 23.8805 58.4052 22.8571 57.1429 22.8571C55.8805 22.8571 54.8571 23.8805 54.8571 25.1429V27.4286H59.4286V25.1429Z" fill="#1E293B"/>
<path d="M68.5714 22.8571H64V27.4286H68.5714V22.8571Z" fill="#1E293B"/>
<path d="M96 22.8571H91.4286V27.4286H96V22.8571Z" fill="#1E293B"/>
<path d="M4.57143 27.4286H0C0 29.9533 2.0467 32 4.57143 32V27.4286Z" fill="#1E293B"/>
<path d="M9.14286 27.4286H4.57143V32H9.14286V27.4286Z" fill="#1E293B"/>
<path d="M13.7143 27.4286H9.14286V32H13.7143V27.4286Z" fill="#1E293B"/>
<path d="M18.2857 27.4286H13.7143V32H18.2857V27.4286Z" fill="#1E293B"/>
<path d="M22.8571 27.4286H18.2857V32H22.8571V27.4286Z" fill="#1E293B"/>
<path d="M27.4286 27.4286H22.8571V32H27.4286V27.4286Z" fill="#1E293B"/>
<path d="M32 27.4286H27.4286V32C29.9533 32 32 29.9533 32 27.4286Z" fill="#1E293B"/>
<path d="M41.1429 27.4286H36.5714V32H41.1429V27.4286Z" fill="#1E293B"/>
<path d="M50.2857 29.7143C50.2857 28.4519 49.2624 27.4286 48 27.4286C46.7376 27.4286 45.7143 28.4519 45.7143 29.7143V32H50.2857V29.7143Z" fill="#1E293B"/>
<path d="M59.4286 27.4286H54.8571V29.7143C54.8571 30.9767 55.8805 32 57.1429 32C58.4052 32 59.4286 30.9767 59.4286 29.7143V27.4286Z" fill="#1E293B"/>
<path d="M68.5714 27.4286H64C64 29.9533 66.0467 32 68.5714 32V27.4286Z" fill="#1E293B"/>
<path d="M73.1429 27.4286H68.5714V32H73.1429V27.4286Z" fill="#1E293B"/>
<path d="M77.7143 27.4286H73.1429V32H77.7143V27.4286Z" fill="#1E293B"/>
<path d="M82.2857 27.4286H77.7143V32H82.2857V27.4286Z" fill="#1E293B"/>
<path d="M86.8571 27.4286H82.2857V32H86.8571V27.4286Z" fill="#1E293B"/>
<path d="M91.4286 27.4286H86.8571V32H91.4286V27.4286Z" fill="#1E293B"/>
<path d="M96 27.4286H91.4286V32C93.9533 32 96 29.9533 96 27.4286Z" fill="#1E293B"/>
<path d="M41.1429 32H36.5714V36.5714H41.1429V32Z" fill="#1E293B"/>
<path d="M50.2857 32H45.7143V36.5714H50.2857V32Z" fill="#1E293B"/>
<path d="M4.57143 36.5714H2.28571C1.02335 36.5714 0 37.5948 0 38.8571C0 40.1195 1.02335 41.1429 2.28571 41.1429H4.57143V36.5714Z" fill="#1E293B"/>
<path d="M9.14286 36.5714H4.57143V41.1429H9.14286V36.5714Z" fill="#1E293B"/>
<path d="M13.7143 41.1429C13.7143 38.6181 11.6676 36.5714 9.14286 36.5714V41.1429H13.7143Z" fill="#1E293B"/>
<path d="M22.8571 38.8571C22.8571 37.5948 21.8338 36.5714 20.5714 36.5714C19.3091 36.5714 18.2857 37.5948 18.2857 38.8571V41.1429H22.8571V38.8571Z" fill="#1E293B"/>
<path d="M32 38.8571C32 37.5948 30.9767 36.5714 29.7143 36.5714C28.4519 36.5714 27.4286 37.5948 27.4286 38.8571V41.1429H32V38.8571Z" fill="#1E293B"/>
<path d="M41.1429 36.5714H36.5714V41.1429H41.1429V36.5714Z" fill="#1E293B"/>
<path d="M45.7143 36.5714H41.1429V41.1429H45.7143L45.7143 36.5714Z" fill="#1E293B"/>
<path d="M50.2857 36.5714H45.7143L45.7143 41.1429H50.2857V36.5714Z" fill="#1E293B"/>
<path d="M64 36.5714C61.4753 36.5714 59.4286 38.6181 59.4286 41.1429H64V36.5714Z" fill="#1E293B"/>
<path d="M68.5714 36.5714H64V41.1429H68.5714V36.5714Z" fill="#1E293B"/>
<path d="M73.1429 36.5714H68.5714V41.1429H73.1429V36.5714Z" fill="#1E293B"/>
<path d="M77.7143 36.5714H73.1429V41.1429H77.7143V36.5714Z" fill="#1E293B"/>
<path d="M82.2857 38.8571C82.2857 37.5948 81.2624 36.5714 80 36.5714H77.7143V41.1429H80C81.2624 41.1429 82.2857 40.1195 82.2857 38.8571Z" fill="#1E293B"/>
<path d="M96 38.8571C96 37.5948 94.9767 36.5714 93.7143 36.5714C92.4519 36.5714 91.4286 37.5948 91.4286 38.8571C91.4286 40.1195 92.4519 41.1429 93.7143 41.1429C94.9767 41.1429 96 40.1195 96 38.8571Z" fill="#1E293B"/>
<path d="M9.14286 41.1429H4.57143V45.7143H9.14286V41.1429Z" fill="#1E293B"/>
<path d="M13.7143 41.1429H9.14286V45.7143H13.7143V41.1429Z" fill="#1E293B"/>
<path d="M18.2857 41.1429H13.7143V45.7143H18.2857V41.1429Z" fill="#1E293B"/>
<path d="M22.8571 41.1429H18.2857V45.7143H22.8571V41.1429Z" fill="#1E293B"/>
<path d="M27.4286 41.1429H22.8571V45.7143H27.4286V41.1429Z" fill="#1E293B"/>
<path d="M36.5714 41.1429H32V45.7143H36.5714V41.1429Z" fill="#1E293B"/>
<path d="M45.7143 41.1429H41.1429L41.1429 45.7143H45.7143V41.1429Z" fill="#1E293B"/>
<path d="M50.2857 41.1429H45.7143V45.7143C48.239 45.7143 50.2857 43.6676 50.2857 41.1429Z" fill="#1E293B"/>
<path d="M59.4286 41.1429L57.1429 41.1429C55.8805 41.1429 54.8571 42.1662 54.8571 43.4286C54.8571 44.6909 55.8805 45.7143 57.1429 45.7143H59.4286V41.1429Z" fill="#1E293B"/>
<path d="M64 41.1429H59.4286V45.7143H64V41.1429Z" fill="#1E293B"/>
<path d="M77.7143 41.1429H73.1429V45.7143H77.7143V41.1429Z" fill="#1E293B"/>
<path d="M4.57143 45.7143L2.28572 45.7143C1.02335 45.7143 0 46.7376 0 48C0 49.2624 1.02335 50.2857 2.28571 50.2857H4.57143V45.7143Z" fill="#1E293B"/>
<path d="M13.7143 45.7143H9.14286V50.2857H13.7143V45.7143Z" fill="#1E293B"/>
<path d="M18.2857 45.7143H13.7143V50.2857H18.2857V45.7143Z" fill="#1E293B"/>
<path d="M22.8571 45.7143H18.2857V50.2857H22.8571V45.7143Z" fill="#1E293B"/>
<path d="M27.4286 45.7143H22.8571V50.2857H27.4286V45.7143Z" fill="#1E293B"/>
<path d="M32 45.7143H27.4286V50.2857H32V45.7143Z" fill="#1E293B"/>
<path d="M36.5714 45.7143H32V50.2857H36.5714V45.7143Z" fill="#1E293B"/>
<path d="M45.7143 45.7143H41.1429V48C41.1429 49.2624 42.1662 50.2857 43.4286 50.2857C44.6909 50.2857 45.7143 49.2624 45.7143 48V45.7143Z" fill="#1E293B"/>
<path d="M64 45.7143H59.4286V50.2857H64V45.7143Z" fill="#1E293B"/>
<path d="M68.5714 50.2857C68.5714 47.761 66.5247 45.7143 64 45.7143V50.2857H68.5714Z" fill="#1E293B"/>
<path d="M77.7143 45.7143H73.1429V50.2857H77.7143V45.7143Z" fill="#1E293B"/>
<path d="M82.2857 45.7143L77.7143 45.7143V50.2857H82.2857V45.7143Z" fill="#1E293B"/>
<path d="M86.8571 45.7143H82.2857V50.2857H86.8571V45.7143Z" fill="#1E293B"/>
<path d="M91.4286 50.2857C91.4286 47.761 89.3819 45.7143 86.8571 45.7143V50.2857H91.4286Z" fill="#1E293B"/>
<path d="M9.14286 50.2857H4.57143V54.8571H9.14286V50.2857Z" fill="#1E293B"/>
<path d="M27.4286 50.2857H22.8571V54.8571H27.4286V50.2857Z" fill="#1E293B"/>
<path d="M36.5714 50.2857H32V54.8571H36.5714V50.2857Z" fill="#1E293B"/>
<path d="M54.8571 52.5714C54.8571 51.3091 53.8338 50.2857 52.5714 50.2857C51.3091 50.2857 50.2857 51.3091 50.2857 52.5714C50.2857 53.8338 51.3091 54.8571 52.5714 54.8571C53.8338 54.8571 54.8571 53.8338 54.8571 52.5714Z" fill="#1E293B"/>
<path d="M64 50.2857H59.4286V54.8571H64V50.2857Z" fill="#1E293B"/>
<path d="M73.1429 50.2857H68.5714V54.8571H73.1429V50.2857Z" fill="#1E293B"/>
<path d="M77.7143 50.2857H73.1429V54.8571H77.7143V50.2857Z" fill="#1E293B"/>
<path d="M82.2857 50.2857H77.7143V54.8571H82.2857V50.2857Z" fill="#1E293B"/>
<path d="M96 52.5714C96 51.3091 94.9766 50.2857 93.7143 50.2857H91.4286V52.5714C91.4286 53.8338 92.4519 54.8571 93.7143 54.8571C94.9767 54.8571 96 53.8338 96 52.5714Z" fill="#1E293B"/>
<path d="M4.57143 54.8571H2.28572C1.02335 54.8571 0 55.8805 0 57.1429C0 58.4052 1.02335 59.4286 2.28572 59.4286H4.57143V54.8571Z" fill="#1E293B"/>
<path d="M9.14286 54.8571H4.57143V59.4286H9.14286V54.8571Z" fill="#1E293B"/>
<path d="M13.7143 54.8571H9.14286V59.4286H13.7143V54.8571Z" fill="#1E293B"/>
<path d="M18.2857 54.8571H13.7143V59.4286H18.2857V54.8571Z" fill="#1E293B"/>
<path d="M22.8571 54.8571H18.2857V59.4286H22.8571V54.8571Z" fill="#1E293B"/>
<path d="M27.4286 54.8571H22.8571V59.4286H27.4286V54.8571Z" fill="#1E293B"/>
<path d="M32 54.8571H27.4286V59.4286H32V54.8571Z" fill="#1E293B"/>
<path d="M36.5714 54.8571H32V59.4286H36.5714V54.8571Z" fill="#1E293B"/>
<path d="M41.1429 54.8571H36.5714V59.4286H41.1429V54.8571Z" fill="#1E293B"/>
<path d="M45.7143 59.4286C45.7143 56.9038 43.6676 54.8571 41.1429 54.8571V59.4286H45.7143Z" fill="#1E293B"/>
<path d="M64 54.8571H59.4286C59.4286 57.3819 61.4753 59.4286 64 59.4286V54.8571Z" fill="#1E293B"/>
<path d="M68.5714 54.8571H64V59.4286H68.5714V54.8571Z" fill="#1E293B"/>
<path d="M73.1429 54.8571H68.5714V59.4286H73.1429V54.8571Z" fill="#1E293B"/>
<path d="M77.7143 54.8571H73.1429V59.4286H77.7143V54.8571Z" fill="#1E293B"/>
<path d="M82.2857 54.8571H77.7143V59.4286C80.239 59.4286 82.2857 57.3819 82.2857 54.8571Z" fill="#1E293B"/>
<path d="M41.1429 59.4286H36.5714C36.5714 61.9533 38.6181 64 41.1429 64V59.4286Z" fill="#1E293B"/>
<path d="M50.2857 64C50.2857 61.4753 48.239 59.4286 45.7143 59.4286L45.7143 64H50.2857Z" fill="#1E293B"/>
<path d="M68.5714 59.4286H64V64H68.5714V59.4286Z" fill="#1E293B"/>
<path d="M73.1429 59.4286H68.5714V64H73.1429V59.4286Z" fill="#1E293B"/>
<path d="M91.4286 61.7143C91.4286 60.4519 90.4052 59.4286 89.1429 59.4286C87.8805 59.4286 86.8571 60.4519 86.8571 61.7143V64H91.4286V61.7143Z" fill="#1E293B"/>
<path d="M4.57143 64C2.0467 64 0 66.0467 0 68.5714H4.57143V64Z" fill="#1E293B"/>
<path d="M9.14286 64H4.57143V68.5714H9.14286V64Z" fill="#1E293B"/>
<path d="M13.7143 64H9.14286V68.5714H13.7143V64Z" fill="#1E293B"/>
<path d="M18.2857 64H13.7143V68.5714H18.2857V64Z" fill="#1E293B"/>
<path d="M22.8571 64H18.2857V68.5714H22.8571V64Z" fill="#1E293B"/>
<path d="M27.4286 64H22.8571V68.5714H27.4286V64Z" fill="#1E293B"/>
<path d="M32 68.5714C32 66.0467 29.9533 64 27.4286 64V68.5714H32Z" fill="#1E293B"/>
<path d="M45.7143 64H41.1429C41.1429 66.5247 43.1896 68.5714 45.7143 68.5714L45.7143 64Z" fill="#1E293B"/>
<path d="M50.2857 64H45.7143L45.7143 68.5714C48.239 68.5714 50.2857 66.5247 50.2857 64Z" fill="#1E293B"/>
<path d="M59.4286 66.2857C59.4286 65.0234 58.4052 64 57.1429 64C55.8805 64 54.8571 65.0234 54.8571 66.2857C54.8571 67.5481 55.8805 68.5714 57.1429 68.5714H59.4286V66.2857Z" fill="#1E293B"/>
<path d="M68.5714 64H64V68.5714H68.5714V64Z" fill="#1E293B"/>
<path d="M77.7143 68.5714C77.7143 66.0467 75.6676 64 73.1429 64V68.5714H77.7143Z" fill="#1E293B"/>
<path d="M86.8571 64H84.5714C83.3091 64 82.2857 65.0234 82.2857 66.2857C82.2857 67.5481 83.3091 68.5714 84.5714 68.5714H86.8571V64Z" fill="#1E293B"/>
<path d="M91.4286 64H86.8571V68.5714C89.3819 68.5714 91.4286 66.5247 91.4286 64Z" fill="#1E293B"/>
<path d="M4.57143 68.5714H0V73.1429H4.57143V68.5714Z" fill="#1E293B"/>
<path d="M32 68.5714H27.4286V73.1429H32V68.5714Z" fill="#1E293B"/>
<path d="M64 68.5714H59.4286C59.4286 71.0962 61.4753 73.1429 64 73.1429V68.5714Z" fill="#1E293B"/>
<path d="M68.5714 68.5714H64V73.1429H68.5714V68.5714Z" fill="#1E293B"/>
<path d="M73.1429 68.5714H68.5714V73.1429H73.1429V68.5714Z" fill="#1E293B"/>
<path d="M77.7143 68.5714H73.1429V73.1429H77.7143V68.5714Z" fill="#1E293B"/>
<path d="M4.57143 73.1429H0V77.7143H4.57143V73.1429Z" fill="#1E293B"/>
<path d="M13.7143 73.1429C11.1896 73.1429 9.14286 75.1896 9.14286 77.7143H13.7143V73.1429Z" fill="#1E293B"/>
<path d="M18.2857 73.1429H13.7143V77.7143H18.2857V73.1429Z" fill="#1E293B"/>
<path d="M22.8571 77.7143C22.8571 75.1896 20.8104 73.1429 18.2857 73.1429V77.7143H22.8571Z" fill="#1E293B"/>
<path d="M32 73.1429H27.4286V77.7143H32V73.1429Z" fill="#1E293B"/>
<path d="M41.1429 73.1429H38.8571C37.5948 73.1429 36.5714 74.1662 36.5714 75.4286C36.5714 76.6909 37.5948 77.7143 38.8571 77.7143H41.1429V73.1429Z" fill="#1E293B"/>
<path d="M45.7143 73.1429H41.1429V77.7143H45.7143V73.1429Z" fill="#1E293B"/>
<path d="M50.2857 75.4286C50.2857 74.1662 49.2624 73.1429 48 73.1429H45.7143V77.7143H48C49.2624 77.7143 50.2857 76.6909 50.2857 75.4286Z" fill="#1E293B"/>
<path d="M68.5714 73.1429H64V77.7143H68.5714V73.1429Z" fill="#1E293B"/>
<path d="M73.1429 73.1429H68.5714V77.7143H73.1429V73.1429Z" fill="#1E293B"/>
<path d="M82.2857 77.7143C82.2857 75.1896 80.239 73.1429 77.7143 73.1429V77.7143H82.2857Z" fill="#1E293B"/>
<path d="M91.4286 75.4286C91.4286 74.1662 90.4052 73.1429 89.1429 73.1429C87.8805 73.1429 86.8571 74.1662 86.8571 75.4286V77.7143H89.1429C90.4052 77.7143 91.4286 76.6909 91.4286 75.4286Z" fill="#1E293B"/>
<path d="M4.57143 77.7143H0V82.2857H4.57143V77.7143Z" fill="#1E293B"/>
<path d="M13.7143 77.7143H9.14286V82.2857H13.7143V77.7143Z" fill="#1E293B"/>
<path d="M18.2857 77.7143H13.7143V82.2857H18.2857V77.7143Z" fill="#1E293B"/>
<path d="M22.8571 77.7143H18.2857V82.2857H22.8571V77.7143Z" fill="#1E293B"/>
<path d="M32 77.7143H27.4286V82.2857H32V77.7143Z" fill="#1E293B"/>
<path d="M45.7143 77.7143H41.1429L41.1429 82.2857H45.7143V77.7143Z" fill="#1E293B"/>
<path d="M64 77.7143C61.4753 77.7143 59.4286 79.761 59.4286 82.2857H64V77.7143Z" fill="#1E293B"/>
<path d="M73.1429 77.7143H68.5714V82.2857H73.1429V77.7143Z" fill="#1E293B"/>
<path d="M77.7143 77.7143H73.1429V82.2857H77.7143V77.7143Z" fill="#1E293B"/>
<path d="M82.2857 77.7143H77.7143V82.2857H82.2857V77.7143Z" fill="#1E293B"/>
<path d="M86.8571 77.7143H82.2857V82.2857H86.8571V77.7143Z" fill="#1E293B"/>
<path d="M4.57143 82.2857H0V86.8571H4.57143V82.2857Z" fill="#1E293B"/>
<path d="M13.7143 82.2857H9.14286C9.14286 84.8105 11.1896 86.8571 13.7143 86.8571V82.2857Z" fill="#1E293B"/>
<path d="M18.2857 82.2857H13.7143V86.8571H18.2857V82.2857Z" fill="#1E293B"/>
<path d="M22.8571 82.2857H18.2857V86.8571C20.8104 86.8571 22.8571 84.8105 22.8571 82.2857Z" fill="#1E293B"/>
<path d="M32 82.2857H27.4286V86.8571H32V82.2857Z" fill="#1E293B"/>
<path d="M41.1429 82.2857C38.6181 82.2857 36.5714 84.3324 36.5714 86.8571H41.1429L41.1429 82.2857Z" fill="#1E293B"/>
<path d="M45.7143 82.2857H41.1429L41.1429 86.8571H45.7143V82.2857Z" fill="#1E293B"/>
<path d="M50.2857 82.2857H45.7143V86.8571H50.2857V82.2857Z" fill="#1E293B"/>
<path d="M54.8571 86.8571C54.8571 84.3324 52.8104 82.2857 50.2857 82.2857V86.8571H54.8571Z" fill="#1E293B"/>
<path d="M64 82.2857H59.4286V86.8571H64V82.2857Z" fill="#1E293B"/>
<path d="M68.5714 82.2857H64V86.8571H68.5714V82.2857Z" fill="#1E293B"/>
<path d="M73.1429 82.2857H68.5714V86.8571H73.1429V82.2857Z" fill="#1E293B"/>
<path d="M86.8571 82.2857H82.2857V86.8571H86.8571V82.2857Z" fill="#1E293B"/>
<path d="M91.4286 82.2857H86.8571V86.8571H91.4286V82.2857Z" fill="#1E293B"/>
<path d="M96 84.5714C96 83.3091 94.9767 82.2857 93.7143 82.2857H91.4286V86.8571H93.7143C94.9767 86.8571 96 85.8338 96 84.5714Z" fill="#1E293B"/>
<path d="M4.57143 86.8571H0V91.4286H4.57143V86.8571Z" fill="#1E293B"/>
<path d="M32 86.8571H27.4286V91.4286H32V86.8571Z" fill="#1E293B"/>
<path d="M41.1429 86.8571H36.5714V91.4286H41.1429V86.8571Z" fill="#1E293B"/>
<path d="M45.7143 86.8571H41.1429V91.4286H45.7143V86.8571Z" fill="#1E293B"/>
<path d="M50.2857 86.8571H45.7143V91.4286H50.2857V86.8571Z" fill="#1E293B"/>
<path d="M54.8571 86.8571H50.2857V91.4286H54.8571V86.8571Z" fill="#1E293B"/>
<path d="M59.4286 86.8571H54.8571V91.4286H59.4286V86.8571Z" fill="#1E293B"/>
<path d="M64 86.8571H59.4286V91.4286C61.9533 91.4286 64 89.3819 64 86.8571Z" fill="#1E293B"/>
<path d="M77.7143 91.4286C77.7143 88.9038 75.6676 86.8571 73.1429 86.8571V91.4286H77.7143Z" fill="#1E293B"/>
<path d="M86.8571 86.8571H82.2857V91.4286H86.8571V86.8571Z" fill="#1E293B"/>
<path d="M91.4286 86.8571H86.8571V91.4286H91.4286V86.8571Z" fill="#1E293B"/>
<path d="M4.57143 91.4286H0C0 93.9533 2.0467 96 4.57143 96V91.4286Z" fill="#1E293B"/>
<path d="M9.14286 91.4286H4.57143V96H9.14286V91.4286Z" fill="#1E293B"/>
<path d="M13.7143 91.4286H9.14286V96H13.7143V91.4286Z" fill="#1E293B"/>
<path d="M18.2857 91.4286H13.7143V96H18.2857V91.4286Z" fill="#1E293B"/>
<path d="M22.8571 91.4286H18.2857V96H22.8571V91.4286Z" fill="#1E293B"/>
<path d="M27.4286 91.4286H22.8571V96H27.4286V91.4286Z" fill="#1E293B"/>
<path d="M32 91.4286H27.4286V96C29.9533 96 32 93.9533 32 91.4286Z" fill="#1E293B"/>
<path d="M41.1429 91.4286H36.5714V93.7143C36.5714 94.9767 37.5948 96 38.8571 96C40.1195 96 41.1429 94.9767 41.1429 93.7143V91.4286Z" fill="#1E293B"/>
<path d="M50.2857 91.4286H45.7143L45.7143 93.7143C45.7143 94.9766 46.7376 96 48 96C49.2624 96 50.2857 94.9767 50.2857 93.7143V91.4286Z" fill="#1E293B"/>
<path d="M59.4286 91.4286H54.8571V93.7143C54.8571 94.9766 55.8805 96 57.1429 96C58.4052 96 59.4286 94.9766 59.4286 93.7143V91.4286Z" fill="#1E293B"/>
<path d="M73.1429 91.4286H70.8571C69.5948 91.4286 68.5714 92.4519 68.5714 93.7143C68.5714 94.9767 69.5948 96 70.8571 96H73.1429V91.4286Z" fill="#1E293B"/>
<path d="M77.7143 91.4286H73.1429V96C75.6676 96 77.7143 93.9533 77.7143 91.4286Z" fill="#1E293B"/>
<path d="M86.8571 91.4286H82.2857C82.2857 93.9533 84.3324 96 86.8571 96V91.4286Z" fill="#1E293B"/>
<path d="M91.4286 91.4286H86.8571V96C89.3819 96 91.4286 93.9533 91.4286 91.4286Z" fill="#1E293B"/>
</svg>
