<svg width="50" height="50" viewBox="0 0 50 50" fill="none" xmlns="http://www.w3.org/2000/svg">
<path d="M0 25C0 11.1929 11.1929 0 25 0C38.8071 0 50 11.1929 50 25C50 38.8071 38.8071 50 25 50C11.1929 50 0 38.8071 0 25Z" fill="#DF4308"/>
<path d="M36.7842 13.2158V36.7852H13.2158V13.2158H36.7842Z" stroke="white" stroke-width="0.43198"/>
<path d="M32.739 16.4141H26.7383V22.4148H32.739V16.4141Z" fill="white"/>
<path d="M19.2127 32.4318C18.2351 32.4318 17.1934 32.1594 17.1934 29.7854C17.1934 27.4114 18.4502 26.9924 19.5073 26.9924C19.9374 26.9866 20.3627 27.0823 20.7488 27.2717V28.118C20.3501 27.97 19.9318 27.8811 19.5073 27.8541C18.9711 27.8541 18.2505 28.1418 18.2505 29.7212C18.2505 31.397 18.8091 31.5981 19.1959 31.5981C19.4373 31.5913 19.6778 31.5656 19.9151 31.5212V29.9139H19.1959L19.1205 29.1039H20.9736V32.1594C20.3998 32.3211 19.8085 32.4125 19.2127 32.4318Z" fill="white"/>
<path d="M25.0894 27.9702H23.9248V32.3566H22.8648V27.9702H21.5801V27.0625H25.2109L25.0894 27.9702Z" fill="white"/>
<path d="M27.352 32.4298C26.4667 32.4298 25.4766 32.1505 25.4766 29.7066C25.4766 27.2628 26.7236 26.9849 27.4498 26.9849C27.7853 26.9779 28.1185 27.0422 28.4273 27.1734V28.0281C28.1296 27.9247 27.8189 27.8636 27.5043 27.8465C26.9904 27.8465 26.5365 28.1565 26.5365 29.7066C26.5365 31.0919 26.8619 31.5598 27.4288 31.5598C27.7693 31.5477 28.1059 31.4841 28.4273 31.3712V32.2259C28.0878 32.3708 27.721 32.4403 27.352 32.4298Z" fill="white"/>
<path d="M30.8811 32.4293C30.0641 32.4293 28.9902 32.2631 28.9902 29.7061C28.9902 27.1492 30.1326 26.9844 30.8811 26.9844C31.6296 26.9844 32.7719 27.1659 32.7719 29.7061C32.7719 32.2854 31.6799 32.4293 30.8811 32.4293ZM30.8811 27.7399C30.3518 27.7399 30.0432 28.0876 30.0432 29.7061C30.0432 31.3484 30.4286 31.6738 30.8811 31.6738C31.3335 31.6738 31.712 31.3707 31.712 29.7061C31.712 28.1183 31.4006 27.7399 30.8811 27.7399Z" fill="white"/>
</svg>
