<svg width="50" height="50" viewBox="0 0 50 50" fill="none" xmlns="http://www.w3.org/2000/svg">
<path d="M0 25C0 11.1929 11.1929 0 25 0C38.8071 0 50 11.1929 50 25C50 38.8071 38.8071 50 25 50C11.1929 50 0 38.8071 0 25Z" fill="#D81A0E"/>
<g clip-path="url(#clip0_24584_155488)">
<path fill-rule="evenodd" clip-rule="evenodd" d="M31.6904 30.6659C32.3237 27.7122 32.9549 24.7683 33.5886 21.8125C33.6034 21.8396 33.6127 21.8554 33.6209 21.8718C34.5823 23.7705 35.5491 25.6665 36.5012 27.5699C36.7361 28.0392 36.8799 28.5429 36.8573 29.0787C36.8365 29.5709 36.6172 29.9509 36.2016 30.2161C35.9067 30.4042 35.5786 30.5042 35.2386 30.5696C34.8774 30.6391 34.5125 30.6677 34.1445 30.6667C33.3542 30.6643 32.5639 30.6659 31.7737 30.6659H31.6904Z" fill="white"/>
<path fill-rule="evenodd" clip-rule="evenodd" d="M40.9692 20.0049C40.3358 22.9589 39.7051 25.901 39.0714 28.8566C39.056 28.8298 39.0466 28.8151 39.0388 28.7996C38.0775 26.9009 37.1116 25.0045 36.1585 23.1016C35.9363 22.6579 35.7995 22.1819 35.7998 21.6771C35.8002 21.0959 36.0597 20.6679 36.5683 20.3895C36.8538 20.2332 37.1627 20.1469 37.4807 20.0899C37.8372 20.0261 38.1969 20.0026 38.5591 20.004C39.3345 20.007 40.1097 20.0049 40.885 20.0049H40.9692Z" fill="white"/>
<path fill-rule="evenodd" clip-rule="evenodd" d="M26.2756 25.8022C25.7743 26.5626 25.2823 27.3089 24.7867 28.0607H26.8272C26.6437 27.3094 26.4616 26.5638 26.2756 25.8022ZM28.8309 30.3672H27.3502C27.3275 30.2599 27.3044 30.1517 27.2818 30.0435C27.2156 29.7271 27.1489 29.4107 27.0844 29.0939C27.0774 29.0597 27.0643 29.0498 27.0302 29.0498C26.0935 29.0507 25.1568 29.0502 24.2202 29.0523C24.1975 29.0524 24.167 29.0742 24.1533 29.0946C23.878 29.5035 23.6042 29.9135 23.3318 30.3242C23.3101 30.3569 23.2884 30.3701 23.2482 30.3699C22.8757 30.3682 22.5033 30.3689 22.1308 30.3689H22.0703C22.0878 30.342 22.1006 30.3212 22.1145 30.301C23.5099 28.2599 24.9053 26.2189 26.3007 24.1779C26.4207 24.0024 26.5417 23.8276 26.6601 23.651C26.681 23.6198 26.7033 23.6088 26.7404 23.6094C26.8859 23.6115 27.0315 23.6103 27.1809 23.6103C27.7307 25.8621 28.2801 28.1115 28.8309 30.3672Z" fill="white"/>
<path fill-rule="evenodd" clip-rule="evenodd" d="M18.4099 26.5921C18.4261 26.5938 18.4369 26.5959 18.4476 26.5959C18.7579 26.5961 19.0681 26.5962 19.3782 26.5958C19.3926 26.5958 19.4081 26.594 19.4211 26.5886C19.688 26.4762 19.9498 26.3544 20.1792 26.1755C20.3767 26.0216 20.5274 25.8344 20.5885 25.5885C20.6099 25.5024 20.6181 25.4131 20.6363 25.326C20.6959 25.0409 20.6068 24.7975 20.3784 24.6443C20.1883 24.5168 19.9736 24.4588 19.7459 24.4603C19.4635 24.4622 19.1812 24.4773 18.8988 24.4808C18.8341 24.4816 18.8173 24.504 18.8067 24.5615C18.7488 24.8726 18.6866 25.1829 18.6256 25.4935C18.5542 25.8575 18.4826 26.2215 18.4099 26.5921ZM17.7529 29.5543H17.8122C18.1241 29.5543 18.436 29.5552 18.748 29.554C18.9203 29.5533 19.09 29.5307 19.2564 29.4856C19.7304 29.3572 20.072 29.0629 20.3275 28.6585C20.3958 28.5505 20.4505 28.4396 20.4577 28.3101C20.4597 28.272 20.4656 28.2341 20.4676 28.196C20.4844 27.8779 20.4055 27.5943 20.1458 27.3856C19.8668 27.1614 19.5318 27.0765 19.183 27.0624C18.8978 27.0508 18.6112 27.0763 18.3252 27.0834C18.2851 27.0843 18.2694 27.0946 18.2607 27.1359C18.0944 27.9241 17.926 28.7119 17.7583 29.4999C17.755 29.5153 17.7551 29.5313 17.7529 29.5543ZM20.4643 26.7038C20.5623 26.7235 20.6526 26.739 20.7415 26.76C20.9752 26.8152 21.1966 26.8992 21.3855 27.0499C21.6574 27.2668 21.8026 27.5499 21.7998 27.8945C21.7911 28.9409 21.2651 29.6514 20.3168 30.0771C19.9542 30.2397 19.5688 30.3231 19.1724 30.3534C19.0253 30.3646 18.8774 30.3688 18.7298 30.3691C17.919 30.3705 17.1081 30.3697 16.2973 30.3697H16.2109C16.2303 30.2748 16.2474 30.1884 16.2657 30.1021C16.4675 29.1499 16.6695 28.1976 16.8714 27.2454C17.0689 26.3145 17.2663 25.3836 17.4639 24.4527C17.5201 24.1876 17.5777 23.9226 17.632 23.6571C17.6396 23.6197 17.6543 23.6115 17.6898 23.6115C18.6668 23.6123 19.644 23.6035 20.6209 23.6168C20.969 23.6215 21.3019 23.7243 21.5915 23.9288C21.8659 24.1223 22.0106 24.3923 22.0543 24.718C22.0824 24.9275 22.0725 25.1372 22.0286 25.3429C21.9883 25.5323 21.8916 25.6993 21.7804 25.857C21.5516 26.1819 21.2326 26.393 20.8711 26.5476C20.7412 26.6032 20.6072 26.6492 20.4643 26.7038Z" fill="white"/>
<path fill-rule="evenodd" clip-rule="evenodd" d="M9.99599 23.6094H11.3752C11.3656 23.6639 11.3575 23.7154 11.3474 23.7665C11.0926 25.0669 10.8381 26.3674 10.5823 27.6676C10.5166 28.0018 10.4692 28.3378 10.4798 28.6799C10.4857 28.8697 10.5109 29.0565 10.5741 29.2363C10.7079 29.6174 10.9767 29.8322 11.3615 29.8807C12.105 29.9745 12.8765 29.6566 13.2917 28.8345C13.4587 28.504 13.5558 28.1527 13.6289 27.7899C13.8301 26.7899 14.0395 25.7918 14.2458 24.7929C14.3256 24.4065 14.4058 24.0201 14.4859 23.6337C14.4873 23.6265 14.4897 23.6195 14.4922 23.6103H15.7606C15.7429 23.6973 15.7262 23.7823 15.7083 23.867C15.3779 25.4337 15.0474 27.0005 14.7163 28.5671C14.7092 28.6004 14.6966 28.6328 14.6833 28.6641C14.4913 29.1169 14.2397 29.5287 13.8939 29.8754C13.4239 30.3465 12.8567 30.6192 12.2163 30.7405C11.7563 30.8276 11.2928 30.8399 10.828 30.7957C10.5516 30.7695 10.281 30.7127 10.0226 30.6037C9.47916 30.3744 9.16339 29.9559 9.0543 29.3676C8.99607 29.0535 8.97692 28.7339 9.03571 28.421C9.18737 27.6133 9.35497 26.8088 9.51625 26.003C9.67074 25.2309 9.82519 24.4588 9.97968 23.6867C9.98451 23.6625 9.98986 23.6384 9.99599 23.6094Z" fill="white"/>
</g>
<defs>
<clipPath id="clip0_24584_155488">
<rect width="32" height="10.8169" fill="white" transform="translate(9 20)"/>
</clipPath>
</defs>
</svg>
