<svg width="24" height="24" viewBox="0 0 24 24" fill="none" xmlns="http://www.w3.org/2000/svg">
<path fill-rule="evenodd" clip-rule="evenodd" d="M6 19H4C3.448 19 3 18.552 3 18V15C3 14.448 3.448 14 4 14H6C6.552 14 7 14.448 7 15V18C7 18.552 6.552 19 6 19Z" stroke="#64748B" stroke-width="1.5" stroke-linecap="round" stroke-linejoin="round"/>
<path fill-rule="evenodd" clip-rule="evenodd" d="M13.0003 19H11.0003C10.4483 19 10.0003 18.552 10.0003 18V11C10.0003 10.448 10.4483 10 11.0003 10H13.0003C13.5523 10 14.0003 10.448 14.0003 11V18C14.0003 18.552 13.5523 19 13.0003 19Z" stroke="#64748B" stroke-width="1.5" stroke-linecap="round" stroke-linejoin="round"/>
<path fill-rule="evenodd" clip-rule="evenodd" d="M19.9997 19H17.9997C17.4477 19 16.9997 18.552 16.9997 18V6C16.9997 5.448 17.4477 5 17.9997 5H19.9997C20.5517 5 20.9997 5.448 20.9997 6V18C20.9997 18.552 20.5517 19 19.9997 19Z" stroke="#64748B" stroke-width="1.5" stroke-linecap="round" stroke-linejoin="round"/>
</svg>
