<svg width="20" height="20" viewBox="0 0 20 20" fill="none" xmlns="http://www.w3.org/2000/svg">
<path d="M7 10.499H8" stroke="#034EA2" stroke-width="1.5" stroke-linecap="round" stroke-linejoin="round"/>
<path d="M11 10.499H15" stroke="#034EA2" stroke-width="1.5" stroke-linecap="round" stroke-linejoin="round"/>
<path d="M7 7H8" stroke="#034EA2" stroke-width="1.5" stroke-linecap="round" stroke-linejoin="round"/>
<path d="M11 7H15" stroke="#034EA2" stroke-width="1.5" stroke-linecap="round" stroke-linejoin="round"/>
<path d="M3 14.9997V2.67593C2.99999 2.31925 3.18995 1.98957 3.49854 1.81072L4.49145 1.23524C4.80037 1.05617 5.18134 1.0554 5.49098 1.23324L6.99582 2.09759L7.00062 2.09959C7.0273 2.08389 7.9133 1.57029 8.49398 1.2337C8.80227 1.05509 9.18252 1.0549 9.49098 1.23321L10.9958 2.09757H11.0041L12.509 1.23331C12.8186 1.05547 13.1996 1.05624 13.5085 1.23531L14.9958 2.09731H15.0041L16.509 1.23295C16.8186 1.05511 17.1996 1.05588 17.5085 1.23495L18.5014 1.81044C18.81 1.98928 19 2.31892 19 2.67557V17.4997C19 18.3281 18.3284 18.9997 17.5 18.9997V18.9997C16.6716 18.9997 16 18.3281 16 17.4997V15.9997C16 15.4474 15.5523 14.9997 15 14.9997H2C1.44772 14.9997 1 15.4474 1 15.9997V16.9997C1 18.1043 1.89543 18.9997 3 18.9997H17.5" stroke="#034EA2" stroke-width="1.5" stroke-linecap="round" stroke-linejoin="round"/>
</svg>
