<svg width="24" height="24" viewBox="0 0 24 24" fill="none" xmlns="http://www.w3.org/2000/svg">
<path fill-rule="evenodd" clip-rule="evenodd" d="M6 18.999H4C3.448 18.999 3 18.551 3 17.999V14.999C3 14.447 3.448 13.999 4 13.999H6C6.552 13.999 7 14.447 7 14.999V17.999C7 18.551 6.552 18.999 6 18.999Z" stroke="#034EA2" stroke-width="1.5" stroke-linecap="round" stroke-linejoin="round"/>
<path fill-rule="evenodd" clip-rule="evenodd" d="M13 18.999H11C10.448 18.999 10 18.551 10 17.999V10.999C10 10.447 10.448 9.99902 11 9.99902H13C13.552 9.99902 14 10.447 14 10.999V17.999C14 18.551 13.552 18.999 13 18.999Z" stroke="#034EA2" stroke-width="1.5" stroke-linecap="round" stroke-linejoin="round"/>
<path fill-rule="evenodd" clip-rule="evenodd" d="M20 18.999H18C17.448 18.999 17 18.551 17 17.999V5.99902C17 5.44702 17.448 4.99902 18 4.99902H20C20.552 4.99902 21 5.44702 21 5.99902V17.999C21 18.551 20.552 18.999 20 18.999Z" stroke="#034EA2" stroke-width="1.5" stroke-linecap="round" stroke-linejoin="round"/>
</svg>
